<?xml version="1.0" encoding="UTF-8" standalone="no"?>
<!DOCTYPE svg PUBLIC "-//W3C//DTD SVG 1.1//EN"
 "http://www.w3.org/Graphics/SVG/1.1/DTD/svg11.dtd">
<!-- Generated by graphviz version 2.47.3 (20210619.1520)
 -->
<!-- Title: dependencies Pages: 1 -->
<svg width="558pt" height="247pt"
 viewBox="0.00 0.00 558.00 246.80" xmlns="http://www.w3.org/2000/svg" xmlns:xlink="http://www.w3.org/1999/xlink">
<g id="graph0" class="graph" transform="scale(1 1) rotate(0) translate(4 242.8)">
<title>dependencies</title>
<polygon fill="white" stroke="transparent" points="-4,4 -4,-242.8 554,-242.8 554,4 -4,4"/>
<text text-anchor="middle" x="275" y="-8.2" font-family="sans-serif" font-size="14.00">dependencies</text>
<g id="clust1" class="cluster">
<title>cluster_ScienceMapModule</title>
<polygon fill="none" stroke="black" stroke-dasharray="1,5" points="8,-32.8 8,-230.8 542,-230.8 542,-32.8 8,-32.8"/>
</g>
<g id="clust6" class="cluster">
<title>cluster_ScienceMapModule_exports</title>
<polygon fill="none" stroke="black" points="228,-170.8 228,-222.8 398,-222.8 398,-170.8 228,-170.8"/>
</g>
<g id="clust5" class="cluster">
<title>cluster_ScienceMapModule_imports</title>
<polygon fill="none" stroke="black" points="404,-40.8 404,-92.8 534,-92.8 534,-40.8 404,-40.8"/>
</g>
<g id="clust2" class="cluster">
<title>cluster_ScienceMapModule_declarations</title>
<polygon fill="none" stroke="black" points="16,-40.8 16,-92.8 396,-92.8 396,-40.8 16,-40.8"/>
</g>
<!-- ScienceMapComponent -->
<g id="node1" class="node">
<title>ScienceMapComponent</title>
<polygon fill="#ffffb3" stroke="black" points="388.02,-84.8 237.98,-84.8 237.98,-48.8 388.02,-48.8 388.02,-84.8"/>
<text text-anchor="middle" x="313" y="-62.6" font-family="Times,serif" font-size="14.00">ScienceMapComponent</text>
</g>
<!-- ScienceMapModule -->
<g id="node3" class="node">
<title>ScienceMapModule</title>
<polygon fill="#8dd3c7" stroke="black" points="377.24,-149.8 374.24,-153.8 353.24,-153.8 350.24,-149.8 248.76,-149.8 248.76,-113.8 377.24,-113.8 377.24,-149.8"/>
<text text-anchor="middle" x="313" y="-127.6" font-family="Times,serif" font-size="14.00">ScienceMapModule</text>
</g>
<!-- ScienceMapComponent&#45;&gt;ScienceMapModule -->
<g id="edge1" class="edge">
<title>ScienceMapComponent&#45;&gt;ScienceMapModule</title>
<path fill="none" stroke="black" d="M313,-84.91C313,-84.91 313,-103.79 313,-103.79"/>
<polygon fill="black" stroke="black" points="309.5,-103.79 313,-113.79 316.5,-103.79 309.5,-103.79"/>
</g>
<!-- ScienceMapSettingsComponent -->
<g id="node2" class="node">
<title>ScienceMapSettingsComponent</title>
<polygon fill="#ffffb3" stroke="black" points="219.64,-84.8 24.36,-84.8 24.36,-48.8 219.64,-48.8 219.64,-84.8"/>
<text text-anchor="middle" x="122" y="-62.6" font-family="Times,serif" font-size="14.00">ScienceMapSettingsComponent</text>
</g>
<!-- ScienceMapSettingsComponent&#45;&gt;ScienceMapModule -->
<g id="edge2" class="edge">
<title>ScienceMapSettingsComponent&#45;&gt;ScienceMapModule</title>
<path fill="none" stroke="black" d="M122,-84.91C122,-104.14 122,-131.8 122,-131.8 122,-131.8 238.6,-131.8 238.6,-131.8"/>
<polygon fill="black" stroke="black" points="238.6,-135.3 248.6,-131.8 238.6,-128.3 238.6,-135.3"/>
</g>
<!-- ScienceMapComponent  -->
<g id="node5" class="node">
<title>ScienceMapComponent </title>
<polygon fill="#fb8072" stroke="black" points="390.02,-214.8 235.98,-214.8 235.98,-178.8 390.02,-178.8 390.02,-214.8"/>
<text text-anchor="middle" x="313" y="-192.6" font-family="Times,serif" font-size="14.00">ScienceMapComponent </text>
</g>
<!-- ScienceMapModule&#45;&gt;ScienceMapComponent  -->
<g id="edge4" class="edge">
<title>ScienceMapModule&#45;&gt;ScienceMapComponent </title>
<path fill="none" stroke="black" stroke-dasharray="5,2" d="M313,-149.91C313,-149.91 313,-168.79 313,-168.79"/>
<polygon fill="black" stroke="black" points="309.5,-168.79 313,-178.79 316.5,-168.79 309.5,-168.79"/>
</g>
<!-- NgxVegaModule -->
<g id="node4" class="node">
<title>NgxVegaModule</title>
<polygon fill="#8dd3c7" stroke="black" points="525.69,-84.8 522.69,-88.8 501.69,-88.8 498.69,-84.8 412.31,-84.8 412.31,-48.8 525.69,-48.8 525.69,-84.8"/>
<text text-anchor="middle" x="469" y="-62.6" font-family="Times,serif" font-size="14.00">NgxVegaModule</text>
</g>
<!-- NgxVegaModule&#45;&gt;ScienceMapModule -->
<g id="edge3" class="edge">
<title>NgxVegaModule&#45;&gt;ScienceMapModule</title>
<path fill="none" stroke="black" d="M469,-84.91C469,-104.14 469,-131.8 469,-131.8 469,-131.8 387.35,-131.8 387.35,-131.8"/>
<polygon fill="black" stroke="black" points="387.35,-128.3 377.35,-131.8 387.35,-135.3 387.35,-128.3"/>
</g>
</g>
</svg>
