<?xml version="1.0" encoding="UTF-8" standalone="no"?>
<!DOCTYPE svg PUBLIC "-//W3C//DTD SVG 1.1//EN"
 "http://www.w3.org/Graphics/SVG/1.1/DTD/svg11.dtd">
<!-- Generated by graphviz version 2.47.0 (20210316.0004)
 -->
<!-- Title: dependencies Pages: 1 -->
<svg width="504pt" height="284pt"
 viewBox="0.00 0.00 504.00 284.00" xmlns="http://www.w3.org/2000/svg" xmlns:xlink="http://www.w3.org/1999/xlink">
<g id="graph0" class="graph" transform="scale(1 1) rotate(0) translate(4 280)">
<title>dependencies</title>
<polygon fill="white" stroke="transparent" points="-4,4 -4,-280 500,-280 500,4 -4,4"/>
<text text-anchor="start" x="227.01" y="-42.4" font-family="sans-serif" font-weight="bold" font-size="14.00">Legend</text>
<polygon fill="#ffffb3" stroke="transparent" points="14,-10 14,-30 34,-30 34,-10 14,-10"/>
<text text-anchor="start" x="37.63" y="-15.4" font-family="sans-serif" font-size="14.00"> &#160;Declarations</text>
<polygon fill="#8dd3c7" stroke="transparent" points="127,-10 127,-30 147,-30 147,-10 127,-10"/>
<text text-anchor="start" x="150.73" y="-15.4" font-family="sans-serif" font-size="14.00"> &#160;Module</text>
<polygon fill="#80b1d3" stroke="transparent" points="213,-10 213,-30 233,-30 233,-10 213,-10"/>
<text text-anchor="start" x="236.78" y="-15.4" font-family="sans-serif" font-size="14.00"> &#160;Bootstrap</text>
<polygon fill="#fdb462" stroke="transparent" points="310,-10 310,-30 330,-30 330,-10 310,-10"/>
<text text-anchor="start" x="333.67" y="-15.4" font-family="sans-serif" font-size="14.00"> &#160;Providers</text>
<polygon fill="#fb8072" stroke="transparent" points="406,-10 406,-30 426,-30 426,-10 406,-10"/>
<text text-anchor="start" x="429.73" y="-15.4" font-family="sans-serif" font-size="14.00"> &#160;Exports</text>
<g id="clust1" class="cluster">
<title>cluster_ScienceMapModule</title>
<polygon fill="none" stroke="black" stroke-dasharray="1,5" points="88,-70 88,-268 408,-268 408,-70 88,-70"/>
</g>
<g id="clust2" class="cluster">
<title>cluster_ScienceMapModule_declarations</title>
<polygon fill="none" stroke="black" points="234,-78 234,-130 400,-130 400,-78 234,-78"/>
</g>
<g id="clust4" class="cluster">
<title>cluster_ScienceMapModule_imports</title>
<polygon fill="none" stroke="black" points="96,-78 96,-130 226,-130 226,-78 96,-78"/>
</g>
<g id="clust5" class="cluster">
<title>cluster_ScienceMapModule_exports</title>
<polygon fill="none" stroke="black" points="163,-208 163,-260 333,-260 333,-208 163,-208"/>
</g>
<!-- ScienceMapComponent -->
<g id="node1" class="node">
<title>ScienceMapComponent</title>
<polygon fill="#ffffb3" stroke="black" points="392.02,-122 241.98,-122 241.98,-86 392.02,-86 392.02,-122"/>
<text text-anchor="middle" x="317" y="-99.8" font-family="Times,serif" font-size="14.00">ScienceMapComponent</text>
</g>
<!-- ScienceMapModule -->
<g id="node2" class="node">
<title>ScienceMapModule</title>
<polygon fill="#8dd3c7" stroke="black" points="312.24,-187 309.24,-191 288.24,-191 285.24,-187 183.76,-187 183.76,-151 312.24,-151 312.24,-187"/>
<text text-anchor="middle" x="248" y="-164.8" font-family="Times,serif" font-size="14.00">ScienceMapModule</text>
</g>
<!-- ScienceMapComponent&#45;&gt;ScienceMapModule -->
<g id="edge1" class="edge">
<title>ScienceMapComponent&#45;&gt;ScienceMapModule</title>
<path fill="none" stroke="black" d="M277.05,-122.11C277.05,-122.11 277.05,-140.99 277.05,-140.99"/>
<polygon fill="black" stroke="black" points="273.55,-140.99 277.05,-150.99 280.55,-140.99 273.55,-140.99"/>
</g>
<!-- ScienceMapComponent  -->
<g id="node4" class="node">
<title>ScienceMapComponent </title>
<polygon fill="#fb8072" stroke="black" points="325.02,-252 170.98,-252 170.98,-216 325.02,-216 325.02,-252"/>
<text text-anchor="middle" x="248" y="-229.8" font-family="Times,serif" font-size="14.00">ScienceMapComponent </text>
</g>
<!-- ScienceMapModule&#45;&gt;ScienceMapComponent  -->
<g id="edge3" class="edge">
<title>ScienceMapModule&#45;&gt;ScienceMapComponent </title>
<path fill="none" stroke="black" stroke-dasharray="5,2" d="M248,-187.11C248,-187.11 248,-205.99 248,-205.99"/>
<polygon fill="black" stroke="black" points="244.5,-205.99 248,-215.99 251.5,-205.99 244.5,-205.99"/>
</g>
<!-- NgxVegaModule -->
<g id="node3" class="node">
<title>NgxVegaModule</title>
<polygon fill="#8dd3c7" stroke="black" points="217.69,-122 214.69,-126 193.69,-126 190.69,-122 104.31,-122 104.31,-86 217.69,-86 217.69,-122"/>
<text text-anchor="middle" x="161" y="-99.8" font-family="Times,serif" font-size="14.00">NgxVegaModule</text>
</g>
<!-- NgxVegaModule&#45;&gt;ScienceMapModule -->
<g id="edge2" class="edge">
<title>NgxVegaModule&#45;&gt;ScienceMapModule</title>
<path fill="none" stroke="black" d="M200.61,-122.11C200.61,-122.11 200.61,-140.99 200.61,-140.99"/>
<polygon fill="black" stroke="black" points="197.11,-140.99 200.61,-150.99 204.11,-140.99 197.11,-140.99"/>
</g>
</g>
</svg>
