<?xml version="1.0" encoding="UTF-8" standalone="no"?>
<!DOCTYPE svg PUBLIC "-//W3C//DTD SVG 1.1//EN"
 "http://www.w3.org/Graphics/SVG/1.1/DTD/svg11.dtd">
<!-- Generated by graphviz version 2.47.0 (20210316.0004)
 -->
<!-- Title: dependencies Pages: 1 -->
<svg width="1621pt" height="211pt"
 viewBox="0.00 0.00 1621.00 211.00" xmlns="http://www.w3.org/2000/svg" xmlns:xlink="http://www.w3.org/1999/xlink">
<g id="graph0" class="graph" transform="scale(1 1) rotate(0) translate(4 207)">
<title>dependencies</title>
<polygon fill="white" stroke="transparent" points="-4,4 -4,-207 1617,-207 1617,4 -4,4"/>
<text text-anchor="start" x="785.51" y="-42.4" font-family="sans-serif" font-weight="bold" font-size="14.00">Legend</text>
<polygon fill="#ffffb3" stroke="transparent" points="572.5,-10 572.5,-30 592.5,-30 592.5,-10 572.5,-10"/>
<text text-anchor="start" x="596.13" y="-15.4" font-family="sans-serif" font-size="14.00"> &#160;Declarations</text>
<polygon fill="#8dd3c7" stroke="transparent" points="685.5,-10 685.5,-30 705.5,-30 705.5,-10 685.5,-10"/>
<text text-anchor="start" x="709.23" y="-15.4" font-family="sans-serif" font-size="14.00"> &#160;Module</text>
<polygon fill="#80b1d3" stroke="transparent" points="771.5,-10 771.5,-30 791.5,-30 791.5,-10 771.5,-10"/>
<text text-anchor="start" x="795.28" y="-15.4" font-family="sans-serif" font-size="14.00"> &#160;Bootstrap</text>
<polygon fill="#fdb462" stroke="transparent" points="868.5,-10 868.5,-30 888.5,-30 888.5,-10 868.5,-10"/>
<text text-anchor="start" x="892.17" y="-15.4" font-family="sans-serif" font-size="14.00"> &#160;Providers</text>
<polygon fill="#fb8072" stroke="transparent" points="964.5,-10 964.5,-30 984.5,-30 984.5,-10 964.5,-10"/>
<text text-anchor="start" x="988.23" y="-15.4" font-family="sans-serif" font-size="14.00"> &#160;Exports</text>
<g id="clust1" class="cluster">
<title>cluster_MavSelectionModule</title>
<polygon fill="none" stroke="black" stroke-dasharray="1,5" points="8,-70 8,-195 1605,-195 1605,-70 8,-70"/>
</g>
<g id="clust2" class="cluster">
<title>cluster_MavSelectionModule_declarations</title>
<polygon fill="none" stroke="black" points="318,-78 318,-130 1597,-130 1597,-78 318,-78"/>
</g>
<g id="clust9" class="cluster">
<title>cluster_MavSelectionModule_imports</title>
<polygon fill="none" stroke="black" points="16,-78 16,-130 310,-130 310,-78 16,-78"/>
</g>
<!-- GraphicSymbolTypeComponent -->
<g id="node1" class="node">
<title>GraphicSymbolTypeComponent</title>
<polygon fill="#ffffb3" stroke="black" points="1589.25,-122 1390.75,-122 1390.75,-86 1589.25,-86 1589.25,-122"/>
<text text-anchor="middle" x="1490" y="-99.8" font-family="Times,serif" font-size="14.00">GraphicSymbolTypeComponent</text>
</g>
<!-- MavSelectionModule -->
<g id="node7" class="node">
<title>MavSelectionModule</title>
<polygon fill="#8dd3c7" stroke="black" points="809.81,-187 806.81,-191 785.81,-191 782.81,-187 672.19,-187 672.19,-151 809.81,-151 809.81,-187"/>
<text text-anchor="middle" x="741" y="-164.8" font-family="Times,serif" font-size="14.00">MavSelectionModule</text>
</g>
<!-- GraphicSymbolTypeComponent&#45;&gt;MavSelectionModule -->
<g id="edge1" class="edge">
<title>GraphicSymbolTypeComponent&#45;&gt;MavSelectionModule</title>
<path fill="none" stroke="black" d="M1490,-122.29C1490,-144.21 1490,-178 1490,-178 1490,-178 819.79,-178 819.79,-178"/>
<polygon fill="black" stroke="black" points="819.79,-174.5 809.79,-178 819.79,-181.5 819.79,-174.5"/>
</g>
<!-- GraphicVariableIconComponent -->
<g id="node2" class="node">
<title>GraphicVariableIconComponent</title>
<polygon fill="#ffffb3" stroke="black" points="1372.99,-122 1173.01,-122 1173.01,-86 1372.99,-86 1372.99,-122"/>
<text text-anchor="middle" x="1273" y="-99.8" font-family="Times,serif" font-size="14.00">GraphicVariableIconComponent</text>
</g>
<!-- GraphicVariableIconComponent&#45;&gt;MavSelectionModule -->
<g id="edge2" class="edge">
<title>GraphicVariableIconComponent&#45;&gt;MavSelectionModule</title>
<path fill="none" stroke="black" d="M1273,-122.11C1273,-141.34 1273,-169 1273,-169 1273,-169 819.73,-169 819.73,-169"/>
<polygon fill="black" stroke="black" points="819.73,-165.5 809.73,-169 819.73,-172.5 819.73,-165.5"/>
</g>
<!-- GraphicVariableTypeComponent -->
<g id="node3" class="node">
<title>GraphicVariableTypeComponent</title>
<polygon fill="#ffffb3" stroke="black" points="1155.88,-122 952.12,-122 952.12,-86 1155.88,-86 1155.88,-122"/>
<text text-anchor="middle" x="1054" y="-99.8" font-family="Times,serif" font-size="14.00">GraphicVariableTypeComponent</text>
</g>
<!-- GraphicVariableTypeComponent&#45;&gt;MavSelectionModule -->
<g id="edge3" class="edge">
<title>GraphicVariableTypeComponent&#45;&gt;MavSelectionModule</title>
<path fill="none" stroke="black" d="M1054,-122.03C1054,-138.4 1054,-160 1054,-160 1054,-160 819.69,-160 819.69,-160"/>
<polygon fill="black" stroke="black" points="819.69,-156.5 809.69,-160 819.69,-163.5 819.69,-156.5"/>
</g>
<!-- ScienceMapIconComponent -->
<g id="node4" class="node">
<title>ScienceMapIconComponent</title>
<polygon fill="#ffffb3" stroke="black" points="934.9,-122 759.1,-122 759.1,-86 934.9,-86 934.9,-122"/>
<text text-anchor="middle" x="847" y="-99.8" font-family="Times,serif" font-size="14.00">ScienceMapIconComponent</text>
</g>
<!-- ScienceMapIconComponent&#45;&gt;MavSelectionModule -->
<g id="edge4" class="edge">
<title>ScienceMapIconComponent&#45;&gt;MavSelectionModule</title>
<path fill="none" stroke="black" d="M784.48,-122.11C784.48,-122.11 784.48,-140.99 784.48,-140.99"/>
<polygon fill="black" stroke="black" points="780.98,-140.99 784.48,-150.99 787.98,-140.99 780.98,-140.99"/>
</g>
<!-- TemporalBargraphIconComponent -->
<g id="node5" class="node">
<title>TemporalBargraphIconComponent</title>
<polygon fill="#ffffb3" stroke="black" points="741.22,-122 528.78,-122 528.78,-86 741.22,-86 741.22,-122"/>
<text text-anchor="middle" x="635" y="-99.8" font-family="Times,serif" font-size="14.00">TemporalBargraphIconComponent</text>
</g>
<!-- TemporalBargraphIconComponent&#45;&gt;MavSelectionModule -->
<g id="edge5" class="edge">
<title>TemporalBargraphIconComponent&#45;&gt;MavSelectionModule</title>
<path fill="none" stroke="black" d="M706.85,-122.11C706.85,-122.11 706.85,-140.99 706.85,-140.99"/>
<polygon fill="black" stroke="black" points="703.35,-140.99 706.85,-150.99 710.35,-140.99 703.35,-140.99"/>
</g>
<!-- VisualizationTypeComponent -->
<g id="node6" class="node">
<title>VisualizationTypeComponent</title>
<polygon fill="#ffffb3" stroke="black" points="510.25,-122 325.75,-122 325.75,-86 510.25,-86 510.25,-122"/>
<text text-anchor="middle" x="418" y="-99.8" font-family="Times,serif" font-size="14.00">VisualizationTypeComponent</text>
</g>
<!-- VisualizationTypeComponent&#45;&gt;MavSelectionModule -->
<g id="edge6" class="edge">
<title>VisualizationTypeComponent&#45;&gt;MavSelectionModule</title>
<path fill="none" stroke="black" d="M418,-122.03C418,-138.4 418,-160 418,-160 418,-160 662.1,-160 662.1,-160"/>
<polygon fill="black" stroke="black" points="662.1,-163.5 672.1,-160 662.1,-156.5 662.1,-163.5"/>
</g>
<!-- DragDropModule -->
<g id="node8" class="node">
<title>DragDropModule</title>
<polygon fill="#8dd3c7" stroke="black" points="302.3,-122 299.3,-126 278.3,-126 275.3,-122 185.7,-122 185.7,-86 302.3,-86 302.3,-122"/>
<text text-anchor="middle" x="244" y="-99.8" font-family="Times,serif" font-size="14.00">DragDropModule</text>
</g>
<!-- DragDropModule&#45;&gt;MavSelectionModule -->
<g id="edge7" class="edge">
<title>DragDropModule&#45;&gt;MavSelectionModule</title>
<path fill="none" stroke="black" d="M244,-122.11C244,-141.34 244,-169 244,-169 244,-169 662.16,-169 662.16,-169"/>
<polygon fill="black" stroke="black" points="662.16,-172.5 672.16,-169 662.16,-165.5 662.16,-172.5"/>
</g>
<!-- DvlFwAngularModule -->
<g id="node9" class="node">
<title>DvlFwAngularModule</title>
<polygon fill="#8dd3c7" stroke="black" points="168.31,-122 165.31,-126 144.31,-126 141.31,-122 23.69,-122 23.69,-86 168.31,-86 168.31,-122"/>
<text text-anchor="middle" x="96" y="-99.8" font-family="Times,serif" font-size="14.00">DvlFwAngularModule</text>
</g>
<!-- DvlFwAngularModule&#45;&gt;MavSelectionModule -->
<g id="edge8" class="edge">
<title>DvlFwAngularModule&#45;&gt;MavSelectionModule</title>
<path fill="none" stroke="black" d="M96,-122.29C96,-144.21 96,-178 96,-178 96,-178 662.28,-178 662.28,-178"/>
<polygon fill="black" stroke="black" points="662.28,-181.5 672.28,-178 662.28,-174.5 662.28,-181.5"/>
</g>
</g>
</svg>
