<?xml version="1.0" encoding="UTF-8" standalone="no"?>
<!DOCTYPE svg PUBLIC "-//W3C//DTD SVG 1.1//EN"
 "http://www.w3.org/Graphics/SVG/1.1/DTD/svg11.dtd">
<!-- Generated by graphviz version 2.47.0 (20210316.0004)
 -->
<!-- Title: dependencies Pages: 1 -->
<svg width="1621pt" height="211pt"
 viewBox="0.00 0.00 1621.00 211.00" xmlns="http://www.w3.org/2000/svg" xmlns:xlink="http://www.w3.org/1999/xlink">
<g id="graph0" class="graph" transform="scale(1 1) rotate(0) translate(4 207)">
<title>dependencies</title>
<polygon fill="white" stroke="transparent" points="-4,4 -4,-207 1617,-207 1617,4 -4,4"/>
<text text-anchor="start" x="785.51" y="-42.4" font-family="sans-serif" font-weight="bold" font-size="14.00">Legend</text>
<polygon fill="#ffffb3" stroke="transparent" points="572.5,-10 572.5,-30 592.5,-30 592.5,-10 572.5,-10"/>
<text text-anchor="start" x="596.13" y="-15.4" font-family="sans-serif" font-size="14.00"> &#160;Declarations</text>
<polygon fill="#8dd3c7" stroke="transparent" points="685.5,-10 685.5,-30 705.5,-30 705.5,-10 685.5,-10"/>
<text text-anchor="start" x="709.23" y="-15.4" font-family="sans-serif" font-size="14.00"> &#160;Module</text>
<polygon fill="#80b1d3" stroke="transparent" points="771.5,-10 771.5,-30 791.5,-30 791.5,-10 771.5,-10"/>
<text text-anchor="start" x="795.28" y="-15.4" font-family="sans-serif" font-size="14.00"> &#160;Bootstrap</text>
<polygon fill="#fdb462" stroke="transparent" points="868.5,-10 868.5,-30 888.5,-30 888.5,-10 868.5,-10"/>
<text text-anchor="start" x="892.17" y="-15.4" font-family="sans-serif" font-size="14.00"> &#160;Providers</text>
<polygon fill="#fb8072" stroke="transparent" points="964.5,-10 964.5,-30 984.5,-30 984.5,-10 964.5,-10"/>
<text text-anchor="start" x="988.23" y="-15.4" font-family="sans-serif" font-size="14.00"> &#160;Exports</text>
<g id="clust1" class="cluster">
<title>cluster_MavSelectionModule</title>
<polygon fill="none" stroke="black" stroke-dasharray="1,5" points="8,-70 8,-195 1605,-195 1605,-70 8,-70"/>
</g>
<g id="clust9" class="cluster">
<title>cluster_MavSelectionModule_imports</title>
<polygon fill="none" stroke="black" points="1303,-78 1303,-130 1597,-130 1597,-78 1303,-78"/>
</g>
<g id="clust2" class="cluster">
<title>cluster_MavSelectionModule_declarations</title>
<polygon fill="none" stroke="black" points="16,-78 16,-130 1295,-130 1295,-78 16,-78"/>
</g>
<!-- GraphicSymbolTypeComponent -->
<g id="node1" class="node">
<title>GraphicSymbolTypeComponent</title>
<polygon fill="#ffffb3" stroke="black" points="1287.25,-122 1088.75,-122 1088.75,-86 1287.25,-86 1287.25,-122"/>
<text text-anchor="middle" x="1188" y="-99.8" font-family="Times,serif" font-size="14.00">GraphicSymbolTypeComponent</text>
</g>
<!-- MavSelectionModule -->
<g id="node7" class="node">
<title>MavSelectionModule</title>
<polygon fill="#8dd3c7" stroke="black" points="929.81,-187 926.81,-191 905.81,-191 902.81,-187 792.19,-187 792.19,-151 929.81,-151 929.81,-187"/>
<text text-anchor="middle" x="861" y="-164.8" font-family="Times,serif" font-size="14.00">MavSelectionModule</text>
</g>
<!-- GraphicSymbolTypeComponent&#45;&gt;MavSelectionModule -->
<g id="edge1" class="edge">
<title>GraphicSymbolTypeComponent&#45;&gt;MavSelectionModule</title>
<path fill="none" stroke="black" d="M1188,-122.03C1188,-138.4 1188,-160 1188,-160 1188,-160 939.95,-160 939.95,-160"/>
<polygon fill="black" stroke="black" points="939.95,-156.5 929.95,-160 939.95,-163.5 939.95,-156.5"/>
</g>
<!-- GraphicVariableIconComponent -->
<g id="node2" class="node">
<title>GraphicVariableIconComponent</title>
<polygon fill="#ffffb3" stroke="black" points="1070.99,-122 871.01,-122 871.01,-86 1070.99,-86 1070.99,-122"/>
<text text-anchor="middle" x="971" y="-99.8" font-family="Times,serif" font-size="14.00">GraphicVariableIconComponent</text>
</g>
<!-- GraphicVariableIconComponent&#45;&gt;MavSelectionModule -->
<g id="edge2" class="edge">
<title>GraphicVariableIconComponent&#45;&gt;MavSelectionModule</title>
<path fill="none" stroke="black" d="M900.46,-122.11C900.46,-122.11 900.46,-140.99 900.46,-140.99"/>
<polygon fill="black" stroke="black" points="896.96,-140.99 900.46,-150.99 903.96,-140.99 896.96,-140.99"/>
</g>
<!-- GraphicVariableTypeComponent -->
<g id="node3" class="node">
<title>GraphicVariableTypeComponent</title>
<polygon fill="#ffffb3" stroke="black" points="853.88,-122 650.12,-122 650.12,-86 853.88,-86 853.88,-122"/>
<text text-anchor="middle" x="752" y="-99.8" font-family="Times,serif" font-size="14.00">GraphicVariableTypeComponent</text>
</g>
<!-- GraphicVariableTypeComponent&#45;&gt;MavSelectionModule -->
<g id="edge3" class="edge">
<title>GraphicVariableTypeComponent&#45;&gt;MavSelectionModule</title>
<path fill="none" stroke="black" d="M823.02,-122.11C823.02,-122.11 823.02,-140.99 823.02,-140.99"/>
<polygon fill="black" stroke="black" points="819.52,-140.99 823.02,-150.99 826.52,-140.99 819.52,-140.99"/>
</g>
<!-- ScienceMapIconComponent -->
<g id="node4" class="node">
<title>ScienceMapIconComponent</title>
<polygon fill="#ffffb3" stroke="black" points="632.9,-122 457.1,-122 457.1,-86 632.9,-86 632.9,-122"/>
<text text-anchor="middle" x="545" y="-99.8" font-family="Times,serif" font-size="14.00">ScienceMapIconComponent</text>
</g>
<!-- ScienceMapIconComponent&#45;&gt;MavSelectionModule -->
<g id="edge4" class="edge">
<title>ScienceMapIconComponent&#45;&gt;MavSelectionModule</title>
<path fill="none" stroke="black" d="M545,-122.03C545,-138.4 545,-160 545,-160 545,-160 782.04,-160 782.04,-160"/>
<polygon fill="black" stroke="black" points="782.04,-163.5 792.04,-160 782.04,-156.5 782.04,-163.5"/>
</g>
<!-- TemporalBargraphIconComponent -->
<g id="node5" class="node">
<title>TemporalBargraphIconComponent</title>
<polygon fill="#ffffb3" stroke="black" points="439.22,-122 226.78,-122 226.78,-86 439.22,-86 439.22,-122"/>
<text text-anchor="middle" x="333" y="-99.8" font-family="Times,serif" font-size="14.00">TemporalBargraphIconComponent</text>
</g>
<!-- TemporalBargraphIconComponent&#45;&gt;MavSelectionModule -->
<g id="edge5" class="edge">
<title>TemporalBargraphIconComponent&#45;&gt;MavSelectionModule</title>
<path fill="none" stroke="black" d="M333,-122.11C333,-141.34 333,-169 333,-169 333,-169 782.24,-169 782.24,-169"/>
<polygon fill="black" stroke="black" points="782.24,-172.5 792.24,-169 782.24,-165.5 782.24,-172.5"/>
</g>
<!-- VisualizationTypeComponent -->
<g id="node6" class="node">
<title>VisualizationTypeComponent</title>
<polygon fill="#ffffb3" stroke="black" points="208.25,-122 23.75,-122 23.75,-86 208.25,-86 208.25,-122"/>
<text text-anchor="middle" x="116" y="-99.8" font-family="Times,serif" font-size="14.00">VisualizationTypeComponent</text>
</g>
<!-- VisualizationTypeComponent&#45;&gt;MavSelectionModule -->
<g id="edge6" class="edge">
<title>VisualizationTypeComponent&#45;&gt;MavSelectionModule</title>
<path fill="none" stroke="black" d="M116,-122.29C116,-144.21 116,-178 116,-178 116,-178 782.25,-178 782.25,-178"/>
<polygon fill="black" stroke="black" points="782.25,-181.5 792.25,-178 782.25,-174.5 782.25,-181.5"/>
</g>
<!-- DragDropModule -->
<g id="node8" class="node">
<title>DragDropModule</title>
<polygon fill="#8dd3c7" stroke="black" points="1589.3,-122 1586.3,-126 1565.3,-126 1562.3,-122 1472.7,-122 1472.7,-86 1589.3,-86 1589.3,-122"/>
<text text-anchor="middle" x="1531" y="-99.8" font-family="Times,serif" font-size="14.00">DragDropModule</text>
</g>
<!-- DragDropModule&#45;&gt;MavSelectionModule -->
<g id="edge7" class="edge">
<title>DragDropModule&#45;&gt;MavSelectionModule</title>
<path fill="none" stroke="black" d="M1531,-122.29C1531,-144.21 1531,-178 1531,-178 1531,-178 939.87,-178 939.87,-178"/>
<polygon fill="black" stroke="black" points="939.87,-174.5 929.87,-178 939.87,-181.5 939.87,-174.5"/>
</g>
<!-- DvlFwAngularModule -->
<g id="node9" class="node">
<title>DvlFwAngularModule</title>
<polygon fill="#8dd3c7" stroke="black" points="1455.31,-122 1452.31,-126 1431.31,-126 1428.31,-122 1310.69,-122 1310.69,-86 1455.31,-86 1455.31,-122"/>
<text text-anchor="middle" x="1383" y="-99.8" font-family="Times,serif" font-size="14.00">DvlFwAngularModule</text>
</g>
<!-- DvlFwAngularModule&#45;&gt;MavSelectionModule -->
<g id="edge8" class="edge">
<title>DvlFwAngularModule&#45;&gt;MavSelectionModule</title>
<path fill="none" stroke="black" d="M1383,-122.11C1383,-141.34 1383,-169 1383,-169 1383,-169 939.78,-169 939.78,-169"/>
<polygon fill="black" stroke="black" points="939.78,-165.5 929.78,-169 939.78,-172.5 939.78,-165.5"/>
</g>
</g>
</svg>
