<?xml version="1.0" encoding="UTF-8" standalone="no"?>
<!DOCTYPE svg PUBLIC "-//W3C//DTD SVG 1.1//EN"
 "http://www.w3.org/Graphics/SVG/1.1/DTD/svg11.dtd">
<!-- Generated by graphviz version 2.47.3 (20210619.1520)
 -->
<!-- Title: dependencies Pages: 1 -->
<svg width="1621pt" height="174pt"
 viewBox="0.00 0.00 1621.00 173.80" xmlns="http://www.w3.org/2000/svg" xmlns:xlink="http://www.w3.org/1999/xlink">
<g id="graph0" class="graph" transform="scale(1 1) rotate(0) translate(4 169.8)">
<title>dependencies</title>
<polygon fill="white" stroke="transparent" points="-4,4 -4,-169.8 1617,-169.8 1617,4 -4,4"/>
<text text-anchor="middle" x="806.5" y="-8.2" font-family="sans-serif" font-size="14.00">dependencies</text>
<g id="clust1" class="cluster">
<title>cluster_MavSelectionModule</title>
<polygon fill="none" stroke="black" stroke-dasharray="1,5" points="8,-32.8 8,-157.8 1605,-157.8 1605,-32.8 8,-32.8"/>
</g>
<g id="clust2" class="cluster">
<title>cluster_MavSelectionModule_declarations</title>
<polygon fill="none" stroke="black" points="318,-40.8 318,-92.8 1597,-92.8 1597,-40.8 318,-40.8"/>
</g>
<g id="clust9" class="cluster">
<title>cluster_MavSelectionModule_imports</title>
<polygon fill="none" stroke="black" points="16,-40.8 16,-92.8 310,-92.8 310,-40.8 16,-40.8"/>
</g>
<!-- GraphicSymbolTypeComponent -->
<g id="node1" class="node">
<title>GraphicSymbolTypeComponent</title>
<polygon fill="#ffffb3" stroke="black" points="1589.25,-84.8 1390.75,-84.8 1390.75,-48.8 1589.25,-48.8 1589.25,-84.8"/>
<text text-anchor="middle" x="1490" y="-62.6" font-family="Times,serif" font-size="14.00">GraphicSymbolTypeComponent</text>
</g>
<!-- MavSelectionModule -->
<g id="node7" class="node">
<title>MavSelectionModule</title>
<polygon fill="#8dd3c7" stroke="black" points="809.81,-149.8 806.81,-153.8 785.81,-153.8 782.81,-149.8 672.19,-149.8 672.19,-113.8 809.81,-113.8 809.81,-149.8"/>
<text text-anchor="middle" x="741" y="-127.6" font-family="Times,serif" font-size="14.00">MavSelectionModule</text>
</g>
<!-- GraphicSymbolTypeComponent&#45;&gt;MavSelectionModule -->
<g id="edge1" class="edge">
<title>GraphicSymbolTypeComponent&#45;&gt;MavSelectionModule</title>
<path fill="none" stroke="black" d="M1490,-85.09C1490,-107.01 1490,-140.8 1490,-140.8 1490,-140.8 819.79,-140.8 819.79,-140.8"/>
<polygon fill="black" stroke="black" points="819.79,-137.3 809.79,-140.8 819.79,-144.3 819.79,-137.3"/>
</g>
<!-- GraphicVariableIconComponent -->
<g id="node2" class="node">
<title>GraphicVariableIconComponent</title>
<polygon fill="#ffffb3" stroke="black" points="1372.99,-84.8 1173.01,-84.8 1173.01,-48.8 1372.99,-48.8 1372.99,-84.8"/>
<text text-anchor="middle" x="1273" y="-62.6" font-family="Times,serif" font-size="14.00">GraphicVariableIconComponent</text>
</g>
<!-- GraphicVariableIconComponent&#45;&gt;MavSelectionModule -->
<g id="edge2" class="edge">
<title>GraphicVariableIconComponent&#45;&gt;MavSelectionModule</title>
<path fill="none" stroke="black" d="M1273,-84.91C1273,-104.14 1273,-131.8 1273,-131.8 1273,-131.8 819.73,-131.8 819.73,-131.8"/>
<polygon fill="black" stroke="black" points="819.73,-128.3 809.73,-131.8 819.73,-135.3 819.73,-128.3"/>
</g>
<!-- GraphicVariableTypeComponent -->
<g id="node3" class="node">
<title>GraphicVariableTypeComponent</title>
<polygon fill="#ffffb3" stroke="black" points="1155.88,-84.8 952.12,-84.8 952.12,-48.8 1155.88,-48.8 1155.88,-84.8"/>
<text text-anchor="middle" x="1054" y="-62.6" font-family="Times,serif" font-size="14.00">GraphicVariableTypeComponent</text>
</g>
<!-- GraphicVariableTypeComponent&#45;&gt;MavSelectionModule -->
<g id="edge3" class="edge">
<title>GraphicVariableTypeComponent&#45;&gt;MavSelectionModule</title>
<path fill="none" stroke="black" d="M1054,-84.83C1054,-101.2 1054,-122.8 1054,-122.8 1054,-122.8 819.69,-122.8 819.69,-122.8"/>
<polygon fill="black" stroke="black" points="819.69,-119.3 809.69,-122.8 819.69,-126.3 819.69,-119.3"/>
</g>
<!-- ScienceMapIconComponent -->
<g id="node4" class="node">
<title>ScienceMapIconComponent</title>
<polygon fill="#ffffb3" stroke="black" points="934.9,-84.8 759.1,-84.8 759.1,-48.8 934.9,-48.8 934.9,-84.8"/>
<text text-anchor="middle" x="847" y="-62.6" font-family="Times,serif" font-size="14.00">ScienceMapIconComponent</text>
</g>
<!-- ScienceMapIconComponent&#45;&gt;MavSelectionModule -->
<g id="edge4" class="edge">
<title>ScienceMapIconComponent&#45;&gt;MavSelectionModule</title>
<path fill="none" stroke="black" d="M784.48,-84.91C784.48,-84.91 784.48,-103.79 784.48,-103.79"/>
<polygon fill="black" stroke="black" points="780.98,-103.79 784.48,-113.79 787.98,-103.79 780.98,-103.79"/>
</g>
<!-- TemporalBargraphIconComponent -->
<g id="node5" class="node">
<title>TemporalBargraphIconComponent</title>
<polygon fill="#ffffb3" stroke="black" points="741.22,-84.8 528.78,-84.8 528.78,-48.8 741.22,-48.8 741.22,-84.8"/>
<text text-anchor="middle" x="635" y="-62.6" font-family="Times,serif" font-size="14.00">TemporalBargraphIconComponent</text>
</g>
<!-- TemporalBargraphIconComponent&#45;&gt;MavSelectionModule -->
<g id="edge5" class="edge">
<title>TemporalBargraphIconComponent&#45;&gt;MavSelectionModule</title>
<path fill="none" stroke="black" d="M706.85,-84.91C706.85,-84.91 706.85,-103.79 706.85,-103.79"/>
<polygon fill="black" stroke="black" points="703.35,-103.79 706.85,-113.79 710.35,-103.79 703.35,-103.79"/>
</g>
<!-- VisualizationTypeComponent -->
<g id="node6" class="node">
<title>VisualizationTypeComponent</title>
<polygon fill="#ffffb3" stroke="black" points="510.25,-84.8 325.75,-84.8 325.75,-48.8 510.25,-48.8 510.25,-84.8"/>
<text text-anchor="middle" x="418" y="-62.6" font-family="Times,serif" font-size="14.00">VisualizationTypeComponent</text>
</g>
<!-- VisualizationTypeComponent&#45;&gt;MavSelectionModule -->
<g id="edge6" class="edge">
<title>VisualizationTypeComponent&#45;&gt;MavSelectionModule</title>
<path fill="none" stroke="black" d="M418,-84.83C418,-101.2 418,-122.8 418,-122.8 418,-122.8 662.1,-122.8 662.1,-122.8"/>
<polygon fill="black" stroke="black" points="662.1,-126.3 672.1,-122.8 662.1,-119.3 662.1,-126.3"/>
</g>
<!-- DragDropModule -->
<g id="node8" class="node">
<title>DragDropModule</title>
<polygon fill="#8dd3c7" stroke="black" points="302.3,-84.8 299.3,-88.8 278.3,-88.8 275.3,-84.8 185.7,-84.8 185.7,-48.8 302.3,-48.8 302.3,-84.8"/>
<text text-anchor="middle" x="244" y="-62.6" font-family="Times,serif" font-size="14.00">DragDropModule</text>
</g>
<!-- DragDropModule&#45;&gt;MavSelectionModule -->
<g id="edge7" class="edge">
<title>DragDropModule&#45;&gt;MavSelectionModule</title>
<path fill="none" stroke="black" d="M244,-84.91C244,-104.14 244,-131.8 244,-131.8 244,-131.8 662.16,-131.8 662.16,-131.8"/>
<polygon fill="black" stroke="black" points="662.16,-135.3 672.16,-131.8 662.16,-128.3 662.16,-135.3"/>
</g>
<!-- DvlFwAngularModule -->
<g id="node9" class="node">
<title>DvlFwAngularModule</title>
<polygon fill="#8dd3c7" stroke="black" points="168.31,-84.8 165.31,-88.8 144.31,-88.8 141.31,-84.8 23.69,-84.8 23.69,-48.8 168.31,-48.8 168.31,-84.8"/>
<text text-anchor="middle" x="96" y="-62.6" font-family="Times,serif" font-size="14.00">DvlFwAngularModule</text>
</g>
<!-- DvlFwAngularModule&#45;&gt;MavSelectionModule -->
<g id="edge8" class="edge">
<title>DvlFwAngularModule&#45;&gt;MavSelectionModule</title>
<path fill="none" stroke="black" d="M96,-85.09C96,-107.01 96,-140.8 96,-140.8 96,-140.8 662.28,-140.8 662.28,-140.8"/>
<polygon fill="black" stroke="black" points="662.28,-144.3 672.28,-140.8 662.28,-137.3 662.28,-144.3"/>
</g>
</g>
</svg>
