<?xml version="1.0" encoding="UTF-8" standalone="no"?>
<!DOCTYPE svg PUBLIC "-//W3C//DTD SVG 1.1//EN"
 "http://www.w3.org/Graphics/SVG/1.1/DTD/svg11.dtd">
<!-- Generated by graphviz version 2.40.1 (20161225.0304)
 -->
<!-- Title: dependencies Pages: 1 -->
<svg width="1751pt" height="211pt"
 viewBox="0.00 0.00 1751.00 211.00" xmlns="http://www.w3.org/2000/svg" xmlns:xlink="http://www.w3.org/1999/xlink">
<g id="graph0" class="graph" transform="scale(1 1) rotate(0) translate(4 207)">
<title>dependencies</title>
<polygon fill="#ffffff" stroke="transparent" points="-4,4 -4,-207 1747,-207 1747,4 -4,4"/>
<text text-anchor="start" x="850.5091" y="-42.4" font-family="sans-serif" font-weight="bold" font-size="14.00" fill="#000000">Legend</text>
<polygon fill="#ffffb3" stroke="transparent" points="637.5,-10 637.5,-30 657.5,-30 657.5,-10 637.5,-10"/>
<text text-anchor="start" x="661.129" y="-15.4" font-family="sans-serif" font-size="14.00" fill="#000000"> &#160;Declarations</text>
<polygon fill="#8dd3c7" stroke="transparent" points="750.5,-10 750.5,-30 770.5,-30 770.5,-10 750.5,-10"/>
<text text-anchor="start" x="774.2251" y="-15.4" font-family="sans-serif" font-size="14.00" fill="#000000"> &#160;Module</text>
<polygon fill="#80b1d3" stroke="transparent" points="836.5,-10 836.5,-30 856.5,-30 856.5,-10 836.5,-10"/>
<text text-anchor="start" x="860.2812" y="-15.4" font-family="sans-serif" font-size="14.00" fill="#000000"> &#160;Bootstrap</text>
<polygon fill="#fdb462" stroke="transparent" points="933.5,-10 933.5,-30 953.5,-30 953.5,-10 933.5,-10"/>
<text text-anchor="start" x="957.1732" y="-15.4" font-family="sans-serif" font-size="14.00" fill="#000000"> &#160;Providers</text>
<polygon fill="#fb8072" stroke="transparent" points="1029.5,-10 1029.5,-30 1049.5,-30 1049.5,-10 1029.5,-10"/>
<text text-anchor="start" x="1053.2258" y="-15.4" font-family="sans-serif" font-size="14.00" fill="#000000"> &#160;Exports</text>
<g id="clust1" class="cluster">
<title>cluster_MavSelectionModule</title>
<polygon fill="none" stroke="#000000" stroke-dasharray="1,5" points="8,-70 8,-195 1735,-195 1735,-70 8,-70"/>
</g>
<g id="clust2" class="cluster">
<title>cluster_MavSelectionModule_declarations</title>
<polygon fill="none" stroke="#000000" points="448,-78 448,-130 1727,-130 1727,-78 448,-78"/>
</g>
<g id="clust9" class="cluster">
<title>cluster_MavSelectionModule_imports</title>
<polygon fill="none" stroke="#000000" points="16,-78 16,-130 440,-130 440,-78 16,-78"/>
</g>
<!-- GraphicSymbolTypeComponent -->
<g id="node1" class="node">
<title>GraphicSymbolTypeComponent</title>
<polygon fill="#ffffb3" stroke="#000000" points="1719.2506,-122 1520.7494,-122 1520.7494,-86 1719.2506,-86 1719.2506,-122"/>
<text text-anchor="middle" x="1620" y="-99.8" font-family="Times,serif" font-size="14.00" fill="#000000">GraphicSymbolTypeComponent</text>
</g>
<!-- MavSelectionModule -->
<g id="node7" class="node">
<title>MavSelectionModule</title>
<polygon fill="#8dd3c7" stroke="#000000" points="833.8075,-187 830.8075,-191 809.8075,-191 806.8075,-187 696.1925,-187 696.1925,-151 833.8075,-151 833.8075,-187"/>
<text text-anchor="middle" x="765" y="-164.8" font-family="Times,serif" font-size="14.00" fill="#000000">MavSelectionModule</text>
</g>
<!-- GraphicSymbolTypeComponent&#45;&gt;MavSelectionModule -->
<g id="edge1" class="edge">
<title>GraphicSymbolTypeComponent&#45;&gt;MavSelectionModule</title>
<path fill="none" stroke="#000000" d="M1620,-122.0109C1620,-144.4852 1620,-180 1620,-180 1620,-180 843.8831,-180 843.8831,-180"/>
<polygon fill="#000000" stroke="#000000" points="843.8831,-176.5001 833.8831,-180 843.883,-183.5001 843.8831,-176.5001"/>
</g>
<!-- GraphicVariableIconComponent -->
<g id="node2" class="node">
<title>GraphicVariableIconComponent</title>
<polygon fill="#ffffb3" stroke="#000000" points="1502.9874,-122 1303.0126,-122 1303.0126,-86 1502.9874,-86 1502.9874,-122"/>
<text text-anchor="middle" x="1403" y="-99.8" font-family="Times,serif" font-size="14.00" fill="#000000">GraphicVariableIconComponent</text>
</g>
<!-- GraphicVariableIconComponent&#45;&gt;MavSelectionModule -->
<g id="edge2" class="edge">
<title>GraphicVariableIconComponent&#45;&gt;MavSelectionModule</title>
<path fill="none" stroke="#000000" d="M1403,-122.1289C1403,-142.5724 1403,-173 1403,-173 1403,-173 843.8834,-173 843.8834,-173"/>
<polygon fill="#000000" stroke="#000000" points="843.8834,-169.5001 833.8834,-173 843.8833,-176.5001 843.8834,-169.5001"/>
</g>
<!-- GraphicVariableTypeComponent -->
<g id="node3" class="node">
<title>GraphicVariableTypeComponent</title>
<polygon fill="#ffffb3" stroke="#000000" points="1285.8792,-122 1082.1208,-122 1082.1208,-86 1285.8792,-86 1285.8792,-122"/>
<text text-anchor="middle" x="1184" y="-99.8" font-family="Times,serif" font-size="14.00" fill="#000000">GraphicVariableTypeComponent</text>
</g>
<!-- GraphicVariableTypeComponent&#45;&gt;MavSelectionModule -->
<g id="edge3" class="edge">
<title>GraphicVariableTypeComponent&#45;&gt;MavSelectionModule</title>
<path fill="none" stroke="#000000" d="M1184,-122.2667C1184,-140.5552 1184,-166 1184,-166 1184,-166 843.7201,-166 843.7201,-166"/>
<polygon fill="#000000" stroke="#000000" points="843.7202,-162.5001 833.7201,-166 843.7201,-169.5001 843.7202,-162.5001"/>
</g>
<!-- ScienceMapIconComponent -->
<g id="node4" class="node">
<title>ScienceMapIconComponent</title>
<polygon fill="#ffffb3" stroke="#000000" points="1064.8989,-122 889.1011,-122 889.1011,-86 1064.8989,-86 1064.8989,-122"/>
<text text-anchor="middle" x="977" y="-99.8" font-family="Times,serif" font-size="14.00" fill="#000000">ScienceMapIconComponent</text>
</g>
<!-- ScienceMapIconComponent&#45;&gt;MavSelectionModule -->
<g id="edge4" class="edge">
<title>ScienceMapIconComponent&#45;&gt;MavSelectionModule</title>
<path fill="none" stroke="#000000" d="M977,-122.0091C977,-138.0494 977,-159 977,-159 977,-159 843.8303,-159 843.8303,-159"/>
<polygon fill="#000000" stroke="#000000" points="843.8304,-155.5001 833.8303,-159 843.8303,-162.5001 843.8304,-155.5001"/>
</g>
<!-- TemporalBargraphIconComponent -->
<g id="node5" class="node">
<title>TemporalBargraphIconComponent</title>
<polygon fill="#ffffb3" stroke="#000000" points="871.2184,-122 658.7816,-122 658.7816,-86 871.2184,-86 871.2184,-122"/>
<text text-anchor="middle" x="765" y="-99.8" font-family="Times,serif" font-size="14.00" fill="#000000">TemporalBargraphIconComponent</text>
</g>
<!-- TemporalBargraphIconComponent&#45;&gt;MavSelectionModule -->
<g id="edge5" class="edge">
<title>TemporalBargraphIconComponent&#45;&gt;MavSelectionModule</title>
<path fill="none" stroke="#000000" d="M765,-122.1061C765,-122.1061 765,-140.991 765,-140.991"/>
<polygon fill="#000000" stroke="#000000" points="761.5001,-140.9909 765,-150.991 768.5001,-140.991 761.5001,-140.9909"/>
</g>
<!-- VisualizationTypeComponent -->
<g id="node6" class="node">
<title>VisualizationTypeComponent</title>
<polygon fill="#ffffb3" stroke="#000000" points="640.2478,-122 455.7522,-122 455.7522,-86 640.2478,-86 640.2478,-122"/>
<text text-anchor="middle" x="548" y="-99.8" font-family="Times,serif" font-size="14.00" fill="#000000">VisualizationTypeComponent</text>
</g>
<!-- VisualizationTypeComponent&#45;&gt;MavSelectionModule -->
<g id="edge6" class="edge">
<title>VisualizationTypeComponent&#45;&gt;MavSelectionModule</title>
<path fill="none" stroke="#000000" d="M548,-122.0091C548,-138.0494 548,-159 548,-159 548,-159 686.3398,-159 686.3398,-159"/>
<polygon fill="#000000" stroke="#000000" points="686.3399,-162.5001 696.3398,-159 686.3398,-155.5001 686.3399,-162.5001"/>
</g>
<!-- DragDropModule -->
<g id="node8" class="node">
<title>DragDropModule</title>
<polygon fill="#8dd3c7" stroke="#000000" points="432.2992,-122 429.2992,-126 408.2992,-126 405.2992,-122 315.7008,-122 315.7008,-86 432.2992,-86 432.2992,-122"/>
<text text-anchor="middle" x="374" y="-99.8" font-family="Times,serif" font-size="14.00" fill="#000000">DragDropModule</text>
</g>
<!-- DragDropModule&#45;&gt;MavSelectionModule -->
<g id="edge7" class="edge">
<title>DragDropModule&#45;&gt;MavSelectionModule</title>
<path fill="none" stroke="#000000" d="M374,-122.2667C374,-140.5552 374,-166 374,-166 374,-166 685.9971,-166 685.9971,-166"/>
<polygon fill="#000000" stroke="#000000" points="685.9971,-169.5001 695.9971,-166 685.9971,-162.5001 685.9971,-169.5001"/>
</g>
<!-- DvlFwAngularModule -->
<g id="node9" class="node">
<title>DvlFwAngularModule</title>
<polygon fill="#8dd3c7" stroke="#000000" points="298.3089,-122 295.3089,-126 274.3089,-126 271.3089,-122 153.6911,-122 153.6911,-86 298.3089,-86 298.3089,-122"/>
<text text-anchor="middle" x="226" y="-99.8" font-family="Times,serif" font-size="14.00" fill="#000000">DvlFwAngularModule</text>
</g>
<!-- DvlFwAngularModule&#45;&gt;MavSelectionModule -->
<g id="edge8" class="edge">
<title>DvlFwAngularModule&#45;&gt;MavSelectionModule</title>
<path fill="none" stroke="#000000" d="M226,-122.1289C226,-142.5724 226,-173 226,-173 226,-173 686.1878,-173 686.1878,-173"/>
<polygon fill="#000000" stroke="#000000" points="686.1878,-176.5001 696.1878,-173 686.1878,-169.5001 686.1878,-176.5001"/>
</g>
<!-- NgxDinoModule -->
<g id="node10" class="node">
<title>NgxDinoModule</title>
<polygon fill="#8dd3c7" stroke="#000000" points="135.6541,-122 132.6541,-126 111.6541,-126 108.6541,-122 24.3459,-122 24.3459,-86 135.6541,-86 135.6541,-122"/>
<text text-anchor="middle" x="80" y="-99.8" font-family="Times,serif" font-size="14.00" fill="#000000">NgxDinoModule</text>
</g>
<!-- NgxDinoModule&#45;&gt;MavSelectionModule -->
<g id="edge9" class="edge">
<title>NgxDinoModule&#45;&gt;MavSelectionModule</title>
<path fill="none" stroke="#000000" d="M80,-122.0109C80,-144.4852 80,-180 80,-180 80,-180 686.1833,-180 686.1833,-180"/>
<polygon fill="#000000" stroke="#000000" points="686.1833,-183.5001 696.1833,-180 686.1832,-176.5001 686.1833,-183.5001"/>
</g>
</g>
</svg>
