<?xml version="1.0" encoding="UTF-8" standalone="no"?>
<!DOCTYPE svg PUBLIC "-//W3C//DTD SVG 1.1//EN"
 "http://www.w3.org/Graphics/SVG/1.1/DTD/svg11.dtd">
<!-- Generated by graphviz version 2.40.1 (20161225.0304)
 -->
<!-- Title: dependencies Pages: 1 -->
<svg width="504pt" height="284pt"
 viewBox="0.00 0.00 504.00 284.00" xmlns="http://www.w3.org/2000/svg" xmlns:xlink="http://www.w3.org/1999/xlink">
<g id="graph0" class="graph" transform="scale(1 1) rotate(0) translate(4 280)">
<title>dependencies</title>
<polygon fill="#ffffff" stroke="transparent" points="-4,4 -4,-280 500,-280 500,4 -4,4"/>
<text text-anchor="start" x="227.0091" y="-42.4" font-family="sans-serif" font-weight="bold" font-size="14.00" fill="#000000">Legend</text>
<polygon fill="#ffffb3" stroke="transparent" points="14,-10 14,-30 34,-30 34,-10 14,-10"/>
<text text-anchor="start" x="37.629" y="-15.4" font-family="sans-serif" font-size="14.00" fill="#000000"> &#160;Declarations</text>
<polygon fill="#8dd3c7" stroke="transparent" points="127,-10 127,-30 147,-30 147,-10 127,-10"/>
<text text-anchor="start" x="150.7251" y="-15.4" font-family="sans-serif" font-size="14.00" fill="#000000"> &#160;Module</text>
<polygon fill="#80b1d3" stroke="transparent" points="213,-10 213,-30 233,-30 233,-10 213,-10"/>
<text text-anchor="start" x="236.7812" y="-15.4" font-family="sans-serif" font-size="14.00" fill="#000000"> &#160;Bootstrap</text>
<polygon fill="#fdb462" stroke="transparent" points="310,-10 310,-30 330,-30 330,-10 310,-10"/>
<text text-anchor="start" x="333.6732" y="-15.4" font-family="sans-serif" font-size="14.00" fill="#000000"> &#160;Providers</text>
<polygon fill="#fb8072" stroke="transparent" points="406,-10 406,-30 426,-30 426,-10 406,-10"/>
<text text-anchor="start" x="429.7258" y="-15.4" font-family="sans-serif" font-size="14.00" fill="#000000"> &#160;Exports</text>
<g id="clust1" class="cluster">
<title>cluster_DvlFwAngularModule</title>
<polygon fill="none" stroke="#000000" stroke-dasharray="1,5" points="101.5,-70 101.5,-268 394.5,-268 394.5,-70 101.5,-70"/>
</g>
<g id="clust3" class="cluster">
<title>cluster_DvlFwAngularModule_imports</title>
<polygon fill="none" stroke="#000000" points="113.5,-78 113.5,-130 383.5,-130 383.5,-78 113.5,-78"/>
</g>
<g id="clust4" class="cluster">
<title>cluster_DvlFwAngularModule_exports</title>
<polygon fill="none" stroke="#000000" points="109.5,-208 109.5,-260 386.5,-260 386.5,-208 109.5,-208"/>
</g>
<!-- LegendModule -->
<g id="node1" class="node">
<title>LegendModule</title>
<polygon fill="#8dd3c7" stroke="#000000" points="375.0327,-122 372.0327,-126 351.0327,-126 348.0327,-122 273.9673,-122 273.9673,-86 375.0327,-86 375.0327,-122"/>
<text text-anchor="middle" x="324.5" y="-99.8" font-family="Times,serif" font-size="14.00" fill="#000000">LegendModule</text>
</g>
<!-- DvlFwAngularModule -->
<g id="node3" class="node">
<title>DvlFwAngularModule</title>
<polygon fill="#8dd3c7" stroke="#000000" points="261.8089,-187 258.8089,-191 237.8089,-191 234.8089,-187 117.1911,-187 117.1911,-151 261.8089,-151 261.8089,-187"/>
<text text-anchor="middle" x="189.5" y="-164.8" font-family="Times,serif" font-size="14.00" fill="#000000">DvlFwAngularModule</text>
</g>
<!-- LegendModule&#45;&gt;DvlFwAngularModule -->
<g id="edge1" class="edge">
<title>LegendModule&#45;&gt;DvlFwAngularModule</title>
<path fill="none" stroke="#000000" d="M341.4219,-122.0225C341.4219,-139.3734 341.4219,-163 341.4219,-163 341.4219,-163 271.9015,-163 271.9015,-163"/>
<polygon fill="#000000" stroke="#000000" points="271.9015,-159.5001 261.9015,-163 271.9014,-166.5001 271.9015,-159.5001"/>
</g>
<!-- VisualizationModule -->
<g id="node2" class="node">
<title>VisualizationModule</title>
<polygon fill="#8dd3c7" stroke="#000000" points="255.6979,-122 252.6979,-126 231.6979,-126 228.6979,-122 121.3021,-122 121.3021,-86 255.6979,-86 255.6979,-122"/>
<text text-anchor="middle" x="188.5" y="-99.8" font-family="Times,serif" font-size="14.00" fill="#000000">VisualizationModule</text>
</g>
<!-- VisualizationModule&#45;&gt;DvlFwAngularModule -->
<g id="edge2" class="edge">
<title>VisualizationModule&#45;&gt;DvlFwAngularModule</title>
<path fill="none" stroke="#000000" d="M188.5,-122.1061C188.5,-122.1061 188.5,-140.991 188.5,-140.991"/>
<polygon fill="#000000" stroke="#000000" points="185.0001,-140.9909 188.5,-150.991 192.0001,-140.991 185.0001,-140.9909"/>
</g>
<!-- LegendModule  -->
<g id="node4" class="node">
<title>LegendModule </title>
<polygon fill="#fb8072" stroke="#000000" points="378.0316,-252 272.9684,-252 272.9684,-216 378.0316,-216 378.0316,-252"/>
<text text-anchor="middle" x="325.5" y="-229.8" font-family="Times,serif" font-size="14.00" fill="#000000">LegendModule </text>
</g>
<!-- DvlFwAngularModule&#45;&gt;LegendModule  -->
<g id="edge3" class="edge">
<title>DvlFwAngularModule&#45;&gt;LegendModule </title>
<path fill="none" stroke="#000000" stroke-dasharray="5,2" d="M261.926,-175C286.3677,-175 307.5781,-175 307.5781,-175 307.5781,-175 307.5781,-205.9775 307.5781,-205.9775"/>
<polygon fill="#000000" stroke="#000000" points="304.0782,-205.9774 307.5781,-215.9775 311.0782,-205.9775 304.0782,-205.9774"/>
</g>
<!-- VisualizationModule  -->
<g id="node5" class="node">
<title>VisualizationModule </title>
<polygon fill="#fb8072" stroke="#000000" points="255.1981,-252 117.8019,-252 117.8019,-216 255.1981,-216 255.1981,-252"/>
<text text-anchor="middle" x="186.5" y="-229.8" font-family="Times,serif" font-size="14.00" fill="#000000">VisualizationModule </text>
</g>
<!-- DvlFwAngularModule&#45;&gt;VisualizationModule  -->
<g id="edge4" class="edge">
<title>DvlFwAngularModule&#45;&gt;VisualizationModule </title>
<path fill="none" stroke="#000000" stroke-dasharray="5,2" d="M186.5,-187.1061C186.5,-187.1061 186.5,-205.991 186.5,-205.991"/>
<polygon fill="#000000" stroke="#000000" points="183.0001,-205.9909 186.5,-215.991 190.0001,-205.991 183.0001,-205.9909"/>
</g>
</g>
</svg>
