<?xml version="1.0" encoding="UTF-8" standalone="no"?>
<!DOCTYPE svg PUBLIC "-//W3C//DTD SVG 1.1//EN"
 "http://www.w3.org/Graphics/SVG/1.1/DTD/svg11.dtd">
<!-- Generated by graphviz version 2.47.0 (20210316.0004)
 -->
<!-- Title: dependencies Pages: 1 -->
<svg width="527pt" height="284pt"
 viewBox="0.00 0.00 527.00 284.00" xmlns="http://www.w3.org/2000/svg" xmlns:xlink="http://www.w3.org/1999/xlink">
<g id="graph0" class="graph" transform="scale(1 1) rotate(0) translate(4 280)">
<title>dependencies</title>
<polygon fill="white" stroke="transparent" points="-4,4 -4,-280 523,-280 523,4 -4,4"/>
<text text-anchor="start" x="238.51" y="-42.4" font-family="sans-serif" font-weight="bold" font-size="14.00">Legend</text>
<polygon fill="#ffffb3" stroke="transparent" points="25.5,-10 25.5,-30 45.5,-30 45.5,-10 25.5,-10"/>
<text text-anchor="start" x="49.13" y="-15.4" font-family="sans-serif" font-size="14.00"> &#160;Declarations</text>
<polygon fill="#8dd3c7" stroke="transparent" points="138.5,-10 138.5,-30 158.5,-30 158.5,-10 138.5,-10"/>
<text text-anchor="start" x="162.23" y="-15.4" font-family="sans-serif" font-size="14.00"> &#160;Module</text>
<polygon fill="#80b1d3" stroke="transparent" points="224.5,-10 224.5,-30 244.5,-30 244.5,-10 224.5,-10"/>
<text text-anchor="start" x="248.28" y="-15.4" font-family="sans-serif" font-size="14.00"> &#160;Bootstrap</text>
<polygon fill="#fdb462" stroke="transparent" points="321.5,-10 321.5,-30 341.5,-30 341.5,-10 321.5,-10"/>
<text text-anchor="start" x="345.17" y="-15.4" font-family="sans-serif" font-size="14.00"> &#160;Providers</text>
<polygon fill="#fb8072" stroke="transparent" points="417.5,-10 417.5,-30 437.5,-30 437.5,-10 417.5,-10"/>
<text text-anchor="start" x="441.23" y="-15.4" font-family="sans-serif" font-size="14.00"> &#160;Exports</text>
<g id="clust1" class="cluster">
<title>cluster_DvlFwAngularModule</title>
<polygon fill="none" stroke="black" stroke-dasharray="1,5" points="8,-70 8,-268 511,-268 511,-70 8,-70"/>
</g>
<g id="clust7" class="cluster">
<title>cluster_DvlFwAngularModule_exports</title>
<polygon fill="none" stroke="black" points="16,-208 16,-260 503,-260 503,-208 16,-208"/>
</g>
<g id="clust2" class="cluster">
<title>cluster_DvlFwAngularModule_declarations</title>
<polygon fill="none" stroke="black" points="21,-78 21,-130 498,-130 498,-78 21,-78"/>
</g>
<!-- DvlFwVisualizationComponent -->
<g id="node1" class="node">
<title>DvlFwVisualizationComponent</title>
<polygon fill="#ffffb3" stroke="black" points="490.37,-122 295.63,-122 295.63,-86 490.37,-86 490.37,-122"/>
<text text-anchor="middle" x="393" y="-99.8" font-family="Times,serif" font-size="14.00">DvlFwVisualizationComponent</text>
</g>
<!-- DvlFwAngularModule -->
<g id="node4" class="node">
<title>DvlFwAngularModule</title>
<polygon fill="#8dd3c7" stroke="black" points="296.31,-187 293.31,-191 272.31,-191 269.31,-187 151.69,-187 151.69,-151 296.31,-151 296.31,-187"/>
<text text-anchor="middle" x="224" y="-164.8" font-family="Times,serif" font-size="14.00">DvlFwAngularModule</text>
</g>
<!-- DvlFwVisualizationComponent&#45;&gt;DvlFwAngularModule -->
<g id="edge1" class="edge">
<title>DvlFwVisualizationComponent&#45;&gt;DvlFwAngularModule</title>
<path fill="none" stroke="black" d="M295.61,-104C289.97,-104 286.53,-104 286.53,-104 286.53,-104 286.53,-140.89 286.53,-140.89"/>
<polygon fill="black" stroke="black" points="283.03,-140.89 286.53,-150.89 290.03,-140.89 283.03,-140.89"/>
</g>
<!-- ItemComponent -->
<g id="node2" class="node">
<title>ItemComponent</title>
<polygon fill="#ffffb3" stroke="black" points="277.49,-122 170.51,-122 170.51,-86 277.49,-86 277.49,-122"/>
<text text-anchor="middle" x="224" y="-99.8" font-family="Times,serif" font-size="14.00">ItemComponent</text>
</g>
<!-- ItemComponent&#45;&gt;DvlFwAngularModule -->
<g id="edge2" class="edge">
<title>ItemComponent&#45;&gt;DvlFwAngularModule</title>
<path fill="none" stroke="black" d="M224,-122.11C224,-122.11 224,-140.99 224,-140.99"/>
<polygon fill="black" stroke="black" points="220.5,-140.99 224,-150.99 227.5,-140.99 220.5,-140.99"/>
</g>
<!-- LegendComponent -->
<g id="node3" class="node">
<title>LegendComponent</title>
<polygon fill="#ffffb3" stroke="black" points="152.81,-122 29.19,-122 29.19,-86 152.81,-86 152.81,-122"/>
<text text-anchor="middle" x="91" y="-99.8" font-family="Times,serif" font-size="14.00">LegendComponent</text>
</g>
<!-- LegendComponent&#45;&gt;DvlFwAngularModule -->
<g id="edge3" class="edge">
<title>LegendComponent&#45;&gt;DvlFwAngularModule</title>
<path fill="none" stroke="black" d="M152.93,-104C158.2,-104 161.58,-104 161.58,-104 161.58,-104 161.58,-140.89 161.58,-140.89"/>
<polygon fill="black" stroke="black" points="158.08,-140.89 161.58,-150.89 165.08,-140.89 158.08,-140.89"/>
</g>
<!-- DvlFwVisualizationComponent  -->
<g id="node5" class="node">
<title>DvlFwVisualizationComponent </title>
<polygon fill="#fb8072" stroke="black" points="495.37,-252 296.63,-252 296.63,-216 495.37,-216 495.37,-252"/>
<text text-anchor="middle" x="396" y="-229.8" font-family="Times,serif" font-size="14.00">DvlFwVisualizationComponent </text>
</g>
<!-- DvlFwAngularModule&#45;&gt;DvlFwVisualizationComponent  -->
<g id="edge4" class="edge">
<title>DvlFwAngularModule&#45;&gt;DvlFwVisualizationComponent </title>
<path fill="none" stroke="black" stroke-dasharray="5,2" d="M287.7,-187.11C287.7,-206.34 287.7,-234 287.7,-234 287.7,-234 288.59,-234 288.59,-234"/>
<polygon fill="black" stroke="black" points="286.56,-237.5 296.56,-234 286.56,-230.5 286.56,-237.5"/>
</g>
<!-- ItemComponent  -->
<g id="node6" class="node">
<title>ItemComponent </title>
<polygon fill="#fb8072" stroke="black" points="279.49,-252 168.51,-252 168.51,-216 279.49,-216 279.49,-252"/>
<text text-anchor="middle" x="224" y="-229.8" font-family="Times,serif" font-size="14.00">ItemComponent </text>
</g>
<!-- DvlFwAngularModule&#45;&gt;ItemComponent  -->
<g id="edge5" class="edge">
<title>DvlFwAngularModule&#45;&gt;ItemComponent </title>
<path fill="none" stroke="black" stroke-dasharray="5,2" d="M224,-187.11C224,-187.11 224,-205.99 224,-205.99"/>
<polygon fill="black" stroke="black" points="220.5,-205.99 224,-215.99 227.5,-205.99 220.5,-205.99"/>
</g>
<!-- LegendComponent  -->
<g id="node7" class="node">
<title>LegendComponent </title>
<polygon fill="#fb8072" stroke="black" points="150.31,-252 23.69,-252 23.69,-216 150.31,-216 150.31,-252"/>
<text text-anchor="middle" x="87" y="-229.8" font-family="Times,serif" font-size="14.00">LegendComponent </text>
</g>
<!-- DvlFwAngularModule&#45;&gt;LegendComponent  -->
<g id="edge6" class="edge">
<title>DvlFwAngularModule&#45;&gt;LegendComponent </title>
<path fill="none" stroke="black" stroke-dasharray="5,2" d="M160.3,-187.11C160.3,-206.34 160.3,-234 160.3,-234 160.3,-234 159.31,-234 159.31,-234"/>
<polygon fill="black" stroke="black" points="160.42,-230.5 150.41,-234 160.41,-237.5 160.42,-230.5"/>
</g>
</g>
</svg>
