<?xml version="1.0" encoding="UTF-8" standalone="no"?>
<!DOCTYPE svg PUBLIC "-//W3C//DTD SVG 1.1//EN"
 "http://www.w3.org/Graphics/SVG/1.1/DTD/svg11.dtd">
<!-- Generated by graphviz version 2.47.3 (20210619.1520)
 -->
<!-- Title: dependencies Pages: 1 -->
<svg width="527pt" height="247pt"
 viewBox="0.00 0.00 527.00 246.80" xmlns="http://www.w3.org/2000/svg" xmlns:xlink="http://www.w3.org/1999/xlink">
<g id="graph0" class="graph" transform="scale(1 1) rotate(0) translate(4 242.8)">
<title>dependencies</title>
<polygon fill="white" stroke="transparent" points="-4,4 -4,-242.8 523,-242.8 523,4 -4,4"/>
<text text-anchor="middle" x="259.5" y="-8.2" font-family="sans-serif" font-size="14.00">dependencies</text>
<g id="clust1" class="cluster">
<title>cluster_DvlFwAngularModule</title>
<polygon fill="none" stroke="black" stroke-dasharray="1,5" points="8,-32.8 8,-230.8 511,-230.8 511,-32.8 8,-32.8"/>
</g>
<g id="clust2" class="cluster">
<title>cluster_DvlFwAngularModule_declarations</title>
<polygon fill="none" stroke="black" points="21,-40.8 21,-92.8 498,-92.8 498,-40.8 21,-40.8"/>
</g>
<g id="clust7" class="cluster">
<title>cluster_DvlFwAngularModule_exports</title>
<polygon fill="none" stroke="black" points="16,-170.8 16,-222.8 503,-222.8 503,-170.8 16,-170.8"/>
</g>
<!-- DvlFwVisualizationComponent -->
<g id="node1" class="node">
<title>DvlFwVisualizationComponent</title>
<polygon fill="#ffffb3" stroke="black" points="490.37,-84.8 295.63,-84.8 295.63,-48.8 490.37,-48.8 490.37,-84.8"/>
<text text-anchor="middle" x="393" y="-62.6" font-family="Times,serif" font-size="14.00">DvlFwVisualizationComponent</text>
</g>
<!-- DvlFwAngularModule -->
<g id="node4" class="node">
<title>DvlFwAngularModule</title>
<polygon fill="#8dd3c7" stroke="black" points="296.31,-149.8 293.31,-153.8 272.31,-153.8 269.31,-149.8 151.69,-149.8 151.69,-113.8 296.31,-113.8 296.31,-149.8"/>
<text text-anchor="middle" x="224" y="-127.6" font-family="Times,serif" font-size="14.00">DvlFwAngularModule</text>
</g>
<!-- DvlFwVisualizationComponent&#45;&gt;DvlFwAngularModule -->
<g id="edge1" class="edge">
<title>DvlFwVisualizationComponent&#45;&gt;DvlFwAngularModule</title>
<path fill="none" stroke="black" d="M295.61,-66.8C289.97,-66.8 286.53,-66.8 286.53,-66.8 286.53,-66.8 286.53,-103.69 286.53,-103.69"/>
<polygon fill="black" stroke="black" points="283.03,-103.69 286.53,-113.69 290.03,-103.69 283.03,-103.69"/>
</g>
<!-- ItemComponent -->
<g id="node2" class="node">
<title>ItemComponent</title>
<polygon fill="#ffffb3" stroke="black" points="277.49,-84.8 170.51,-84.8 170.51,-48.8 277.49,-48.8 277.49,-84.8"/>
<text text-anchor="middle" x="224" y="-62.6" font-family="Times,serif" font-size="14.00">ItemComponent</text>
</g>
<!-- ItemComponent&#45;&gt;DvlFwAngularModule -->
<g id="edge2" class="edge">
<title>ItemComponent&#45;&gt;DvlFwAngularModule</title>
<path fill="none" stroke="black" d="M224,-84.91C224,-84.91 224,-103.79 224,-103.79"/>
<polygon fill="black" stroke="black" points="220.5,-103.79 224,-113.79 227.5,-103.79 220.5,-103.79"/>
</g>
<!-- LegendComponent -->
<g id="node3" class="node">
<title>LegendComponent</title>
<polygon fill="#ffffb3" stroke="black" points="152.81,-84.8 29.19,-84.8 29.19,-48.8 152.81,-48.8 152.81,-84.8"/>
<text text-anchor="middle" x="91" y="-62.6" font-family="Times,serif" font-size="14.00">LegendComponent</text>
</g>
<!-- LegendComponent&#45;&gt;DvlFwAngularModule -->
<g id="edge3" class="edge">
<title>LegendComponent&#45;&gt;DvlFwAngularModule</title>
<path fill="none" stroke="black" d="M152.93,-66.8C158.2,-66.8 161.58,-66.8 161.58,-66.8 161.58,-66.8 161.58,-103.69 161.58,-103.69"/>
<polygon fill="black" stroke="black" points="158.08,-103.69 161.58,-113.69 165.08,-103.69 158.08,-103.69"/>
</g>
<!-- DvlFwVisualizationComponent  -->
<g id="node5" class="node">
<title>DvlFwVisualizationComponent </title>
<polygon fill="#fb8072" stroke="black" points="495.37,-214.8 296.63,-214.8 296.63,-178.8 495.37,-178.8 495.37,-214.8"/>
<text text-anchor="middle" x="396" y="-192.6" font-family="Times,serif" font-size="14.00">DvlFwVisualizationComponent </text>
</g>
<!-- DvlFwAngularModule&#45;&gt;DvlFwVisualizationComponent  -->
<g id="edge4" class="edge">
<title>DvlFwAngularModule&#45;&gt;DvlFwVisualizationComponent </title>
<path fill="none" stroke="black" stroke-dasharray="5,2" d="M287.7,-149.91C287.7,-169.14 287.7,-196.8 287.7,-196.8 287.7,-196.8 288.59,-196.8 288.59,-196.8"/>
<polygon fill="black" stroke="black" points="286.56,-200.3 296.56,-196.8 286.56,-193.3 286.56,-200.3"/>
</g>
<!-- ItemComponent  -->
<g id="node6" class="node">
<title>ItemComponent </title>
<polygon fill="#fb8072" stroke="black" points="279.49,-214.8 168.51,-214.8 168.51,-178.8 279.49,-178.8 279.49,-214.8"/>
<text text-anchor="middle" x="224" y="-192.6" font-family="Times,serif" font-size="14.00">ItemComponent </text>
</g>
<!-- DvlFwAngularModule&#45;&gt;ItemComponent  -->
<g id="edge5" class="edge">
<title>DvlFwAngularModule&#45;&gt;ItemComponent </title>
<path fill="none" stroke="black" stroke-dasharray="5,2" d="M224,-149.91C224,-149.91 224,-168.79 224,-168.79"/>
<polygon fill="black" stroke="black" points="220.5,-168.79 224,-178.79 227.5,-168.79 220.5,-168.79"/>
</g>
<!-- LegendComponent  -->
<g id="node7" class="node">
<title>LegendComponent </title>
<polygon fill="#fb8072" stroke="black" points="150.31,-214.8 23.69,-214.8 23.69,-178.8 150.31,-178.8 150.31,-214.8"/>
<text text-anchor="middle" x="87" y="-192.6" font-family="Times,serif" font-size="14.00">LegendComponent </text>
</g>
<!-- DvlFwAngularModule&#45;&gt;LegendComponent  -->
<g id="edge6" class="edge">
<title>DvlFwAngularModule&#45;&gt;LegendComponent </title>
<path fill="none" stroke="black" stroke-dasharray="5,2" d="M160.3,-149.91C160.3,-169.14 160.3,-196.8 160.3,-196.8 160.3,-196.8 159.31,-196.8 159.31,-196.8"/>
<polygon fill="black" stroke="black" points="160.42,-193.3 150.41,-196.8 160.41,-200.3 160.42,-193.3"/>
</g>
</g>
</svg>
