<?xml version="1.0" encoding="UTF-8" standalone="no"?>
<!DOCTYPE svg PUBLIC "-//W3C//DTD SVG 1.1//EN"
 "http://www.w3.org/Graphics/SVG/1.1/DTD/svg11.dtd">
<!-- Generated by graphviz version 2.40.1 (20161225.0304)
 -->
<!-- Title: dependencies Pages: 1 -->
<svg width="1311pt" height="284pt"
 viewBox="0.00 0.00 1311.00 284.00" xmlns="http://www.w3.org/2000/svg" xmlns:xlink="http://www.w3.org/1999/xlink">
<g id="graph0" class="graph" transform="scale(1 1) rotate(0) translate(4 280)">
<title>dependencies</title>
<polygon fill="#ffffff" stroke="transparent" points="-4,4 -4,-280 1307,-280 1307,4 -4,4"/>
<text text-anchor="start" x="630.5091" y="-42.4" font-family="sans-serif" font-weight="bold" font-size="14.00" fill="#000000">Legend</text>
<polygon fill="#ffffb3" stroke="transparent" points="417.5,-10 417.5,-30 437.5,-30 437.5,-10 417.5,-10"/>
<text text-anchor="start" x="441.129" y="-15.4" font-family="sans-serif" font-size="14.00" fill="#000000"> &#160;Declarations</text>
<polygon fill="#8dd3c7" stroke="transparent" points="530.5,-10 530.5,-30 550.5,-30 550.5,-10 530.5,-10"/>
<text text-anchor="start" x="554.2251" y="-15.4" font-family="sans-serif" font-size="14.00" fill="#000000"> &#160;Module</text>
<polygon fill="#80b1d3" stroke="transparent" points="616.5,-10 616.5,-30 636.5,-30 636.5,-10 616.5,-10"/>
<text text-anchor="start" x="640.2812" y="-15.4" font-family="sans-serif" font-size="14.00" fill="#000000"> &#160;Bootstrap</text>
<polygon fill="#fdb462" stroke="transparent" points="713.5,-10 713.5,-30 733.5,-30 733.5,-10 713.5,-10"/>
<text text-anchor="start" x="737.1732" y="-15.4" font-family="sans-serif" font-size="14.00" fill="#000000"> &#160;Providers</text>
<polygon fill="#fb8072" stroke="transparent" points="809.5,-10 809.5,-30 829.5,-30 829.5,-10 809.5,-10"/>
<text text-anchor="start" x="833.2258" y="-15.4" font-family="sans-serif" font-size="14.00" fill="#000000"> &#160;Exports</text>
<g id="clust1" class="cluster">
<title>cluster_NgxDinoModule</title>
<polygon fill="none" stroke="#000000" stroke-dasharray="1,5" points="8,-70 8,-268 1295,-268 1295,-70 8,-70"/>
</g>
<g id="clust3" class="cluster">
<title>cluster_NgxDinoModule_imports</title>
<polygon fill="none" stroke="#000000" points="32,-78 32,-130 1273,-130 1273,-78 32,-78"/>
</g>
<g id="clust4" class="cluster">
<title>cluster_NgxDinoModule_exports</title>
<polygon fill="none" stroke="#000000" points="16,-208 16,-260 1287,-260 1287,-208 16,-208"/>
</g>
<!-- ColorModule -->
<g id="node1" class="node">
<title>ColorModule</title>
<polygon fill="#8dd3c7" stroke="#000000" points="1264.9387,-122 1261.9387,-126 1240.9387,-126 1237.9387,-122 1173.0613,-122 1173.0613,-86 1264.9387,-86 1264.9387,-122"/>
<text text-anchor="middle" x="1219" y="-99.8" font-family="Times,serif" font-size="14.00" fill="#000000">ColorModule</text>
</g>
<!-- NgxDinoModule -->
<g id="node10" class="node">
<title>NgxDinoModule</title>
<polygon fill="#8dd3c7" stroke="#000000" points="771.6541,-187 768.6541,-191 747.6541,-191 744.6541,-187 660.3459,-187 660.3459,-151 771.6541,-151 771.6541,-187"/>
<text text-anchor="middle" x="716" y="-164.8" font-family="Times,serif" font-size="14.00" fill="#000000">NgxDinoModule</text>
</g>
<!-- ColorModule&#45;&gt;NgxDinoModule -->
<g id="edge1" class="edge">
<title>ColorModule&#45;&gt;NgxDinoModule</title>
<path fill="none" stroke="#000000" d="M1178.9062,-122.2222C1178.9062,-140.8285 1178.9062,-167 1178.9062,-167 1178.9062,-167 781.8373,-167 781.8373,-167"/>
<polygon fill="#000000" stroke="#000000" points="781.8373,-163.5001 771.8373,-167 781.8373,-170.5001 781.8373,-163.5001"/>
</g>
<!-- EdgeSizeModule -->
<g id="node2" class="node">
<title>EdgeSizeModule</title>
<polygon fill="#8dd3c7" stroke="#000000" points="1155.4202,-122 1152.4202,-126 1131.4202,-126 1128.4202,-122 1042.5798,-122 1042.5798,-86 1155.4202,-86 1155.4202,-122"/>
<text text-anchor="middle" x="1099" y="-99.8" font-family="Times,serif" font-size="14.00" fill="#000000">EdgeSizeModule</text>
</g>
<!-- EdgeSizeModule&#45;&gt;NgxDinoModule -->
<g id="edge2" class="edge">
<title>EdgeSizeModule&#45;&gt;NgxDinoModule</title>
<path fill="none" stroke="#000000" d="M1046.9153,-122.0225C1046.9153,-139.3734 1046.9153,-163 1046.9153,-163 1046.9153,-163 781.7611,-163 781.7611,-163"/>
<polygon fill="#000000" stroke="#000000" points="781.7611,-159.5001 771.7611,-163 781.761,-166.5001 781.7611,-159.5001"/>
</g>
<!-- GeomapModule -->
<g id="node3" class="node">
<title>GeomapModule</title>
<polygon fill="#8dd3c7" stroke="#000000" points="1024.4762,-122 1021.4762,-126 1000.4762,-126 997.4762,-122 917.5238,-122 917.5238,-86 1024.4762,-86 1024.4762,-122"/>
<text text-anchor="middle" x="971" y="-99.8" font-family="Times,serif" font-size="14.00" fill="#000000">GeomapModule</text>
</g>
<!-- GeomapModule&#45;&gt;NgxDinoModule -->
<g id="edge3" class="edge">
<title>GeomapModule&#45;&gt;NgxDinoModule</title>
<path fill="none" stroke="#000000" d="M990.5794,-122.0091C990.5794,-138.0494 990.5794,-159 990.5794,-159 990.5794,-159 781.8962,-159 781.8962,-159"/>
<polygon fill="#000000" stroke="#000000" points="781.8962,-155.5001 771.8962,-159 781.8962,-162.5001 781.8962,-155.5001"/>
</g>
<!-- NetworkModule -->
<g id="node4" class="node">
<title>NetworkModule</title>
<polygon fill="#8dd3c7" stroke="#000000" points="899.0298,-122 896.0298,-126 875.0298,-126 872.0298,-122 790.9702,-122 790.9702,-86 899.0298,-86 899.0298,-122"/>
<text text-anchor="middle" x="845" y="-99.8" font-family="Times,serif" font-size="14.00" fill="#000000">NetworkModule</text>
</g>
<!-- NetworkModule&#45;&gt;NgxDinoModule -->
<g id="edge4" class="edge">
<title>NetworkModule&#45;&gt;NgxDinoModule</title>
<path fill="none" stroke="#000000" d="M863.8381,-122.1243C863.8381,-136.7832 863.8381,-155 863.8381,-155 863.8381,-155 781.8913,-155 781.8913,-155"/>
<polygon fill="#000000" stroke="#000000" points="781.8913,-151.5001 771.8913,-155 781.8912,-158.5001 781.8913,-151.5001"/>
</g>
<!-- NodeSizeModule -->
<g id="node5" class="node">
<title>NodeSizeModule</title>
<polygon fill="#8dd3c7" stroke="#000000" points="772.9734,-122 769.9734,-126 748.9734,-126 745.9734,-122 659.0266,-122 659.0266,-86 772.9734,-86 772.9734,-122"/>
<text text-anchor="middle" x="716" y="-99.8" font-family="Times,serif" font-size="14.00" fill="#000000">NodeSizeModule</text>
</g>
<!-- NodeSizeModule&#45;&gt;NgxDinoModule -->
<g id="edge5" class="edge">
<title>NodeSizeModule&#45;&gt;NgxDinoModule</title>
<path fill="none" stroke="#000000" d="M716,-122.1061C716,-122.1061 716,-140.991 716,-140.991"/>
<polygon fill="#000000" stroke="#000000" points="712.5001,-140.9909 716,-150.991 719.5001,-140.991 712.5001,-140.9909"/>
</g>
<!-- ScatterplotModule -->
<g id="node6" class="node">
<title>ScatterplotModule</title>
<polygon fill="#8dd3c7" stroke="#000000" points="641.1994,-122 638.1994,-126 617.1994,-126 614.1994,-122 520.8006,-122 520.8006,-86 641.1994,-86 641.1994,-122"/>
<text text-anchor="middle" x="581" y="-99.8" font-family="Times,serif" font-size="14.00" fill="#000000">ScatterplotModule</text>
</g>
<!-- ScatterplotModule&#45;&gt;NgxDinoModule -->
<g id="edge6" class="edge">
<title>ScatterplotModule&#45;&gt;NgxDinoModule</title>
<path fill="none" stroke="#000000" d="M599.5332,-122.1243C599.5332,-136.7832 599.5332,-155 599.5332,-155 599.5332,-155 650.1545,-155 650.1545,-155"/>
<polygon fill="#000000" stroke="#000000" points="650.1545,-158.5001 660.1545,-155 650.1544,-151.5001 650.1545,-158.5001"/>
</g>
<!-- SciencemapModule -->
<g id="node7" class="node">
<title>SciencemapModule</title>
<polygon fill="#8dd3c7" stroke="#000000" points="502.6867,-122 499.6867,-126 478.6867,-126 475.6867,-122 375.3133,-122 375.3133,-86 502.6867,-86 502.6867,-122"/>
<text text-anchor="middle" x="439" y="-99.8" font-family="Times,serif" font-size="14.00" fill="#000000">SciencemapModule</text>
</g>
<!-- SciencemapModule&#45;&gt;NgxDinoModule -->
<g id="edge7" class="edge">
<title>SciencemapModule&#45;&gt;NgxDinoModule</title>
<path fill="none" stroke="#000000" d="M456.6978,-122.0091C456.6978,-138.0494 456.6978,-159 456.6978,-159 456.6978,-159 650.0545,-159 650.0545,-159"/>
<polygon fill="#000000" stroke="#000000" points="650.0546,-162.5001 660.0545,-159 650.0545,-155.5001 650.0546,-162.5001"/>
</g>
<!-- StaticLegendModule -->
<g id="node8" class="node">
<title>StaticLegendModule</title>
<polygon fill="#8dd3c7" stroke="#000000" points="357.9158,-122 354.9158,-126 333.9158,-126 330.9158,-122 224.0842,-122 224.0842,-86 357.9158,-86 357.9158,-122"/>
<text text-anchor="middle" x="291" y="-99.8" font-family="Times,serif" font-size="14.00" fill="#000000">StaticLegendModule</text>
</g>
<!-- StaticLegendModule&#45;&gt;NgxDinoModule -->
<g id="edge8" class="edge">
<title>StaticLegendModule&#45;&gt;NgxDinoModule</title>
<path fill="none" stroke="#000000" d="M353.0826,-122.0225C353.0826,-139.3734 353.0826,-163 353.0826,-163 353.0826,-163 650.0895,-163 650.0895,-163"/>
<polygon fill="#000000" stroke="#000000" points="650.0895,-166.5001 660.0895,-163 650.0895,-159.5001 650.0895,-166.5001"/>
</g>
<!-- TemporalBargraphModule -->
<g id="node9" class="node">
<title>TemporalBargraphModule</title>
<polygon fill="#8dd3c7" stroke="#000000" points="206.0604,-122 203.0604,-126 182.0604,-126 179.0604,-122 39.9396,-122 39.9396,-86 206.0604,-86 206.0604,-122"/>
<text text-anchor="middle" x="123" y="-99.8" font-family="Times,serif" font-size="14.00" fill="#000000">TemporalBargraphModule</text>
</g>
<!-- TemporalBargraphModule&#45;&gt;NgxDinoModule -->
<g id="edge9" class="edge">
<title>TemporalBargraphModule&#45;&gt;NgxDinoModule</title>
<path fill="none" stroke="#000000" d="M199.9052,-122.2222C199.9052,-140.8285 199.9052,-167 199.9052,-167 199.9052,-167 650.2785,-167 650.2785,-167"/>
<polygon fill="#000000" stroke="#000000" points="650.2785,-170.5001 660.2785,-167 650.2784,-163.5001 650.2785,-170.5001"/>
</g>
<!-- ColorModule  -->
<g id="node11" class="node">
<title>ColorModule </title>
<polygon fill="#fb8072" stroke="#000000" points="1279.4376,-252 1184.5624,-252 1184.5624,-216 1279.4376,-216 1279.4376,-252"/>
<text text-anchor="middle" x="1232" y="-229.8" font-family="Times,serif" font-size="14.00" fill="#000000">ColorModule </text>
</g>
<!-- NgxDinoModule&#45;&gt;ColorModule  -->
<g id="edge10" class="edge">
<title>NgxDinoModule&#45;&gt;ColorModule </title>
<path fill="none" stroke="#000000" stroke-dasharray="5,2" d="M771.8867,-171C904.0137,-171 1224.625,-171 1224.625,-171 1224.625,-171 1224.625,-205.7778 1224.625,-205.7778"/>
<polygon fill="#000000" stroke="#000000" points="1221.1251,-205.7778 1224.625,-215.7778 1228.1251,-205.7778 1221.1251,-205.7778"/>
</g>
<!-- EdgeSizeModule  -->
<g id="node12" class="node">
<title>EdgeSizeModule </title>
<polygon fill="#fb8072" stroke="#000000" points="1166.9194,-252 1051.0806,-252 1051.0806,-216 1166.9194,-216 1166.9194,-252"/>
<text text-anchor="middle" x="1109" y="-229.8" font-family="Times,serif" font-size="14.00" fill="#000000">EdgeSizeModule </text>
</g>
<!-- NgxDinoModule&#45;&gt;EdgeSizeModule  -->
<g id="edge11" class="edge">
<title>NgxDinoModule&#45;&gt;EdgeSizeModule </title>
<path fill="none" stroke="#000000" stroke-dasharray="5,2" d="M771.8779,-175C879.0847,-175 1103.125,-175 1103.125,-175 1103.125,-175 1103.125,-205.9775 1103.125,-205.9775"/>
<polygon fill="#000000" stroke="#000000" points="1099.6251,-205.9774 1103.125,-215.9775 1106.6251,-205.9775 1099.6251,-205.9774"/>
</g>
<!-- GeomapModule  -->
<g id="node13" class="node">
<title>GeomapModule </title>
<polygon fill="#fb8072" stroke="#000000" points="1033.4772,-252 922.5228,-252 922.5228,-216 1033.4772,-216 1033.4772,-252"/>
<text text-anchor="middle" x="978" y="-229.8" font-family="Times,serif" font-size="14.00" fill="#000000">GeomapModule </text>
</g>
<!-- NgxDinoModule&#45;&gt;GeomapModule  -->
<g id="edge12" class="edge">
<title>NgxDinoModule&#45;&gt;GeomapModule </title>
<path fill="none" stroke="#000000" stroke-dasharray="5,2" d="M771.8196,-179C842.9162,-179 956.6706,-179 956.6706,-179 956.6706,-179 956.6706,-205.9909 956.6706,-205.9909"/>
<polygon fill="#000000" stroke="#000000" points="953.1707,-205.9909 956.6706,-215.9909 960.1707,-205.991 953.1707,-205.9909"/>
</g>
<!-- NetworkModule  -->
<g id="node14" class="node">
<title>NetworkModule </title>
<polygon fill="#fb8072" stroke="#000000" points="905.0288,-252 792.9712,-252 792.9712,-216 905.0288,-216 905.0288,-252"/>
<text text-anchor="middle" x="849" y="-229.8" font-family="Times,serif" font-size="14.00" fill="#000000">NetworkModule </text>
</g>
<!-- NgxDinoModule&#45;&gt;NetworkModule  -->
<g id="edge13" class="edge">
<title>NgxDinoModule&#45;&gt;NetworkModule </title>
<path fill="none" stroke="#000000" stroke-dasharray="5,2" d="M771.8766,-183C800.0889,-183 828.4119,-183 828.4119,-183 828.4119,-183 828.4119,-205.8757 828.4119,-205.8757"/>
<polygon fill="#000000" stroke="#000000" points="824.912,-205.8757 828.4119,-215.8757 831.912,-205.8757 824.912,-205.8757"/>
</g>
<!-- NodeSizeModule  -->
<g id="node15" class="node">
<title>NodeSizeModule </title>
<polygon fill="#fb8072" stroke="#000000" points="774.9744,-252 657.0256,-252 657.0256,-216 774.9744,-216 774.9744,-252"/>
<text text-anchor="middle" x="716" y="-229.8" font-family="Times,serif" font-size="14.00" fill="#000000">NodeSizeModule </text>
</g>
<!-- NgxDinoModule&#45;&gt;NodeSizeModule  -->
<g id="edge14" class="edge">
<title>NgxDinoModule&#45;&gt;NodeSizeModule </title>
<path fill="none" stroke="#000000" stroke-dasharray="5,2" d="M716,-187.1061C716,-187.1061 716,-205.991 716,-205.991"/>
<polygon fill="#000000" stroke="#000000" points="712.5001,-205.9909 716,-215.991 719.5001,-205.991 712.5001,-205.9909"/>
</g>
<!-- ScatterplotModule  -->
<g id="node16" class="node">
<title>ScatterplotModule </title>
<polygon fill="#fb8072" stroke="#000000" points="638.6996,-252 515.3004,-252 515.3004,-216 638.6996,-216 638.6996,-252"/>
<text text-anchor="middle" x="577" y="-229.8" font-family="Times,serif" font-size="14.00" fill="#000000">ScatterplotModule </text>
</g>
<!-- NgxDinoModule&#45;&gt;ScatterplotModule  -->
<g id="edge15" class="edge">
<title>NgxDinoModule&#45;&gt;ScatterplotModule </title>
<path fill="none" stroke="#000000" stroke-dasharray="5,2" d="M660.1987,-183C615.4984,-183 560.2168,-183 560.2168,-183 560.2168,-183 560.2168,-205.8757 560.2168,-205.8757"/>
<polygon fill="#000000" stroke="#000000" points="556.7169,-205.8757 560.2168,-215.8757 563.7169,-205.8757 556.7169,-205.8757"/>
</g>
<!-- SciencemapModule  -->
<g id="node17" class="node">
<title>SciencemapModule </title>
<polygon fill="#fb8072" stroke="#000000" points="497.187,-252 366.813,-252 366.813,-216 497.187,-216 497.187,-252"/>
<text text-anchor="middle" x="432" y="-229.8" font-family="Times,serif" font-size="14.00" fill="#000000">SciencemapModule </text>
</g>
<!-- NgxDinoModule&#45;&gt;SciencemapModule  -->
<g id="edge16" class="edge">
<title>NgxDinoModule&#45;&gt;SciencemapModule </title>
<path fill="none" stroke="#000000" stroke-dasharray="5,2" d="M660.2851,-179C573.5424,-179 416.0522,-179 416.0522,-179 416.0522,-179 416.0522,-205.9909 416.0522,-205.9909"/>
<polygon fill="#000000" stroke="#000000" points="412.5523,-205.9909 416.0522,-215.9909 419.5523,-205.991 412.5523,-205.9909"/>
</g>
<!-- StaticLegendModule  -->
<g id="node18" class="node">
<title>StaticLegendModule </title>
<polygon fill="#fb8072" stroke="#000000" points="348.4152,-252 211.5848,-252 211.5848,-216 348.4152,-216 348.4152,-252"/>
<text text-anchor="middle" x="280" y="-229.8" font-family="Times,serif" font-size="14.00" fill="#000000">StaticLegendModule </text>
</g>
<!-- NgxDinoModule&#45;&gt;StaticLegendModule  -->
<g id="edge17" class="edge">
<title>NgxDinoModule&#45;&gt;StaticLegendModule </title>
<path fill="none" stroke="#000000" stroke-dasharray="5,2" d="M660.2745,-175C544.0285,-175 286.375,-175 286.375,-175 286.375,-175 286.375,-205.9775 286.375,-205.9775"/>
<polygon fill="#000000" stroke="#000000" points="282.8751,-205.9774 286.375,-215.9775 289.8751,-205.9775 282.8751,-205.9774"/>
</g>
<!-- TemporalBargraphModule  -->
<g id="node19" class="node">
<title>TemporalBargraphModule </title>
<polygon fill="#fb8072" stroke="#000000" points="193.561,-252 24.439,-252 24.439,-216 193.561,-216 193.561,-252"/>
<text text-anchor="middle" x="109" y="-229.8" font-family="Times,serif" font-size="14.00" fill="#000000">TemporalBargraphModule </text>
</g>
<!-- NgxDinoModule&#45;&gt;TemporalBargraphModule  -->
<g id="edge18" class="edge">
<title>NgxDinoModule&#45;&gt;TemporalBargraphModule </title>
<path fill="none" stroke="#000000" stroke-dasharray="5,2" d="M660.1738,-171C511.4409,-171 116.875,-171 116.875,-171 116.875,-171 116.875,-205.7778 116.875,-205.7778"/>
<polygon fill="#000000" stroke="#000000" points="113.3749,-205.7778 116.875,-215.7778 120.3749,-205.7778 113.3749,-205.7778"/>
</g>
</g>
</svg>
