<?xml version="1.0" encoding="UTF-8" standalone="no"?>
<!DOCTYPE svg PUBLIC "-//W3C//DTD SVG 1.1//EN"
 "http://www.w3.org/Graphics/SVG/1.1/DTD/svg11.dtd">
<!-- Generated by graphviz version 2.47.0 (20210316.0004)
 -->
<!-- Title: dependencies Pages: 1 -->
<svg width="1251pt" height="284pt"
 viewBox="0.00 0.00 1251.00 284.00" xmlns="http://www.w3.org/2000/svg" xmlns:xlink="http://www.w3.org/1999/xlink">
<g id="graph0" class="graph" transform="scale(1 1) rotate(0) translate(4 280)">
<title>dependencies</title>
<polygon fill="white" stroke="transparent" points="-4,4 -4,-280 1247,-280 1247,4 -4,4"/>
<text text-anchor="start" x="600.51" y="-42.4" font-family="sans-serif" font-weight="bold" font-size="14.00">Legend</text>
<polygon fill="#ffffb3" stroke="transparent" points="387.5,-10 387.5,-30 407.5,-30 407.5,-10 387.5,-10"/>
<text text-anchor="start" x="411.13" y="-15.4" font-family="sans-serif" font-size="14.00"> &#160;Declarations</text>
<polygon fill="#8dd3c7" stroke="transparent" points="500.5,-10 500.5,-30 520.5,-30 520.5,-10 500.5,-10"/>
<text text-anchor="start" x="524.23" y="-15.4" font-family="sans-serif" font-size="14.00"> &#160;Module</text>
<polygon fill="#80b1d3" stroke="transparent" points="586.5,-10 586.5,-30 606.5,-30 606.5,-10 586.5,-10"/>
<text text-anchor="start" x="610.28" y="-15.4" font-family="sans-serif" font-size="14.00"> &#160;Bootstrap</text>
<polygon fill="#fdb462" stroke="transparent" points="683.5,-10 683.5,-30 703.5,-30 703.5,-10 683.5,-10"/>
<text text-anchor="start" x="707.17" y="-15.4" font-family="sans-serif" font-size="14.00"> &#160;Providers</text>
<polygon fill="#fb8072" stroke="transparent" points="779.5,-10 779.5,-30 799.5,-30 799.5,-10 779.5,-10"/>
<text text-anchor="start" x="803.23" y="-15.4" font-family="sans-serif" font-size="14.00"> &#160;Exports</text>
<g id="clust1" class="cluster">
<title>cluster_MakeAVisModule</title>
<polygon fill="none" stroke="black" stroke-dasharray="1,5" points="8,-70 8,-268 1235,-268 1235,-70 8,-70"/>
</g>
<g id="clust6" class="cluster">
<title>cluster_MakeAVisModule_exports</title>
<polygon fill="none" stroke="black" points="528,-208 528,-260 816,-260 816,-208 528,-208"/>
</g>
<g id="clust5" class="cluster">
<title>cluster_MakeAVisModule_imports</title>
<polygon fill="none" stroke="black" points="351,-78 351,-130 1227,-130 1227,-78 351,-78"/>
</g>
<g id="clust2" class="cluster">
<title>cluster_MakeAVisModule_declarations</title>
<polygon fill="none" stroke="black" points="16,-78 16,-130 343,-130 343,-78 16,-78"/>
</g>
<!-- LightThemeComponent -->
<g id="node1" class="node">
<title>LightThemeComponent</title>
<polygon fill="#ffffb3" stroke="black" points="335.04,-122 184.96,-122 184.96,-86 335.04,-86 335.04,-122"/>
<text text-anchor="middle" x="260" y="-99.8" font-family="Times,serif" font-size="14.00">LightThemeComponent</text>
</g>
<!-- MakeAVisModule -->
<g id="node3" class="node">
<title>MakeAVisModule</title>
<polygon fill="#8dd3c7" stroke="black" points="722.47,-187 719.47,-191 698.47,-191 695.47,-187 601.53,-187 601.53,-151 722.47,-151 722.47,-187"/>
<text text-anchor="middle" x="662" y="-164.8" font-family="Times,serif" font-size="14.00">MakeAVisModule</text>
</g>
<!-- LightThemeComponent&#45;&gt;MakeAVisModule -->
<g id="edge1" class="edge">
<title>LightThemeComponent&#45;&gt;MakeAVisModule</title>
<path fill="none" stroke="black" d="M260,-122.11C260,-141.34 260,-169 260,-169 260,-169 591.38,-169 591.38,-169"/>
<polygon fill="black" stroke="black" points="591.38,-172.5 601.38,-169 591.38,-165.5 591.38,-172.5"/>
</g>
<!-- MakeAVisComponent -->
<g id="node2" class="node">
<title>MakeAVisComponent</title>
<polygon fill="#ffffb3" stroke="black" points="166.25,-122 23.75,-122 23.75,-86 166.25,-86 166.25,-122"/>
<text text-anchor="middle" x="95" y="-99.8" font-family="Times,serif" font-size="14.00">MakeAVisComponent</text>
</g>
<!-- MakeAVisComponent&#45;&gt;MakeAVisModule -->
<g id="edge2" class="edge">
<title>MakeAVisComponent&#45;&gt;MakeAVisModule</title>
<path fill="none" stroke="black" d="M95,-122.29C95,-144.21 95,-178 95,-178 95,-178 591.32,-178 591.32,-178"/>
<polygon fill="black" stroke="black" points="591.32,-181.5 601.32,-178 591.32,-174.5 591.32,-181.5"/>
</g>
<!-- MakeAVisComponent  -->
<g id="node10" class="node">
<title>MakeAVisComponent </title>
<polygon fill="#fb8072" stroke="black" points="808.25,-252 661.75,-252 661.75,-216 808.25,-216 808.25,-252"/>
<text text-anchor="middle" x="735" y="-229.8" font-family="Times,serif" font-size="14.00">MakeAVisComponent </text>
</g>
<!-- MakeAVisModule&#45;&gt;MakeAVisComponent  -->
<g id="edge9" class="edge">
<title>MakeAVisModule&#45;&gt;MakeAVisComponent </title>
<path fill="none" stroke="black" stroke-dasharray="5,2" d="M692.18,-187.11C692.18,-187.11 692.18,-205.99 692.18,-205.99"/>
<polygon fill="black" stroke="black" points="688.68,-205.99 692.18,-215.99 695.68,-205.99 688.68,-205.99"/>
</g>
<!-- ToolbarModule  -->
<g id="node11" class="node">
<title>ToolbarModule </title>
<polygon fill="#fb8072" stroke="black" points="643.87,-252 536.13,-252 536.13,-216 643.87,-216 643.87,-252"/>
<text text-anchor="middle" x="590" y="-229.8" font-family="Times,serif" font-size="14.00">ToolbarModule </text>
</g>
<!-- MakeAVisModule&#45;&gt;ToolbarModule  -->
<g id="edge10" class="edge">
<title>MakeAVisModule&#45;&gt;ToolbarModule </title>
<path fill="none" stroke="black" stroke-dasharray="5,2" d="M622.6,-187.11C622.6,-187.11 622.6,-205.99 622.6,-205.99"/>
<polygon fill="black" stroke="black" points="619.1,-205.99 622.6,-215.99 626.1,-205.99 619.1,-205.99"/>
</g>
<!-- DataViewModule -->
<g id="node4" class="node">
<title>DataViewModule</title>
<polygon fill="#8dd3c7" stroke="black" points="1219.29,-122 1216.29,-126 1195.29,-126 1192.29,-122 1102.71,-122 1102.71,-86 1219.29,-86 1219.29,-122"/>
<text text-anchor="middle" x="1161" y="-99.8" font-family="Times,serif" font-size="14.00">DataViewModule</text>
</g>
<!-- DataViewModule&#45;&gt;MakeAVisModule -->
<g id="edge3" class="edge">
<title>DataViewModule&#45;&gt;MakeAVisModule</title>
<path fill="none" stroke="black" d="M1161,-122.29C1161,-144.21 1161,-178 1161,-178 1161,-178 732.69,-178 732.69,-178"/>
<polygon fill="black" stroke="black" points="732.69,-174.5 722.69,-178 732.69,-181.5 732.69,-174.5"/>
</g>
<!-- DragDropModule -->
<g id="node5" class="node">
<title>DragDropModule</title>
<polygon fill="#8dd3c7" stroke="black" points="1085.3,-122 1082.3,-126 1061.3,-126 1058.3,-122 968.7,-122 968.7,-86 1085.3,-86 1085.3,-122"/>
<text text-anchor="middle" x="1027" y="-99.8" font-family="Times,serif" font-size="14.00">DragDropModule</text>
</g>
<!-- DragDropModule&#45;&gt;MakeAVisModule -->
<g id="edge4" class="edge">
<title>DragDropModule&#45;&gt;MakeAVisModule</title>
<path fill="none" stroke="black" d="M1027,-122.11C1027,-141.34 1027,-169 1027,-169 1027,-169 732.68,-169 732.68,-169"/>
<polygon fill="black" stroke="black" points="732.68,-165.5 722.68,-169 732.68,-172.5 732.68,-165.5"/>
</g>
<!-- LegendViewModule -->
<g id="node6" class="node">
<title>LegendViewModule</title>
<polygon fill="#8dd3c7" stroke="black" points="950.85,-122 947.85,-126 926.85,-126 923.85,-122 819.15,-122 819.15,-86 950.85,-86 950.85,-122"/>
<text text-anchor="middle" x="885" y="-99.8" font-family="Times,serif" font-size="14.00">LegendViewModule</text>
</g>
<!-- LegendViewModule&#45;&gt;MakeAVisModule -->
<g id="edge5" class="edge">
<title>LegendViewModule&#45;&gt;MakeAVisModule</title>
<path fill="none" stroke="black" d="M885,-122.03C885,-138.4 885,-160 885,-160 885,-160 732.64,-160 732.64,-160"/>
<polygon fill="black" stroke="black" points="732.64,-156.5 722.64,-160 732.64,-163.5 732.64,-156.5"/>
</g>
<!-- MavSelectionModule -->
<g id="node7" class="node">
<title>MavSelectionModule</title>
<polygon fill="#8dd3c7" stroke="black" points="800.81,-122 797.81,-126 776.81,-126 773.81,-122 663.19,-122 663.19,-86 800.81,-86 800.81,-122"/>
<text text-anchor="middle" x="732" y="-99.8" font-family="Times,serif" font-size="14.00">MavSelectionModule</text>
</g>
<!-- MavSelectionModule&#45;&gt;MakeAVisModule -->
<g id="edge6" class="edge">
<title>MavSelectionModule&#45;&gt;MakeAVisModule</title>
<path fill="none" stroke="black" d="M692.92,-122.11C692.92,-122.11 692.92,-140.99 692.92,-140.99"/>
<polygon fill="black" stroke="black" points="689.42,-140.99 692.92,-150.99 696.42,-140.99 689.42,-140.99"/>
</g>
<!-- ToolbarModule -->
<g id="node8" class="node">
<title>ToolbarModule</title>
<polygon fill="#8dd3c7" stroke="black" points="644.87,-122 641.87,-126 620.87,-126 617.87,-122 541.13,-122 541.13,-86 644.87,-86 644.87,-122"/>
<text text-anchor="middle" x="593" y="-99.8" font-family="Times,serif" font-size="14.00">ToolbarModule</text>
</g>
<!-- ToolbarModule&#45;&gt;MakeAVisModule -->
<g id="edge7" class="edge">
<title>ToolbarModule&#45;&gt;MakeAVisModule</title>
<path fill="none" stroke="black" d="M623.22,-122.11C623.22,-122.11 623.22,-140.99 623.22,-140.99"/>
<polygon fill="black" stroke="black" points="619.72,-140.99 623.22,-150.99 626.72,-140.99 619.72,-140.99"/>
</g>
<!-- VisualizationViewModule -->
<g id="node9" class="node">
<title>VisualizationViewModule</title>
<polygon fill="#8dd3c7" stroke="black" points="523.02,-122 520.02,-126 499.02,-126 496.02,-122 358.98,-122 358.98,-86 523.02,-86 523.02,-122"/>
<text text-anchor="middle" x="441" y="-99.8" font-family="Times,serif" font-size="14.00">VisualizationViewModule</text>
</g>
<!-- VisualizationViewModule&#45;&gt;MakeAVisModule -->
<g id="edge8" class="edge">
<title>VisualizationViewModule&#45;&gt;MakeAVisModule</title>
<path fill="none" stroke="black" d="M441,-122.03C441,-138.4 441,-160 441,-160 441,-160 591.32,-160 591.32,-160"/>
<polygon fill="black" stroke="black" points="591.32,-163.5 601.32,-160 591.32,-156.5 591.32,-163.5"/>
</g>
</g>
</svg>
