<?xml version="1.0" encoding="UTF-8" standalone="no"?>
<!DOCTYPE svg PUBLIC "-//W3C//DTD SVG 1.1//EN"
 "http://www.w3.org/Graphics/SVG/1.1/DTD/svg11.dtd">
<!-- Generated by graphviz version 2.47.0 (20210316.0004)
 -->
<!-- Title: dependencies Pages: 1 -->
<svg width="1251pt" height="284pt"
 viewBox="0.00 0.00 1251.00 284.00" xmlns="http://www.w3.org/2000/svg" xmlns:xlink="http://www.w3.org/1999/xlink">
<g id="graph0" class="graph" transform="scale(1 1) rotate(0) translate(4 280)">
<title>dependencies</title>
<polygon fill="white" stroke="transparent" points="-4,4 -4,-280 1247,-280 1247,4 -4,4"/>
<text text-anchor="start" x="600.51" y="-42.4" font-family="sans-serif" font-weight="bold" font-size="14.00">Legend</text>
<polygon fill="#ffffb3" stroke="transparent" points="387.5,-10 387.5,-30 407.5,-30 407.5,-10 387.5,-10"/>
<text text-anchor="start" x="411.13" y="-15.4" font-family="sans-serif" font-size="14.00"> &#160;Declarations</text>
<polygon fill="#8dd3c7" stroke="transparent" points="500.5,-10 500.5,-30 520.5,-30 520.5,-10 500.5,-10"/>
<text text-anchor="start" x="524.23" y="-15.4" font-family="sans-serif" font-size="14.00"> &#160;Module</text>
<polygon fill="#80b1d3" stroke="transparent" points="586.5,-10 586.5,-30 606.5,-30 606.5,-10 586.5,-10"/>
<text text-anchor="start" x="610.28" y="-15.4" font-family="sans-serif" font-size="14.00"> &#160;Bootstrap</text>
<polygon fill="#fdb462" stroke="transparent" points="683.5,-10 683.5,-30 703.5,-30 703.5,-10 683.5,-10"/>
<text text-anchor="start" x="707.17" y="-15.4" font-family="sans-serif" font-size="14.00"> &#160;Providers</text>
<polygon fill="#fb8072" stroke="transparent" points="779.5,-10 779.5,-30 799.5,-30 799.5,-10 779.5,-10"/>
<text text-anchor="start" x="803.23" y="-15.4" font-family="sans-serif" font-size="14.00"> &#160;Exports</text>
<g id="clust1" class="cluster">
<title>cluster_MakeAVisModule</title>
<polygon fill="none" stroke="black" stroke-dasharray="1,5" points="8,-70 8,-268 1235,-268 1235,-70 8,-70"/>
</g>
<g id="clust2" class="cluster">
<title>cluster_MakeAVisModule_declarations</title>
<polygon fill="none" stroke="black" points="900,-78 900,-130 1227,-130 1227,-78 900,-78"/>
</g>
<g id="clust6" class="cluster">
<title>cluster_MakeAVisModule_exports</title>
<polygon fill="none" stroke="black" points="487,-208 487,-260 775,-260 775,-208 487,-208"/>
</g>
<g id="clust5" class="cluster">
<title>cluster_MakeAVisModule_imports</title>
<polygon fill="none" stroke="black" points="16,-78 16,-130 892,-130 892,-78 16,-78"/>
</g>
<!-- LightThemeComponent -->
<g id="node1" class="node">
<title>LightThemeComponent</title>
<polygon fill="#ffffb3" stroke="black" points="1219.04,-122 1068.96,-122 1068.96,-86 1219.04,-86 1219.04,-122"/>
<text text-anchor="middle" x="1144" y="-99.8" font-family="Times,serif" font-size="14.00">LightThemeComponent</text>
</g>
<!-- MakeAVisModule -->
<g id="node3" class="node">
<title>MakeAVisModule</title>
<polygon fill="#8dd3c7" stroke="black" points="681.47,-187 678.47,-191 657.47,-191 654.47,-187 560.53,-187 560.53,-151 681.47,-151 681.47,-187"/>
<text text-anchor="middle" x="621" y="-164.8" font-family="Times,serif" font-size="14.00">MakeAVisModule</text>
</g>
<!-- LightThemeComponent&#45;&gt;MakeAVisModule -->
<g id="edge1" class="edge">
<title>LightThemeComponent&#45;&gt;MakeAVisModule</title>
<path fill="none" stroke="black" d="M1144,-122.29C1144,-144.21 1144,-178 1144,-178 1144,-178 691.51,-178 691.51,-178"/>
<polygon fill="black" stroke="black" points="691.51,-174.5 681.51,-178 691.51,-181.5 691.51,-174.5"/>
</g>
<!-- MakeAVisComponent -->
<g id="node2" class="node">
<title>MakeAVisComponent</title>
<polygon fill="#ffffb3" stroke="black" points="1050.25,-122 907.75,-122 907.75,-86 1050.25,-86 1050.25,-122"/>
<text text-anchor="middle" x="979" y="-99.8" font-family="Times,serif" font-size="14.00">MakeAVisComponent</text>
</g>
<!-- MakeAVisComponent&#45;&gt;MakeAVisModule -->
<g id="edge2" class="edge">
<title>MakeAVisComponent&#45;&gt;MakeAVisModule</title>
<path fill="none" stroke="black" d="M979,-122.11C979,-141.34 979,-169 979,-169 979,-169 691.73,-169 691.73,-169"/>
<polygon fill="black" stroke="black" points="691.73,-165.5 681.73,-169 691.73,-172.5 691.73,-165.5"/>
</g>
<!-- MakeAVisComponent  -->
<g id="node10" class="node">
<title>MakeAVisComponent </title>
<polygon fill="#fb8072" stroke="black" points="767.25,-252 620.75,-252 620.75,-216 767.25,-216 767.25,-252"/>
<text text-anchor="middle" x="694" y="-229.8" font-family="Times,serif" font-size="14.00">MakeAVisComponent </text>
</g>
<!-- MakeAVisModule&#45;&gt;MakeAVisComponent  -->
<g id="edge9" class="edge">
<title>MakeAVisModule&#45;&gt;MakeAVisComponent </title>
<path fill="none" stroke="black" stroke-dasharray="5,2" d="M651.18,-187.11C651.18,-187.11 651.18,-205.99 651.18,-205.99"/>
<polygon fill="black" stroke="black" points="647.68,-205.99 651.18,-215.99 654.68,-205.99 647.68,-205.99"/>
</g>
<!-- ToolbarModule  -->
<g id="node11" class="node">
<title>ToolbarModule </title>
<polygon fill="#fb8072" stroke="black" points="602.87,-252 495.13,-252 495.13,-216 602.87,-216 602.87,-252"/>
<text text-anchor="middle" x="549" y="-229.8" font-family="Times,serif" font-size="14.00">ToolbarModule </text>
</g>
<!-- MakeAVisModule&#45;&gt;ToolbarModule  -->
<g id="edge10" class="edge">
<title>MakeAVisModule&#45;&gt;ToolbarModule </title>
<path fill="none" stroke="black" stroke-dasharray="5,2" d="M581.6,-187.11C581.6,-187.11 581.6,-205.99 581.6,-205.99"/>
<polygon fill="black" stroke="black" points="578.1,-205.99 581.6,-215.99 585.1,-205.99 578.1,-205.99"/>
</g>
<!-- DataViewModule -->
<g id="node4" class="node">
<title>DataViewModule</title>
<polygon fill="#8dd3c7" stroke="black" points="884.29,-122 881.29,-126 860.29,-126 857.29,-122 767.71,-122 767.71,-86 884.29,-86 884.29,-122"/>
<text text-anchor="middle" x="826" y="-99.8" font-family="Times,serif" font-size="14.00">DataViewModule</text>
</g>
<!-- DataViewModule&#45;&gt;MakeAVisModule -->
<g id="edge3" class="edge">
<title>DataViewModule&#45;&gt;MakeAVisModule</title>
<path fill="none" stroke="black" d="M826,-122.03C826,-138.4 826,-160 826,-160 826,-160 691.67,-160 691.67,-160"/>
<polygon fill="black" stroke="black" points="691.67,-156.5 681.67,-160 691.67,-163.5 691.67,-156.5"/>
</g>
<!-- DragDropModule -->
<g id="node5" class="node">
<title>DragDropModule</title>
<polygon fill="#8dd3c7" stroke="black" points="750.3,-122 747.3,-126 726.3,-126 723.3,-122 633.7,-122 633.7,-86 750.3,-86 750.3,-122"/>
<text text-anchor="middle" x="692" y="-99.8" font-family="Times,serif" font-size="14.00">DragDropModule</text>
</g>
<!-- DragDropModule&#45;&gt;MakeAVisModule -->
<g id="edge4" class="edge">
<title>DragDropModule&#45;&gt;MakeAVisModule</title>
<path fill="none" stroke="black" d="M657.67,-122.11C657.67,-122.11 657.67,-140.99 657.67,-140.99"/>
<polygon fill="black" stroke="black" points="654.17,-140.99 657.67,-150.99 661.17,-140.99 654.17,-140.99"/>
</g>
<!-- LegendViewModule -->
<g id="node6" class="node">
<title>LegendViewModule</title>
<polygon fill="#8dd3c7" stroke="black" points="615.85,-122 612.85,-126 591.85,-126 588.85,-122 484.15,-122 484.15,-86 615.85,-86 615.85,-122"/>
<text text-anchor="middle" x="550" y="-99.8" font-family="Times,serif" font-size="14.00">LegendViewModule</text>
</g>
<!-- LegendViewModule&#45;&gt;MakeAVisModule -->
<g id="edge5" class="edge">
<title>LegendViewModule&#45;&gt;MakeAVisModule</title>
<path fill="none" stroke="black" d="M588.22,-122.11C588.22,-122.11 588.22,-140.99 588.22,-140.99"/>
<polygon fill="black" stroke="black" points="584.72,-140.99 588.22,-150.99 591.72,-140.99 584.72,-140.99"/>
</g>
<!-- MavSelectionModule -->
<g id="node7" class="node">
<title>MavSelectionModule</title>
<polygon fill="#8dd3c7" stroke="black" points="465.81,-122 462.81,-126 441.81,-126 438.81,-122 328.19,-122 328.19,-86 465.81,-86 465.81,-122"/>
<text text-anchor="middle" x="397" y="-99.8" font-family="Times,serif" font-size="14.00">MavSelectionModule</text>
</g>
<!-- MavSelectionModule&#45;&gt;MakeAVisModule -->
<g id="edge6" class="edge">
<title>MavSelectionModule&#45;&gt;MakeAVisModule</title>
<path fill="none" stroke="black" d="M397,-122.03C397,-138.4 397,-160 397,-160 397,-160 550.38,-160 550.38,-160"/>
<polygon fill="black" stroke="black" points="550.38,-163.5 560.38,-160 550.38,-156.5 550.38,-163.5"/>
</g>
<!-- ToolbarModule -->
<g id="node8" class="node">
<title>ToolbarModule</title>
<polygon fill="#8dd3c7" stroke="black" points="309.87,-122 306.87,-126 285.87,-126 282.87,-122 206.13,-122 206.13,-86 309.87,-86 309.87,-122"/>
<text text-anchor="middle" x="258" y="-99.8" font-family="Times,serif" font-size="14.00">ToolbarModule</text>
</g>
<!-- ToolbarModule&#45;&gt;MakeAVisModule -->
<g id="edge7" class="edge">
<title>ToolbarModule&#45;&gt;MakeAVisModule</title>
<path fill="none" stroke="black" d="M258,-122.11C258,-141.34 258,-169 258,-169 258,-169 550.24,-169 550.24,-169"/>
<polygon fill="black" stroke="black" points="550.24,-172.5 560.24,-169 550.24,-165.5 550.24,-172.5"/>
</g>
<!-- VisualizationViewModule -->
<g id="node9" class="node">
<title>VisualizationViewModule</title>
<polygon fill="#8dd3c7" stroke="black" points="188.02,-122 185.02,-126 164.02,-126 161.02,-122 23.98,-122 23.98,-86 188.02,-86 188.02,-122"/>
<text text-anchor="middle" x="106" y="-99.8" font-family="Times,serif" font-size="14.00">VisualizationViewModule</text>
</g>
<!-- VisualizationViewModule&#45;&gt;MakeAVisModule -->
<g id="edge8" class="edge">
<title>VisualizationViewModule&#45;&gt;MakeAVisModule</title>
<path fill="none" stroke="black" d="M106,-122.29C106,-144.21 106,-178 106,-178 106,-178 550.41,-178 550.41,-178"/>
<polygon fill="black" stroke="black" points="550.41,-181.5 560.41,-178 550.41,-174.5 550.41,-181.5"/>
</g>
</g>
</svg>
