<?xml version="1.0" encoding="UTF-8" standalone="no"?>
<!DOCTYPE svg PUBLIC "-//W3C//DTD SVG 1.1//EN"
 "http://www.w3.org/Graphics/SVG/1.1/DTD/svg11.dtd">
<!-- Generated by graphviz version 2.40.1 (20161225.0304)
 -->
<!-- Title: dependencies Pages: 1 -->
<svg width="1251pt" height="284pt"
 viewBox="0.00 0.00 1251.00 284.00" xmlns="http://www.w3.org/2000/svg" xmlns:xlink="http://www.w3.org/1999/xlink">
<g id="graph0" class="graph" transform="scale(1 1) rotate(0) translate(4 280)">
<title>dependencies</title>
<polygon fill="#ffffff" stroke="transparent" points="-4,4 -4,-280 1247,-280 1247,4 -4,4"/>
<text text-anchor="start" x="600.5091" y="-42.4" font-family="sans-serif" font-weight="bold" font-size="14.00" fill="#000000">Legend</text>
<polygon fill="#ffffb3" stroke="transparent" points="387.5,-10 387.5,-30 407.5,-30 407.5,-10 387.5,-10"/>
<text text-anchor="start" x="411.129" y="-15.4" font-family="sans-serif" font-size="14.00" fill="#000000"> &#160;Declarations</text>
<polygon fill="#8dd3c7" stroke="transparent" points="500.5,-10 500.5,-30 520.5,-30 520.5,-10 500.5,-10"/>
<text text-anchor="start" x="524.2251" y="-15.4" font-family="sans-serif" font-size="14.00" fill="#000000"> &#160;Module</text>
<polygon fill="#80b1d3" stroke="transparent" points="586.5,-10 586.5,-30 606.5,-30 606.5,-10 586.5,-10"/>
<text text-anchor="start" x="610.2812" y="-15.4" font-family="sans-serif" font-size="14.00" fill="#000000"> &#160;Bootstrap</text>
<polygon fill="#fdb462" stroke="transparent" points="683.5,-10 683.5,-30 703.5,-30 703.5,-10 683.5,-10"/>
<text text-anchor="start" x="707.1732" y="-15.4" font-family="sans-serif" font-size="14.00" fill="#000000"> &#160;Providers</text>
<polygon fill="#fb8072" stroke="transparent" points="779.5,-10 779.5,-30 799.5,-30 799.5,-10 779.5,-10"/>
<text text-anchor="start" x="803.2258" y="-15.4" font-family="sans-serif" font-size="14.00" fill="#000000"> &#160;Exports</text>
<g id="clust1" class="cluster">
<title>cluster_MakeAVisModule</title>
<polygon fill="none" stroke="#000000" stroke-dasharray="1,5" points="8,-70 8,-268 1235,-268 1235,-70 8,-70"/>
</g>
<g id="clust2" class="cluster">
<title>cluster_MakeAVisModule_declarations</title>
<polygon fill="none" stroke="#000000" points="900,-78 900,-130 1227,-130 1227,-78 900,-78"/>
</g>
<g id="clust5" class="cluster">
<title>cluster_MakeAVisModule_imports</title>
<polygon fill="none" stroke="#000000" points="16,-78 16,-130 892,-130 892,-78 16,-78"/>
</g>
<g id="clust6" class="cluster">
<title>cluster_MakeAVisModule_exports</title>
<polygon fill="none" stroke="#000000" points="487,-208 487,-260 775,-260 775,-208 487,-208"/>
</g>
<!-- LightThemeComponent -->
<g id="node1" class="node">
<title>LightThemeComponent</title>
<polygon fill="#ffffb3" stroke="#000000" points="1219.0393,-122 1068.9607,-122 1068.9607,-86 1219.0393,-86 1219.0393,-122"/>
<text text-anchor="middle" x="1144" y="-99.8" font-family="Times,serif" font-size="14.00" fill="#000000">LightThemeComponent</text>
</g>
<!-- MakeAVisModule -->
<g id="node3" class="node">
<title>MakeAVisModule</title>
<polygon fill="#8dd3c7" stroke="#000000" points="681.472,-187 678.472,-191 657.472,-191 654.472,-187 560.528,-187 560.528,-151 681.472,-151 681.472,-187"/>
<text text-anchor="middle" x="621" y="-164.8" font-family="Times,serif" font-size="14.00" fill="#000000">MakeAVisModule</text>
</g>
<!-- LightThemeComponent&#45;&gt;MakeAVisModule -->
<g id="edge1" class="edge">
<title>LightThemeComponent&#45;&gt;MakeAVisModule</title>
<path fill="none" stroke="#000000" d="M1144,-122.2921C1144,-144.2057 1144,-178 1144,-178 1144,-178 691.5057,-178 691.5057,-178"/>
<polygon fill="#000000" stroke="#000000" points="691.5057,-174.5001 681.5057,-178 691.5056,-181.5001 691.5057,-174.5001"/>
</g>
<!-- MakeAVisComponent -->
<g id="node2" class="node">
<title>MakeAVisComponent</title>
<polygon fill="#ffffb3" stroke="#000000" points="1050.2548,-122 907.7452,-122 907.7452,-86 1050.2548,-86 1050.2548,-122"/>
<text text-anchor="middle" x="979" y="-99.8" font-family="Times,serif" font-size="14.00" fill="#000000">MakeAVisComponent</text>
</g>
<!-- MakeAVisComponent&#45;&gt;MakeAVisModule -->
<g id="edge2" class="edge">
<title>MakeAVisComponent&#45;&gt;MakeAVisModule</title>
<path fill="none" stroke="#000000" d="M979,-122.1061C979,-141.3391 979,-169 979,-169 979,-169 691.7298,-169 691.7298,-169"/>
<polygon fill="#000000" stroke="#000000" points="691.7299,-165.5001 681.7298,-169 691.7298,-172.5001 691.7299,-165.5001"/>
</g>
<!-- MakeAVisComponent  -->
<g id="node10" class="node">
<title>MakeAVisComponent </title>
<polygon fill="#fb8072" stroke="#000000" points="767.2548,-252 620.7452,-252 620.7452,-216 767.2548,-216 767.2548,-252"/>
<text text-anchor="middle" x="694" y="-229.8" font-family="Times,serif" font-size="14.00" fill="#000000">MakeAVisComponent </text>
</g>
<!-- MakeAVisModule&#45;&gt;MakeAVisComponent  -->
<g id="edge9" class="edge">
<title>MakeAVisModule&#45;&gt;MakeAVisComponent </title>
<path fill="none" stroke="#000000" stroke-dasharray="5,2" d="M651.1794,-187.1061C651.1794,-187.1061 651.1794,-205.991 651.1794,-205.991"/>
<polygon fill="#000000" stroke="#000000" points="647.6794,-205.9909 651.1794,-215.991 654.6794,-205.991 647.6794,-205.9909"/>
</g>
<!-- ToolbarModule  -->
<g id="node11" class="node">
<title>ToolbarModule </title>
<polygon fill="#fb8072" stroke="#000000" points="602.8688,-252 495.1312,-252 495.1312,-216 602.8688,-216 602.8688,-252"/>
<text text-anchor="middle" x="549" y="-229.8" font-family="Times,serif" font-size="14.00" fill="#000000">ToolbarModule </text>
</g>
<!-- MakeAVisModule&#45;&gt;ToolbarModule  -->
<g id="edge10" class="edge">
<title>MakeAVisModule&#45;&gt;ToolbarModule </title>
<path fill="none" stroke="#000000" stroke-dasharray="5,2" d="M581.5991,-187.1061C581.5991,-187.1061 581.5991,-205.991 581.5991,-205.991"/>
<polygon fill="#000000" stroke="#000000" points="578.0991,-205.9909 581.5991,-215.991 585.0991,-205.991 578.0991,-205.9909"/>
</g>
<!-- DataViewModule -->
<g id="node4" class="node">
<title>DataViewModule</title>
<polygon fill="#8dd3c7" stroke="#000000" points="884.295,-122 881.295,-126 860.295,-126 857.295,-122 767.705,-122 767.705,-86 884.295,-86 884.295,-122"/>
<text text-anchor="middle" x="826" y="-99.8" font-family="Times,serif" font-size="14.00" fill="#000000">DataViewModule</text>
</g>
<!-- DataViewModule&#45;&gt;MakeAVisModule -->
<g id="edge3" class="edge">
<title>DataViewModule&#45;&gt;MakeAVisModule</title>
<path fill="none" stroke="#000000" d="M826,-122.027C826,-138.3976 826,-160 826,-160 826,-160 691.6747,-160 691.6747,-160"/>
<polygon fill="#000000" stroke="#000000" points="691.6747,-156.5001 681.6747,-160 691.6747,-163.5001 691.6747,-156.5001"/>
</g>
<!-- DragDropModule -->
<g id="node5" class="node">
<title>DragDropModule</title>
<polygon fill="#8dd3c7" stroke="#000000" points="750.2992,-122 747.2992,-126 726.2992,-126 723.2992,-122 633.7008,-122 633.7008,-86 750.2992,-86 750.2992,-122"/>
<text text-anchor="middle" x="692" y="-99.8" font-family="Times,serif" font-size="14.00" fill="#000000">DragDropModule</text>
</g>
<!-- DragDropModule&#45;&gt;MakeAVisModule -->
<g id="edge4" class="edge">
<title>DragDropModule&#45;&gt;MakeAVisModule</title>
<path fill="none" stroke="#000000" d="M657.6683,-122.1061C657.6683,-122.1061 657.6683,-140.991 657.6683,-140.991"/>
<polygon fill="#000000" stroke="#000000" points="654.1684,-140.9909 657.6683,-150.991 661.1684,-140.991 654.1684,-140.9909"/>
</g>
<!-- LegendViewModule -->
<g id="node6" class="node">
<title>LegendViewModule</title>
<polygon fill="#8dd3c7" stroke="#000000" points="615.8501,-122 612.8501,-126 591.8501,-126 588.8501,-122 484.1499,-122 484.1499,-86 615.8501,-86 615.8501,-122"/>
<text text-anchor="middle" x="550" y="-99.8" font-family="Times,serif" font-size="14.00" fill="#000000">LegendViewModule</text>
</g>
<!-- LegendViewModule&#45;&gt;MakeAVisModule -->
<g id="edge5" class="edge">
<title>LegendViewModule&#45;&gt;MakeAVisModule</title>
<path fill="none" stroke="#000000" d="M588.2195,-122.1061C588.2195,-122.1061 588.2195,-140.991 588.2195,-140.991"/>
<polygon fill="#000000" stroke="#000000" points="584.7196,-140.9909 588.2195,-150.991 591.7196,-140.991 584.7196,-140.9909"/>
</g>
<!-- MavSelectionModule -->
<g id="node7" class="node">
<title>MavSelectionModule</title>
<polygon fill="#8dd3c7" stroke="#000000" points="465.8075,-122 462.8075,-126 441.8075,-126 438.8075,-122 328.1925,-122 328.1925,-86 465.8075,-86 465.8075,-122"/>
<text text-anchor="middle" x="397" y="-99.8" font-family="Times,serif" font-size="14.00" fill="#000000">MavSelectionModule</text>
</g>
<!-- MavSelectionModule&#45;&gt;MakeAVisModule -->
<g id="edge6" class="edge">
<title>MavSelectionModule&#45;&gt;MakeAVisModule</title>
<path fill="none" stroke="#000000" d="M397,-122.027C397,-138.3976 397,-160 397,-160 397,-160 550.3824,-160 550.3824,-160"/>
<polygon fill="#000000" stroke="#000000" points="550.3824,-163.5001 560.3824,-160 550.3823,-156.5001 550.3824,-163.5001"/>
</g>
<!-- ToolbarModule -->
<g id="node8" class="node">
<title>ToolbarModule</title>
<polygon fill="#8dd3c7" stroke="#000000" points="309.8683,-122 306.8683,-126 285.8683,-126 282.8683,-122 206.1317,-122 206.1317,-86 309.8683,-86 309.8683,-122"/>
<text text-anchor="middle" x="258" y="-99.8" font-family="Times,serif" font-size="14.00" fill="#000000">ToolbarModule</text>
</g>
<!-- ToolbarModule&#45;&gt;MakeAVisModule -->
<g id="edge7" class="edge">
<title>ToolbarModule&#45;&gt;MakeAVisModule</title>
<path fill="none" stroke="#000000" d="M258,-122.1061C258,-141.3391 258,-169 258,-169 258,-169 550.242,-169 550.242,-169"/>
<polygon fill="#000000" stroke="#000000" points="550.242,-172.5001 560.242,-169 550.2419,-165.5001 550.242,-172.5001"/>
</g>
<!-- VisualizationViewModule -->
<g id="node9" class="node">
<title>VisualizationViewModule</title>
<polygon fill="#8dd3c7" stroke="#000000" points="188.0169,-122 185.0169,-126 164.0169,-126 161.0169,-122 23.9831,-122 23.9831,-86 188.0169,-86 188.0169,-122"/>
<text text-anchor="middle" x="106" y="-99.8" font-family="Times,serif" font-size="14.00" fill="#000000">VisualizationViewModule</text>
</g>
<!-- VisualizationViewModule&#45;&gt;MakeAVisModule -->
<g id="edge8" class="edge">
<title>VisualizationViewModule&#45;&gt;MakeAVisModule</title>
<path fill="none" stroke="#000000" d="M106,-122.2921C106,-144.2057 106,-178 106,-178 106,-178 550.4085,-178 550.4085,-178"/>
<polygon fill="#000000" stroke="#000000" points="550.4086,-181.5001 560.4085,-178 550.4085,-174.5001 550.4086,-181.5001"/>
</g>
</g>
</svg>
