<?xml version="1.0" encoding="UTF-8" standalone="no"?>
<!DOCTYPE svg PUBLIC "-//W3C//DTD SVG 1.1//EN"
 "http://www.w3.org/Graphics/SVG/1.1/DTD/svg11.dtd">
<!-- Generated by graphviz version 2.47.3 (20210619.1520)
 -->
<!-- Title: dependencies Pages: 1 -->
<svg width="1609pt" height="247pt"
 viewBox="0.00 0.00 1609.00 246.80" xmlns="http://www.w3.org/2000/svg" xmlns:xlink="http://www.w3.org/1999/xlink">
<g id="graph0" class="graph" transform="scale(1 1) rotate(0) translate(4 242.8)">
<title>dependencies</title>
<polygon fill="white" stroke="transparent" points="-4,4 -4,-242.8 1605,-242.8 1605,4 -4,4"/>
<text text-anchor="middle" x="800.5" y="-8.2" font-family="sans-serif" font-size="14.00">dependencies</text>
<g id="clust1" class="cluster">
<title>cluster_MakeAVisModule</title>
<polygon fill="none" stroke="black" stroke-dasharray="1,5" points="8,-32.8 8,-230.8 1593,-230.8 1593,-32.8 8,-32.8"/>
</g>
<g id="clust2" class="cluster">
<title>cluster_MakeAVisModule_declarations</title>
<polygon fill="none" stroke="black" points="1258,-40.8 1258,-92.8 1585,-92.8 1585,-40.8 1258,-40.8"/>
</g>
<g id="clust6" class="cluster">
<title>cluster_MakeAVisModule_exports</title>
<polygon fill="none" stroke="black" points="653,-170.8 653,-222.8 941,-222.8 941,-170.8 653,-170.8"/>
</g>
<g id="clust5" class="cluster">
<title>cluster_MakeAVisModule_imports</title>
<polygon fill="none" stroke="black" points="16,-40.8 16,-92.8 1250,-92.8 1250,-40.8 16,-40.8"/>
</g>
<!-- LightThemeComponent -->
<g id="node1" class="node">
<title>LightThemeComponent</title>
<polygon fill="#ffffb3" stroke="black" points="1577.04,-84.8 1426.96,-84.8 1426.96,-48.8 1577.04,-48.8 1577.04,-84.8"/>
<text text-anchor="middle" x="1502" y="-62.6" font-family="Times,serif" font-size="14.00">LightThemeComponent</text>
</g>
<!-- MakeAVisModule -->
<g id="node3" class="node">
<title>MakeAVisModule</title>
<polygon fill="#8dd3c7" stroke="black" points="847.47,-149.8 844.47,-153.8 823.47,-153.8 820.47,-149.8 726.53,-149.8 726.53,-113.8 847.47,-113.8 847.47,-149.8"/>
<text text-anchor="middle" x="787" y="-127.6" font-family="Times,serif" font-size="14.00">MakeAVisModule</text>
</g>
<!-- LightThemeComponent&#45;&gt;MakeAVisModule -->
<g id="edge1" class="edge">
<title>LightThemeComponent&#45;&gt;MakeAVisModule</title>
<path fill="none" stroke="black" d="M1502,-84.81C1502,-107.29 1502,-142.8 1502,-142.8 1502,-142.8 857.65,-142.8 857.65,-142.8"/>
<polygon fill="black" stroke="black" points="857.65,-139.3 847.65,-142.8 857.65,-146.3 857.65,-139.3"/>
</g>
<!-- MakeAVisComponent -->
<g id="node2" class="node">
<title>MakeAVisComponent</title>
<polygon fill="#ffffb3" stroke="black" points="1408.25,-84.8 1265.75,-84.8 1265.75,-48.8 1408.25,-48.8 1408.25,-84.8"/>
<text text-anchor="middle" x="1337" y="-62.6" font-family="Times,serif" font-size="14.00">MakeAVisComponent</text>
</g>
<!-- MakeAVisComponent&#45;&gt;MakeAVisModule -->
<g id="edge2" class="edge">
<title>MakeAVisComponent&#45;&gt;MakeAVisModule</title>
<path fill="none" stroke="black" d="M1337,-84.93C1337,-105.37 1337,-135.8 1337,-135.8 1337,-135.8 857.7,-135.8 857.7,-135.8"/>
<polygon fill="black" stroke="black" points="857.7,-132.3 847.7,-135.8 857.7,-139.3 857.7,-132.3"/>
</g>
<!-- MakeAVisComponent  -->
<g id="node12" class="node">
<title>MakeAVisComponent </title>
<polygon fill="#fb8072" stroke="black" points="933.25,-214.8 786.75,-214.8 786.75,-178.8 933.25,-178.8 933.25,-214.8"/>
<text text-anchor="middle" x="860" y="-192.6" font-family="Times,serif" font-size="14.00">MakeAVisComponent </text>
</g>
<!-- MakeAVisModule&#45;&gt;MakeAVisComponent  -->
<g id="edge11" class="edge">
<title>MakeAVisModule&#45;&gt;MakeAVisComponent </title>
<path fill="none" stroke="black" stroke-dasharray="5,2" d="M817.18,-149.91C817.18,-149.91 817.18,-168.79 817.18,-168.79"/>
<polygon fill="black" stroke="black" points="813.68,-168.79 817.18,-178.79 820.68,-168.79 813.68,-168.79"/>
</g>
<!-- ToolbarModule  -->
<g id="node13" class="node">
<title>ToolbarModule </title>
<polygon fill="#fb8072" stroke="black" points="768.87,-214.8 661.13,-214.8 661.13,-178.8 768.87,-178.8 768.87,-214.8"/>
<text text-anchor="middle" x="715" y="-192.6" font-family="Times,serif" font-size="14.00">ToolbarModule </text>
</g>
<!-- MakeAVisModule&#45;&gt;ToolbarModule  -->
<g id="edge12" class="edge">
<title>MakeAVisModule&#45;&gt;ToolbarModule </title>
<path fill="none" stroke="black" stroke-dasharray="5,2" d="M747.6,-149.91C747.6,-149.91 747.6,-168.79 747.6,-168.79"/>
<polygon fill="black" stroke="black" points="744.1,-168.79 747.6,-178.79 751.1,-168.79 744.1,-168.79"/>
</g>
<!-- ConfirmationDialogModule -->
<g id="node4" class="node">
<title>ConfirmationDialogModule</title>
<polygon fill="#8dd3c7" stroke="black" points="1241.59,-84.8 1238.59,-88.8 1217.59,-88.8 1214.59,-84.8 1068.41,-84.8 1068.41,-48.8 1241.59,-48.8 1241.59,-84.8"/>
<text text-anchor="middle" x="1155" y="-62.6" font-family="Times,serif" font-size="14.00">ConfirmationDialogModule</text>
</g>
<!-- ConfirmationDialogModule&#45;&gt;MakeAVisModule -->
<g id="edge3" class="edge">
<title>ConfirmationDialogModule&#45;&gt;MakeAVisModule</title>
<path fill="none" stroke="black" d="M1155,-85.07C1155,-103.36 1155,-128.8 1155,-128.8 1155,-128.8 857.77,-128.8 857.77,-128.8"/>
<polygon fill="black" stroke="black" points="857.77,-125.3 847.77,-128.8 857.77,-132.3 857.77,-125.3"/>
</g>
<!-- DataViewModule -->
<g id="node5" class="node">
<title>DataViewModule</title>
<polygon fill="#8dd3c7" stroke="black" points="1050.29,-84.8 1047.29,-88.8 1026.29,-88.8 1023.29,-84.8 933.71,-84.8 933.71,-48.8 1050.29,-48.8 1050.29,-84.8"/>
<text text-anchor="middle" x="992" y="-62.6" font-family="Times,serif" font-size="14.00">DataViewModule</text>
</g>
<!-- DataViewModule&#45;&gt;MakeAVisModule -->
<g id="edge4" class="edge">
<title>DataViewModule&#45;&gt;MakeAVisModule</title>
<path fill="none" stroke="black" d="M992,-84.81C992,-100.85 992,-121.8 992,-121.8 992,-121.8 857.67,-121.8 857.67,-121.8"/>
<polygon fill="black" stroke="black" points="857.67,-118.3 847.67,-121.8 857.67,-125.3 857.67,-118.3"/>
</g>
<!-- DragDropModule -->
<g id="node6" class="node">
<title>DragDropModule</title>
<polygon fill="#8dd3c7" stroke="black" points="916.3,-84.8 913.3,-88.8 892.3,-88.8 889.3,-84.8 799.7,-84.8 799.7,-48.8 916.3,-48.8 916.3,-84.8"/>
<text text-anchor="middle" x="858" y="-62.6" font-family="Times,serif" font-size="14.00">DragDropModule</text>
</g>
<!-- DragDropModule&#45;&gt;MakeAVisModule -->
<g id="edge5" class="edge">
<title>DragDropModule&#45;&gt;MakeAVisModule</title>
<path fill="none" stroke="black" d="M823.67,-84.91C823.67,-84.91 823.67,-103.79 823.67,-103.79"/>
<polygon fill="black" stroke="black" points="820.17,-103.79 823.67,-113.79 827.17,-103.79 820.17,-103.79"/>
</g>
<!-- LegendViewModule -->
<g id="node7" class="node">
<title>LegendViewModule</title>
<polygon fill="#8dd3c7" stroke="black" points="781.85,-84.8 778.85,-88.8 757.85,-88.8 754.85,-84.8 650.15,-84.8 650.15,-48.8 781.85,-48.8 781.85,-84.8"/>
<text text-anchor="middle" x="716" y="-62.6" font-family="Times,serif" font-size="14.00">LegendViewModule</text>
</g>
<!-- LegendViewModule&#45;&gt;MakeAVisModule -->
<g id="edge6" class="edge">
<title>LegendViewModule&#45;&gt;MakeAVisModule</title>
<path fill="none" stroke="black" d="M754.22,-84.91C754.22,-84.91 754.22,-103.79 754.22,-103.79"/>
<polygon fill="black" stroke="black" points="750.72,-103.79 754.22,-113.79 757.72,-103.79 750.72,-103.79"/>
</g>
<!-- MavSelectionModule -->
<g id="node8" class="node">
<title>MavSelectionModule</title>
<polygon fill="#8dd3c7" stroke="black" points="631.81,-84.8 628.81,-88.8 607.81,-88.8 604.81,-84.8 494.19,-84.8 494.19,-48.8 631.81,-48.8 631.81,-84.8"/>
<text text-anchor="middle" x="563" y="-62.6" font-family="Times,serif" font-size="14.00">MavSelectionModule</text>
</g>
<!-- MavSelectionModule&#45;&gt;MakeAVisModule -->
<g id="edge7" class="edge">
<title>MavSelectionModule&#45;&gt;MakeAVisModule</title>
<path fill="none" stroke="black" d="M563,-84.81C563,-100.85 563,-121.8 563,-121.8 563,-121.8 716.38,-121.8 716.38,-121.8"/>
<polygon fill="black" stroke="black" points="716.38,-125.3 726.38,-121.8 716.38,-118.3 716.38,-125.3"/>
</g>
<!-- SpinnerOverlayModule -->
<g id="node9" class="node">
<title>SpinnerOverlayModule</title>
<polygon fill="#8dd3c7" stroke="black" points="476.19,-84.8 473.19,-88.8 452.19,-88.8 449.19,-84.8 327.81,-84.8 327.81,-48.8 476.19,-48.8 476.19,-84.8"/>
<text text-anchor="middle" x="402" y="-62.6" font-family="Times,serif" font-size="14.00">SpinnerOverlayModule</text>
</g>
<!-- SpinnerOverlayModule&#45;&gt;MakeAVisModule -->
<g id="edge8" class="edge">
<title>SpinnerOverlayModule&#45;&gt;MakeAVisModule</title>
<path fill="none" stroke="black" d="M402,-85.07C402,-103.36 402,-128.8 402,-128.8 402,-128.8 716.42,-128.8 716.42,-128.8"/>
<polygon fill="black" stroke="black" points="716.42,-132.3 726.42,-128.8 716.42,-125.3 716.42,-132.3"/>
</g>
<!-- ToolbarModule -->
<g id="node10" class="node">
<title>ToolbarModule</title>
<polygon fill="#8dd3c7" stroke="black" points="309.87,-84.8 306.87,-88.8 285.87,-88.8 282.87,-84.8 206.13,-84.8 206.13,-48.8 309.87,-48.8 309.87,-84.8"/>
<text text-anchor="middle" x="258" y="-62.6" font-family="Times,serif" font-size="14.00">ToolbarModule</text>
</g>
<!-- ToolbarModule&#45;&gt;MakeAVisModule -->
<g id="edge9" class="edge">
<title>ToolbarModule&#45;&gt;MakeAVisModule</title>
<path fill="none" stroke="black" d="M258,-84.93C258,-105.37 258,-135.8 258,-135.8 258,-135.8 716.32,-135.8 716.32,-135.8"/>
<polygon fill="black" stroke="black" points="716.32,-139.3 726.32,-135.8 716.32,-132.3 716.32,-139.3"/>
</g>
<!-- VisualizationViewModule -->
<g id="node11" class="node">
<title>VisualizationViewModule</title>
<polygon fill="#8dd3c7" stroke="black" points="188.02,-84.8 185.02,-88.8 164.02,-88.8 161.02,-84.8 23.98,-84.8 23.98,-48.8 188.02,-48.8 188.02,-84.8"/>
<text text-anchor="middle" x="106" y="-62.6" font-family="Times,serif" font-size="14.00">VisualizationViewModule</text>
</g>
<!-- VisualizationViewModule&#45;&gt;MakeAVisModule -->
<g id="edge10" class="edge">
<title>VisualizationViewModule&#45;&gt;MakeAVisModule</title>
<path fill="none" stroke="black" d="M106,-84.81C106,-107.29 106,-142.8 106,-142.8 106,-142.8 716.27,-142.8 716.27,-142.8"/>
<polygon fill="black" stroke="black" points="716.27,-146.3 726.27,-142.8 716.27,-139.3 716.27,-146.3"/>
</g>
</g>
</svg>
