<?xml version="1.0" encoding="UTF-8" standalone="no"?>
<!DOCTYPE svg PUBLIC "-//W3C//DTD SVG 1.1//EN"
 "http://www.w3.org/Graphics/SVG/1.1/DTD/svg11.dtd">
<!-- Generated by graphviz version 2.40.1 (20161225.0304)
 -->
<!-- Title: dependencies Pages: 1 -->
<svg width="504pt" height="284pt"
 viewBox="0.00 0.00 504.00 284.00" xmlns="http://www.w3.org/2000/svg" xmlns:xlink="http://www.w3.org/1999/xlink">
<g id="graph0" class="graph" transform="scale(1 1) rotate(0) translate(4 280)">
<title>dependencies</title>
<polygon fill="#ffffff" stroke="transparent" points="-4,4 -4,-280 500,-280 500,4 -4,4"/>
<text text-anchor="start" x="227.0091" y="-42.4" font-family="sans-serif" font-weight="bold" font-size="14.00" fill="#000000">Legend</text>
<polygon fill="#ffffb3" stroke="transparent" points="14,-10 14,-30 34,-30 34,-10 14,-10"/>
<text text-anchor="start" x="37.629" y="-15.4" font-family="sans-serif" font-size="14.00" fill="#000000"> &#160;Declarations</text>
<polygon fill="#8dd3c7" stroke="transparent" points="127,-10 127,-30 147,-30 147,-10 127,-10"/>
<text text-anchor="start" x="150.7251" y="-15.4" font-family="sans-serif" font-size="14.00" fill="#000000"> &#160;Module</text>
<polygon fill="#80b1d3" stroke="transparent" points="213,-10 213,-30 233,-30 233,-10 213,-10"/>
<text text-anchor="start" x="236.7812" y="-15.4" font-family="sans-serif" font-size="14.00" fill="#000000"> &#160;Bootstrap</text>
<polygon fill="#fdb462" stroke="transparent" points="310,-10 310,-30 330,-30 330,-10 310,-10"/>
<text text-anchor="start" x="333.6732" y="-15.4" font-family="sans-serif" font-size="14.00" fill="#000000"> &#160;Providers</text>
<polygon fill="#fb8072" stroke="transparent" points="406,-10 406,-30 426,-30 426,-10 406,-10"/>
<text text-anchor="start" x="429.7258" y="-15.4" font-family="sans-serif" font-size="14.00" fill="#000000"> &#160;Exports</text>
<g id="clust1" class="cluster">
<title>cluster_LegendModule</title>
<polygon fill="none" stroke="#000000" stroke-dasharray="1,5" points="115,-70 115,-268 381,-268 381,-70 115,-70"/>
</g>
<g id="clust2" class="cluster">
<title>cluster_LegendModule_declarations</title>
<polygon fill="none" stroke="#000000" points="233,-78 233,-130 373,-130 373,-78 233,-78"/>
</g>
<g id="clust4" class="cluster">
<title>cluster_LegendModule_imports</title>
<polygon fill="none" stroke="#000000" points="123,-78 123,-130 225,-130 225,-78 123,-78"/>
</g>
<g id="clust5" class="cluster">
<title>cluster_LegendModule_exports</title>
<polygon fill="none" stroke="#000000" points="123,-208 123,-260 372,-260 372,-208 123,-208"/>
</g>
<!-- LegendComponent -->
<g id="node1" class="node">
<title>LegendComponent</title>
<polygon fill="#ffffb3" stroke="#000000" points="364.8146,-122 241.1854,-122 241.1854,-86 364.8146,-86 364.8146,-122"/>
<text text-anchor="middle" x="303" y="-99.8" font-family="Times,serif" font-size="14.00" fill="#000000">LegendComponent</text>
</g>
<!-- LegendModule -->
<g id="node2" class="node">
<title>LegendModule</title>
<polygon fill="#8dd3c7" stroke="#000000" points="298.5327,-187 295.5327,-191 274.5327,-191 271.5327,-187 197.4673,-187 197.4673,-151 298.5327,-151 298.5327,-187"/>
<text text-anchor="middle" x="248" y="-164.8" font-family="Times,serif" font-size="14.00" fill="#000000">LegendModule</text>
</g>
<!-- LegendComponent&#45;&gt;LegendModule -->
<g id="edge1" class="edge">
<title>LegendComponent&#45;&gt;LegendModule</title>
<path fill="none" stroke="#000000" d="M270.0544,-122.1061C270.0544,-122.1061 270.0544,-140.991 270.0544,-140.991"/>
<polygon fill="#000000" stroke="#000000" points="266.5544,-140.9909 270.0544,-150.991 273.5544,-140.991 266.5544,-140.9909"/>
</g>
<!-- ItemModule  -->
<g id="node4" class="node">
<title>ItemModule </title>
<polygon fill="#fb8072" stroke="#000000" points="364.2067,-252 275.7933,-252 275.7933,-216 364.2067,-216 364.2067,-252"/>
<text text-anchor="middle" x="320" y="-229.8" font-family="Times,serif" font-size="14.00" fill="#000000">ItemModule </text>
</g>
<!-- LegendModule&#45;&gt;ItemModule  -->
<g id="edge3" class="edge">
<title>LegendModule&#45;&gt;ItemModule </title>
<path fill="none" stroke="#000000" stroke-dasharray="5,2" d="M287.2064,-187.1061C287.2064,-187.1061 287.2064,-205.991 287.2064,-205.991"/>
<polygon fill="#000000" stroke="#000000" points="283.7064,-205.9909 287.2064,-215.991 290.7064,-205.991 283.7064,-205.9909"/>
</g>
<!-- LegendComponent  -->
<g id="node5" class="node">
<title>LegendComponent </title>
<polygon fill="#fb8072" stroke="#000000" points="257.3143,-252 130.6857,-252 130.6857,-216 257.3143,-216 257.3143,-252"/>
<text text-anchor="middle" x="194" y="-229.8" font-family="Times,serif" font-size="14.00" fill="#000000">LegendComponent </text>
</g>
<!-- LegendModule&#45;&gt;LegendComponent  -->
<g id="edge4" class="edge">
<title>LegendModule&#45;&gt;LegendComponent </title>
<path fill="none" stroke="#000000" stroke-dasharray="5,2" d="M227.3207,-187.1061C227.3207,-187.1061 227.3207,-205.991 227.3207,-205.991"/>
<polygon fill="#000000" stroke="#000000" points="223.8207,-205.9909 227.3207,-215.991 230.8207,-205.991 223.8207,-205.9909"/>
</g>
<!-- ItemModule -->
<g id="node3" class="node">
<title>ItemModule</title>
<polygon fill="#8dd3c7" stroke="#000000" points="216.7065,-122 213.7065,-126 192.7065,-126 189.7065,-122 131.2935,-122 131.2935,-86 216.7065,-86 216.7065,-122"/>
<text text-anchor="middle" x="174" y="-99.8" font-family="Times,serif" font-size="14.00" fill="#000000">ItemModule</text>
</g>
<!-- ItemModule&#45;&gt;LegendModule -->
<g id="edge2" class="edge">
<title>ItemModule&#45;&gt;LegendModule</title>
<path fill="none" stroke="#000000" d="M206.9187,-122.1061C206.9187,-122.1061 206.9187,-140.991 206.9187,-140.991"/>
<polygon fill="#000000" stroke="#000000" points="203.4187,-140.9909 206.9187,-150.991 210.4187,-140.991 203.4187,-140.9909"/>
</g>
</g>
</svg>
