<?xml version="1.0" encoding="UTF-8" standalone="no"?>
<!DOCTYPE svg PUBLIC "-//W3C//DTD SVG 1.1//EN"
 "http://www.w3.org/Graphics/SVG/1.1/DTD/svg11.dtd">
<!-- Generated by graphviz version 2.47.3 (20210619.1520)
 -->
<!-- Title: dependencies Pages: 1 -->
<svg width="542pt" height="247pt"
 viewBox="0.00 0.00 542.00 246.80" xmlns="http://www.w3.org/2000/svg" xmlns:xlink="http://www.w3.org/1999/xlink">
<g id="graph0" class="graph" transform="scale(1 1) rotate(0) translate(4 242.8)">
<title>dependencies</title>
<polygon fill="white" stroke="transparent" points="-4,4 -4,-242.8 538,-242.8 538,4 -4,4"/>
<text text-anchor="middle" x="267" y="-8.2" font-family="sans-serif" font-size="14.00">dependencies</text>
<g id="clust1" class="cluster">
<title>cluster_ScatterplotModule</title>
<polygon fill="none" stroke="black" stroke-dasharray="1,5" points="8,-32.8 8,-230.8 526,-230.8 526,-32.8 8,-32.8"/>
</g>
<g id="clust5" class="cluster">
<title>cluster_ScatterplotModule_imports</title>
<polygon fill="none" stroke="black" points="388,-40.8 388,-92.8 518,-92.8 518,-40.8 388,-40.8"/>
</g>
<g id="clust2" class="cluster">
<title>cluster_ScatterplotModule_declarations</title>
<polygon fill="none" stroke="black" points="16,-40.8 16,-92.8 380,-92.8 380,-40.8 16,-40.8"/>
</g>
<g id="clust6" class="cluster">
<title>cluster_ScatterplotModule_exports</title>
<polygon fill="none" stroke="black" points="220,-170.8 220,-222.8 382,-222.8 382,-170.8 220,-170.8"/>
</g>
<!-- ScatterplotComponent -->
<g id="node1" class="node">
<title>ScatterplotComponent</title>
<polygon fill="#ffffb3" stroke="black" points="371.98,-84.8 230.02,-84.8 230.02,-48.8 371.98,-48.8 371.98,-84.8"/>
<text text-anchor="middle" x="301" y="-62.6" font-family="Times,serif" font-size="14.00">ScatterplotComponent</text>
</g>
<!-- ScatterplotModule -->
<g id="node3" class="node">
<title>ScatterplotModule</title>
<polygon fill="#8dd3c7" stroke="black" points="361.2,-149.8 358.2,-153.8 337.2,-153.8 334.2,-149.8 240.8,-149.8 240.8,-113.8 361.2,-113.8 361.2,-149.8"/>
<text text-anchor="middle" x="301" y="-127.6" font-family="Times,serif" font-size="14.00">ScatterplotModule</text>
</g>
<!-- ScatterplotComponent&#45;&gt;ScatterplotModule -->
<g id="edge1" class="edge">
<title>ScatterplotComponent&#45;&gt;ScatterplotModule</title>
<path fill="none" stroke="black" d="M301,-84.91C301,-84.91 301,-103.79 301,-103.79"/>
<polygon fill="black" stroke="black" points="297.5,-103.79 301,-113.79 304.5,-103.79 297.5,-103.79"/>
</g>
<!-- ScatterplotSettingsComponent -->
<g id="node2" class="node">
<title>ScatterplotSettingsComponent</title>
<polygon fill="#ffffb3" stroke="black" points="211.6,-84.8 24.4,-84.8 24.4,-48.8 211.6,-48.8 211.6,-84.8"/>
<text text-anchor="middle" x="118" y="-62.6" font-family="Times,serif" font-size="14.00">ScatterplotSettingsComponent</text>
</g>
<!-- ScatterplotSettingsComponent&#45;&gt;ScatterplotModule -->
<g id="edge2" class="edge">
<title>ScatterplotSettingsComponent&#45;&gt;ScatterplotModule</title>
<path fill="none" stroke="black" d="M118,-84.91C118,-104.14 118,-131.8 118,-131.8 118,-131.8 230.83,-131.8 230.83,-131.8"/>
<polygon fill="black" stroke="black" points="230.83,-135.3 240.83,-131.8 230.83,-128.3 230.83,-135.3"/>
</g>
<!-- ScatterplotComponent  -->
<g id="node5" class="node">
<title>ScatterplotComponent </title>
<polygon fill="#fb8072" stroke="black" points="373.98,-214.8 228.02,-214.8 228.02,-178.8 373.98,-178.8 373.98,-214.8"/>
<text text-anchor="middle" x="301" y="-192.6" font-family="Times,serif" font-size="14.00">ScatterplotComponent </text>
</g>
<!-- ScatterplotModule&#45;&gt;ScatterplotComponent  -->
<g id="edge4" class="edge">
<title>ScatterplotModule&#45;&gt;ScatterplotComponent </title>
<path fill="none" stroke="black" stroke-dasharray="5,2" d="M301,-149.91C301,-149.91 301,-168.79 301,-168.79"/>
<polygon fill="black" stroke="black" points="297.5,-168.79 301,-178.79 304.5,-168.79 297.5,-168.79"/>
</g>
<!-- NgxVegaModule -->
<g id="node4" class="node">
<title>NgxVegaModule</title>
<polygon fill="#8dd3c7" stroke="black" points="509.69,-84.8 506.69,-88.8 485.69,-88.8 482.69,-84.8 396.31,-84.8 396.31,-48.8 509.69,-48.8 509.69,-84.8"/>
<text text-anchor="middle" x="453" y="-62.6" font-family="Times,serif" font-size="14.00">NgxVegaModule</text>
</g>
<!-- NgxVegaModule&#45;&gt;ScatterplotModule -->
<g id="edge3" class="edge">
<title>NgxVegaModule&#45;&gt;ScatterplotModule</title>
<path fill="none" stroke="black" d="M453,-84.91C453,-104.14 453,-131.8 453,-131.8 453,-131.8 371.51,-131.8 371.51,-131.8"/>
<polygon fill="black" stroke="black" points="371.51,-128.3 361.51,-131.8 371.51,-135.3 371.51,-128.3"/>
</g>
</g>
</svg>
