<?xml version="1.0" encoding="UTF-8" standalone="no"?>
<!DOCTYPE svg PUBLIC "-//W3C//DTD SVG 1.1//EN"
 "http://www.w3.org/Graphics/SVG/1.1/DTD/svg11.dtd">
<!-- Generated by graphviz version 2.40.1 (20161225.0304)
 -->
<!-- Title: dependencies Pages: 1 -->
<svg width="504pt" height="284pt"
 viewBox="0.00 0.00 504.00 284.00" xmlns="http://www.w3.org/2000/svg" xmlns:xlink="http://www.w3.org/1999/xlink">
<g id="graph0" class="graph" transform="scale(1 1) rotate(0) translate(4 280)">
<title>dependencies</title>
<polygon fill="#ffffff" stroke="transparent" points="-4,4 -4,-280 500,-280 500,4 -4,4"/>
<text text-anchor="start" x="227.0091" y="-42.4" font-family="sans-serif" font-weight="bold" font-size="14.00" fill="#000000">Legend</text>
<polygon fill="#ffffb3" stroke="transparent" points="14,-10 14,-30 34,-30 34,-10 14,-10"/>
<text text-anchor="start" x="37.629" y="-15.4" font-family="sans-serif" font-size="14.00" fill="#000000"> &#160;Declarations</text>
<polygon fill="#8dd3c7" stroke="transparent" points="127,-10 127,-30 147,-30 147,-10 127,-10"/>
<text text-anchor="start" x="150.7251" y="-15.4" font-family="sans-serif" font-size="14.00" fill="#000000"> &#160;Module</text>
<polygon fill="#80b1d3" stroke="transparent" points="213,-10 213,-30 233,-30 233,-10 213,-10"/>
<text text-anchor="start" x="236.7812" y="-15.4" font-family="sans-serif" font-size="14.00" fill="#000000"> &#160;Bootstrap</text>
<polygon fill="#fdb462" stroke="transparent" points="310,-10 310,-30 330,-30 330,-10 310,-10"/>
<text text-anchor="start" x="333.6732" y="-15.4" font-family="sans-serif" font-size="14.00" fill="#000000"> &#160;Providers</text>
<polygon fill="#fb8072" stroke="transparent" points="406,-10 406,-30 426,-30 426,-10 406,-10"/>
<text text-anchor="start" x="429.7258" y="-15.4" font-family="sans-serif" font-size="14.00" fill="#000000"> &#160;Exports</text>
<g id="clust1" class="cluster">
<title>cluster_ItemModule</title>
<polygon fill="none" stroke="#000000" stroke-dasharray="1,5" points="100,-70 100,-268 396,-268 396,-70 100,-70"/>
</g>
<g id="clust2" class="cluster">
<title>cluster_ItemModule_declarations</title>
<polygon fill="none" stroke="#000000" points="266,-78 266,-130 388,-130 388,-78 266,-78"/>
</g>
<g id="clust4" class="cluster">
<title>cluster_ItemModule_imports</title>
<polygon fill="none" stroke="#000000" points="108,-78 108,-130 258,-130 258,-78 108,-78"/>
</g>
<g id="clust5" class="cluster">
<title>cluster_ItemModule_exports</title>
<polygon fill="none" stroke="#000000" points="191,-208 191,-260 317,-260 317,-208 191,-208"/>
</g>
<!-- ItemComponent -->
<g id="node1" class="node">
<title>ItemComponent</title>
<polygon fill="#ffffb3" stroke="#000000" points="380.4888,-122 273.5112,-122 273.5112,-86 380.4888,-86 380.4888,-122"/>
<text text-anchor="middle" x="327" y="-99.8" font-family="Times,serif" font-size="14.00" fill="#000000">ItemComponent</text>
</g>
<!-- ItemModule -->
<g id="node2" class="node">
<title>ItemModule</title>
<polygon fill="#8dd3c7" stroke="#000000" points="296.7065,-187 293.7065,-191 272.7065,-191 269.7065,-187 211.2935,-187 211.2935,-151 296.7065,-151 296.7065,-187"/>
<text text-anchor="middle" x="254" y="-164.8" font-family="Times,serif" font-size="14.00" fill="#000000">ItemModule</text>
</g>
<!-- ItemComponent&#45;&gt;ItemModule -->
<g id="edge1" class="edge">
<title>ItemComponent&#45;&gt;ItemModule</title>
<path fill="none" stroke="#000000" d="M285.0544,-122.1061C285.0544,-122.1061 285.0544,-140.991 285.0544,-140.991"/>
<polygon fill="#000000" stroke="#000000" points="281.5544,-140.9909 285.0544,-150.991 288.5544,-140.991 281.5544,-140.9909"/>
</g>
<!-- ItemComponent  -->
<g id="node4" class="node">
<title>ItemComponent </title>
<polygon fill="#fb8072" stroke="#000000" points="309.4899,-252 198.5101,-252 198.5101,-216 309.4899,-216 309.4899,-252"/>
<text text-anchor="middle" x="254" y="-229.8" font-family="Times,serif" font-size="14.00" fill="#000000">ItemComponent </text>
</g>
<!-- ItemModule&#45;&gt;ItemComponent  -->
<g id="edge3" class="edge">
<title>ItemModule&#45;&gt;ItemComponent </title>
<path fill="none" stroke="#000000" stroke-dasharray="5,2" d="M254,-187.1061C254,-187.1061 254,-205.991 254,-205.991"/>
<polygon fill="#000000" stroke="#000000" points="250.5001,-205.9909 254,-215.991 257.5001,-205.991 250.5001,-205.9909"/>
</g>
<!-- VisualizationModule -->
<g id="node3" class="node">
<title>VisualizationModule</title>
<polygon fill="#8dd3c7" stroke="#000000" points="250.1979,-122 247.1979,-126 226.1979,-126 223.1979,-122 115.8021,-122 115.8021,-86 250.1979,-86 250.1979,-122"/>
<text text-anchor="middle" x="183" y="-99.8" font-family="Times,serif" font-size="14.00" fill="#000000">VisualizationModule</text>
</g>
<!-- VisualizationModule&#45;&gt;ItemModule -->
<g id="edge2" class="edge">
<title>VisualizationModule&#45;&gt;ItemModule</title>
<path fill="none" stroke="#000000" d="M230.7479,-122.1061C230.7479,-122.1061 230.7479,-140.991 230.7479,-140.991"/>
<polygon fill="#000000" stroke="#000000" points="227.248,-140.9909 230.7479,-150.991 234.248,-140.991 227.248,-140.9909"/>
</g>
</g>
</svg>
