<?xml version="1.0" encoding="UTF-8" standalone="no"?>
<!DOCTYPE svg PUBLIC "-//W3C//DTD SVG 1.1//EN"
 "http://www.w3.org/Graphics/SVG/1.1/DTD/svg11.dtd">
<!-- Generated by graphviz version 2.40.1 (20161225.0304)
 -->
<!-- Title: dependencies Pages: 1 -->
<svg width="804pt" height="284pt"
 viewBox="0.00 0.00 804.00 284.00" xmlns="http://www.w3.org/2000/svg" xmlns:xlink="http://www.w3.org/1999/xlink">
<g id="graph0" class="graph" transform="scale(1 1) rotate(0) translate(4 280)">
<title>dependencies</title>
<polygon fill="#ffffff" stroke="transparent" points="-4,4 -4,-280 800,-280 800,4 -4,4"/>
<text text-anchor="start" x="377.0091" y="-42.4" font-family="sans-serif" font-weight="bold" font-size="14.00" fill="#000000">Legend</text>
<polygon fill="#ffffb3" stroke="transparent" points="164,-10 164,-30 184,-30 184,-10 164,-10"/>
<text text-anchor="start" x="187.629" y="-15.4" font-family="sans-serif" font-size="14.00" fill="#000000"> &#160;Declarations</text>
<polygon fill="#8dd3c7" stroke="transparent" points="277,-10 277,-30 297,-30 297,-10 277,-10"/>
<text text-anchor="start" x="300.7251" y="-15.4" font-family="sans-serif" font-size="14.00" fill="#000000"> &#160;Module</text>
<polygon fill="#80b1d3" stroke="transparent" points="363,-10 363,-30 383,-30 383,-10 363,-10"/>
<text text-anchor="start" x="386.7812" y="-15.4" font-family="sans-serif" font-size="14.00" fill="#000000"> &#160;Bootstrap</text>
<polygon fill="#fdb462" stroke="transparent" points="460,-10 460,-30 480,-30 480,-10 460,-10"/>
<text text-anchor="start" x="483.6732" y="-15.4" font-family="sans-serif" font-size="14.00" fill="#000000"> &#160;Providers</text>
<polygon fill="#fb8072" stroke="transparent" points="556,-10 556,-30 576,-30 576,-10 556,-10"/>
<text text-anchor="start" x="579.7258" y="-15.4" font-family="sans-serif" font-size="14.00" fill="#000000"> &#160;Exports</text>
<g id="clust1" class="cluster">
<title>cluster_LegendViewModule</title>
<polygon fill="none" stroke="#000000" stroke-dasharray="1,5" points="8,-70 8,-268 788,-268 788,-70 8,-70"/>
</g>
<g id="clust2" class="cluster">
<title>cluster_LegendViewModule_declarations</title>
<polygon fill="none" stroke="#000000" points="318,-78 318,-130 780,-130 780,-78 318,-78"/>
</g>
<g id="clust5" class="cluster">
<title>cluster_LegendViewModule_imports</title>
<polygon fill="none" stroke="#000000" points="16,-78 16,-130 310,-130 310,-78 16,-78"/>
</g>
<g id="clust6" class="cluster">
<title>cluster_LegendViewModule_exports</title>
<polygon fill="none" stroke="#000000" points="224,-208 224,-260 454,-260 454,-208 224,-208"/>
</g>
<!-- DataVariableDropzoneComponent -->
<g id="node1" class="node">
<title>DataVariableDropzoneComponent</title>
<polygon fill="#ffffb3" stroke="#000000" points="771.6475,-122 560.3525,-122 560.3525,-86 771.6475,-86 771.6475,-122"/>
<text text-anchor="middle" x="666" y="-99.8" font-family="Times,serif" font-size="14.00" fill="#000000">DataVariableDropzoneComponent</text>
</g>
<!-- LegendViewModule -->
<g id="node3" class="node">
<title>LegendViewModule</title>
<polygon fill="#8dd3c7" stroke="#000000" points="404.8501,-187 401.8501,-191 380.8501,-191 377.8501,-187 273.1499,-187 273.1499,-151 404.8501,-151 404.8501,-187"/>
<text text-anchor="middle" x="339" y="-164.8" font-family="Times,serif" font-size="14.00" fill="#000000">LegendViewModule</text>
</g>
<!-- DataVariableDropzoneComponent&#45;&gt;LegendViewModule -->
<g id="edge1" class="edge">
<title>DataVariableDropzoneComponent&#45;&gt;LegendViewModule</title>
<path fill="none" stroke="#000000" d="M666,-122.1061C666,-141.3391 666,-169 666,-169 666,-169 415.1733,-169 415.1733,-169"/>
<polygon fill="#000000" stroke="#000000" points="415.1734,-165.5001 405.1733,-169 415.1733,-172.5001 415.1734,-165.5001"/>
</g>
<!-- GraphicVariableLegendComponent -->
<g id="node2" class="node">
<title>GraphicVariableLegendComponent</title>
<polygon fill="#ffffb3" stroke="#000000" points="542.0938,-122 325.9062,-122 325.9062,-86 542.0938,-86 542.0938,-122"/>
<text text-anchor="middle" x="434" y="-99.8" font-family="Times,serif" font-size="14.00" fill="#000000">GraphicVariableLegendComponent</text>
</g>
<!-- GraphicVariableLegendComponent&#45;&gt;LegendViewModule -->
<g id="edge2" class="edge">
<title>GraphicVariableLegendComponent&#45;&gt;LegendViewModule</title>
<path fill="none" stroke="#000000" d="M365.3142,-122.1061C365.3142,-122.1061 365.3142,-140.991 365.3142,-140.991"/>
<polygon fill="#000000" stroke="#000000" points="361.8142,-140.9909 365.3142,-150.991 368.8142,-140.991 361.8142,-140.9909"/>
</g>
<!-- DataVariableDropzoneComponent  -->
<g id="node6" class="node">
<title>DataVariableDropzoneComponent </title>
<polygon fill="#fb8072" stroke="#000000" points="446.1477,-252 231.8523,-252 231.8523,-216 446.1477,-216 446.1477,-252"/>
<text text-anchor="middle" x="339" y="-229.8" font-family="Times,serif" font-size="14.00" fill="#000000">DataVariableDropzoneComponent </text>
</g>
<!-- LegendViewModule&#45;&gt;DataVariableDropzoneComponent  -->
<g id="edge5" class="edge">
<title>LegendViewModule&#45;&gt;DataVariableDropzoneComponent </title>
<path fill="none" stroke="#000000" stroke-dasharray="5,2" d="M339,-187.1061C339,-187.1061 339,-205.991 339,-205.991"/>
<polygon fill="#000000" stroke="#000000" points="335.5001,-205.9909 339,-215.991 342.5001,-205.991 335.5001,-205.9909"/>
</g>
<!-- DragDropModule -->
<g id="node4" class="node">
<title>DragDropModule</title>
<polygon fill="#8dd3c7" stroke="#000000" points="302.2992,-122 299.2992,-126 278.2992,-126 275.2992,-122 185.7008,-122 185.7008,-86 302.2992,-86 302.2992,-122"/>
<text text-anchor="middle" x="244" y="-99.8" font-family="Times,serif" font-size="14.00" fill="#000000">DragDropModule</text>
</g>
<!-- DragDropModule&#45;&gt;LegendViewModule -->
<g id="edge3" class="edge">
<title>DragDropModule&#45;&gt;LegendViewModule</title>
<path fill="none" stroke="#000000" d="M287.6122,-122.1061C287.6122,-122.1061 287.6122,-140.991 287.6122,-140.991"/>
<polygon fill="#000000" stroke="#000000" points="284.1123,-140.9909 287.6122,-150.991 291.1123,-140.991 284.1123,-140.9909"/>
</g>
<!-- DvlFwAngularModule -->
<g id="node5" class="node">
<title>DvlFwAngularModule</title>
<polygon fill="#8dd3c7" stroke="#000000" points="168.3089,-122 165.3089,-126 144.3089,-126 141.3089,-122 23.6911,-122 23.6911,-86 168.3089,-86 168.3089,-122"/>
<text text-anchor="middle" x="96" y="-99.8" font-family="Times,serif" font-size="14.00" fill="#000000">DvlFwAngularModule</text>
</g>
<!-- DvlFwAngularModule&#45;&gt;LegendViewModule -->
<g id="edge4" class="edge">
<title>DvlFwAngularModule&#45;&gt;LegendViewModule</title>
<path fill="none" stroke="#000000" d="M96,-122.1061C96,-141.3391 96,-169 96,-169 96,-169 262.9202,-169 262.9202,-169"/>
<polygon fill="#000000" stroke="#000000" points="262.9202,-172.5001 272.9202,-169 262.9201,-165.5001 262.9202,-172.5001"/>
</g>
</g>
</svg>
