<?xml version="1.0" encoding="UTF-8" standalone="no"?>
<!DOCTYPE svg PUBLIC "-//W3C//DTD SVG 1.1//EN"
 "http://www.w3.org/Graphics/SVG/1.1/DTD/svg11.dtd">
<!-- Generated by graphviz version 2.47.3 (20210619.1520)
 -->
<!-- Title: dependencies Pages: 1 -->
<svg width="804pt" height="247pt"
 viewBox="0.00 0.00 804.00 246.80" xmlns="http://www.w3.org/2000/svg" xmlns:xlink="http://www.w3.org/1999/xlink">
<g id="graph0" class="graph" transform="scale(1 1) rotate(0) translate(4 242.8)">
<title>dependencies</title>
<polygon fill="white" stroke="transparent" points="-4,4 -4,-242.8 800,-242.8 800,4 -4,4"/>
<text text-anchor="middle" x="398" y="-8.2" font-family="sans-serif" font-size="14.00">dependencies</text>
<g id="clust1" class="cluster">
<title>cluster_LegendViewModule</title>
<polygon fill="none" stroke="black" stroke-dasharray="1,5" points="8,-32.8 8,-230.8 788,-230.8 788,-32.8 8,-32.8"/>
</g>
<g id="clust2" class="cluster">
<title>cluster_LegendViewModule_declarations</title>
<polygon fill="none" stroke="black" points="318,-40.8 318,-92.8 780,-92.8 780,-40.8 318,-40.8"/>
</g>
<g id="clust6" class="cluster">
<title>cluster_LegendViewModule_exports</title>
<polygon fill="none" stroke="black" points="224,-170.8 224,-222.8 454,-222.8 454,-170.8 224,-170.8"/>
</g>
<g id="clust5" class="cluster">
<title>cluster_LegendViewModule_imports</title>
<polygon fill="none" stroke="black" points="16,-40.8 16,-92.8 310,-92.8 310,-40.8 16,-40.8"/>
</g>
<!-- DataVariableDropzoneComponent -->
<g id="node1" class="node">
<title>DataVariableDropzoneComponent</title>
<polygon fill="#ffffb3" stroke="black" points="771.65,-84.8 560.35,-84.8 560.35,-48.8 771.65,-48.8 771.65,-84.8"/>
<text text-anchor="middle" x="666" y="-62.6" font-family="Times,serif" font-size="14.00">DataVariableDropzoneComponent</text>
</g>
<!-- LegendViewModule -->
<g id="node3" class="node">
<title>LegendViewModule</title>
<polygon fill="#8dd3c7" stroke="black" points="404.85,-149.8 401.85,-153.8 380.85,-153.8 377.85,-149.8 273.15,-149.8 273.15,-113.8 404.85,-113.8 404.85,-149.8"/>
<text text-anchor="middle" x="339" y="-127.6" font-family="Times,serif" font-size="14.00">LegendViewModule</text>
</g>
<!-- DataVariableDropzoneComponent&#45;&gt;LegendViewModule -->
<g id="edge1" class="edge">
<title>DataVariableDropzoneComponent&#45;&gt;LegendViewModule</title>
<path fill="none" stroke="black" d="M666,-84.91C666,-104.14 666,-131.8 666,-131.8 666,-131.8 415.17,-131.8 415.17,-131.8"/>
<polygon fill="black" stroke="black" points="415.17,-128.3 405.17,-131.8 415.17,-135.3 415.17,-128.3"/>
</g>
<!-- GraphicVariableLegendComponent -->
<g id="node2" class="node">
<title>GraphicVariableLegendComponent</title>
<polygon fill="#ffffb3" stroke="black" points="542.09,-84.8 325.91,-84.8 325.91,-48.8 542.09,-48.8 542.09,-84.8"/>
<text text-anchor="middle" x="434" y="-62.6" font-family="Times,serif" font-size="14.00">GraphicVariableLegendComponent</text>
</g>
<!-- GraphicVariableLegendComponent&#45;&gt;LegendViewModule -->
<g id="edge2" class="edge">
<title>GraphicVariableLegendComponent&#45;&gt;LegendViewModule</title>
<path fill="none" stroke="black" d="M365.31,-84.91C365.31,-84.91 365.31,-103.79 365.31,-103.79"/>
<polygon fill="black" stroke="black" points="361.81,-103.79 365.31,-113.79 368.81,-103.79 361.81,-103.79"/>
</g>
<!-- DataVariableDropzoneComponent  -->
<g id="node6" class="node">
<title>DataVariableDropzoneComponent </title>
<polygon fill="#fb8072" stroke="black" points="446.15,-214.8 231.85,-214.8 231.85,-178.8 446.15,-178.8 446.15,-214.8"/>
<text text-anchor="middle" x="339" y="-192.6" font-family="Times,serif" font-size="14.00">DataVariableDropzoneComponent </text>
</g>
<!-- LegendViewModule&#45;&gt;DataVariableDropzoneComponent  -->
<g id="edge5" class="edge">
<title>LegendViewModule&#45;&gt;DataVariableDropzoneComponent </title>
<path fill="none" stroke="black" stroke-dasharray="5,2" d="M339,-149.91C339,-149.91 339,-168.79 339,-168.79"/>
<polygon fill="black" stroke="black" points="335.5,-168.79 339,-178.79 342.5,-168.79 335.5,-168.79"/>
</g>
<!-- DragDropModule -->
<g id="node4" class="node">
<title>DragDropModule</title>
<polygon fill="#8dd3c7" stroke="black" points="302.3,-84.8 299.3,-88.8 278.3,-88.8 275.3,-84.8 185.7,-84.8 185.7,-48.8 302.3,-48.8 302.3,-84.8"/>
<text text-anchor="middle" x="244" y="-62.6" font-family="Times,serif" font-size="14.00">DragDropModule</text>
</g>
<!-- DragDropModule&#45;&gt;LegendViewModule -->
<g id="edge3" class="edge">
<title>DragDropModule&#45;&gt;LegendViewModule</title>
<path fill="none" stroke="black" d="M287.61,-84.91C287.61,-84.91 287.61,-103.79 287.61,-103.79"/>
<polygon fill="black" stroke="black" points="284.11,-103.79 287.61,-113.79 291.11,-103.79 284.11,-103.79"/>
</g>
<!-- DvlFwAngularModule -->
<g id="node5" class="node">
<title>DvlFwAngularModule</title>
<polygon fill="#8dd3c7" stroke="black" points="168.31,-84.8 165.31,-88.8 144.31,-88.8 141.31,-84.8 23.69,-84.8 23.69,-48.8 168.31,-48.8 168.31,-84.8"/>
<text text-anchor="middle" x="96" y="-62.6" font-family="Times,serif" font-size="14.00">DvlFwAngularModule</text>
</g>
<!-- DvlFwAngularModule&#45;&gt;LegendViewModule -->
<g id="edge4" class="edge">
<title>DvlFwAngularModule&#45;&gt;LegendViewModule</title>
<path fill="none" stroke="black" d="M96,-84.91C96,-104.14 96,-131.8 96,-131.8 96,-131.8 262.92,-131.8 262.92,-131.8"/>
<polygon fill="black" stroke="black" points="262.92,-135.3 272.92,-131.8 262.92,-128.3 262.92,-135.3"/>
</g>
</g>
</svg>
