<?xml version="1.0" encoding="UTF-8" standalone="no"?>
<!DOCTYPE svg PUBLIC "-//W3C//DTD SVG 1.1//EN"
 "http://www.w3.org/Graphics/SVG/1.1/DTD/svg11.dtd">
<!-- Generated by graphviz version 2.47.0 (20210316.0004)
 -->
<!-- Title: dependencies Pages: 1 -->
<svg width="804pt" height="284pt"
 viewBox="0.00 0.00 804.00 284.00" xmlns="http://www.w3.org/2000/svg" xmlns:xlink="http://www.w3.org/1999/xlink">
<g id="graph0" class="graph" transform="scale(1 1) rotate(0) translate(4 280)">
<title>dependencies</title>
<polygon fill="white" stroke="transparent" points="-4,4 -4,-280 800,-280 800,4 -4,4"/>
<text text-anchor="start" x="377.01" y="-42.4" font-family="sans-serif" font-weight="bold" font-size="14.00">Legend</text>
<polygon fill="#ffffb3" stroke="transparent" points="164,-10 164,-30 184,-30 184,-10 164,-10"/>
<text text-anchor="start" x="187.63" y="-15.4" font-family="sans-serif" font-size="14.00"> &#160;Declarations</text>
<polygon fill="#8dd3c7" stroke="transparent" points="277,-10 277,-30 297,-30 297,-10 277,-10"/>
<text text-anchor="start" x="300.73" y="-15.4" font-family="sans-serif" font-size="14.00"> &#160;Module</text>
<polygon fill="#80b1d3" stroke="transparent" points="363,-10 363,-30 383,-30 383,-10 363,-10"/>
<text text-anchor="start" x="386.78" y="-15.4" font-family="sans-serif" font-size="14.00"> &#160;Bootstrap</text>
<polygon fill="#fdb462" stroke="transparent" points="460,-10 460,-30 480,-30 480,-10 460,-10"/>
<text text-anchor="start" x="483.67" y="-15.4" font-family="sans-serif" font-size="14.00"> &#160;Providers</text>
<polygon fill="#fb8072" stroke="transparent" points="556,-10 556,-30 576,-30 576,-10 556,-10"/>
<text text-anchor="start" x="579.73" y="-15.4" font-family="sans-serif" font-size="14.00"> &#160;Exports</text>
<g id="clust1" class="cluster">
<title>cluster_LegendViewModule</title>
<polygon fill="none" stroke="black" stroke-dasharray="1,5" points="8,-70 8,-268 788,-268 788,-70 8,-70"/>
</g>
<g id="clust2" class="cluster">
<title>cluster_LegendViewModule_declarations</title>
<polygon fill="none" stroke="black" points="318,-78 318,-130 780,-130 780,-78 318,-78"/>
</g>
<g id="clust6" class="cluster">
<title>cluster_LegendViewModule_exports</title>
<polygon fill="none" stroke="black" points="224,-208 224,-260 454,-260 454,-208 224,-208"/>
</g>
<g id="clust5" class="cluster">
<title>cluster_LegendViewModule_imports</title>
<polygon fill="none" stroke="black" points="16,-78 16,-130 310,-130 310,-78 16,-78"/>
</g>
<!-- DataVariableDropzoneComponent -->
<g id="node1" class="node">
<title>DataVariableDropzoneComponent</title>
<polygon fill="#ffffb3" stroke="black" points="771.65,-122 560.35,-122 560.35,-86 771.65,-86 771.65,-122"/>
<text text-anchor="middle" x="666" y="-99.8" font-family="Times,serif" font-size="14.00">DataVariableDropzoneComponent</text>
</g>
<!-- LegendViewModule -->
<g id="node3" class="node">
<title>LegendViewModule</title>
<polygon fill="#8dd3c7" stroke="black" points="404.85,-187 401.85,-191 380.85,-191 377.85,-187 273.15,-187 273.15,-151 404.85,-151 404.85,-187"/>
<text text-anchor="middle" x="339" y="-164.8" font-family="Times,serif" font-size="14.00">LegendViewModule</text>
</g>
<!-- DataVariableDropzoneComponent&#45;&gt;LegendViewModule -->
<g id="edge1" class="edge">
<title>DataVariableDropzoneComponent&#45;&gt;LegendViewModule</title>
<path fill="none" stroke="black" d="M666,-122.11C666,-141.34 666,-169 666,-169 666,-169 415.17,-169 415.17,-169"/>
<polygon fill="black" stroke="black" points="415.17,-165.5 405.17,-169 415.17,-172.5 415.17,-165.5"/>
</g>
<!-- GraphicVariableLegendComponent -->
<g id="node2" class="node">
<title>GraphicVariableLegendComponent</title>
<polygon fill="#ffffb3" stroke="black" points="542.09,-122 325.91,-122 325.91,-86 542.09,-86 542.09,-122"/>
<text text-anchor="middle" x="434" y="-99.8" font-family="Times,serif" font-size="14.00">GraphicVariableLegendComponent</text>
</g>
<!-- GraphicVariableLegendComponent&#45;&gt;LegendViewModule -->
<g id="edge2" class="edge">
<title>GraphicVariableLegendComponent&#45;&gt;LegendViewModule</title>
<path fill="none" stroke="black" d="M365.31,-122.11C365.31,-122.11 365.31,-140.99 365.31,-140.99"/>
<polygon fill="black" stroke="black" points="361.81,-140.99 365.31,-150.99 368.81,-140.99 361.81,-140.99"/>
</g>
<!-- DataVariableDropzoneComponent  -->
<g id="node6" class="node">
<title>DataVariableDropzoneComponent </title>
<polygon fill="#fb8072" stroke="black" points="446.15,-252 231.85,-252 231.85,-216 446.15,-216 446.15,-252"/>
<text text-anchor="middle" x="339" y="-229.8" font-family="Times,serif" font-size="14.00">DataVariableDropzoneComponent </text>
</g>
<!-- LegendViewModule&#45;&gt;DataVariableDropzoneComponent  -->
<g id="edge5" class="edge">
<title>LegendViewModule&#45;&gt;DataVariableDropzoneComponent </title>
<path fill="none" stroke="black" stroke-dasharray="5,2" d="M339,-187.11C339,-187.11 339,-205.99 339,-205.99"/>
<polygon fill="black" stroke="black" points="335.5,-205.99 339,-215.99 342.5,-205.99 335.5,-205.99"/>
</g>
<!-- DragDropModule -->
<g id="node4" class="node">
<title>DragDropModule</title>
<polygon fill="#8dd3c7" stroke="black" points="302.3,-122 299.3,-126 278.3,-126 275.3,-122 185.7,-122 185.7,-86 302.3,-86 302.3,-122"/>
<text text-anchor="middle" x="244" y="-99.8" font-family="Times,serif" font-size="14.00">DragDropModule</text>
</g>
<!-- DragDropModule&#45;&gt;LegendViewModule -->
<g id="edge3" class="edge">
<title>DragDropModule&#45;&gt;LegendViewModule</title>
<path fill="none" stroke="black" d="M287.61,-122.11C287.61,-122.11 287.61,-140.99 287.61,-140.99"/>
<polygon fill="black" stroke="black" points="284.11,-140.99 287.61,-150.99 291.11,-140.99 284.11,-140.99"/>
</g>
<!-- DvlFwAngularModule -->
<g id="node5" class="node">
<title>DvlFwAngularModule</title>
<polygon fill="#8dd3c7" stroke="black" points="168.31,-122 165.31,-126 144.31,-126 141.31,-122 23.69,-122 23.69,-86 168.31,-86 168.31,-122"/>
<text text-anchor="middle" x="96" y="-99.8" font-family="Times,serif" font-size="14.00">DvlFwAngularModule</text>
</g>
<!-- DvlFwAngularModule&#45;&gt;LegendViewModule -->
<g id="edge4" class="edge">
<title>DvlFwAngularModule&#45;&gt;LegendViewModule</title>
<path fill="none" stroke="black" d="M96,-122.11C96,-141.34 96,-169 96,-169 96,-169 262.92,-169 262.92,-169"/>
<polygon fill="black" stroke="black" points="262.92,-172.5 272.92,-169 262.92,-165.5 262.92,-172.5"/>
</g>
</g>
</svg>
