<svg xmlns="http://www.w3.org/2000/svg" viewBox="0 0 138 48">
  <style>
    path: { fill: #000000; }
    @media (prefers-color-scheme: dark) {
      path { fill: #ffffff; }
    }
  </style>
  <path d="M132,1.46A7.65,7.65,0,0,0,122.19,6l-9.27,25.53L103.65,6A7.62,7.62,0,0,0,89,7,22.86,22.86,0,0,0,55.61,9.72a18.06,18.06,0,0,0-26-5.33A18,18,0,0,0,19.14,1,18.16,18.16,0,0,0,1.08,17.59,7.2,7.2,0,0,0,1,18.64V39.33a7.64,7.64,0,1,0,15.28,0V19.2a2.86,2.86,0,1,1,5.72,0V39.33a7.64,7.64,0,1,0,15.28,0V19.2h0a2.87,2.87,0,1,1,5.73,0V39.33A7.63,7.63,0,0,0,58.1,41a22.85,22.85,0,0,0,22.52,4.9,10.48,10.48,0,0,1-2.29-6.54V30a7.52,7.52,0,0,1-4.77,1.69,7.63,7.63,0,0,1-5.67-2.54L55.1,37.62a4.77,4.77,0,1,1-4.45-3.09,4.71,4.71,0,0,1,2.67.82L66.4,26.66A7.79,7.79,0,0,1,65.92,24a7.63,7.63,0,0,1,12.87-5.58l13-8.67a4.68,4.68,0,0,1-.13-1.07,4.82,4.82,0,1,1,1.59,3.55L80.47,20.75a7.59,7.59,0,0,1,.72,3.16h0c0,.05,0,.1,0,.16V39.32a7.68,7.68,0,0,0,3,6.06l0,0a6.12,6.12,0,0,0,.79.54,7.61,7.61,0,0,0,11.45-6.62V31.06l2.25,6.19h0a15.19,15.19,0,0,0,28.36,0h0l9.42-26A7.69,7.69,0,0,0,132,1.46Z"/>
</svg>
