<?xml version="1.0" encoding="UTF-8" standalone="no"?>
<!DOCTYPE svg PUBLIC "-//W3C//DTD SVG 1.1//EN"
 "http://www.w3.org/Graphics/SVG/1.1/DTD/svg11.dtd">
<!-- Generated by graphviz version 2.47.3 (20210619.1520)
 -->
<!-- Title: dependencies Pages: 1 -->
<svg width="246pt" height="312pt"
 viewBox="0.00 0.00 246.00 311.80" xmlns="http://www.w3.org/2000/svg" xmlns:xlink="http://www.w3.org/1999/xlink">
<g id="graph0" class="graph" transform="scale(1 1) rotate(0) translate(4 307.8)">
<title>dependencies</title>
<polygon fill="white" stroke="transparent" points="-4,4 -4,-307.8 242,-307.8 242,4 -4,4"/>
<text text-anchor="middle" x="119" y="-8.2" font-family="sans-serif" font-size="14.00">dependencies</text>
<g id="clust1" class="cluster">
<title>cluster_NgxVegaModule</title>
<polygon fill="none" stroke="black" stroke-dasharray="1,5" points="8,-32.8 8,-295.8 230,-295.8 230,-32.8 8,-32.8"/>
</g>
<g id="clust3" class="cluster">
<title>cluster_NgxVegaModule_VegaComponent_providers</title>
<polygon fill="none" stroke="black" points="16,-40.8 16,-157.8 222,-157.8 222,-40.8 16,-40.8"/>
</g>
<g id="clust5" class="cluster">
<title>cluster_NgxVegaModule_exports</title>
<polygon fill="none" stroke="black" points="54,-235.8 54,-287.8 184,-287.8 184,-235.8 54,-235.8"/>
</g>
<!-- VegaComponent -->
<g id="node1" class="node">
<title>VegaComponent</title>
<polygon fill="#ffffb3" stroke="black" points="174.37,-149.8 63.63,-149.8 63.63,-113.8 174.37,-113.8 174.37,-149.8"/>
<text text-anchor="middle" x="119" y="-127.6" font-family="Times,serif" font-size="14.00">VegaComponent</text>
</g>
<!-- NgxVegaModule -->
<g id="node2" class="node">
<title>NgxVegaModule</title>
<polygon fill="#8dd3c7" stroke="black" points="175.69,-214.8 172.69,-218.8 151.69,-218.8 148.69,-214.8 62.31,-214.8 62.31,-178.8 175.69,-178.8 175.69,-214.8"/>
<text text-anchor="middle" x="119" y="-192.6" font-family="Times,serif" font-size="14.00">NgxVegaModule</text>
</g>
<!-- VegaComponent&#45;&gt;NgxVegaModule -->
<g id="edge1" class="edge">
<title>VegaComponent&#45;&gt;NgxVegaModule</title>
<path fill="none" stroke="black" d="M119,-149.91C119,-149.91 119,-168.79 119,-168.79"/>
<polygon fill="black" stroke="black" points="115.5,-168.79 119,-178.79 122.5,-168.79 115.5,-168.79"/>
</g>
<!-- VegaComponent  -->
<g id="node4" class="node">
<title>VegaComponent </title>
<polygon fill="#fb8072" stroke="black" points="176.37,-279.8 61.63,-279.8 61.63,-243.8 176.37,-243.8 176.37,-279.8"/>
<text text-anchor="middle" x="119" y="-257.6" font-family="Times,serif" font-size="14.00">VegaComponent </text>
</g>
<!-- NgxVegaModule&#45;&gt;VegaComponent  -->
<g id="edge3" class="edge">
<title>NgxVegaModule&#45;&gt;VegaComponent </title>
<path fill="none" stroke="black" stroke-dasharray="5,2" d="M119,-214.91C119,-214.91 119,-233.79 119,-233.79"/>
<polygon fill="black" stroke="black" points="115.5,-233.79 119,-243.79 122.5,-233.79 115.5,-233.79"/>
</g>
<!-- ViewManagerService -->
<g id="node3" class="node">
<title>ViewManagerService</title>
<ellipse fill="#fdb462" stroke="black" cx="119" cy="-66.8" rx="95.44" ry="18"/>
<text text-anchor="middle" x="119" y="-62.6" font-family="Times,serif" font-size="14.00">ViewManagerService</text>
</g>
<!-- ViewManagerService&#45;&gt;VegaComponent -->
<g id="edge2" class="edge">
<title>ViewManagerService&#45;&gt;VegaComponent</title>
<path fill="none" stroke="black" d="M119,-84.91C119,-84.91 119,-103.79 119,-103.79"/>
<polygon fill="black" stroke="black" points="115.5,-103.79 119,-113.79 122.5,-103.79 115.5,-103.79"/>
</g>
</g>
</svg>
