<?xml version="1.0" encoding="UTF-8" standalone="no"?>
<!DOCTYPE svg PUBLIC "-//W3C//DTD SVG 1.1//EN"
 "http://www.w3.org/Graphics/SVG/1.1/DTD/svg11.dtd">
<!-- Generated by graphviz version 2.47.0 (20210316.0004)
 -->
<!-- Title: dependencies Pages: 1 -->
<svg width="537pt" height="284pt"
 viewBox="0.00 0.00 537.00 284.00" xmlns="http://www.w3.org/2000/svg" xmlns:xlink="http://www.w3.org/1999/xlink">
<g id="graph0" class="graph" transform="scale(1 1) rotate(0) translate(4 280)">
<title>dependencies</title>
<polygon fill="white" stroke="transparent" points="-4,4 -4,-280 533,-280 533,4 -4,4"/>
<text text-anchor="start" x="243.51" y="-42.4" font-family="sans-serif" font-weight="bold" font-size="14.00">Legend</text>
<polygon fill="#ffffb3" stroke="transparent" points="30.5,-10 30.5,-30 50.5,-30 50.5,-10 30.5,-10"/>
<text text-anchor="start" x="54.13" y="-15.4" font-family="sans-serif" font-size="14.00"> &#160;Declarations</text>
<polygon fill="#8dd3c7" stroke="transparent" points="143.5,-10 143.5,-30 163.5,-30 163.5,-10 143.5,-10"/>
<text text-anchor="start" x="167.23" y="-15.4" font-family="sans-serif" font-size="14.00"> &#160;Module</text>
<polygon fill="#80b1d3" stroke="transparent" points="229.5,-10 229.5,-30 249.5,-30 249.5,-10 229.5,-10"/>
<text text-anchor="start" x="253.28" y="-15.4" font-family="sans-serif" font-size="14.00"> &#160;Bootstrap</text>
<polygon fill="#fdb462" stroke="transparent" points="326.5,-10 326.5,-30 346.5,-30 346.5,-10 326.5,-10"/>
<text text-anchor="start" x="350.17" y="-15.4" font-family="sans-serif" font-size="14.00"> &#160;Providers</text>
<polygon fill="#fb8072" stroke="transparent" points="422.5,-10 422.5,-30 442.5,-30 442.5,-10 422.5,-10"/>
<text text-anchor="start" x="446.23" y="-15.4" font-family="sans-serif" font-size="14.00"> &#160;Exports</text>
<g id="clust1" class="cluster">
<title>cluster_AppModule</title>
<polygon fill="none" stroke="black" stroke-dasharray="1,5" points="8,-70 8,-268 521,-268 521,-70 8,-70"/>
</g>
<g id="clust2" class="cluster">
<title>cluster_AppModule_declarations</title>
<polygon fill="none" stroke="black" points="160,-78 160,-130 513,-130 513,-78 160,-78"/>
</g>
<g id="clust5" class="cluster">
<title>cluster_AppModule_imports</title>
<polygon fill="none" stroke="black" points="16,-78 16,-130 152,-130 152,-78 16,-78"/>
</g>
<g id="clust7" class="cluster">
<title>cluster_AppModule_bootstrap</title>
<polygon fill="none" stroke="black" points="213,-208 213,-260 337,-260 337,-208 213,-208"/>
</g>
<!-- AppComponent -->
<g id="node1" class="node">
<title>AppComponent</title>
<polygon fill="#ffffb3" stroke="black" points="504.94,-122 399.06,-122 399.06,-86 504.94,-86 504.94,-122"/>
<text text-anchor="middle" x="452" y="-99.8" font-family="Times,serif" font-size="14.00">AppComponent</text>
</g>
<!-- AppModule -->
<g id="node3" class="node">
<title>AppModule</title>
<polygon fill="#8dd3c7" stroke="black" points="316.66,-187 313.66,-191 292.66,-191 289.66,-187 233.34,-187 233.34,-151 316.66,-151 316.66,-187"/>
<text text-anchor="middle" x="275" y="-164.8" font-family="Times,serif" font-size="14.00">AppModule</text>
</g>
<!-- AppComponent&#45;&gt;AppModule -->
<g id="edge1" class="edge">
<title>AppComponent&#45;&gt;AppModule</title>
<path fill="none" stroke="black" d="M452,-122.11C452,-141.34 452,-169 452,-169 452,-169 326.95,-169 326.95,-169"/>
<polygon fill="black" stroke="black" points="326.95,-165.5 316.95,-169 326.95,-172.5 326.95,-165.5"/>
</g>
<!-- AppUpdateNotificationComponent -->
<g id="node2" class="node">
<title>AppUpdateNotificationComponent</title>
<polygon fill="#ffffb3" stroke="black" points="381.52,-122 168.48,-122 168.48,-86 381.52,-86 381.52,-122"/>
<text text-anchor="middle" x="275" y="-99.8" font-family="Times,serif" font-size="14.00">AppUpdateNotificationComponent</text>
</g>
<!-- AppUpdateNotificationComponent&#45;&gt;AppModule -->
<g id="edge2" class="edge">
<title>AppUpdateNotificationComponent&#45;&gt;AppModule</title>
<path fill="none" stroke="black" d="M275,-122.11C275,-122.11 275,-140.99 275,-140.99"/>
<polygon fill="black" stroke="black" points="271.5,-140.99 275,-150.99 278.5,-140.99 271.5,-140.99"/>
</g>
<!-- AppComponent  -->
<g id="node5" class="node">
<title>AppComponent </title>
<polygon fill="#80b1d3" stroke="black" points="329.44,-252 220.56,-252 220.56,-216 329.44,-216 329.44,-252"/>
<text text-anchor="middle" x="275" y="-229.8" font-family="Times,serif" font-size="14.00">AppComponent </text>
</g>
<!-- AppModule&#45;&gt;AppComponent  -->
<g id="edge4" class="edge">
<title>AppModule&#45;&gt;AppComponent </title>
<path fill="none" stroke="black" stroke-dasharray="1,5" d="M275,-187.11C275,-187.11 275,-205.99 275,-205.99"/>
<polygon fill="black" stroke="black" points="271.5,-205.99 275,-215.99 278.5,-205.99 271.5,-205.99"/>
</g>
<!-- MakeAVisModule -->
<g id="node4" class="node">
<title>MakeAVisModule</title>
<polygon fill="#8dd3c7" stroke="black" points="144.47,-122 141.47,-126 120.47,-126 117.47,-122 23.53,-122 23.53,-86 144.47,-86 144.47,-122"/>
<text text-anchor="middle" x="84" y="-99.8" font-family="Times,serif" font-size="14.00">MakeAVisModule</text>
</g>
<!-- MakeAVisModule&#45;&gt;AppModule -->
<g id="edge3" class="edge">
<title>MakeAVisModule&#45;&gt;AppModule</title>
<path fill="none" stroke="black" d="M84,-122.11C84,-141.34 84,-169 84,-169 84,-169 223.08,-169 223.08,-169"/>
<polygon fill="black" stroke="black" points="223.08,-172.5 233.08,-169 223.08,-165.5 223.08,-172.5"/>
</g>
</g>
</svg>
