<?xml version="1.0" encoding="UTF-8" standalone="no"?>
<!DOCTYPE svg PUBLIC "-//W3C//DTD SVG 1.1//EN"
 "http://www.w3.org/Graphics/SVG/1.1/DTD/svg11.dtd">
<!-- Generated by graphviz version 2.47.3 (20210619.1520)
 -->
<!-- Title: dependencies Pages: 1 -->
<svg width="994pt" height="247pt"
 viewBox="0.00 0.00 994.00 246.80" xmlns="http://www.w3.org/2000/svg" xmlns:xlink="http://www.w3.org/1999/xlink">
<g id="graph0" class="graph" transform="scale(1 1) rotate(0) translate(4 242.8)">
<title>dependencies</title>
<polygon fill="white" stroke="transparent" points="-4,4 -4,-242.8 990,-242.8 990,4 -4,4"/>
<text text-anchor="middle" x="493" y="-8.2" font-family="sans-serif" font-size="14.00">dependencies</text>
<g id="clust1" class="cluster">
<title>cluster_DataViewModule</title>
<polygon fill="none" stroke="black" stroke-dasharray="1,5" points="8,-32.8 8,-230.8 978,-230.8 978,-32.8 8,-32.8"/>
</g>
<g id="clust2" class="cluster">
<title>cluster_DataViewModule_declarations</title>
<polygon fill="none" stroke="black" points="156,-40.8 156,-92.8 970,-92.8 970,-40.8 156,-40.8"/>
</g>
<g id="clust8" class="cluster">
<title>cluster_DataViewModule_imports</title>
<polygon fill="none" stroke="black" points="16,-40.8 16,-92.8 148,-92.8 148,-40.8 16,-40.8"/>
</g>
<g id="clust9" class="cluster">
<title>cluster_DataViewModule_exports</title>
<polygon fill="none" stroke="black" points="397,-170.8 397,-222.8 527,-222.8 527,-170.8 397,-170.8"/>
</g>
<!-- MainComponent -->
<g id="node1" class="node">
<title>MainComponent</title>
<polygon fill="#ffffb3" stroke="black" points="962.38,-84.8 851.62,-84.8 851.62,-48.8 962.38,-48.8 962.38,-84.8"/>
<text text-anchor="middle" x="907" y="-62.6" font-family="Times,serif" font-size="14.00">MainComponent</text>
</g>
<!-- DataViewModule -->
<g id="node6" class="node">
<title>DataViewModule</title>
<polygon fill="#8dd3c7" stroke="black" points="520.29,-149.8 517.29,-153.8 496.29,-153.8 493.29,-149.8 403.71,-149.8 403.71,-113.8 520.29,-113.8 520.29,-149.8"/>
<text text-anchor="middle" x="462" y="-127.6" font-family="Times,serif" font-size="14.00">DataViewModule</text>
</g>
<!-- MainComponent&#45;&gt;DataViewModule -->
<g id="edge1" class="edge">
<title>MainComponent&#45;&gt;DataViewModule</title>
<path fill="none" stroke="black" d="M907,-85.08C907,-106.12 907,-137.8 907,-137.8 907,-137.8 530.18,-137.8 530.18,-137.8"/>
<polygon fill="black" stroke="black" points="530.18,-134.3 520.18,-137.8 530.18,-141.3 530.18,-134.3"/>
</g>
<!-- StartProjectIconComponent -->
<g id="node2" class="node">
<title>StartProjectIconComponent</title>
<polygon fill="#ffffb3" stroke="black" points="833.3,-84.8 660.7,-84.8 660.7,-48.8 833.3,-48.8 833.3,-84.8"/>
<text text-anchor="middle" x="747" y="-62.6" font-family="Times,serif" font-size="14.00">StartProjectIconComponent</text>
</g>
<!-- StartProjectIconComponent&#45;&gt;DataViewModule -->
<g id="edge2" class="edge">
<title>StartProjectIconComponent&#45;&gt;DataViewModule</title>
<path fill="none" stroke="black" d="M747,-84.82C747,-102.17 747,-125.8 747,-125.8 747,-125.8 530.36,-125.8 530.36,-125.8"/>
<polygon fill="black" stroke="black" points="530.36,-122.3 520.36,-125.8 530.36,-129.3 530.36,-122.3"/>
</g>
<!-- StartProjectOptionsComponent -->
<g id="node3" class="node">
<title>StartProjectOptionsComponent</title>
<polygon fill="#ffffb3" stroke="black" points="642.76,-84.8 451.24,-84.8 451.24,-48.8 642.76,-48.8 642.76,-84.8"/>
<text text-anchor="middle" x="547" y="-62.6" font-family="Times,serif" font-size="14.00">StartProjectOptionsComponent</text>
</g>
<!-- StartProjectOptionsComponent&#45;&gt;DataViewModule -->
<g id="edge3" class="edge">
<title>StartProjectOptionsComponent&#45;&gt;DataViewModule</title>
<path fill="none" stroke="black" d="M485.63,-84.91C485.63,-84.91 485.63,-103.79 485.63,-103.79"/>
<polygon fill="black" stroke="black" points="482.13,-103.79 485.63,-113.79 489.13,-103.79 482.13,-103.79"/>
</g>
<!-- TableComponent -->
<g id="node4" class="node">
<title>TableComponent</title>
<polygon fill="#ffffb3" stroke="black" points="433.7,-84.8 320.3,-84.8 320.3,-48.8 433.7,-48.8 433.7,-84.8"/>
<text text-anchor="middle" x="377" y="-62.6" font-family="Times,serif" font-size="14.00">TableComponent</text>
</g>
<!-- TableComponent&#45;&gt;DataViewModule -->
<g id="edge4" class="edge">
<title>TableComponent&#45;&gt;DataViewModule</title>
<path fill="none" stroke="black" d="M418.73,-84.91C418.73,-84.91 418.73,-103.79 418.73,-103.79"/>
<polygon fill="black" stroke="black" points="415.23,-103.79 418.73,-113.79 422.23,-103.79 415.23,-103.79"/>
</g>
<!-- TableIconComponent -->
<g id="node5" class="node">
<title>TableIconComponent</title>
<polygon fill="#ffffb3" stroke="black" points="302.08,-84.8 163.92,-84.8 163.92,-48.8 302.08,-48.8 302.08,-84.8"/>
<text text-anchor="middle" x="233" y="-62.6" font-family="Times,serif" font-size="14.00">TableIconComponent</text>
</g>
<!-- TableIconComponent&#45;&gt;DataViewModule -->
<g id="edge5" class="edge">
<title>TableIconComponent&#45;&gt;DataViewModule</title>
<path fill="none" stroke="black" d="M233,-84.82C233,-102.17 233,-125.8 233,-125.8 233,-125.8 393.62,-125.8 393.62,-125.8"/>
<polygon fill="black" stroke="black" points="393.62,-129.3 403.62,-125.8 393.62,-122.3 393.62,-129.3"/>
</g>
<!-- MainComponent  -->
<g id="node8" class="node">
<title>MainComponent </title>
<polygon fill="#fb8072" stroke="black" points="519.38,-214.8 404.62,-214.8 404.62,-178.8 519.38,-178.8 519.38,-214.8"/>
<text text-anchor="middle" x="462" y="-192.6" font-family="Times,serif" font-size="14.00">MainComponent </text>
</g>
<!-- DataViewModule&#45;&gt;MainComponent  -->
<g id="edge7" class="edge">
<title>DataViewModule&#45;&gt;MainComponent </title>
<path fill="none" stroke="black" stroke-dasharray="5,2" d="M462,-149.91C462,-149.91 462,-168.79 462,-168.79"/>
<polygon fill="black" stroke="black" points="458.5,-168.79 462,-178.79 465.5,-168.79 458.5,-168.79"/>
</g>
<!-- DragDropModule -->
<g id="node7" class="node">
<title>DragDropModule</title>
<polygon fill="#8dd3c7" stroke="black" points="140.3,-84.8 137.3,-88.8 116.3,-88.8 113.3,-84.8 23.7,-84.8 23.7,-48.8 140.3,-48.8 140.3,-84.8"/>
<text text-anchor="middle" x="82" y="-62.6" font-family="Times,serif" font-size="14.00">DragDropModule</text>
</g>
<!-- DragDropModule&#45;&gt;DataViewModule -->
<g id="edge6" class="edge">
<title>DragDropModule&#45;&gt;DataViewModule</title>
<path fill="none" stroke="black" d="M82,-85.08C82,-106.12 82,-137.8 82,-137.8 82,-137.8 393.46,-137.8 393.46,-137.8"/>
<polygon fill="black" stroke="black" points="393.46,-141.3 403.46,-137.8 393.46,-134.3 393.46,-141.3"/>
</g>
</g>
</svg>
