<?xml version="1.0" encoding="UTF-8" standalone="no"?>
<!DOCTYPE svg PUBLIC "-//W3C//DTD SVG 1.1//EN"
 "http://www.w3.org/Graphics/SVG/1.1/DTD/svg11.dtd">
<!-- Generated by graphviz version 2.47.0 (20210316.0004)
 -->
<!-- Title: dependencies Pages: 1 -->
<svg width="994pt" height="284pt"
 viewBox="0.00 0.00 994.00 284.00" xmlns="http://www.w3.org/2000/svg" xmlns:xlink="http://www.w3.org/1999/xlink">
<g id="graph0" class="graph" transform="scale(1 1) rotate(0) translate(4 280)">
<title>dependencies</title>
<polygon fill="white" stroke="transparent" points="-4,4 -4,-280 990,-280 990,4 -4,4"/>
<text text-anchor="start" x="472.01" y="-42.4" font-family="sans-serif" font-weight="bold" font-size="14.00">Legend</text>
<polygon fill="#ffffb3" stroke="transparent" points="259,-10 259,-30 279,-30 279,-10 259,-10"/>
<text text-anchor="start" x="282.63" y="-15.4" font-family="sans-serif" font-size="14.00"> &#160;Declarations</text>
<polygon fill="#8dd3c7" stroke="transparent" points="372,-10 372,-30 392,-30 392,-10 372,-10"/>
<text text-anchor="start" x="395.73" y="-15.4" font-family="sans-serif" font-size="14.00"> &#160;Module</text>
<polygon fill="#80b1d3" stroke="transparent" points="458,-10 458,-30 478,-30 478,-10 458,-10"/>
<text text-anchor="start" x="481.78" y="-15.4" font-family="sans-serif" font-size="14.00"> &#160;Bootstrap</text>
<polygon fill="#fdb462" stroke="transparent" points="555,-10 555,-30 575,-30 575,-10 555,-10"/>
<text text-anchor="start" x="578.67" y="-15.4" font-family="sans-serif" font-size="14.00"> &#160;Providers</text>
<polygon fill="#fb8072" stroke="transparent" points="651,-10 651,-30 671,-30 671,-10 651,-10"/>
<text text-anchor="start" x="674.73" y="-15.4" font-family="sans-serif" font-size="14.00"> &#160;Exports</text>
<g id="clust1" class="cluster">
<title>cluster_DataViewModule</title>
<polygon fill="none" stroke="black" stroke-dasharray="1,5" points="8,-70 8,-268 978,-268 978,-70 8,-70"/>
</g>
<g id="clust9" class="cluster">
<title>cluster_DataViewModule_exports</title>
<polygon fill="none" stroke="black" points="442,-208 442,-260 572,-260 572,-208 442,-208"/>
</g>
<g id="clust8" class="cluster">
<title>cluster_DataViewModule_imports</title>
<polygon fill="none" stroke="black" points="838,-78 838,-130 970,-130 970,-78 838,-78"/>
</g>
<g id="clust2" class="cluster">
<title>cluster_DataViewModule_declarations</title>
<polygon fill="none" stroke="black" points="16,-78 16,-130 830,-130 830,-78 16,-78"/>
</g>
<!-- MainComponent -->
<g id="node1" class="node">
<title>MainComponent</title>
<polygon fill="#ffffb3" stroke="black" points="822.38,-122 711.62,-122 711.62,-86 822.38,-86 822.38,-122"/>
<text text-anchor="middle" x="767" y="-99.8" font-family="Times,serif" font-size="14.00">MainComponent</text>
</g>
<!-- DataViewModule -->
<g id="node6" class="node">
<title>DataViewModule</title>
<polygon fill="#8dd3c7" stroke="black" points="565.29,-187 562.29,-191 541.29,-191 538.29,-187 448.71,-187 448.71,-151 565.29,-151 565.29,-187"/>
<text text-anchor="middle" x="507" y="-164.8" font-family="Times,serif" font-size="14.00">DataViewModule</text>
</g>
<!-- MainComponent&#45;&gt;DataViewModule -->
<g id="edge1" class="edge">
<title>MainComponent&#45;&gt;DataViewModule</title>
<path fill="none" stroke="black" d="M767,-122.02C767,-139.37 767,-163 767,-163 767,-163 575.35,-163 575.35,-163"/>
<polygon fill="black" stroke="black" points="575.35,-159.5 565.35,-163 575.35,-166.5 575.35,-159.5"/>
</g>
<!-- StartProjectIconComponent -->
<g id="node2" class="node">
<title>StartProjectIconComponent</title>
<polygon fill="#ffffb3" stroke="black" points="693.3,-122 520.7,-122 520.7,-86 693.3,-86 693.3,-122"/>
<text text-anchor="middle" x="607" y="-99.8" font-family="Times,serif" font-size="14.00">StartProjectIconComponent</text>
</g>
<!-- StartProjectIconComponent&#45;&gt;DataViewModule -->
<g id="edge2" class="edge">
<title>StartProjectIconComponent&#45;&gt;DataViewModule</title>
<path fill="none" stroke="black" d="M543,-122.11C543,-122.11 543,-140.99 543,-140.99"/>
<polygon fill="black" stroke="black" points="539.5,-140.99 543,-150.99 546.5,-140.99 539.5,-140.99"/>
</g>
<!-- StartProjectOptionsComponent -->
<g id="node3" class="node">
<title>StartProjectOptionsComponent</title>
<polygon fill="#ffffb3" stroke="black" points="502.76,-122 311.24,-122 311.24,-86 502.76,-86 502.76,-122"/>
<text text-anchor="middle" x="407" y="-99.8" font-family="Times,serif" font-size="14.00">StartProjectOptionsComponent</text>
</g>
<!-- StartProjectOptionsComponent&#45;&gt;DataViewModule -->
<g id="edge3" class="edge">
<title>StartProjectOptionsComponent&#45;&gt;DataViewModule</title>
<path fill="none" stroke="black" d="M475.87,-122.11C475.87,-122.11 475.87,-140.99 475.87,-140.99"/>
<polygon fill="black" stroke="black" points="472.37,-140.99 475.87,-150.99 479.37,-140.99 472.37,-140.99"/>
</g>
<!-- TableComponent -->
<g id="node4" class="node">
<title>TableComponent</title>
<polygon fill="#ffffb3" stroke="black" points="293.7,-122 180.3,-122 180.3,-86 293.7,-86 293.7,-122"/>
<text text-anchor="middle" x="237" y="-99.8" font-family="Times,serif" font-size="14.00">TableComponent</text>
</g>
<!-- TableComponent&#45;&gt;DataViewModule -->
<g id="edge4" class="edge">
<title>TableComponent&#45;&gt;DataViewModule</title>
<path fill="none" stroke="black" d="M237,-122.02C237,-139.37 237,-163 237,-163 237,-163 438.75,-163 438.75,-163"/>
<polygon fill="black" stroke="black" points="438.75,-166.5 448.75,-163 438.75,-159.5 438.75,-166.5"/>
</g>
<!-- TableIconComponent -->
<g id="node5" class="node">
<title>TableIconComponent</title>
<polygon fill="#ffffb3" stroke="black" points="162.08,-122 23.92,-122 23.92,-86 162.08,-86 162.08,-122"/>
<text text-anchor="middle" x="93" y="-99.8" font-family="Times,serif" font-size="14.00">TableIconComponent</text>
</g>
<!-- TableIconComponent&#45;&gt;DataViewModule -->
<g id="edge5" class="edge">
<title>TableIconComponent&#45;&gt;DataViewModule</title>
<path fill="none" stroke="black" d="M93,-122.28C93,-143.32 93,-175 93,-175 93,-175 438.56,-175 438.56,-175"/>
<polygon fill="black" stroke="black" points="438.56,-178.5 448.56,-175 438.56,-171.5 438.56,-178.5"/>
</g>
<!-- MainComponent  -->
<g id="node8" class="node">
<title>MainComponent </title>
<polygon fill="#fb8072" stroke="black" points="564.38,-252 449.62,-252 449.62,-216 564.38,-216 564.38,-252"/>
<text text-anchor="middle" x="507" y="-229.8" font-family="Times,serif" font-size="14.00">MainComponent </text>
</g>
<!-- DataViewModule&#45;&gt;MainComponent  -->
<g id="edge7" class="edge">
<title>DataViewModule&#45;&gt;MainComponent </title>
<path fill="none" stroke="black" stroke-dasharray="5,2" d="M507,-187.11C507,-187.11 507,-205.99 507,-205.99"/>
<polygon fill="black" stroke="black" points="503.5,-205.99 507,-215.99 510.5,-205.99 503.5,-205.99"/>
</g>
<!-- DragDropModule -->
<g id="node7" class="node">
<title>DragDropModule</title>
<polygon fill="#8dd3c7" stroke="black" points="962.3,-122 959.3,-126 938.3,-126 935.3,-122 845.7,-122 845.7,-86 962.3,-86 962.3,-122"/>
<text text-anchor="middle" x="904" y="-99.8" font-family="Times,serif" font-size="14.00">DragDropModule</text>
</g>
<!-- DragDropModule&#45;&gt;DataViewModule -->
<g id="edge6" class="edge">
<title>DragDropModule&#45;&gt;DataViewModule</title>
<path fill="none" stroke="black" d="M904,-122.28C904,-143.32 904,-175 904,-175 904,-175 575.15,-175 575.15,-175"/>
<polygon fill="black" stroke="black" points="575.15,-171.5 565.15,-175 575.15,-178.5 575.15,-171.5"/>
</g>
</g>
</svg>
