<?xml version="1.0" encoding="UTF-8" standalone="no"?>
<!DOCTYPE svg PUBLIC "-//W3C//DTD SVG 1.1//EN"
 "http://www.w3.org/Graphics/SVG/1.1/DTD/svg11.dtd">
<!-- Generated by graphviz version 2.40.1 (20161225.0304)
 -->
<!-- Title: dependencies Pages: 1 -->
<svg width="994pt" height="284pt"
 viewBox="0.00 0.00 994.00 284.00" xmlns="http://www.w3.org/2000/svg" xmlns:xlink="http://www.w3.org/1999/xlink">
<g id="graph0" class="graph" transform="scale(1 1) rotate(0) translate(4 280)">
<title>dependencies</title>
<polygon fill="#ffffff" stroke="transparent" points="-4,4 -4,-280 990,-280 990,4 -4,4"/>
<text text-anchor="start" x="472.0091" y="-42.4" font-family="sans-serif" font-weight="bold" font-size="14.00" fill="#000000">Legend</text>
<polygon fill="#ffffb3" stroke="transparent" points="259,-10 259,-30 279,-30 279,-10 259,-10"/>
<text text-anchor="start" x="282.629" y="-15.4" font-family="sans-serif" font-size="14.00" fill="#000000"> &#160;Declarations</text>
<polygon fill="#8dd3c7" stroke="transparent" points="372,-10 372,-30 392,-30 392,-10 372,-10"/>
<text text-anchor="start" x="395.7251" y="-15.4" font-family="sans-serif" font-size="14.00" fill="#000000"> &#160;Module</text>
<polygon fill="#80b1d3" stroke="transparent" points="458,-10 458,-30 478,-30 478,-10 458,-10"/>
<text text-anchor="start" x="481.7812" y="-15.4" font-family="sans-serif" font-size="14.00" fill="#000000"> &#160;Bootstrap</text>
<polygon fill="#fdb462" stroke="transparent" points="555,-10 555,-30 575,-30 575,-10 555,-10"/>
<text text-anchor="start" x="578.6732" y="-15.4" font-family="sans-serif" font-size="14.00" fill="#000000"> &#160;Providers</text>
<polygon fill="#fb8072" stroke="transparent" points="651,-10 651,-30 671,-30 671,-10 651,-10"/>
<text text-anchor="start" x="674.7258" y="-15.4" font-family="sans-serif" font-size="14.00" fill="#000000"> &#160;Exports</text>
<g id="clust1" class="cluster">
<title>cluster_DataViewModule</title>
<polygon fill="none" stroke="#000000" stroke-dasharray="1,5" points="8,-70 8,-268 978,-268 978,-70 8,-70"/>
</g>
<g id="clust2" class="cluster">
<title>cluster_DataViewModule_declarations</title>
<polygon fill="none" stroke="#000000" points="156,-78 156,-130 970,-130 970,-78 156,-78"/>
</g>
<g id="clust8" class="cluster">
<title>cluster_DataViewModule_imports</title>
<polygon fill="none" stroke="#000000" points="16,-78 16,-130 148,-130 148,-78 16,-78"/>
</g>
<g id="clust9" class="cluster">
<title>cluster_DataViewModule_exports</title>
<polygon fill="none" stroke="#000000" points="397,-208 397,-260 527,-260 527,-208 397,-208"/>
</g>
<!-- MainComponent -->
<g id="node1" class="node">
<title>MainComponent</title>
<polygon fill="#ffffb3" stroke="#000000" points="962.3823,-122 851.6177,-122 851.6177,-86 962.3823,-86 962.3823,-122"/>
<text text-anchor="middle" x="907" y="-99.8" font-family="Times,serif" font-size="14.00" fill="#000000">MainComponent</text>
</g>
<!-- DataViewModule -->
<g id="node6" class="node">
<title>DataViewModule</title>
<polygon fill="#8dd3c7" stroke="#000000" points="520.295,-187 517.295,-191 496.295,-191 493.295,-187 403.705,-187 403.705,-151 520.295,-151 520.295,-187"/>
<text text-anchor="middle" x="462" y="-164.8" font-family="Times,serif" font-size="14.00" fill="#000000">DataViewModule</text>
</g>
<!-- MainComponent&#45;&gt;DataViewModule -->
<g id="edge1" class="edge">
<title>MainComponent&#45;&gt;DataViewModule</title>
<path fill="none" stroke="#000000" d="M907,-122.2843C907,-143.3211 907,-175 907,-175 907,-175 530.176,-175 530.176,-175"/>
<polygon fill="#000000" stroke="#000000" points="530.176,-171.5001 520.176,-175 530.1759,-178.5001 530.176,-171.5001"/>
</g>
<!-- StartProjectIconComponent -->
<g id="node2" class="node">
<title>StartProjectIconComponent</title>
<polygon fill="#ffffb3" stroke="#000000" points="833.3005,-122 660.6995,-122 660.6995,-86 833.3005,-86 833.3005,-122"/>
<text text-anchor="middle" x="747" y="-99.8" font-family="Times,serif" font-size="14.00" fill="#000000">StartProjectIconComponent</text>
</g>
<!-- StartProjectIconComponent&#45;&gt;DataViewModule -->
<g id="edge2" class="edge">
<title>StartProjectIconComponent&#45;&gt;DataViewModule</title>
<path fill="none" stroke="#000000" d="M747,-122.0225C747,-139.3734 747,-163 747,-163 747,-163 530.3617,-163 530.3617,-163"/>
<polygon fill="#000000" stroke="#000000" points="530.3618,-159.5001 520.3617,-163 530.3617,-166.5001 530.3618,-159.5001"/>
</g>
<!-- StartProjectOptionsComponent -->
<g id="node3" class="node">
<title>StartProjectOptionsComponent</title>
<polygon fill="#ffffb3" stroke="#000000" points="642.7576,-122 451.2424,-122 451.2424,-86 642.7576,-86 642.7576,-122"/>
<text text-anchor="middle" x="547" y="-99.8" font-family="Times,serif" font-size="14.00" fill="#000000">StartProjectOptionsComponent</text>
</g>
<!-- StartProjectOptionsComponent&#45;&gt;DataViewModule -->
<g id="edge3" class="edge">
<title>StartProjectOptionsComponent&#45;&gt;DataViewModule</title>
<path fill="none" stroke="#000000" d="M485.6343,-122.1061C485.6343,-122.1061 485.6343,-140.991 485.6343,-140.991"/>
<polygon fill="#000000" stroke="#000000" points="482.1344,-140.9909 485.6343,-150.991 489.1344,-140.991 482.1344,-140.9909"/>
</g>
<!-- TableComponent -->
<g id="node4" class="node">
<title>TableComponent</title>
<polygon fill="#ffffb3" stroke="#000000" points="433.705,-122 320.295,-122 320.295,-86 433.705,-86 433.705,-122"/>
<text text-anchor="middle" x="377" y="-99.8" font-family="Times,serif" font-size="14.00" fill="#000000">TableComponent</text>
</g>
<!-- TableComponent&#45;&gt;DataViewModule -->
<g id="edge4" class="edge">
<title>TableComponent&#45;&gt;DataViewModule</title>
<path fill="none" stroke="#000000" d="M418.7276,-122.1061C418.7276,-122.1061 418.7276,-140.991 418.7276,-140.991"/>
<polygon fill="#000000" stroke="#000000" points="415.2276,-140.9909 418.7276,-150.991 422.2276,-140.991 415.2276,-140.9909"/>
</g>
<!-- TableIconComponent -->
<g id="node5" class="node">
<title>TableIconComponent</title>
<polygon fill="#ffffb3" stroke="#000000" points="302.08,-122 163.92,-122 163.92,-86 302.08,-86 302.08,-122"/>
<text text-anchor="middle" x="233" y="-99.8" font-family="Times,serif" font-size="14.00" fill="#000000">TableIconComponent</text>
</g>
<!-- TableIconComponent&#45;&gt;DataViewModule -->
<g id="edge5" class="edge">
<title>TableIconComponent&#45;&gt;DataViewModule</title>
<path fill="none" stroke="#000000" d="M233,-122.0225C233,-139.3734 233,-163 233,-163 233,-163 393.6211,-163 393.6211,-163"/>
<polygon fill="#000000" stroke="#000000" points="393.6211,-166.5001 403.6211,-163 393.6211,-159.5001 393.6211,-166.5001"/>
</g>
<!-- MainComponent  -->
<g id="node8" class="node">
<title>MainComponent </title>
<polygon fill="#fb8072" stroke="#000000" points="519.3828,-252 404.6172,-252 404.6172,-216 519.3828,-216 519.3828,-252"/>
<text text-anchor="middle" x="462" y="-229.8" font-family="Times,serif" font-size="14.00" fill="#000000">MainComponent </text>
</g>
<!-- DataViewModule&#45;&gt;MainComponent  -->
<g id="edge7" class="edge">
<title>DataViewModule&#45;&gt;MainComponent </title>
<path fill="none" stroke="#000000" stroke-dasharray="5,2" d="M462,-187.1061C462,-187.1061 462,-205.991 462,-205.991"/>
<polygon fill="#000000" stroke="#000000" points="458.5001,-205.9909 462,-215.991 465.5001,-205.991 458.5001,-205.9909"/>
</g>
<!-- DragDropModule -->
<g id="node7" class="node">
<title>DragDropModule</title>
<polygon fill="#8dd3c7" stroke="#000000" points="140.2992,-122 137.2992,-126 116.2992,-126 113.2992,-122 23.7008,-122 23.7008,-86 140.2992,-86 140.2992,-122"/>
<text text-anchor="middle" x="82" y="-99.8" font-family="Times,serif" font-size="14.00" fill="#000000">DragDropModule</text>
</g>
<!-- DragDropModule&#45;&gt;DataViewModule -->
<g id="edge6" class="edge">
<title>DragDropModule&#45;&gt;DataViewModule</title>
<path fill="none" stroke="#000000" d="M82,-122.2843C82,-143.3211 82,-175 82,-175 82,-175 393.4578,-175 393.4578,-175"/>
<polygon fill="#000000" stroke="#000000" points="393.4578,-178.5001 403.4578,-175 393.4577,-171.5001 393.4578,-178.5001"/>
</g>
</g>
</svg>
