<?xml version="1.0" encoding="UTF-8" standalone="no"?>
<!DOCTYPE svg PUBLIC "-//W3C//DTD SVG 1.1//EN"
 "http://www.w3.org/Graphics/SVG/1.1/DTD/svg11.dtd">
<!-- Generated by graphviz version 2.47.3 (20210619.1520)
 -->
<!-- Title: dependencies Pages: 1 -->
<svg width="334pt" height="247pt"
 viewBox="0.00 0.00 334.00 246.80" xmlns="http://www.w3.org/2000/svg" xmlns:xlink="http://www.w3.org/1999/xlink">
<g id="graph0" class="graph" transform="scale(1 1) rotate(0) translate(4 242.8)">
<title>dependencies</title>
<polygon fill="white" stroke="transparent" points="-4,4 -4,-242.8 330,-242.8 330,4 -4,4"/>
<text text-anchor="middle" x="163" y="-8.2" font-family="sans-serif" font-size="14.00">dependencies</text>
<g id="clust1" class="cluster">
<title>cluster_DragDropModule</title>
<polygon fill="none" stroke="black" stroke-dasharray="1,5" points="8,-32.8 8,-230.8 318,-230.8 318,-32.8 8,-32.8"/>
</g>
<g id="clust6" class="cluster">
<title>cluster_DragDropModule_exports</title>
<polygon fill="none" stroke="black" points="16,-170.8 16,-222.8 310,-222.8 310,-170.8 16,-170.8"/>
</g>
<g id="clust2" class="cluster">
<title>cluster_DragDropModule_declarations</title>
<polygon fill="none" stroke="black" points="19,-40.8 19,-92.8 307,-92.8 307,-40.8 19,-40.8"/>
</g>
<!-- DraggableDirective -->
<g id="node1" class="node">
<title>DraggableDirective</title>
<polygon fill="#ffffb3" stroke="black" points="299.38,-84.8 172.62,-84.8 172.62,-48.8 299.38,-48.8 299.38,-84.8"/>
<text text-anchor="middle" x="236" y="-62.6" font-family="Times,serif" font-size="14.00">DraggableDirective</text>
</g>
<!-- DragDropModule -->
<g id="node3" class="node">
<title>DragDropModule</title>
<polygon fill="#8dd3c7" stroke="black" points="149.3,-149.8 146.3,-153.8 125.3,-153.8 122.3,-149.8 32.7,-149.8 32.7,-113.8 149.3,-113.8 149.3,-149.8"/>
<text text-anchor="middle" x="91" y="-127.6" font-family="Times,serif" font-size="14.00">DragDropModule</text>
</g>
<!-- DraggableDirective&#45;&gt;DragDropModule -->
<g id="edge1" class="edge">
<title>DraggableDirective&#45;&gt;DragDropModule</title>
<path fill="none" stroke="black" d="M257.06,-84.82C257.06,-102.17 257.06,-125.8 257.06,-125.8 257.06,-125.8 159.55,-125.8 159.55,-125.8"/>
<polygon fill="black" stroke="black" points="159.55,-122.3 149.55,-125.8 159.55,-129.3 159.55,-122.3"/>
</g>
<!-- DroppableDirective -->
<g id="node2" class="node">
<title>DroppableDirective</title>
<polygon fill="#ffffb3" stroke="black" points="154.67,-84.8 27.33,-84.8 27.33,-48.8 154.67,-48.8 154.67,-84.8"/>
<text text-anchor="middle" x="91" y="-62.6" font-family="Times,serif" font-size="14.00">DroppableDirective</text>
</g>
<!-- DroppableDirective&#45;&gt;DragDropModule -->
<g id="edge2" class="edge">
<title>DroppableDirective&#45;&gt;DragDropModule</title>
<path fill="none" stroke="black" d="M91,-84.91C91,-84.91 91,-103.79 91,-103.79"/>
<polygon fill="black" stroke="black" points="87.5,-103.79 91,-113.79 94.5,-103.79 87.5,-103.79"/>
</g>
<!-- DraggableDirective  -->
<g id="node4" class="node">
<title>DraggableDirective </title>
<polygon fill="#fb8072" stroke="black" points="301.88,-214.8 172.12,-214.8 172.12,-178.8 301.88,-178.8 301.88,-214.8"/>
<text text-anchor="middle" x="237" y="-192.6" font-family="Times,serif" font-size="14.00">DraggableDirective </text>
</g>
<!-- DragDropModule&#45;&gt;DraggableDirective  -->
<g id="edge3" class="edge">
<title>DragDropModule&#45;&gt;DraggableDirective </title>
<path fill="none" stroke="black" stroke-dasharray="5,2" d="M149.34,-137.8C181.48,-137.8 214.94,-137.8 214.94,-137.8 214.94,-137.8 214.94,-168.78 214.94,-168.78"/>
<polygon fill="black" stroke="black" points="211.44,-168.78 214.94,-178.78 218.44,-168.78 211.44,-168.78"/>
</g>
<!-- DroppableDirective  -->
<g id="node5" class="node">
<title>DroppableDirective </title>
<polygon fill="#fb8072" stroke="black" points="154.17,-214.8 23.83,-214.8 23.83,-178.8 154.17,-178.8 154.17,-214.8"/>
<text text-anchor="middle" x="89" y="-192.6" font-family="Times,serif" font-size="14.00">DroppableDirective </text>
</g>
<!-- DragDropModule&#45;&gt;DroppableDirective  -->
<g id="edge4" class="edge">
<title>DragDropModule&#45;&gt;DroppableDirective </title>
<path fill="none" stroke="black" stroke-dasharray="5,2" d="M91,-149.91C91,-149.91 91,-168.79 91,-168.79"/>
<polygon fill="black" stroke="black" points="87.5,-168.79 91,-178.79 94.5,-168.79 87.5,-168.79"/>
</g>
</g>
</svg>
