<?xml version="1.0" encoding="UTF-8" standalone="no"?>
<!DOCTYPE svg PUBLIC "-//W3C//DTD SVG 1.1//EN"
 "http://www.w3.org/Graphics/SVG/1.1/DTD/svg11.dtd">
<!-- Generated by graphviz version 2.40.1 (20161225.0304)
 -->
<!-- Title: dependencies Pages: 1 -->
<svg width="504pt" height="284pt"
 viewBox="0.00 0.00 504.00 284.00" xmlns="http://www.w3.org/2000/svg" xmlns:xlink="http://www.w3.org/1999/xlink">
<g id="graph0" class="graph" transform="scale(1 1) rotate(0) translate(4 280)">
<title>dependencies</title>
<polygon fill="#ffffff" stroke="transparent" points="-4,4 -4,-280 500,-280 500,4 -4,4"/>
<text text-anchor="start" x="227.0091" y="-42.4" font-family="sans-serif" font-weight="bold" font-size="14.00" fill="#000000">Legend</text>
<polygon fill="#ffffb3" stroke="transparent" points="14,-10 14,-30 34,-30 34,-10 14,-10"/>
<text text-anchor="start" x="37.629" y="-15.4" font-family="sans-serif" font-size="14.00" fill="#000000"> &#160;Declarations</text>
<polygon fill="#8dd3c7" stroke="transparent" points="127,-10 127,-30 147,-30 147,-10 127,-10"/>
<text text-anchor="start" x="150.7251" y="-15.4" font-family="sans-serif" font-size="14.00" fill="#000000"> &#160;Module</text>
<polygon fill="#80b1d3" stroke="transparent" points="213,-10 213,-30 233,-30 233,-10 213,-10"/>
<text text-anchor="start" x="236.7812" y="-15.4" font-family="sans-serif" font-size="14.00" fill="#000000"> &#160;Bootstrap</text>
<polygon fill="#fdb462" stroke="transparent" points="310,-10 310,-30 330,-30 330,-10 310,-10"/>
<text text-anchor="start" x="333.6732" y="-15.4" font-family="sans-serif" font-size="14.00" fill="#000000"> &#160;Providers</text>
<polygon fill="#fb8072" stroke="transparent" points="406,-10 406,-30 426,-30 426,-10 406,-10"/>
<text text-anchor="start" x="429.7258" y="-15.4" font-family="sans-serif" font-size="14.00" fill="#000000"> &#160;Exports</text>
<g id="clust1" class="cluster">
<title>cluster_DragDropModule</title>
<polygon fill="none" stroke="#000000" stroke-dasharray="1,5" points="93,-70 93,-268 403,-268 403,-70 93,-70"/>
</g>
<g id="clust2" class="cluster">
<title>cluster_DragDropModule_declarations</title>
<polygon fill="none" stroke="#000000" points="104,-78 104,-130 392,-130 392,-78 104,-78"/>
</g>
<g id="clust6" class="cluster">
<title>cluster_DragDropModule_exports</title>
<polygon fill="none" stroke="#000000" points="101,-208 101,-260 395,-260 395,-208 101,-208"/>
</g>
<!-- DraggableDirective -->
<g id="node1" class="node">
<title>DraggableDirective</title>
<polygon fill="#ffffb3" stroke="#000000" points="384.385,-122 257.615,-122 257.615,-86 384.385,-86 384.385,-122"/>
<text text-anchor="middle" x="321" y="-99.8" font-family="Times,serif" font-size="14.00" fill="#000000">DraggableDirective</text>
</g>
<!-- DragDropModule -->
<g id="node3" class="node">
<title>DragDropModule</title>
<polygon fill="#8dd3c7" stroke="#000000" points="234.2992,-187 231.2992,-191 210.2992,-191 207.2992,-187 117.7008,-187 117.7008,-151 234.2992,-151 234.2992,-187"/>
<text text-anchor="middle" x="176" y="-164.8" font-family="Times,serif" font-size="14.00" fill="#000000">DragDropModule</text>
</g>
<!-- DraggableDirective&#45;&gt;DragDropModule -->
<g id="edge1" class="edge">
<title>DraggableDirective&#45;&gt;DragDropModule</title>
<path fill="none" stroke="#000000" d="M342.0641,-122.0225C342.0641,-139.3734 342.0641,-163 342.0641,-163 342.0641,-163 244.548,-163 244.548,-163"/>
<polygon fill="#000000" stroke="#000000" points="244.548,-159.5001 234.548,-163 244.5479,-166.5001 244.548,-159.5001"/>
</g>
<!-- DroppableDirective -->
<g id="node2" class="node">
<title>DroppableDirective</title>
<polygon fill="#ffffb3" stroke="#000000" points="239.6699,-122 112.3301,-122 112.3301,-86 239.6699,-86 239.6699,-122"/>
<text text-anchor="middle" x="176" y="-99.8" font-family="Times,serif" font-size="14.00" fill="#000000">DroppableDirective</text>
</g>
<!-- DroppableDirective&#45;&gt;DragDropModule -->
<g id="edge2" class="edge">
<title>DroppableDirective&#45;&gt;DragDropModule</title>
<path fill="none" stroke="#000000" d="M176,-122.1061C176,-122.1061 176,-140.991 176,-140.991"/>
<polygon fill="#000000" stroke="#000000" points="172.5001,-140.9909 176,-150.991 179.5001,-140.991 172.5001,-140.9909"/>
</g>
<!-- DraggableDirective  -->
<g id="node4" class="node">
<title>DraggableDirective </title>
<polygon fill="#fb8072" stroke="#000000" points="386.8845,-252 257.1155,-252 257.1155,-216 386.8845,-216 386.8845,-252"/>
<text text-anchor="middle" x="322" y="-229.8" font-family="Times,serif" font-size="14.00" fill="#000000">DraggableDirective </text>
</g>
<!-- DragDropModule&#45;&gt;DraggableDirective  -->
<g id="edge3" class="edge">
<title>DragDropModule&#45;&gt;DraggableDirective </title>
<path fill="none" stroke="#000000" stroke-dasharray="5,2" d="M234.3389,-175C266.484,-175 299.9359,-175 299.9359,-175 299.9359,-175 299.9359,-205.9775 299.9359,-205.9775"/>
<polygon fill="#000000" stroke="#000000" points="296.436,-205.9774 299.9359,-215.9775 303.436,-205.9775 296.436,-205.9774"/>
</g>
<!-- DroppableDirective  -->
<g id="node5" class="node">
<title>DroppableDirective </title>
<polygon fill="#fb8072" stroke="#000000" points="239.1702,-252 108.8298,-252 108.8298,-216 239.1702,-216 239.1702,-252"/>
<text text-anchor="middle" x="174" y="-229.8" font-family="Times,serif" font-size="14.00" fill="#000000">DroppableDirective </text>
</g>
<!-- DragDropModule&#45;&gt;DroppableDirective  -->
<g id="edge4" class="edge">
<title>DragDropModule&#45;&gt;DroppableDirective </title>
<path fill="none" stroke="#000000" stroke-dasharray="5,2" d="M176,-187.1061C176,-187.1061 176,-205.991 176,-205.991"/>
<polygon fill="#000000" stroke="#000000" points="172.5001,-205.9909 176,-215.991 179.5001,-205.991 172.5001,-205.9909"/>
</g>
</g>
</svg>
