<?xml version="1.0" encoding="UTF-8" standalone="no"?>
<!DOCTYPE svg PUBLIC "-//W3C//DTD SVG 1.1//EN"
 "http://www.w3.org/Graphics/SVG/1.1/DTD/svg11.dtd">
<!-- Generated by graphviz version 2.47.0 (20210316.0004)
 -->
<!-- Title: dependencies Pages: 1 -->
<svg width="504pt" height="284pt"
 viewBox="0.00 0.00 504.00 284.00" xmlns="http://www.w3.org/2000/svg" xmlns:xlink="http://www.w3.org/1999/xlink">
<g id="graph0" class="graph" transform="scale(1 1) rotate(0) translate(4 280)">
<title>dependencies</title>
<polygon fill="white" stroke="transparent" points="-4,4 -4,-280 500,-280 500,4 -4,4"/>
<text text-anchor="start" x="227.01" y="-42.4" font-family="sans-serif" font-weight="bold" font-size="14.00">Legend</text>
<polygon fill="#ffffb3" stroke="transparent" points="14,-10 14,-30 34,-30 34,-10 14,-10"/>
<text text-anchor="start" x="37.63" y="-15.4" font-family="sans-serif" font-size="14.00"> &#160;Declarations</text>
<polygon fill="#8dd3c7" stroke="transparent" points="127,-10 127,-30 147,-30 147,-10 127,-10"/>
<text text-anchor="start" x="150.73" y="-15.4" font-family="sans-serif" font-size="14.00"> &#160;Module</text>
<polygon fill="#80b1d3" stroke="transparent" points="213,-10 213,-30 233,-30 233,-10 213,-10"/>
<text text-anchor="start" x="236.78" y="-15.4" font-family="sans-serif" font-size="14.00"> &#160;Bootstrap</text>
<polygon fill="#fdb462" stroke="transparent" points="310,-10 310,-30 330,-30 330,-10 310,-10"/>
<text text-anchor="start" x="333.67" y="-15.4" font-family="sans-serif" font-size="14.00"> &#160;Providers</text>
<polygon fill="#fb8072" stroke="transparent" points="406,-10 406,-30 426,-30 426,-10 406,-10"/>
<text text-anchor="start" x="429.73" y="-15.4" font-family="sans-serif" font-size="14.00"> &#160;Exports</text>
<g id="clust1" class="cluster">
<title>cluster_DragDropModule</title>
<polygon fill="none" stroke="black" stroke-dasharray="1,5" points="93,-70 93,-268 403,-268 403,-70 93,-70"/>
</g>
<g id="clust2" class="cluster">
<title>cluster_DragDropModule_declarations</title>
<polygon fill="none" stroke="black" points="104,-78 104,-130 392,-130 392,-78 104,-78"/>
</g>
<g id="clust6" class="cluster">
<title>cluster_DragDropModule_exports</title>
<polygon fill="none" stroke="black" points="101,-208 101,-260 395,-260 395,-208 101,-208"/>
</g>
<!-- DraggableDirective -->
<g id="node1" class="node">
<title>DraggableDirective</title>
<polygon fill="#ffffb3" stroke="black" points="384.38,-122 257.62,-122 257.62,-86 384.38,-86 384.38,-122"/>
<text text-anchor="middle" x="321" y="-99.8" font-family="Times,serif" font-size="14.00">DraggableDirective</text>
</g>
<!-- DragDropModule -->
<g id="node3" class="node">
<title>DragDropModule</title>
<polygon fill="#8dd3c7" stroke="black" points="234.3,-187 231.3,-191 210.3,-191 207.3,-187 117.7,-187 117.7,-151 234.3,-151 234.3,-187"/>
<text text-anchor="middle" x="176" y="-164.8" font-family="Times,serif" font-size="14.00">DragDropModule</text>
</g>
<!-- DraggableDirective&#45;&gt;DragDropModule -->
<g id="edge1" class="edge">
<title>DraggableDirective&#45;&gt;DragDropModule</title>
<path fill="none" stroke="black" d="M342.06,-122.02C342.06,-139.37 342.06,-163 342.06,-163 342.06,-163 244.55,-163 244.55,-163"/>
<polygon fill="black" stroke="black" points="244.55,-159.5 234.55,-163 244.55,-166.5 244.55,-159.5"/>
</g>
<!-- DroppableDirective -->
<g id="node2" class="node">
<title>DroppableDirective</title>
<polygon fill="#ffffb3" stroke="black" points="239.67,-122 112.33,-122 112.33,-86 239.67,-86 239.67,-122"/>
<text text-anchor="middle" x="176" y="-99.8" font-family="Times,serif" font-size="14.00">DroppableDirective</text>
</g>
<!-- DroppableDirective&#45;&gt;DragDropModule -->
<g id="edge2" class="edge">
<title>DroppableDirective&#45;&gt;DragDropModule</title>
<path fill="none" stroke="black" d="M176,-122.11C176,-122.11 176,-140.99 176,-140.99"/>
<polygon fill="black" stroke="black" points="172.5,-140.99 176,-150.99 179.5,-140.99 172.5,-140.99"/>
</g>
<!-- DraggableDirective  -->
<g id="node4" class="node">
<title>DraggableDirective </title>
<polygon fill="#fb8072" stroke="black" points="386.88,-252 257.12,-252 257.12,-216 386.88,-216 386.88,-252"/>
<text text-anchor="middle" x="322" y="-229.8" font-family="Times,serif" font-size="14.00">DraggableDirective </text>
</g>
<!-- DragDropModule&#45;&gt;DraggableDirective  -->
<g id="edge3" class="edge">
<title>DragDropModule&#45;&gt;DraggableDirective </title>
<path fill="none" stroke="black" stroke-dasharray="5,2" d="M234.34,-175C266.48,-175 299.94,-175 299.94,-175 299.94,-175 299.94,-205.98 299.94,-205.98"/>
<polygon fill="black" stroke="black" points="296.44,-205.98 299.94,-215.98 303.44,-205.98 296.44,-205.98"/>
</g>
<!-- DroppableDirective  -->
<g id="node5" class="node">
<title>DroppableDirective </title>
<polygon fill="#fb8072" stroke="black" points="239.17,-252 108.83,-252 108.83,-216 239.17,-216 239.17,-252"/>
<text text-anchor="middle" x="174" y="-229.8" font-family="Times,serif" font-size="14.00">DroppableDirective </text>
</g>
<!-- DragDropModule&#45;&gt;DroppableDirective  -->
<g id="edge4" class="edge">
<title>DragDropModule&#45;&gt;DroppableDirective </title>
<path fill="none" stroke="black" stroke-dasharray="5,2" d="M176,-187.11C176,-187.11 176,-205.99 176,-205.99"/>
<polygon fill="black" stroke="black" points="172.5,-205.99 176,-215.99 179.5,-205.99 172.5,-205.99"/>
</g>
</g>
</svg>
