<?xml version="1.0" encoding="UTF-8" standalone="no"?>
<!DOCTYPE svg PUBLIC "-//W3C//DTD SVG 1.1//EN"
 "http://www.w3.org/Graphics/SVG/1.1/DTD/svg11.dtd">
<!-- Generated by graphviz version 2.47.0 (20210316.0004)
 -->
<!-- Title: dependencies Pages: 1 -->
<svg width="2521pt" height="284pt"
 viewBox="0.00 0.00 2521.00 284.00" xmlns="http://www.w3.org/2000/svg" xmlns:xlink="http://www.w3.org/1999/xlink">
<g id="graph0" class="graph" transform="scale(1 1) rotate(0) translate(4 280)">
<title>dependencies</title>
<polygon fill="white" stroke="transparent" points="-4,4 -4,-280 2517,-280 2517,4 -4,4"/>
<text text-anchor="start" x="1235.51" y="-42.4" font-family="sans-serif" font-weight="bold" font-size="14.00">Legend</text>
<polygon fill="#ffffb3" stroke="transparent" points="1022.5,-10 1022.5,-30 1042.5,-30 1042.5,-10 1022.5,-10"/>
<text text-anchor="start" x="1046.13" y="-15.4" font-family="sans-serif" font-size="14.00"> &#160;Declarations</text>
<polygon fill="#8dd3c7" stroke="transparent" points="1135.5,-10 1135.5,-30 1155.5,-30 1155.5,-10 1135.5,-10"/>
<text text-anchor="start" x="1159.23" y="-15.4" font-family="sans-serif" font-size="14.00"> &#160;Module</text>
<polygon fill="#80b1d3" stroke="transparent" points="1221.5,-10 1221.5,-30 1241.5,-30 1241.5,-10 1221.5,-10"/>
<text text-anchor="start" x="1245.28" y="-15.4" font-family="sans-serif" font-size="14.00"> &#160;Bootstrap</text>
<polygon fill="#fdb462" stroke="transparent" points="1318.5,-10 1318.5,-30 1338.5,-30 1338.5,-10 1318.5,-10"/>
<text text-anchor="start" x="1342.17" y="-15.4" font-family="sans-serif" font-size="14.00"> &#160;Providers</text>
<polygon fill="#fb8072" stroke="transparent" points="1414.5,-10 1414.5,-30 1434.5,-30 1434.5,-10 1414.5,-10"/>
<text text-anchor="start" x="1438.23" y="-15.4" font-family="sans-serif" font-size="14.00"> &#160;Exports</text>
<g id="clust1" class="cluster">
<title>cluster_LegendsModule</title>
<polygon fill="none" stroke="black" stroke-dasharray="1,5" points="8,-70 8,-268 2505,-268 2505,-70 8,-70"/>
</g>
<g id="clust2" class="cluster">
<title>cluster_LegendsModule_declarations</title>
<polygon fill="none" stroke="black" points="43,-78 43,-130 2467,-130 2467,-78 43,-78"/>
</g>
<g id="clust21" class="cluster">
<title>cluster_LegendsModule_exports</title>
<polygon fill="none" stroke="black" points="16,-208 16,-260 2497,-260 2497,-208 16,-208"/>
</g>
<!-- AreaSizeComponent -->
<g id="node1" class="node">
<title>AreaSizeComponent</title>
<polygon fill="#ffffb3" stroke="black" points="2459.13,-122 2326.87,-122 2326.87,-86 2459.13,-86 2459.13,-122"/>
<text text-anchor="middle" x="2393" y="-99.8" font-family="Times,serif" font-size="14.00">AreaSizeComponent</text>
</g>
<!-- LegendsModule -->
<g id="node18" class="node">
<title>LegendsModule</title>
<polygon fill="#8dd3c7" stroke="black" points="1276.48,-187 1273.48,-191 1252.48,-191 1249.48,-187 1169.52,-187 1169.52,-151 1276.48,-151 1276.48,-187"/>
<text text-anchor="middle" x="1223" y="-164.8" font-family="Times,serif" font-size="14.00">LegendsModule</text>
</g>
<!-- AreaSizeComponent&#45;&gt;LegendsModule -->
<g id="edge1" class="edge">
<title>AreaSizeComponent&#45;&gt;LegendsModule</title>
<path fill="none" stroke="black" d="M2330.82,-122.17C2330.82,-141.09 2330.82,-168 2330.82,-168 2330.82,-168 1286.81,-168 1286.81,-168"/>
<polygon fill="black" stroke="black" points="1286.81,-164.5 1276.81,-168 1286.81,-171.5 1286.81,-164.5"/>
</g>
<!-- ColorAreaComponent -->
<g id="node2" class="node">
<title>ColorAreaComponent</title>
<polygon fill="#ffffb3" stroke="black" points="2308.42,-122 2167.58,-122 2167.58,-86 2308.42,-86 2308.42,-122"/>
<text text-anchor="middle" x="2238" y="-99.8" font-family="Times,serif" font-size="14.00">ColorAreaComponent</text>
</g>
<!-- ColorAreaComponent&#45;&gt;LegendsModule -->
<g id="edge2" class="edge">
<title>ColorAreaComponent&#45;&gt;LegendsModule</title>
<path fill="none" stroke="black" d="M2182.2,-122.27C2182.2,-140.56 2182.2,-166 2182.2,-166 2182.2,-166 1286.63,-166 1286.63,-166"/>
<polygon fill="black" stroke="black" points="1286.63,-162.5 1276.63,-166 1286.63,-169.5 1286.63,-162.5"/>
</g>
<!-- ColorComponent -->
<g id="node3" class="node">
<title>ColorComponent</title>
<polygon fill="#ffffb3" stroke="black" points="2149.72,-122 2036.28,-122 2036.28,-86 2149.72,-86 2149.72,-122"/>
<text text-anchor="middle" x="2093" y="-99.8" font-family="Times,serif" font-size="14.00">ColorComponent</text>
</g>
<!-- ColorComponent&#45;&gt;LegendsModule -->
<g id="edge3" class="edge">
<title>ColorComponent&#45;&gt;LegendsModule</title>
<path fill="none" stroke="black" d="M2047.55,-122C2047.55,-139.68 2047.55,-164 2047.55,-164 2047.55,-164 1286.78,-164 1286.78,-164"/>
<polygon fill="black" stroke="black" points="1286.78,-160.5 1276.78,-164 1286.78,-167.5 1286.78,-160.5"/>
</g>
<!-- ColorEdgesComponent -->
<g id="node4" class="node">
<title>ColorEdgesComponent</title>
<polygon fill="#ffffb3" stroke="black" points="2018.93,-122 1871.07,-122 1871.07,-86 2018.93,-86 2018.93,-122"/>
<text text-anchor="middle" x="1945" y="-99.8" font-family="Times,serif" font-size="14.00">ColorEdgesComponent</text>
</g>
<!-- ColorEdgesComponent&#45;&gt;LegendsModule -->
<g id="edge4" class="edge">
<title>ColorEdgesComponent&#45;&gt;LegendsModule</title>
<path fill="none" stroke="black" d="M1879.41,-122.03C1879.41,-139.06 1879.41,-162 1879.41,-162 1879.41,-162 1286.72,-162 1286.72,-162"/>
<polygon fill="black" stroke="black" points="1286.72,-158.5 1276.72,-162 1286.72,-165.5 1286.72,-158.5"/>
</g>
<!-- EdgeSizeComponent -->
<g id="node5" class="node">
<title>EdgeSizeComponent</title>
<polygon fill="#ffffb3" stroke="black" points="1853.2,-122 1718.8,-122 1718.8,-86 1853.2,-86 1853.2,-122"/>
<text text-anchor="middle" x="1786" y="-99.8" font-family="Times,serif" font-size="14.00">EdgeSizeComponent</text>
</g>
<!-- EdgeSizeComponent&#45;&gt;LegendsModule -->
<g id="edge5" class="edge">
<title>EdgeSizeComponent&#45;&gt;LegendsModule</title>
<path fill="none" stroke="black" d="M1725.52,-122.03C1725.52,-138.4 1725.52,-160 1725.52,-160 1725.52,-160 1286.78,-160 1286.78,-160"/>
<polygon fill="black" stroke="black" points="1286.78,-156.5 1276.78,-160 1286.78,-163.5 1286.78,-156.5"/>
</g>
<!-- EndComponent -->
<g id="node6" class="node">
<title>EndComponent</title>
<polygon fill="#ffffb3" stroke="black" points="1700.89,-122 1597.11,-122 1597.11,-86 1700.89,-86 1700.89,-122"/>
<text text-anchor="middle" x="1649" y="-99.8" font-family="Times,serif" font-size="14.00">EndComponent</text>
</g>
<!-- EndComponent&#45;&gt;LegendsModule -->
<g id="edge6" class="edge">
<title>EndComponent&#45;&gt;LegendsModule</title>
<path fill="none" stroke="black" d="M1601.68,-122.28C1601.68,-137.95 1601.68,-158 1601.68,-158 1601.68,-158 1286.85,-158 1286.85,-158"/>
<polygon fill="black" stroke="black" points="1286.85,-154.5 1276.85,-158 1286.85,-161.5 1286.85,-154.5"/>
</g>
<!-- GradientComponent -->
<g id="node7" class="node">
<title>GradientComponent</title>
<polygon fill="#ffffb3" stroke="black" points="1579.31,-122 1448.69,-122 1448.69,-86 1579.31,-86 1579.31,-122"/>
<text text-anchor="middle" x="1514" y="-99.8" font-family="Times,serif" font-size="14.00">GradientComponent</text>
</g>
<!-- GradientComponent&#45;&gt;LegendsModule -->
<g id="edge7" class="edge">
<title>GradientComponent&#45;&gt;LegendsModule</title>
<path fill="none" stroke="black" d="M1537.47,-122.19C1537.47,-137.18 1537.47,-156 1537.47,-156 1537.47,-156 1286.7,-156 1286.7,-156"/>
<polygon fill="black" stroke="black" points="1286.7,-152.5 1276.7,-156 1286.7,-159.5 1286.7,-152.5"/>
</g>
<!-- IdentifierComponent -->
<g id="node8" class="node">
<title>IdentifierComponent</title>
<polygon fill="#ffffb3" stroke="black" points="1430.92,-122 1297.08,-122 1297.08,-86 1430.92,-86 1430.92,-122"/>
<text text-anchor="middle" x="1364" y="-99.8" font-family="Times,serif" font-size="14.00">IdentifierComponent</text>
</g>
<!-- IdentifierComponent&#45;&gt;LegendsModule -->
<g id="edge8" class="edge">
<title>IdentifierComponent&#45;&gt;LegendsModule</title>
<path fill="none" stroke="black" d="M1386.99,-122.05C1386.99,-136.37 1386.99,-154 1386.99,-154 1386.99,-154 1286.7,-154 1286.7,-154"/>
<polygon fill="black" stroke="black" points="1286.7,-150.5 1276.7,-154 1286.7,-157.5 1286.7,-150.5"/>
</g>
<!-- LabelComponent -->
<g id="node9" class="node">
<title>LabelComponent</title>
<polygon fill="#ffffb3" stroke="black" points="1279.7,-122 1166.3,-122 1166.3,-86 1279.7,-86 1279.7,-122"/>
<text text-anchor="middle" x="1223" y="-99.8" font-family="Times,serif" font-size="14.00">LabelComponent</text>
</g>
<!-- LabelComponent&#45;&gt;LegendsModule -->
<g id="edge9" class="edge">
<title>LabelComponent&#45;&gt;LegendsModule</title>
<path fill="none" stroke="black" d="M1223,-122.11C1223,-122.11 1223,-140.99 1223,-140.99"/>
<polygon fill="black" stroke="black" points="1219.5,-140.99 1223,-150.99 1226.5,-140.99 1219.5,-140.99"/>
</g>
<!-- NodeSizeComponent -->
<g id="node10" class="node">
<title>NodeSizeComponent</title>
<polygon fill="#ffffb3" stroke="black" points="1148.76,-122 1013.24,-122 1013.24,-86 1148.76,-86 1148.76,-122"/>
<text text-anchor="middle" x="1081" y="-99.8" font-family="Times,serif" font-size="14.00">NodeSizeComponent</text>
</g>
<!-- NodeSizeComponent&#45;&gt;LegendsModule -->
<g id="edge10" class="edge">
<title>NodeSizeComponent&#45;&gt;LegendsModule</title>
<path fill="none" stroke="black" d="M1102.13,-122.05C1102.13,-136.37 1102.13,-154 1102.13,-154 1102.13,-154 1159.28,-154 1159.28,-154"/>
<polygon fill="black" stroke="black" points="1159.28,-157.5 1169.28,-154 1159.28,-150.5 1159.28,-157.5"/>
</g>
<!-- ShapeComponent -->
<g id="node11" class="node">
<title>ShapeComponent</title>
<polygon fill="#ffffb3" stroke="black" points="994.55,-122 879.45,-122 879.45,-86 994.55,-86 994.55,-122"/>
<text text-anchor="middle" x="937" y="-99.8" font-family="Times,serif" font-size="14.00">ShapeComponent</text>
</g>
<!-- ShapeComponent&#45;&gt;LegendsModule -->
<g id="edge11" class="edge">
<title>ShapeComponent&#45;&gt;LegendsModule</title>
<path fill="none" stroke="black" d="M952.76,-122.19C952.76,-137.18 952.76,-156 952.76,-156 952.76,-156 1159.29,-156 1159.29,-156"/>
<polygon fill="black" stroke="black" points="1159.29,-159.5 1169.29,-156 1159.29,-152.5 1159.29,-159.5"/>
</g>
<!-- SourceComponent -->
<g id="node12" class="node">
<title>SourceComponent</title>
<polygon fill="#ffffb3" stroke="black" points="861.2,-122 740.8,-122 740.8,-86 861.2,-86 861.2,-122"/>
<text text-anchor="middle" x="801" y="-99.8" font-family="Times,serif" font-size="14.00">SourceComponent</text>
</g>
<!-- SourceComponent&#45;&gt;LegendsModule -->
<g id="edge12" class="edge">
<title>SourceComponent&#45;&gt;LegendsModule</title>
<path fill="none" stroke="black" d="M856.98,-122.28C856.98,-137.95 856.98,-158 856.98,-158 856.98,-158 1159.39,-158 1159.39,-158"/>
<polygon fill="black" stroke="black" points="1159.39,-161.5 1169.39,-158 1159.39,-154.5 1159.39,-161.5"/>
</g>
<!-- StartComponent -->
<g id="node13" class="node">
<title>StartComponent</title>
<polygon fill="#ffffb3" stroke="black" points="722.77,-122 615.23,-122 615.23,-86 722.77,-86 722.77,-122"/>
<text text-anchor="middle" x="669" y="-99.8" font-family="Times,serif" font-size="14.00">StartComponent</text>
</g>
<!-- StartComponent&#45;&gt;LegendsModule -->
<g id="edge13" class="edge">
<title>StartComponent&#45;&gt;LegendsModule</title>
<path fill="none" stroke="black" d="M717.26,-122.03C717.26,-138.4 717.26,-160 717.26,-160 717.26,-160 1159.36,-160 1159.36,-160"/>
<polygon fill="black" stroke="black" points="1159.36,-163.5 1169.36,-160 1159.36,-156.5 1159.36,-163.5"/>
</g>
<!-- TargetComponent -->
<g id="node14" class="node">
<title>TargetComponent</title>
<polygon fill="#ffffb3" stroke="black" points="596.87,-122 479.13,-122 479.13,-86 596.87,-86 596.87,-122"/>
<text text-anchor="middle" x="538" y="-99.8" font-family="Times,serif" font-size="14.00">TargetComponent</text>
</g>
<!-- TargetComponent&#45;&gt;LegendsModule -->
<g id="edge14" class="edge">
<title>TargetComponent&#45;&gt;LegendsModule</title>
<path fill="none" stroke="black" d="M589.81,-122.03C589.81,-139.06 589.81,-162 589.81,-162 589.81,-162 1159.29,-162 1159.29,-162"/>
<polygon fill="black" stroke="black" points="1159.29,-165.5 1169.29,-162 1159.29,-158.5 1159.29,-165.5"/>
</g>
<!-- ThicknessComponent -->
<g id="node15" class="node">
<title>ThicknessComponent</title>
<polygon fill="#ffffb3" stroke="black" points="461.09,-122 322.91,-122 322.91,-86 461.09,-86 461.09,-122"/>
<text text-anchor="middle" x="392" y="-99.8" font-family="Times,serif" font-size="14.00">ThicknessComponent</text>
</g>
<!-- ThicknessComponent&#45;&gt;LegendsModule -->
<g id="edge15" class="edge">
<title>ThicknessComponent&#45;&gt;LegendsModule</title>
<path fill="none" stroke="black" d="M452.42,-122C452.42,-139.68 452.42,-164 452.42,-164 452.42,-164 1159.43,-164 1159.43,-164"/>
<polygon fill="black" stroke="black" points="1159.43,-167.5 1169.43,-164 1159.43,-160.5 1159.43,-167.5"/>
</g>
<!-- XAxisComponent -->
<g id="node16" class="node">
<title>XAxisComponent</title>
<polygon fill="#ffffb3" stroke="black" points="304.88,-122 187.12,-122 187.12,-86 304.88,-86 304.88,-122"/>
<text text-anchor="middle" x="246" y="-99.8" font-family="Times,serif" font-size="14.00">XAxisComponent</text>
</g>
<!-- XAxisComponent&#45;&gt;LegendsModule -->
<g id="edge16" class="edge">
<title>XAxisComponent&#45;&gt;LegendsModule</title>
<path fill="none" stroke="black" d="M293.45,-122.27C293.45,-140.56 293.45,-166 293.45,-166 293.45,-166 1159.35,-166 1159.35,-166"/>
<polygon fill="black" stroke="black" points="1159.35,-169.5 1169.35,-166 1159.35,-162.5 1159.35,-169.5"/>
</g>
<!-- YAxisComponent -->
<g id="node17" class="node">
<title>YAxisComponent</title>
<polygon fill="#ffffb3" stroke="black" points="168.88,-122 51.12,-122 51.12,-86 168.88,-86 168.88,-122"/>
<text text-anchor="middle" x="110" y="-99.8" font-family="Times,serif" font-size="14.00">YAxisComponent</text>
</g>
<!-- YAxisComponent&#45;&gt;LegendsModule -->
<g id="edge17" class="edge">
<title>YAxisComponent&#45;&gt;LegendsModule</title>
<path fill="none" stroke="black" d="M154.5,-122.17C154.5,-141.09 154.5,-168 154.5,-168 154.5,-168 1159.28,-168 1159.28,-168"/>
<polygon fill="black" stroke="black" points="1159.28,-171.5 1169.28,-168 1159.28,-164.5 1159.28,-171.5"/>
</g>
<!-- AreaSizeComponent  -->
<g id="node19" class="node">
<title>AreaSizeComponent </title>
<polygon fill="#fb8072" stroke="black" points="2489.13,-252 2352.87,-252 2352.87,-216 2489.13,-216 2489.13,-252"/>
<text text-anchor="middle" x="2421" y="-229.8" font-family="Times,serif" font-size="14.00">AreaSizeComponent </text>
</g>
<!-- LegendsModule&#45;&gt;AreaSizeComponent  -->
<g id="edge18" class="edge">
<title>LegendsModule&#45;&gt;AreaSizeComponent </title>
<path fill="none" stroke="black" stroke-dasharray="5,2" d="M1276.52,-171C1507.36,-171 2406.12,-171 2406.12,-171 2406.12,-171 2406.12,-205.78 2406.12,-205.78"/>
<polygon fill="black" stroke="black" points="2402.63,-205.78 2406.12,-215.78 2409.63,-205.78 2402.63,-205.78"/>
</g>
<!-- ColorAreaComponent  -->
<g id="node20" class="node">
<title>ColorAreaComponent </title>
<polygon fill="#fb8072" stroke="black" points="2334.92,-252 2191.08,-252 2191.08,-216 2334.92,-216 2334.92,-252"/>
<text text-anchor="middle" x="2263" y="-229.8" font-family="Times,serif" font-size="14.00">ColorAreaComponent </text>
</g>
<!-- LegendsModule&#45;&gt;ColorAreaComponent  -->
<g id="edge19" class="edge">
<title>LegendsModule&#45;&gt;ColorAreaComponent </title>
<path fill="none" stroke="black" stroke-dasharray="5,2" d="M1276.75,-173C1487.99,-173 2249.62,-173 2249.62,-173 2249.62,-173 2249.62,-205.7 2249.62,-205.7"/>
<polygon fill="black" stroke="black" points="2246.13,-205.7 2249.62,-215.7 2253.13,-205.7 2246.13,-205.7"/>
</g>
<!-- ColorComponent  -->
<g id="node21" class="node">
<title>ColorComponent </title>
<polygon fill="#fb8072" stroke="black" points="2173.22,-252 2056.78,-252 2056.78,-216 2173.22,-216 2173.22,-252"/>
<text text-anchor="middle" x="2115" y="-229.8" font-family="Times,serif" font-size="14.00">ColorComponent </text>
</g>
<!-- LegendsModule&#45;&gt;ColorComponent  -->
<g id="edge20" class="edge">
<title>LegendsModule&#45;&gt;ColorComponent </title>
<path fill="none" stroke="black" stroke-dasharray="5,2" d="M1276.73,-175C1467.82,-175 2103.12,-175 2103.12,-175 2103.12,-175 2103.12,-205.98 2103.12,-205.98"/>
<polygon fill="black" stroke="black" points="2099.63,-205.98 2103.12,-215.98 2106.63,-205.98 2099.63,-205.98"/>
</g>
<!-- ColorEdgesComponent  -->
<g id="node22" class="node">
<title>ColorEdgesComponent </title>
<polygon fill="#fb8072" stroke="black" points="2038.43,-252 1887.57,-252 1887.57,-216 2038.43,-216 2038.43,-252"/>
<text text-anchor="middle" x="1963" y="-229.8" font-family="Times,serif" font-size="14.00">ColorEdgesComponent </text>
</g>
<!-- LegendsModule&#45;&gt;ColorEdgesComponent  -->
<g id="edge21" class="edge">
<title>LegendsModule&#45;&gt;ColorEdgesComponent </title>
<path fill="none" stroke="black" stroke-dasharray="5,2" d="M1276.69,-177C1445.3,-177 1953.12,-177 1953.12,-177 1953.12,-177 1953.12,-205.96 1953.12,-205.96"/>
<polygon fill="black" stroke="black" points="1949.63,-205.96 1953.12,-215.96 1956.63,-205.96 1949.63,-205.96"/>
</g>
<!-- EdgeSizeComponent  -->
<g id="node23" class="node">
<title>EdgeSizeComponent </title>
<polygon fill="#fb8072" stroke="black" points="1869.7,-252 1732.3,-252 1732.3,-216 1869.7,-216 1869.7,-252"/>
<text text-anchor="middle" x="1801" y="-229.8" font-family="Times,serif" font-size="14.00">EdgeSizeComponent </text>
</g>
<!-- LegendsModule&#45;&gt;EdgeSizeComponent  -->
<g id="edge22" class="edge">
<title>LegendsModule&#45;&gt;EdgeSizeComponent </title>
<path fill="none" stroke="black" stroke-dasharray="5,2" d="M1276.59,-179C1418.39,-179 1792.62,-179 1792.62,-179 1792.62,-179 1792.62,-205.99 1792.62,-205.99"/>
<polygon fill="black" stroke="black" points="1789.13,-205.99 1792.62,-215.99 1796.13,-205.99 1789.13,-205.99"/>
</g>
<!-- EndComponent  -->
<g id="node24" class="node">
<title>EndComponent </title>
<polygon fill="#fb8072" stroke="black" points="1713.89,-252 1606.11,-252 1606.11,-216 1713.89,-216 1713.89,-252"/>
<text text-anchor="middle" x="1660" y="-229.8" font-family="Times,serif" font-size="14.00">EndComponent </text>
</g>
<!-- LegendsModule&#45;&gt;EndComponent  -->
<g id="edge23" class="edge">
<title>LegendsModule&#45;&gt;EndComponent </title>
<path fill="none" stroke="black" stroke-dasharray="5,2" d="M1276.67,-181C1392.1,-181 1653.62,-181 1653.62,-181 1653.62,-181 1653.62,-205.76 1653.62,-205.76"/>
<polygon fill="black" stroke="black" points="1650.13,-205.76 1653.62,-215.76 1657.13,-205.76 1650.13,-205.76"/>
</g>
<!-- GradientComponent  -->
<g id="node25" class="node">
<title>GradientComponent </title>
<polygon fill="#fb8072" stroke="black" points="1587.81,-252 1454.19,-252 1454.19,-216 1587.81,-216 1587.81,-252"/>
<text text-anchor="middle" x="1521" y="-229.8" font-family="Times,serif" font-size="14.00">GradientComponent </text>
</g>
<!-- LegendsModule&#45;&gt;GradientComponent  -->
<g id="edge24" class="edge">
<title>LegendsModule&#45;&gt;GradientComponent </title>
<path fill="none" stroke="black" stroke-dasharray="5,2" d="M1276.57,-183C1356.01,-183 1495.78,-183 1495.78,-183 1495.78,-183 1495.78,-205.88 1495.78,-205.88"/>
<polygon fill="black" stroke="black" points="1492.28,-205.88 1495.78,-215.88 1499.28,-205.88 1492.28,-205.88"/>
</g>
<!-- IdentifierComponent  -->
<g id="node26" class="node">
<title>IdentifierComponent </title>
<polygon fill="#fb8072" stroke="black" points="1436.42,-252 1299.58,-252 1299.58,-216 1436.42,-216 1436.42,-252"/>
<text text-anchor="middle" x="1368" y="-229.8" font-family="Times,serif" font-size="14.00">IdentifierComponent </text>
</g>
<!-- LegendsModule&#45;&gt;IdentifierComponent  -->
<g id="edge25" class="edge">
<title>LegendsModule&#45;&gt;IdentifierComponent </title>
<path fill="none" stroke="black" stroke-dasharray="5,2" d="M1276.8,-185C1308.82,-185 1343.26,-185 1343.26,-185 1343.26,-185 1343.26,-205.75 1343.26,-205.75"/>
<polygon fill="black" stroke="black" points="1339.76,-205.75 1343.26,-215.75 1346.76,-205.75 1339.76,-205.75"/>
</g>
<!-- LabelComponent  -->
<g id="node27" class="node">
<title>LabelComponent </title>
<polygon fill="#fb8072" stroke="black" points="1281.21,-252 1164.79,-252 1164.79,-216 1281.21,-216 1281.21,-252"/>
<text text-anchor="middle" x="1223" y="-229.8" font-family="Times,serif" font-size="14.00">LabelComponent </text>
</g>
<!-- LegendsModule&#45;&gt;LabelComponent  -->
<g id="edge26" class="edge">
<title>LegendsModule&#45;&gt;LabelComponent </title>
<path fill="none" stroke="black" stroke-dasharray="5,2" d="M1223,-187.11C1223,-187.11 1223,-205.99 1223,-205.99"/>
<polygon fill="black" stroke="black" points="1219.5,-205.99 1223,-215.99 1226.5,-205.99 1219.5,-205.99"/>
</g>
<!-- NodeSizeComponent  -->
<g id="node28" class="node">
<title>NodeSizeComponent </title>
<polygon fill="#fb8072" stroke="black" points="1146.76,-252 1007.24,-252 1007.24,-216 1146.76,-216 1146.76,-252"/>
<text text-anchor="middle" x="1077" y="-229.8" font-family="Times,serif" font-size="14.00">NodeSizeComponent </text>
</g>
<!-- LegendsModule&#45;&gt;NodeSizeComponent  -->
<g id="edge27" class="edge">
<title>LegendsModule&#45;&gt;NodeSizeComponent </title>
<path fill="none" stroke="black" stroke-dasharray="5,2" d="M1169.31,-185C1121.02,-185 1057.62,-185 1057.62,-185 1057.62,-185 1057.62,-205.75 1057.62,-205.75"/>
<polygon fill="black" stroke="black" points="1054.12,-205.75 1057.62,-215.75 1061.12,-205.75 1054.12,-205.75"/>
</g>
<!-- ShapeComponent  -->
<g id="node29" class="node">
<title>ShapeComponent </title>
<polygon fill="#fb8072" stroke="black" points="989.54,-252 870.46,-252 870.46,-216 989.54,-216 989.54,-252"/>
<text text-anchor="middle" x="930" y="-229.8" font-family="Times,serif" font-size="14.00">ShapeComponent </text>
</g>
<!-- LegendsModule&#45;&gt;ShapeComponent  -->
<g id="edge28" class="edge">
<title>LegendsModule&#45;&gt;ShapeComponent </title>
<path fill="none" stroke="black" stroke-dasharray="5,2" d="M1169.52,-183C1081.56,-183 915.99,-183 915.99,-183 915.99,-183 915.99,-205.88 915.99,-205.88"/>
<polygon fill="black" stroke="black" points="912.49,-205.88 915.99,-215.88 919.49,-205.88 912.49,-205.88"/>
</g>
<!-- SourceComponent  -->
<g id="node30" class="node">
<title>SourceComponent </title>
<polygon fill="#fb8072" stroke="black" points="852.71,-252 729.29,-252 729.29,-216 852.71,-216 852.71,-252"/>
<text text-anchor="middle" x="791" y="-229.8" font-family="Times,serif" font-size="14.00">SourceComponent </text>
</g>
<!-- LegendsModule&#45;&gt;SourceComponent  -->
<g id="edge29" class="edge">
<title>LegendsModule&#45;&gt;SourceComponent </title>
<path fill="none" stroke="black" stroke-dasharray="5,2" d="M1169.46,-181C1055.01,-181 796.88,-181 796.88,-181 796.88,-181 796.88,-205.76 796.88,-205.76"/>
<polygon fill="black" stroke="black" points="793.38,-205.76 796.88,-215.76 800.38,-205.76 793.38,-205.76"/>
</g>
<!-- StartComponent  -->
<g id="node31" class="node">
<title>StartComponent </title>
<polygon fill="#fb8072" stroke="black" points="711.77,-252 600.23,-252 600.23,-216 711.77,-216 711.77,-252"/>
<text text-anchor="middle" x="656" y="-229.8" font-family="Times,serif" font-size="14.00">StartComponent </text>
</g>
<!-- LegendsModule&#45;&gt;StartComponent  -->
<g id="edge30" class="edge">
<title>LegendsModule&#45;&gt;StartComponent </title>
<path fill="none" stroke="black" stroke-dasharray="5,2" d="M1169.34,-179C1029.27,-179 663.38,-179 663.38,-179 663.38,-179 663.38,-205.99 663.38,-205.99"/>
<polygon fill="black" stroke="black" points="659.88,-205.99 663.38,-215.99 666.88,-205.99 659.88,-205.99"/>
</g>
<!-- TargetComponent  -->
<g id="node32" class="node">
<title>TargetComponent </title>
<polygon fill="#fb8072" stroke="black" points="582.87,-252 461.13,-252 461.13,-216 582.87,-216 582.87,-252"/>
<text text-anchor="middle" x="522" y="-229.8" font-family="Times,serif" font-size="14.00">TargetComponent </text>
</g>
<!-- LegendsModule&#45;&gt;TargetComponent  -->
<g id="edge31" class="edge">
<title>LegendsModule&#45;&gt;TargetComponent </title>
<path fill="none" stroke="black" stroke-dasharray="5,2" d="M1169.27,-177C1006.65,-177 530.88,-177 530.88,-177 530.88,-177 530.88,-205.96 530.88,-205.96"/>
<polygon fill="black" stroke="black" points="527.38,-205.96 530.88,-215.96 534.38,-205.96 527.38,-205.96"/>
</g>
<!-- ThicknessComponent  -->
<g id="node33" class="node">
<title>ThicknessComponent </title>
<polygon fill="#fb8072" stroke="black" points="443.59,-252 302.41,-252 302.41,-216 443.59,-216 443.59,-252"/>
<text text-anchor="middle" x="373" y="-229.8" font-family="Times,serif" font-size="14.00">ThicknessComponent </text>
</g>
<!-- LegendsModule&#45;&gt;ThicknessComponent  -->
<g id="edge32" class="edge">
<title>LegendsModule&#45;&gt;ThicknessComponent </title>
<path fill="none" stroke="black" stroke-dasharray="5,2" d="M1169.52,-175C984.58,-175 383.38,-175 383.38,-175 383.38,-175 383.38,-205.98 383.38,-205.98"/>
<polygon fill="black" stroke="black" points="379.88,-205.98 383.38,-215.98 386.88,-205.98 379.88,-205.98"/>
</g>
<!-- XAxisComponent  -->
<g id="node34" class="node">
<title>XAxisComponent </title>
<polygon fill="#fb8072" stroke="black" points="284.88,-252 163.12,-252 163.12,-216 284.88,-216 284.88,-252"/>
<text text-anchor="middle" x="224" y="-229.8" font-family="Times,serif" font-size="14.00">XAxisComponent </text>
</g>
<!-- LegendsModule&#45;&gt;XAxisComponent  -->
<g id="edge33" class="edge">
<title>LegendsModule&#45;&gt;XAxisComponent </title>
<path fill="none" stroke="black" stroke-dasharray="5,2" d="M1169.23,-173C963.24,-173 235.88,-173 235.88,-173 235.88,-173 235.88,-205.7 235.88,-205.7"/>
<polygon fill="black" stroke="black" points="232.38,-205.7 235.88,-215.7 239.38,-205.7 232.38,-205.7"/>
</g>
<!-- YAxisComponent  -->
<g id="node35" class="node">
<title>YAxisComponent </title>
<polygon fill="#fb8072" stroke="black" points="145.88,-252 24.12,-252 24.12,-216 145.88,-216 145.88,-252"/>
<text text-anchor="middle" x="85" y="-229.8" font-family="Times,serif" font-size="14.00">YAxisComponent </text>
</g>
<!-- LegendsModule&#45;&gt;YAxisComponent  -->
<g id="edge34" class="edge">
<title>LegendsModule&#45;&gt;YAxisComponent </title>
<path fill="none" stroke="black" stroke-dasharray="5,2" d="M1169.51,-171C946.01,-171 98.38,-171 98.38,-171 98.38,-171 98.38,-205.78 98.38,-205.78"/>
<polygon fill="black" stroke="black" points="94.88,-205.78 98.38,-215.78 101.88,-205.78 94.88,-205.78"/>
</g>
</g>
</svg>
