<?xml version="1.0" encoding="UTF-8" standalone="no"?>
<!DOCTYPE svg PUBLIC "-//W3C//DTD SVG 1.1//EN"
 "http://www.w3.org/Graphics/SVG/1.1/DTD/svg11.dtd">
<!-- Generated by graphviz version 2.47.0 (20210316.0004)
 -->
<!-- Title: dependencies Pages: 1 -->
<svg width="1788pt" height="211pt"
 viewBox="0.00 0.00 1788.00 211.00" xmlns="http://www.w3.org/2000/svg" xmlns:xlink="http://www.w3.org/1999/xlink">
<g id="graph0" class="graph" transform="scale(1 1) rotate(0) translate(4 207)">
<title>dependencies</title>
<polygon fill="white" stroke="transparent" points="-4,4 -4,-207 1784,-207 1784,4 -4,4"/>
<text text-anchor="start" x="869.01" y="-42.4" font-family="sans-serif" font-weight="bold" font-size="14.00">Legend</text>
<polygon fill="#ffffb3" stroke="transparent" points="656,-10 656,-30 676,-30 676,-10 656,-10"/>
<text text-anchor="start" x="679.63" y="-15.4" font-family="sans-serif" font-size="14.00"> &#160;Declarations</text>
<polygon fill="#8dd3c7" stroke="transparent" points="769,-10 769,-30 789,-30 789,-10 769,-10"/>
<text text-anchor="start" x="792.73" y="-15.4" font-family="sans-serif" font-size="14.00"> &#160;Module</text>
<polygon fill="#80b1d3" stroke="transparent" points="855,-10 855,-30 875,-30 875,-10 855,-10"/>
<text text-anchor="start" x="878.78" y="-15.4" font-family="sans-serif" font-size="14.00"> &#160;Bootstrap</text>
<polygon fill="#fdb462" stroke="transparent" points="952,-10 952,-30 972,-30 972,-10 952,-10"/>
<text text-anchor="start" x="975.67" y="-15.4" font-family="sans-serif" font-size="14.00"> &#160;Providers</text>
<polygon fill="#fb8072" stroke="transparent" points="1048,-10 1048,-30 1068,-30 1068,-10 1048,-10"/>
<text text-anchor="start" x="1071.73" y="-15.4" font-family="sans-serif" font-size="14.00"> &#160;Exports</text>
<g id="clust1" class="cluster">
<title>cluster_VisualizationViewModule</title>
<polygon fill="none" stroke="black" stroke-dasharray="1,5" points="8,-70 8,-195 1772,-195 1772,-70 8,-70"/>
</g>
<g id="clust12" class="cluster">
<title>cluster_VisualizationViewModule_imports</title>
<polygon fill="none" stroke="black" points="1604,-78 1604,-130 1764,-130 1764,-78 1604,-78"/>
</g>
<g id="clust2" class="cluster">
<title>cluster_VisualizationViewModule_declarations</title>
<polygon fill="none" stroke="black" points="16,-78 16,-130 1596,-130 1596,-78 16,-78"/>
</g>
<!-- AddIconComponent -->
<g id="node1" class="node">
<title>AddIconComponent</title>
<polygon fill="#ffffb3" stroke="black" points="1588.31,-122 1457.69,-122 1457.69,-86 1588.31,-86 1588.31,-122"/>
<text text-anchor="middle" x="1523" y="-99.8" font-family="Times,serif" font-size="14.00">AddIconComponent</text>
</g>
<!-- VisualizationViewModule -->
<g id="node10" class="node">
<title>VisualizationViewModule</title>
<polygon fill="#8dd3c7" stroke="black" points="1031.02,-187 1028.02,-191 1007.02,-191 1004.02,-187 866.98,-187 866.98,-151 1031.02,-151 1031.02,-187"/>
<text text-anchor="middle" x="949" y="-164.8" font-family="Times,serif" font-size="14.00">VisualizationViewModule</text>
</g>
<!-- AddIconComponent&#45;&gt;VisualizationViewModule -->
<g id="edge1" class="edge">
<title>AddIconComponent&#45;&gt;VisualizationViewModule</title>
<path fill="none" stroke="black" d="M1523,-122.13C1523,-142.57 1523,-173 1523,-173 1523,-173 1041.24,-173 1041.24,-173"/>
<polygon fill="black" stroke="black" points="1041.24,-169.5 1031.24,-173 1041.24,-176.5 1041.24,-169.5"/>
</g>
<!-- CancelIconComponent -->
<g id="node2" class="node">
<title>CancelIconComponent</title>
<polygon fill="#ffffb3" stroke="black" points="1439.58,-122 1294.42,-122 1294.42,-86 1439.58,-86 1439.58,-122"/>
<text text-anchor="middle" x="1367" y="-99.8" font-family="Times,serif" font-size="14.00">CancelIconComponent</text>
</g>
<!-- CancelIconComponent&#45;&gt;VisualizationViewModule -->
<g id="edge2" class="edge">
<title>CancelIconComponent&#45;&gt;VisualizationViewModule</title>
<path fill="none" stroke="black" d="M1367,-122.27C1367,-140.56 1367,-166 1367,-166 1367,-166 1041.08,-166 1041.08,-166"/>
<polygon fill="black" stroke="black" points="1041.08,-162.5 1031.08,-166 1041.08,-169.5 1041.08,-162.5"/>
</g>
<!-- EditIconComponent -->
<g id="node3" class="node">
<title>EditIconComponent</title>
<polygon fill="#ffffb3" stroke="black" points="1276.54,-122 1147.46,-122 1147.46,-86 1276.54,-86 1276.54,-122"/>
<text text-anchor="middle" x="1212" y="-99.8" font-family="Times,serif" font-size="14.00">EditIconComponent</text>
</g>
<!-- EditIconComponent&#45;&gt;VisualizationViewModule -->
<g id="edge3" class="edge">
<title>EditIconComponent&#45;&gt;VisualizationViewModule</title>
<path fill="none" stroke="black" d="M1212,-122.01C1212,-138.05 1212,-159 1212,-159 1212,-159 1041.13,-159 1041.13,-159"/>
<polygon fill="black" stroke="black" points="1041.13,-155.5 1031.13,-159 1041.13,-162.5 1041.13,-155.5"/>
</g>
<!-- GeomapIconComponent -->
<g id="node4" class="node">
<title>GeomapIconComponent</title>
<polygon fill="#ffffb3" stroke="black" points="1128.63,-122 975.37,-122 975.37,-86 1128.63,-86 1128.63,-122"/>
<text text-anchor="middle" x="1052" y="-99.8" font-family="Times,serif" font-size="14.00">GeomapIconComponent</text>
</g>
<!-- GeomapIconComponent&#45;&gt;VisualizationViewModule -->
<g id="edge4" class="edge">
<title>GeomapIconComponent&#45;&gt;VisualizationViewModule</title>
<path fill="none" stroke="black" d="M1003.22,-122.11C1003.22,-122.11 1003.22,-140.99 1003.22,-140.99"/>
<polygon fill="black" stroke="black" points="999.72,-140.99 1003.22,-150.99 1006.72,-140.99 999.72,-140.99"/>
</g>
<!-- HorizontalBarGraphIconComponent -->
<g id="node5" class="node">
<title>HorizontalBarGraphIconComponent</title>
<polygon fill="#ffffb3" stroke="black" points="957.77,-122 736.23,-122 736.23,-86 957.77,-86 957.77,-122"/>
<text text-anchor="middle" x="847" y="-99.8" font-family="Times,serif" font-size="14.00">HorizontalBarGraphIconComponent</text>
</g>
<!-- HorizontalBarGraphIconComponent&#45;&gt;VisualizationViewModule -->
<g id="edge5" class="edge">
<title>HorizontalBarGraphIconComponent&#45;&gt;VisualizationViewModule</title>
<path fill="none" stroke="black" d="M912.19,-122.11C912.19,-122.11 912.19,-140.99 912.19,-140.99"/>
<polygon fill="black" stroke="black" points="908.69,-140.99 912.19,-150.99 915.69,-140.99 908.69,-140.99"/>
</g>
<!-- MapOfScienceIconComponent -->
<g id="node6" class="node">
<title>MapOfScienceIconComponent</title>
<polygon fill="#ffffb3" stroke="black" points="718.17,-122 527.83,-122 527.83,-86 718.17,-86 718.17,-122"/>
<text text-anchor="middle" x="623" y="-99.8" font-family="Times,serif" font-size="14.00">MapOfScienceIconComponent</text>
</g>
<!-- MapOfScienceIconComponent&#45;&gt;VisualizationViewModule -->
<g id="edge6" class="edge">
<title>MapOfScienceIconComponent&#45;&gt;VisualizationViewModule</title>
<path fill="none" stroke="black" d="M623,-122.01C623,-138.05 623,-159 623,-159 623,-159 856.74,-159 856.74,-159"/>
<polygon fill="black" stroke="black" points="856.74,-162.5 866.74,-159 856.74,-155.5 856.74,-162.5"/>
</g>
<!-- MenuComponent -->
<g id="node7" class="node">
<title>MenuComponent</title>
<polygon fill="#ffffb3" stroke="black" points="509.99,-122 396.01,-122 396.01,-86 509.99,-86 509.99,-122"/>
<text text-anchor="middle" x="453" y="-99.8" font-family="Times,serif" font-size="14.00">MenuComponent</text>
</g>
<!-- MenuComponent&#45;&gt;VisualizationViewModule -->
<g id="edge7" class="edge">
<title>MenuComponent&#45;&gt;VisualizationViewModule</title>
<path fill="none" stroke="black" d="M453,-122.27C453,-140.56 453,-166 453,-166 453,-166 856.82,-166 856.82,-166"/>
<polygon fill="black" stroke="black" points="856.82,-169.5 866.82,-166 856.82,-162.5 856.82,-169.5"/>
</g>
<!-- NetworkIconComponent -->
<g id="node8" class="node">
<title>NetworkIconComponent</title>
<polygon fill="#ffffb3" stroke="black" points="377.69,-122 222.31,-122 222.31,-86 377.69,-86 377.69,-122"/>
<text text-anchor="middle" x="300" y="-99.8" font-family="Times,serif" font-size="14.00">NetworkIconComponent</text>
</g>
<!-- NetworkIconComponent&#45;&gt;VisualizationViewModule -->
<g id="edge8" class="edge">
<title>NetworkIconComponent&#45;&gt;VisualizationViewModule</title>
<path fill="none" stroke="black" d="M300,-122.13C300,-142.57 300,-173 300,-173 300,-173 856.8,-173 856.8,-173"/>
<polygon fill="black" stroke="black" points="856.8,-176.5 866.8,-173 856.8,-169.5 856.8,-176.5"/>
</g>
<!-- ScatterGraphIconComponent -->
<g id="node9" class="node">
<title>ScatterGraphIconComponent</title>
<polygon fill="#ffffb3" stroke="black" points="204.06,-122 23.94,-122 23.94,-86 204.06,-86 204.06,-122"/>
<text text-anchor="middle" x="114" y="-99.8" font-family="Times,serif" font-size="14.00">ScatterGraphIconComponent</text>
</g>
<!-- ScatterGraphIconComponent&#45;&gt;VisualizationViewModule -->
<g id="edge9" class="edge">
<title>ScatterGraphIconComponent&#45;&gt;VisualizationViewModule</title>
<path fill="none" stroke="black" d="M114,-122.01C114,-144.49 114,-180 114,-180 114,-180 856.65,-180 856.65,-180"/>
<polygon fill="black" stroke="black" points="856.65,-183.5 866.65,-180 856.65,-176.5 856.65,-183.5"/>
</g>
<!-- DvlFwAngularModule -->
<g id="node11" class="node">
<title>DvlFwAngularModule</title>
<polygon fill="#8dd3c7" stroke="black" points="1756.31,-122 1753.31,-126 1732.31,-126 1729.31,-122 1611.69,-122 1611.69,-86 1756.31,-86 1756.31,-122"/>
<text text-anchor="middle" x="1684" y="-99.8" font-family="Times,serif" font-size="14.00">DvlFwAngularModule</text>
</g>
<!-- DvlFwAngularModule&#45;&gt;VisualizationViewModule -->
<g id="edge10" class="edge">
<title>DvlFwAngularModule&#45;&gt;VisualizationViewModule</title>
<path fill="none" stroke="black" d="M1684,-122.01C1684,-144.49 1684,-180 1684,-180 1684,-180 1041.17,-180 1041.17,-180"/>
<polygon fill="black" stroke="black" points="1041.17,-176.5 1031.17,-180 1041.17,-183.5 1041.17,-176.5"/>
</g>
</g>
</svg>
