<?xml version="1.0" encoding="UTF-8" standalone="no"?>
<!DOCTYPE svg PUBLIC "-//W3C//DTD SVG 1.1//EN"
 "http://www.w3.org/Graphics/SVG/1.1/DTD/svg11.dtd">
<!-- Generated by graphviz version 2.47.3 (20210619.1520)
 -->
<!-- Title: dependencies Pages: 1 -->
<svg width="1788pt" height="174pt"
 viewBox="0.00 0.00 1788.00 173.80" xmlns="http://www.w3.org/2000/svg" xmlns:xlink="http://www.w3.org/1999/xlink">
<g id="graph0" class="graph" transform="scale(1 1) rotate(0) translate(4 169.8)">
<title>dependencies</title>
<polygon fill="white" stroke="transparent" points="-4,4 -4,-169.8 1784,-169.8 1784,4 -4,4"/>
<text text-anchor="middle" x="890" y="-8.2" font-family="sans-serif" font-size="14.00">dependencies</text>
<g id="clust1" class="cluster">
<title>cluster_VisualizationViewModule</title>
<polygon fill="none" stroke="black" stroke-dasharray="1,5" points="8,-32.8 8,-157.8 1772,-157.8 1772,-32.8 8,-32.8"/>
</g>
<g id="clust2" class="cluster">
<title>cluster_VisualizationViewModule_declarations</title>
<polygon fill="none" stroke="black" points="184,-40.8 184,-92.8 1764,-92.8 1764,-40.8 184,-40.8"/>
</g>
<g id="clust12" class="cluster">
<title>cluster_VisualizationViewModule_imports</title>
<polygon fill="none" stroke="black" points="16,-40.8 16,-92.8 176,-92.8 176,-40.8 16,-40.8"/>
</g>
<!-- AddIconComponent -->
<g id="node1" class="node">
<title>AddIconComponent</title>
<polygon fill="#ffffb3" stroke="black" points="1756.31,-84.8 1625.69,-84.8 1625.69,-48.8 1756.31,-48.8 1756.31,-84.8"/>
<text text-anchor="middle" x="1691" y="-62.6" font-family="Times,serif" font-size="14.00">AddIconComponent</text>
</g>
<!-- VisualizationViewModule -->
<g id="node10" class="node">
<title>VisualizationViewModule</title>
<polygon fill="#8dd3c7" stroke="black" points="985.02,-149.8 982.02,-153.8 961.02,-153.8 958.02,-149.8 820.98,-149.8 820.98,-113.8 985.02,-113.8 985.02,-149.8"/>
<text text-anchor="middle" x="903" y="-127.6" font-family="Times,serif" font-size="14.00">VisualizationViewModule</text>
</g>
<!-- AddIconComponent&#45;&gt;VisualizationViewModule -->
<g id="edge1" class="edge">
<title>AddIconComponent&#45;&gt;VisualizationViewModule</title>
<path fill="none" stroke="black" d="M1691,-84.81C1691,-107.29 1691,-142.8 1691,-142.8 1691,-142.8 995.1,-142.8 995.1,-142.8"/>
<polygon fill="black" stroke="black" points="995.1,-139.3 985.1,-142.8 995.1,-146.3 995.1,-139.3"/>
</g>
<!-- CancelIconComponent -->
<g id="node2" class="node">
<title>CancelIconComponent</title>
<polygon fill="#ffffb3" stroke="black" points="1607.58,-84.8 1462.42,-84.8 1462.42,-48.8 1607.58,-48.8 1607.58,-84.8"/>
<text text-anchor="middle" x="1535" y="-62.6" font-family="Times,serif" font-size="14.00">CancelIconComponent</text>
</g>
<!-- CancelIconComponent&#45;&gt;VisualizationViewModule -->
<g id="edge2" class="edge">
<title>CancelIconComponent&#45;&gt;VisualizationViewModule</title>
<path fill="none" stroke="black" d="M1535,-84.93C1535,-105.37 1535,-135.8 1535,-135.8 1535,-135.8 995.3,-135.8 995.3,-135.8"/>
<polygon fill="black" stroke="black" points="995.3,-132.3 985.3,-135.8 995.3,-139.3 995.3,-132.3"/>
</g>
<!-- EditIconComponent -->
<g id="node3" class="node">
<title>EditIconComponent</title>
<polygon fill="#ffffb3" stroke="black" points="1444.54,-84.8 1315.46,-84.8 1315.46,-48.8 1444.54,-48.8 1444.54,-84.8"/>
<text text-anchor="middle" x="1380" y="-62.6" font-family="Times,serif" font-size="14.00">EditIconComponent</text>
</g>
<!-- EditIconComponent&#45;&gt;VisualizationViewModule -->
<g id="edge3" class="edge">
<title>EditIconComponent&#45;&gt;VisualizationViewModule</title>
<path fill="none" stroke="black" d="M1380,-85.07C1380,-103.36 1380,-128.8 1380,-128.8 1380,-128.8 995.27,-128.8 995.27,-128.8"/>
<polygon fill="black" stroke="black" points="995.27,-125.3 985.27,-128.8 995.27,-132.3 995.27,-125.3"/>
</g>
<!-- GeomapIconComponent -->
<g id="node4" class="node">
<title>GeomapIconComponent</title>
<polygon fill="#ffffb3" stroke="black" points="1296.63,-84.8 1143.37,-84.8 1143.37,-48.8 1296.63,-48.8 1296.63,-84.8"/>
<text text-anchor="middle" x="1220" y="-62.6" font-family="Times,serif" font-size="14.00">GeomapIconComponent</text>
</g>
<!-- GeomapIconComponent&#45;&gt;VisualizationViewModule -->
<g id="edge4" class="edge">
<title>GeomapIconComponent&#45;&gt;VisualizationViewModule</title>
<path fill="none" stroke="black" d="M1220,-84.81C1220,-100.85 1220,-121.8 1220,-121.8 1220,-121.8 995.05,-121.8 995.05,-121.8"/>
<polygon fill="black" stroke="black" points="995.05,-118.3 985.05,-121.8 995.05,-125.3 995.05,-118.3"/>
</g>
<!-- HorizontalBarGraphIconComponent -->
<g id="node5" class="node">
<title>HorizontalBarGraphIconComponent</title>
<polygon fill="#ffffb3" stroke="black" points="1125.77,-84.8 904.23,-84.8 904.23,-48.8 1125.77,-48.8 1125.77,-84.8"/>
<text text-anchor="middle" x="1015" y="-62.6" font-family="Times,serif" font-size="14.00">HorizontalBarGraphIconComponent</text>
</g>
<!-- HorizontalBarGraphIconComponent&#45;&gt;VisualizationViewModule -->
<g id="edge5" class="edge">
<title>HorizontalBarGraphIconComponent&#45;&gt;VisualizationViewModule</title>
<path fill="none" stroke="black" d="M944.81,-84.91C944.81,-84.91 944.81,-103.79 944.81,-103.79"/>
<polygon fill="black" stroke="black" points="941.31,-103.79 944.81,-113.79 948.31,-103.79 941.31,-103.79"/>
</g>
<!-- MapOfScienceIconComponent -->
<g id="node6" class="node">
<title>MapOfScienceIconComponent</title>
<polygon fill="#ffffb3" stroke="black" points="886.17,-84.8 695.83,-84.8 695.83,-48.8 886.17,-48.8 886.17,-84.8"/>
<text text-anchor="middle" x="791" y="-62.6" font-family="Times,serif" font-size="14.00">MapOfScienceIconComponent</text>
</g>
<!-- MapOfScienceIconComponent&#45;&gt;VisualizationViewModule -->
<g id="edge6" class="edge">
<title>MapOfScienceIconComponent&#45;&gt;VisualizationViewModule</title>
<path fill="none" stroke="black" d="M853.41,-84.91C853.41,-84.91 853.41,-103.79 853.41,-103.79"/>
<polygon fill="black" stroke="black" points="849.91,-103.79 853.41,-113.79 856.91,-103.79 849.91,-103.79"/>
</g>
<!-- MenuComponent -->
<g id="node7" class="node">
<title>MenuComponent</title>
<polygon fill="#ffffb3" stroke="black" points="677.99,-84.8 564.01,-84.8 564.01,-48.8 677.99,-48.8 677.99,-84.8"/>
<text text-anchor="middle" x="621" y="-62.6" font-family="Times,serif" font-size="14.00">MenuComponent</text>
</g>
<!-- MenuComponent&#45;&gt;VisualizationViewModule -->
<g id="edge7" class="edge">
<title>MenuComponent&#45;&gt;VisualizationViewModule</title>
<path fill="none" stroke="black" d="M621,-84.81C621,-100.85 621,-121.8 621,-121.8 621,-121.8 810.68,-121.8 810.68,-121.8"/>
<polygon fill="black" stroke="black" points="810.68,-125.3 820.68,-121.8 810.68,-118.3 810.68,-125.3"/>
</g>
<!-- NetworkIconComponent -->
<g id="node8" class="node">
<title>NetworkIconComponent</title>
<polygon fill="#ffffb3" stroke="black" points="545.69,-84.8 390.31,-84.8 390.31,-48.8 545.69,-48.8 545.69,-84.8"/>
<text text-anchor="middle" x="468" y="-62.6" font-family="Times,serif" font-size="14.00">NetworkIconComponent</text>
</g>
<!-- NetworkIconComponent&#45;&gt;VisualizationViewModule -->
<g id="edge8" class="edge">
<title>NetworkIconComponent&#45;&gt;VisualizationViewModule</title>
<path fill="none" stroke="black" d="M468,-85.07C468,-103.36 468,-128.8 468,-128.8 468,-128.8 810.92,-128.8 810.92,-128.8"/>
<polygon fill="black" stroke="black" points="810.92,-132.3 820.92,-128.8 810.92,-125.3 810.92,-132.3"/>
</g>
<!-- ScatterGraphIconComponent -->
<g id="node9" class="node">
<title>ScatterGraphIconComponent</title>
<polygon fill="#ffffb3" stroke="black" points="372.06,-84.8 191.94,-84.8 191.94,-48.8 372.06,-48.8 372.06,-84.8"/>
<text text-anchor="middle" x="282" y="-62.6" font-family="Times,serif" font-size="14.00">ScatterGraphIconComponent</text>
</g>
<!-- ScatterGraphIconComponent&#45;&gt;VisualizationViewModule -->
<g id="edge9" class="edge">
<title>ScatterGraphIconComponent&#45;&gt;VisualizationViewModule</title>
<path fill="none" stroke="black" d="M282,-84.93C282,-105.37 282,-135.8 282,-135.8 282,-135.8 810.86,-135.8 810.86,-135.8"/>
<polygon fill="black" stroke="black" points="810.86,-139.3 820.86,-135.8 810.86,-132.3 810.86,-139.3"/>
</g>
<!-- DvlFwAngularModule -->
<g id="node11" class="node">
<title>DvlFwAngularModule</title>
<polygon fill="#8dd3c7" stroke="black" points="168.31,-84.8 165.31,-88.8 144.31,-88.8 141.31,-84.8 23.69,-84.8 23.69,-48.8 168.31,-48.8 168.31,-84.8"/>
<text text-anchor="middle" x="96" y="-62.6" font-family="Times,serif" font-size="14.00">DvlFwAngularModule</text>
</g>
<!-- DvlFwAngularModule&#45;&gt;VisualizationViewModule -->
<g id="edge10" class="edge">
<title>DvlFwAngularModule&#45;&gt;VisualizationViewModule</title>
<path fill="none" stroke="black" d="M96,-84.81C96,-107.29 96,-142.8 96,-142.8 96,-142.8 810.8,-142.8 810.8,-142.8"/>
<polygon fill="black" stroke="black" points="810.8,-146.3 820.8,-142.8 810.8,-139.3 810.8,-146.3"/>
</g>
</g>
</svg>
