<?xml version="1.0" encoding="UTF-8" standalone="no"?>
<!DOCTYPE svg PUBLIC "-//W3C//DTD SVG 1.1//EN"
 "http://www.w3.org/Graphics/SVG/1.1/DTD/svg11.dtd">
<!-- Generated by graphviz version 2.40.1 (20161225.0304)
 -->
<!-- Title: dependencies Pages: 1 -->
<svg width="1788pt" height="211pt"
 viewBox="0.00 0.00 1788.00 211.00" xmlns="http://www.w3.org/2000/svg" xmlns:xlink="http://www.w3.org/1999/xlink">
<g id="graph0" class="graph" transform="scale(1 1) rotate(0) translate(4 207)">
<title>dependencies</title>
<polygon fill="#ffffff" stroke="transparent" points="-4,4 -4,-207 1784,-207 1784,4 -4,4"/>
<text text-anchor="start" x="869.0091" y="-42.4" font-family="sans-serif" font-weight="bold" font-size="14.00" fill="#000000">Legend</text>
<polygon fill="#ffffb3" stroke="transparent" points="656,-10 656,-30 676,-30 676,-10 656,-10"/>
<text text-anchor="start" x="679.629" y="-15.4" font-family="sans-serif" font-size="14.00" fill="#000000"> &#160;Declarations</text>
<polygon fill="#8dd3c7" stroke="transparent" points="769,-10 769,-30 789,-30 789,-10 769,-10"/>
<text text-anchor="start" x="792.7251" y="-15.4" font-family="sans-serif" font-size="14.00" fill="#000000"> &#160;Module</text>
<polygon fill="#80b1d3" stroke="transparent" points="855,-10 855,-30 875,-30 875,-10 855,-10"/>
<text text-anchor="start" x="878.7812" y="-15.4" font-family="sans-serif" font-size="14.00" fill="#000000"> &#160;Bootstrap</text>
<polygon fill="#fdb462" stroke="transparent" points="952,-10 952,-30 972,-30 972,-10 952,-10"/>
<text text-anchor="start" x="975.6732" y="-15.4" font-family="sans-serif" font-size="14.00" fill="#000000"> &#160;Providers</text>
<polygon fill="#fb8072" stroke="transparent" points="1048,-10 1048,-30 1068,-30 1068,-10 1048,-10"/>
<text text-anchor="start" x="1071.7258" y="-15.4" font-family="sans-serif" font-size="14.00" fill="#000000"> &#160;Exports</text>
<g id="clust1" class="cluster">
<title>cluster_VisualizationViewModule</title>
<polygon fill="none" stroke="#000000" stroke-dasharray="1,5" points="8,-70 8,-195 1772,-195 1772,-70 8,-70"/>
</g>
<g id="clust2" class="cluster">
<title>cluster_VisualizationViewModule_declarations</title>
<polygon fill="none" stroke="#000000" points="184,-78 184,-130 1764,-130 1764,-78 184,-78"/>
</g>
<g id="clust12" class="cluster">
<title>cluster_VisualizationViewModule_imports</title>
<polygon fill="none" stroke="#000000" points="16,-78 16,-130 176,-130 176,-78 16,-78"/>
</g>
<!-- AddIconComponent -->
<g id="node1" class="node">
<title>AddIconComponent</title>
<polygon fill="#ffffb3" stroke="#000000" points="1756.3146,-122 1625.6854,-122 1625.6854,-86 1756.3146,-86 1756.3146,-122"/>
<text text-anchor="middle" x="1691" y="-99.8" font-family="Times,serif" font-size="14.00" fill="#000000">AddIconComponent</text>
</g>
<!-- VisualizationViewModule -->
<g id="node10" class="node">
<title>VisualizationViewModule</title>
<polygon fill="#8dd3c7" stroke="#000000" points="985.0169,-187 982.0169,-191 961.0169,-191 958.0169,-187 820.9831,-187 820.9831,-151 985.0169,-151 985.0169,-187"/>
<text text-anchor="middle" x="903" y="-164.8" font-family="Times,serif" font-size="14.00" fill="#000000">VisualizationViewModule</text>
</g>
<!-- AddIconComponent&#45;&gt;VisualizationViewModule -->
<g id="edge1" class="edge">
<title>AddIconComponent&#45;&gt;VisualizationViewModule</title>
<path fill="none" stroke="#000000" d="M1691,-122.0109C1691,-144.4852 1691,-180 1691,-180 1691,-180 995.0998,-180 995.0998,-180"/>
<polygon fill="#000000" stroke="#000000" points="995.0998,-176.5001 985.0998,-180 995.0998,-183.5001 995.0998,-176.5001"/>
</g>
<!-- CancelIconComponent -->
<g id="node2" class="node">
<title>CancelIconComponent</title>
<polygon fill="#ffffb3" stroke="#000000" points="1607.5786,-122 1462.4214,-122 1462.4214,-86 1607.5786,-86 1607.5786,-122"/>
<text text-anchor="middle" x="1535" y="-99.8" font-family="Times,serif" font-size="14.00" fill="#000000">CancelIconComponent</text>
</g>
<!-- CancelIconComponent&#45;&gt;VisualizationViewModule -->
<g id="edge2" class="edge">
<title>CancelIconComponent&#45;&gt;VisualizationViewModule</title>
<path fill="none" stroke="#000000" d="M1535,-122.1289C1535,-142.5724 1535,-173 1535,-173 1535,-173 995.2988,-173 995.2988,-173"/>
<polygon fill="#000000" stroke="#000000" points="995.2988,-169.5001 985.2988,-173 995.2987,-176.5001 995.2988,-169.5001"/>
</g>
<!-- EditIconComponent -->
<g id="node3" class="node">
<title>EditIconComponent</title>
<polygon fill="#ffffb3" stroke="#000000" points="1444.5422,-122 1315.4578,-122 1315.4578,-86 1444.5422,-86 1444.5422,-122"/>
<text text-anchor="middle" x="1380" y="-99.8" font-family="Times,serif" font-size="14.00" fill="#000000">EditIconComponent</text>
</g>
<!-- EditIconComponent&#45;&gt;VisualizationViewModule -->
<g id="edge3" class="edge">
<title>EditIconComponent&#45;&gt;VisualizationViewModule</title>
<path fill="none" stroke="#000000" d="M1380,-122.2667C1380,-140.5552 1380,-166 1380,-166 1380,-166 995.2707,-166 995.2707,-166"/>
<polygon fill="#000000" stroke="#000000" points="995.2707,-162.5001 985.2707,-166 995.2707,-169.5001 995.2707,-162.5001"/>
</g>
<!-- GeomapIconComponent -->
<g id="node4" class="node">
<title>GeomapIconComponent</title>
<polygon fill="#ffffb3" stroke="#000000" points="1296.6344,-122 1143.3656,-122 1143.3656,-86 1296.6344,-86 1296.6344,-122"/>
<text text-anchor="middle" x="1220" y="-99.8" font-family="Times,serif" font-size="14.00" fill="#000000">GeomapIconComponent</text>
</g>
<!-- GeomapIconComponent&#45;&gt;VisualizationViewModule -->
<g id="edge4" class="edge">
<title>GeomapIconComponent&#45;&gt;VisualizationViewModule</title>
<path fill="none" stroke="#000000" d="M1220,-122.0091C1220,-138.0494 1220,-159 1220,-159 1220,-159 995.0476,-159 995.0476,-159"/>
<polygon fill="#000000" stroke="#000000" points="995.0477,-155.5001 985.0476,-159 995.0476,-162.5001 995.0477,-155.5001"/>
</g>
<!-- HorizontalBarGraphIconComponent -->
<g id="node5" class="node">
<title>HorizontalBarGraphIconComponent</title>
<polygon fill="#ffffb3" stroke="#000000" points="1125.7696,-122 904.2304,-122 904.2304,-86 1125.7696,-86 1125.7696,-122"/>
<text text-anchor="middle" x="1015" y="-99.8" font-family="Times,serif" font-size="14.00" fill="#000000">HorizontalBarGraphIconComponent</text>
</g>
<!-- HorizontalBarGraphIconComponent&#45;&gt;VisualizationViewModule -->
<g id="edge5" class="edge">
<title>HorizontalBarGraphIconComponent&#45;&gt;VisualizationViewModule</title>
<path fill="none" stroke="#000000" d="M944.8117,-122.1061C944.8117,-122.1061 944.8117,-140.991 944.8117,-140.991"/>
<polygon fill="#000000" stroke="#000000" points="941.3118,-140.9909 944.8117,-150.991 948.3118,-140.991 941.3118,-140.9909"/>
</g>
<!-- MapOfScienceIconComponent -->
<g id="node6" class="node">
<title>MapOfScienceIconComponent</title>
<polygon fill="#ffffb3" stroke="#000000" points="886.1657,-122 695.8343,-122 695.8343,-86 886.1657,-86 886.1657,-122"/>
<text text-anchor="middle" x="791" y="-99.8" font-family="Times,serif" font-size="14.00" fill="#000000">MapOfScienceIconComponent</text>
</g>
<!-- MapOfScienceIconComponent&#45;&gt;VisualizationViewModule -->
<g id="edge6" class="edge">
<title>MapOfScienceIconComponent&#45;&gt;VisualizationViewModule</title>
<path fill="none" stroke="#000000" d="M853.4124,-122.1061C853.4124,-122.1061 853.4124,-140.991 853.4124,-140.991"/>
<polygon fill="#000000" stroke="#000000" points="849.9124,-140.9909 853.4124,-150.991 856.9124,-140.991 849.9124,-140.9909"/>
</g>
<!-- MenuComponent -->
<g id="node7" class="node">
<title>MenuComponent</title>
<polygon fill="#ffffb3" stroke="#000000" points="677.9916,-122 564.0084,-122 564.0084,-86 677.9916,-86 677.9916,-122"/>
<text text-anchor="middle" x="621" y="-99.8" font-family="Times,serif" font-size="14.00" fill="#000000">MenuComponent</text>
</g>
<!-- MenuComponent&#45;&gt;VisualizationViewModule -->
<g id="edge7" class="edge">
<title>MenuComponent&#45;&gt;VisualizationViewModule</title>
<path fill="none" stroke="#000000" d="M621,-122.0091C621,-138.0494 621,-159 621,-159 621,-159 810.6758,-159 810.6758,-159"/>
<polygon fill="#000000" stroke="#000000" points="810.6759,-162.5001 820.6758,-159 810.6758,-155.5001 810.6759,-162.5001"/>
</g>
<!-- NetworkIconComponent -->
<g id="node8" class="node">
<title>NetworkIconComponent</title>
<polygon fill="#ffffb3" stroke="#000000" points="545.6867,-122 390.3133,-122 390.3133,-86 545.6867,-86 545.6867,-122"/>
<text text-anchor="middle" x="468" y="-99.8" font-family="Times,serif" font-size="14.00" fill="#000000">NetworkIconComponent</text>
</g>
<!-- NetworkIconComponent&#45;&gt;VisualizationViewModule -->
<g id="edge8" class="edge">
<title>NetworkIconComponent&#45;&gt;VisualizationViewModule</title>
<path fill="none" stroke="#000000" d="M468,-122.2667C468,-140.5552 468,-166 468,-166 468,-166 810.9243,-166 810.9243,-166"/>
<polygon fill="#000000" stroke="#000000" points="810.9243,-169.5001 820.9243,-166 810.9242,-162.5001 810.9243,-169.5001"/>
</g>
<!-- ScatterGraphIconComponent -->
<g id="node9" class="node">
<title>ScatterGraphIconComponent</title>
<polygon fill="#ffffb3" stroke="#000000" points="372.0576,-122 191.9424,-122 191.9424,-86 372.0576,-86 372.0576,-122"/>
<text text-anchor="middle" x="282" y="-99.8" font-family="Times,serif" font-size="14.00" fill="#000000">ScatterGraphIconComponent</text>
</g>
<!-- ScatterGraphIconComponent&#45;&gt;VisualizationViewModule -->
<g id="edge9" class="edge">
<title>ScatterGraphIconComponent&#45;&gt;VisualizationViewModule</title>
<path fill="none" stroke="#000000" d="M282,-122.1289C282,-142.5724 282,-173 282,-173 282,-173 810.8565,-173 810.8565,-173"/>
<polygon fill="#000000" stroke="#000000" points="810.8565,-176.5001 820.8565,-173 810.8565,-169.5001 810.8565,-176.5001"/>
</g>
<!-- DvlFwAngularModule -->
<g id="node11" class="node">
<title>DvlFwAngularModule</title>
<polygon fill="#8dd3c7" stroke="#000000" points="168.3089,-122 165.3089,-126 144.3089,-126 141.3089,-122 23.6911,-122 23.6911,-86 168.3089,-86 168.3089,-122"/>
<text text-anchor="middle" x="96" y="-99.8" font-family="Times,serif" font-size="14.00" fill="#000000">DvlFwAngularModule</text>
</g>
<!-- DvlFwAngularModule&#45;&gt;VisualizationViewModule -->
<g id="edge10" class="edge">
<title>DvlFwAngularModule&#45;&gt;VisualizationViewModule</title>
<path fill="none" stroke="#000000" d="M96,-122.0109C96,-144.4852 96,-180 96,-180 96,-180 810.8047,-180 810.8047,-180"/>
<polygon fill="#000000" stroke="#000000" points="810.8048,-183.5001 820.8047,-180 810.8047,-176.5001 810.8048,-183.5001"/>
</g>
</g>
</svg>
