<?xml version="1.0" encoding="UTF-8" standalone="no"?>
<!DOCTYPE svg PUBLIC "-//W3C//DTD SVG 1.1//EN"
 "http://www.w3.org/Graphics/SVG/1.1/DTD/svg11.dtd">
<!-- Generated by graphviz version 2.47.0 (20210316.0004)
 -->
<!-- Title: dependencies Pages: 1 -->
<svg width="504pt" height="284pt"
 viewBox="0.00 0.00 504.00 284.00" xmlns="http://www.w3.org/2000/svg" xmlns:xlink="http://www.w3.org/1999/xlink">
<g id="graph0" class="graph" transform="scale(1 1) rotate(0) translate(4 280)">
<title>dependencies</title>
<polygon fill="white" stroke="transparent" points="-4,4 -4,-280 500,-280 500,4 -4,4"/>
<text text-anchor="start" x="227.01" y="-42.4" font-family="sans-serif" font-weight="bold" font-size="14.00">Legend</text>
<polygon fill="#ffffb3" stroke="transparent" points="14,-10 14,-30 34,-30 34,-10 14,-10"/>
<text text-anchor="start" x="37.63" y="-15.4" font-family="sans-serif" font-size="14.00"> &#160;Declarations</text>
<polygon fill="#8dd3c7" stroke="transparent" points="127,-10 127,-30 147,-30 147,-10 127,-10"/>
<text text-anchor="start" x="150.73" y="-15.4" font-family="sans-serif" font-size="14.00"> &#160;Module</text>
<polygon fill="#80b1d3" stroke="transparent" points="213,-10 213,-30 233,-30 233,-10 213,-10"/>
<text text-anchor="start" x="236.78" y="-15.4" font-family="sans-serif" font-size="14.00"> &#160;Bootstrap</text>
<polygon fill="#fdb462" stroke="transparent" points="310,-10 310,-30 330,-30 330,-10 310,-10"/>
<text text-anchor="start" x="333.67" y="-15.4" font-family="sans-serif" font-size="14.00"> &#160;Providers</text>
<polygon fill="#fb8072" stroke="transparent" points="406,-10 406,-30 426,-30 426,-10 406,-10"/>
<text text-anchor="start" x="429.73" y="-15.4" font-family="sans-serif" font-size="14.00"> &#160;Exports</text>
<g id="clust1" class="cluster">
<title>cluster_TemporalBargraphModule</title>
<polygon fill="none" stroke="black" stroke-dasharray="1,5" points="69,-70 69,-268 427,-268 427,-70 69,-70"/>
</g>
<g id="clust4" class="cluster">
<title>cluster_TemporalBargraphModule_imports</title>
<polygon fill="none" stroke="black" points="289,-78 289,-130 419,-130 419,-78 289,-78"/>
</g>
<g id="clust2" class="cluster">
<title>cluster_TemporalBargraphModule_declarations</title>
<polygon fill="none" stroke="black" points="77,-78 77,-130 281,-130 281,-78 77,-78"/>
</g>
<g id="clust5" class="cluster">
<title>cluster_TemporalBargraphModule_exports</title>
<polygon fill="none" stroke="black" points="144,-208 144,-260 352,-260 352,-208 144,-208"/>
</g>
<!-- TemporalBargraphComponent -->
<g id="node1" class="node">
<title>TemporalBargraphComponent</title>
<polygon fill="#ffffb3" stroke="black" points="272.84,-122 85.16,-122 85.16,-86 272.84,-86 272.84,-122"/>
<text text-anchor="middle" x="179" y="-99.8" font-family="Times,serif" font-size="14.00">TemporalBargraphComponent</text>
</g>
<!-- TemporalBargraphModule -->
<g id="node2" class="node">
<title>TemporalBargraphModule</title>
<polygon fill="#8dd3c7" stroke="black" points="331.06,-187 328.06,-191 307.06,-191 304.06,-187 164.94,-187 164.94,-151 331.06,-151 331.06,-187"/>
<text text-anchor="middle" x="248" y="-164.8" font-family="Times,serif" font-size="14.00">TemporalBargraphModule</text>
</g>
<!-- TemporalBargraphComponent&#45;&gt;TemporalBargraphModule -->
<g id="edge1" class="edge">
<title>TemporalBargraphComponent&#45;&gt;TemporalBargraphModule</title>
<path fill="none" stroke="black" d="M218.95,-122.11C218.95,-122.11 218.95,-140.99 218.95,-140.99"/>
<polygon fill="black" stroke="black" points="215.45,-140.99 218.95,-150.99 222.45,-140.99 215.45,-140.99"/>
</g>
<!-- TemporalBargraphComponent  -->
<g id="node4" class="node">
<title>TemporalBargraphComponent </title>
<polygon fill="#fb8072" stroke="black" points="343.84,-252 152.16,-252 152.16,-216 343.84,-216 343.84,-252"/>
<text text-anchor="middle" x="248" y="-229.8" font-family="Times,serif" font-size="14.00">TemporalBargraphComponent </text>
</g>
<!-- TemporalBargraphModule&#45;&gt;TemporalBargraphComponent  -->
<g id="edge3" class="edge">
<title>TemporalBargraphModule&#45;&gt;TemporalBargraphComponent </title>
<path fill="none" stroke="black" stroke-dasharray="5,2" d="M248,-187.11C248,-187.11 248,-205.99 248,-205.99"/>
<polygon fill="black" stroke="black" points="244.5,-205.99 248,-215.99 251.5,-205.99 244.5,-205.99"/>
</g>
<!-- NgxVegaModule -->
<g id="node3" class="node">
<title>NgxVegaModule</title>
<polygon fill="#8dd3c7" stroke="black" points="410.69,-122 407.69,-126 386.69,-126 383.69,-122 297.31,-122 297.31,-86 410.69,-86 410.69,-122"/>
<text text-anchor="middle" x="354" y="-99.8" font-family="Times,serif" font-size="14.00">NgxVegaModule</text>
</g>
<!-- NgxVegaModule&#45;&gt;TemporalBargraphModule -->
<g id="edge2" class="edge">
<title>NgxVegaModule&#45;&gt;TemporalBargraphModule</title>
<path fill="none" stroke="black" d="M314.22,-122.11C314.22,-122.11 314.22,-140.99 314.22,-140.99"/>
<polygon fill="black" stroke="black" points="310.72,-140.99 314.22,-150.99 317.72,-140.99 310.72,-140.99"/>
</g>
</g>
</svg>
