<?xml version="1.0" encoding="UTF-8" standalone="no"?>
<!DOCTYPE svg PUBLIC "-//W3C//DTD SVG 1.1//EN"
 "http://www.w3.org/Graphics/SVG/1.1/DTD/svg11.dtd">
<!-- Generated by graphviz version 2.47.3 (20210619.1520)
 -->
<!-- Title: dependencies Pages: 1 -->
<svg width="580pt" height="247pt"
 viewBox="0.00 0.00 580.00 246.80" xmlns="http://www.w3.org/2000/svg" xmlns:xlink="http://www.w3.org/1999/xlink">
<g id="graph0" class="graph" transform="scale(1 1) rotate(0) translate(4 242.8)">
<title>dependencies</title>
<polygon fill="white" stroke="transparent" points="-4,4 -4,-242.8 576,-242.8 576,4 -4,4"/>
<text text-anchor="middle" x="286" y="-8.2" font-family="sans-serif" font-size="14.00">dependencies</text>
<g id="clust1" class="cluster">
<title>cluster_TemporalBargraphModule</title>
<polygon fill="none" stroke="black" stroke-dasharray="1,5" points="8,-32.8 8,-230.8 564,-230.8 564,-32.8 8,-32.8"/>
</g>
<g id="clust6" class="cluster">
<title>cluster_TemporalBargraphModule_exports</title>
<polygon fill="none" stroke="black" points="148,-170.8 148,-222.8 356,-222.8 356,-170.8 148,-170.8"/>
</g>
<g id="clust2" class="cluster">
<title>cluster_TemporalBargraphModule_declarations</title>
<polygon fill="none" stroke="black" points="154,-40.8 154,-92.8 556,-92.8 556,-40.8 154,-40.8"/>
</g>
<g id="clust5" class="cluster">
<title>cluster_TemporalBargraphModule_imports</title>
<polygon fill="none" stroke="black" points="16,-40.8 16,-92.8 146,-92.8 146,-40.8 16,-40.8"/>
</g>
<!-- TemporalBargraphComponent -->
<g id="node1" class="node">
<title>TemporalBargraphComponent</title>
<polygon fill="#ffffb3" stroke="black" points="547.84,-84.8 360.16,-84.8 360.16,-48.8 547.84,-48.8 547.84,-84.8"/>
<text text-anchor="middle" x="454" y="-62.6" font-family="Times,serif" font-size="14.00">TemporalBargraphComponent</text>
</g>
<!-- TemporalBargraphModule -->
<g id="node3" class="node">
<title>TemporalBargraphModule</title>
<polygon fill="#8dd3c7" stroke="black" points="335.06,-149.8 332.06,-153.8 311.06,-153.8 308.06,-149.8 168.94,-149.8 168.94,-113.8 335.06,-113.8 335.06,-149.8"/>
<text text-anchor="middle" x="252" y="-127.6" font-family="Times,serif" font-size="14.00">TemporalBargraphModule</text>
</g>
<!-- TemporalBargraphComponent&#45;&gt;TemporalBargraphModule -->
<g id="edge1" class="edge">
<title>TemporalBargraphComponent&#45;&gt;TemporalBargraphModule</title>
<path fill="none" stroke="black" d="M454,-84.91C454,-104.14 454,-131.8 454,-131.8 454,-131.8 345.04,-131.8 345.04,-131.8"/>
<polygon fill="black" stroke="black" points="345.04,-128.3 335.04,-131.8 345.04,-135.3 345.04,-128.3"/>
</g>
<!-- TemporalSettingsComponent -->
<g id="node2" class="node">
<title>TemporalSettingsComponent</title>
<polygon fill="#ffffb3" stroke="black" points="342.37,-84.8 161.63,-84.8 161.63,-48.8 342.37,-48.8 342.37,-84.8"/>
<text text-anchor="middle" x="252" y="-62.6" font-family="Times,serif" font-size="14.00">TemporalSettingsComponent</text>
</g>
<!-- TemporalSettingsComponent&#45;&gt;TemporalBargraphModule -->
<g id="edge2" class="edge">
<title>TemporalSettingsComponent&#45;&gt;TemporalBargraphModule</title>
<path fill="none" stroke="black" d="M252,-84.91C252,-84.91 252,-103.79 252,-103.79"/>
<polygon fill="black" stroke="black" points="248.5,-103.79 252,-113.79 255.5,-103.79 248.5,-103.79"/>
</g>
<!-- TemporalBargraphComponent  -->
<g id="node5" class="node">
<title>TemporalBargraphComponent </title>
<polygon fill="#fb8072" stroke="black" points="347.84,-214.8 156.16,-214.8 156.16,-178.8 347.84,-178.8 347.84,-214.8"/>
<text text-anchor="middle" x="252" y="-192.6" font-family="Times,serif" font-size="14.00">TemporalBargraphComponent </text>
</g>
<!-- TemporalBargraphModule&#45;&gt;TemporalBargraphComponent  -->
<g id="edge4" class="edge">
<title>TemporalBargraphModule&#45;&gt;TemporalBargraphComponent </title>
<path fill="none" stroke="black" stroke-dasharray="5,2" d="M252,-149.91C252,-149.91 252,-168.79 252,-168.79"/>
<polygon fill="black" stroke="black" points="248.5,-168.79 252,-178.79 255.5,-168.79 248.5,-168.79"/>
</g>
<!-- NgxVegaModule -->
<g id="node4" class="node">
<title>NgxVegaModule</title>
<polygon fill="#8dd3c7" stroke="black" points="137.69,-84.8 134.69,-88.8 113.69,-88.8 110.69,-84.8 24.31,-84.8 24.31,-48.8 137.69,-48.8 137.69,-84.8"/>
<text text-anchor="middle" x="81" y="-62.6" font-family="Times,serif" font-size="14.00">NgxVegaModule</text>
</g>
<!-- NgxVegaModule&#45;&gt;TemporalBargraphModule -->
<g id="edge3" class="edge">
<title>NgxVegaModule&#45;&gt;TemporalBargraphModule</title>
<path fill="none" stroke="black" d="M81,-84.91C81,-104.14 81,-131.8 81,-131.8 81,-131.8 158.75,-131.8 158.75,-131.8"/>
<polygon fill="black" stroke="black" points="158.75,-135.3 168.75,-131.8 158.75,-128.3 158.75,-135.3"/>
</g>
</g>
</svg>
