<?xml version="1.0" encoding="UTF-8" standalone="no"?>
<!DOCTYPE svg PUBLIC "-//W3C//DTD SVG 1.1//EN"
 "http://www.w3.org/Graphics/SVG/1.1/DTD/svg11.dtd">
<!-- Generated by graphviz version 2.47.3 (20210619.1520)
 -->
<!-- Title: dependencies Pages: 1 -->
<svg width="518pt" height="247pt"
 viewBox="0.00 0.00 518.00 246.80" xmlns="http://www.w3.org/2000/svg" xmlns:xlink="http://www.w3.org/1999/xlink">
<g id="graph0" class="graph" transform="scale(1 1) rotate(0) translate(4 242.8)">
<title>dependencies</title>
<polygon fill="white" stroke="transparent" points="-4,4 -4,-242.8 514,-242.8 514,4 -4,4"/>
<text text-anchor="middle" x="255" y="-8.2" font-family="sans-serif" font-size="14.00">dependencies</text>
<g id="clust1" class="cluster">
<title>cluster_NetworkModule</title>
<polygon fill="none" stroke="black" stroke-dasharray="1,5" points="8,-32.8 8,-230.8 502,-230.8 502,-32.8 8,-32.8"/>
</g>
<g id="clust2" class="cluster">
<title>cluster_NetworkModule_declarations</title>
<polygon fill="none" stroke="black" points="154,-40.8 154,-92.8 494,-92.8 494,-40.8 154,-40.8"/>
</g>
<g id="clust6" class="cluster">
<title>cluster_NetworkModule_exports</title>
<polygon fill="none" stroke="black" points="175,-170.8 175,-222.8 325,-222.8 325,-170.8 175,-170.8"/>
</g>
<g id="clust5" class="cluster">
<title>cluster_NetworkModule_imports</title>
<polygon fill="none" stroke="black" points="16,-40.8 16,-92.8 146,-92.8 146,-40.8 16,-40.8"/>
</g>
<!-- NetworkComponent -->
<g id="node1" class="node">
<title>NetworkComponent</title>
<polygon fill="#ffffb3" stroke="black" points="486.31,-84.8 355.69,-84.8 355.69,-48.8 486.31,-48.8 486.31,-84.8"/>
<text text-anchor="middle" x="421" y="-62.6" font-family="Times,serif" font-size="14.00">NetworkComponent</text>
</g>
<!-- NetworkModule -->
<g id="node3" class="node">
<title>NetworkModule</title>
<polygon fill="#8dd3c7" stroke="black" points="304.03,-149.8 301.03,-153.8 280.03,-153.8 277.03,-149.8 195.97,-149.8 195.97,-113.8 304.03,-113.8 304.03,-149.8"/>
<text text-anchor="middle" x="250" y="-127.6" font-family="Times,serif" font-size="14.00">NetworkModule</text>
</g>
<!-- NetworkComponent&#45;&gt;NetworkModule -->
<g id="edge1" class="edge">
<title>NetworkComponent&#45;&gt;NetworkModule</title>
<path fill="none" stroke="black" d="M421,-84.91C421,-104.14 421,-131.8 421,-131.8 421,-131.8 314.11,-131.8 314.11,-131.8"/>
<polygon fill="black" stroke="black" points="314.11,-128.3 304.11,-131.8 314.11,-135.3 314.11,-128.3"/>
</g>
<!-- NetworkSettingsComponent -->
<g id="node2" class="node">
<title>NetworkSettingsComponent</title>
<polygon fill="#ffffb3" stroke="black" points="337.93,-84.8 162.07,-84.8 162.07,-48.8 337.93,-48.8 337.93,-84.8"/>
<text text-anchor="middle" x="250" y="-62.6" font-family="Times,serif" font-size="14.00">NetworkSettingsComponent</text>
</g>
<!-- NetworkSettingsComponent&#45;&gt;NetworkModule -->
<g id="edge2" class="edge">
<title>NetworkSettingsComponent&#45;&gt;NetworkModule</title>
<path fill="none" stroke="black" d="M250,-84.91C250,-84.91 250,-103.79 250,-103.79"/>
<polygon fill="black" stroke="black" points="246.5,-103.79 250,-113.79 253.5,-103.79 246.5,-103.79"/>
</g>
<!-- NetworkComponent  -->
<g id="node5" class="node">
<title>NetworkComponent </title>
<polygon fill="#fb8072" stroke="black" points="316.81,-214.8 183.19,-214.8 183.19,-178.8 316.81,-178.8 316.81,-214.8"/>
<text text-anchor="middle" x="250" y="-192.6" font-family="Times,serif" font-size="14.00">NetworkComponent </text>
</g>
<!-- NetworkModule&#45;&gt;NetworkComponent  -->
<g id="edge4" class="edge">
<title>NetworkModule&#45;&gt;NetworkComponent </title>
<path fill="none" stroke="black" stroke-dasharray="5,2" d="M250,-149.91C250,-149.91 250,-168.79 250,-168.79"/>
<polygon fill="black" stroke="black" points="246.5,-168.79 250,-178.79 253.5,-168.79 246.5,-168.79"/>
</g>
<!-- NgxVegaModule -->
<g id="node4" class="node">
<title>NgxVegaModule</title>
<polygon fill="#8dd3c7" stroke="black" points="137.69,-84.8 134.69,-88.8 113.69,-88.8 110.69,-84.8 24.31,-84.8 24.31,-48.8 137.69,-48.8 137.69,-84.8"/>
<text text-anchor="middle" x="81" y="-62.6" font-family="Times,serif" font-size="14.00">NgxVegaModule</text>
</g>
<!-- NgxVegaModule&#45;&gt;NetworkModule -->
<g id="edge3" class="edge">
<title>NgxVegaModule&#45;&gt;NetworkModule</title>
<path fill="none" stroke="black" d="M81,-84.91C81,-104.14 81,-131.8 81,-131.8 81,-131.8 185.6,-131.8 185.6,-131.8"/>
<polygon fill="black" stroke="black" points="185.6,-135.3 195.6,-131.8 185.6,-128.3 185.6,-135.3"/>
</g>
</g>
</svg>
