<?xml version="1.0" encoding="UTF-8" standalone="no"?>
<!DOCTYPE svg PUBLIC "-//W3C//DTD SVG 1.1//EN"
 "http://www.w3.org/Graphics/SVG/1.1/DTD/svg11.dtd">
<!-- Generated by graphviz version 2.47.3 (20210619.1520)
 -->
<!-- Title: dependencies Pages: 1 -->
<svg width="514pt" height="247pt"
 viewBox="0.00 0.00 514.00 246.80" xmlns="http://www.w3.org/2000/svg" xmlns:xlink="http://www.w3.org/1999/xlink">
<g id="graph0" class="graph" transform="scale(1 1) rotate(0) translate(4 242.8)">
<title>dependencies</title>
<polygon fill="white" stroke="transparent" points="-4,4 -4,-242.8 510,-242.8 510,4 -4,4"/>
<text text-anchor="middle" x="253" y="-8.2" font-family="sans-serif" font-size="14.00">dependencies</text>
<g id="clust1" class="cluster">
<title>cluster_GeomapModule</title>
<polygon fill="none" stroke="black" stroke-dasharray="1,5" points="8,-32.8 8,-230.8 498,-230.8 498,-32.8 8,-32.8"/>
</g>
<g id="clust6" class="cluster">
<title>cluster_GeomapModule_exports</title>
<polygon fill="none" stroke="black" points="81,-170.8 81,-222.8 425,-222.8 425,-170.8 81,-170.8"/>
</g>
<g id="clust2" class="cluster">
<title>cluster_GeomapModule_declarations</title>
<polygon fill="none" stroke="black" points="154,-40.8 154,-92.8 490,-92.8 490,-40.8 154,-40.8"/>
</g>
<g id="clust5" class="cluster">
<title>cluster_GeomapModule_imports</title>
<polygon fill="none" stroke="black" points="16,-40.8 16,-92.8 146,-92.8 146,-40.8 16,-40.8"/>
</g>
<!-- GeomapComponent -->
<g id="node1" class="node">
<title>GeomapComponent</title>
<polygon fill="#ffffb3" stroke="black" points="482.26,-84.8 353.74,-84.8 353.74,-48.8 482.26,-48.8 482.26,-84.8"/>
<text text-anchor="middle" x="418" y="-62.6" font-family="Times,serif" font-size="14.00">GeomapComponent</text>
</g>
<!-- GeomapModule -->
<g id="node3" class="node">
<title>GeomapModule</title>
<polygon fill="#8dd3c7" stroke="black" points="302.48,-149.8 299.48,-153.8 278.48,-153.8 275.48,-149.8 195.52,-149.8 195.52,-113.8 302.48,-113.8 302.48,-149.8"/>
<text text-anchor="middle" x="249" y="-127.6" font-family="Times,serif" font-size="14.00">GeomapModule</text>
</g>
<!-- GeomapComponent&#45;&gt;GeomapModule -->
<g id="edge1" class="edge">
<title>GeomapComponent&#45;&gt;GeomapModule</title>
<path fill="none" stroke="black" d="M385.38,-84.91C385.38,-104.14 385.38,-131.8 385.38,-131.8 385.38,-131.8 312.51,-131.8 312.51,-131.8"/>
<polygon fill="black" stroke="black" points="312.51,-128.3 302.51,-131.8 312.51,-135.3 312.51,-128.3"/>
</g>
<!-- GeomapSettingsComponent -->
<g id="node2" class="node">
<title>GeomapSettingsComponent</title>
<polygon fill="#ffffb3" stroke="black" points="335.87,-84.8 162.13,-84.8 162.13,-48.8 335.87,-48.8 335.87,-84.8"/>
<text text-anchor="middle" x="249" y="-62.6" font-family="Times,serif" font-size="14.00">GeomapSettingsComponent</text>
</g>
<!-- GeomapSettingsComponent&#45;&gt;GeomapModule -->
<g id="edge2" class="edge">
<title>GeomapSettingsComponent&#45;&gt;GeomapModule</title>
<path fill="none" stroke="black" d="M249,-84.91C249,-84.91 249,-103.79 249,-103.79"/>
<polygon fill="black" stroke="black" points="245.5,-103.79 249,-113.79 252.5,-103.79 245.5,-103.79"/>
</g>
<!-- GeomapComponent  -->
<g id="node5" class="node">
<title>GeomapComponent </title>
<polygon fill="#fb8072" stroke="black" points="417.26,-214.8 284.74,-214.8 284.74,-178.8 417.26,-178.8 417.26,-214.8"/>
<text text-anchor="middle" x="351" y="-192.6" font-family="Times,serif" font-size="14.00">GeomapComponent </text>
</g>
<!-- GeomapModule&#45;&gt;GeomapComponent  -->
<g id="edge4" class="edge">
<title>GeomapModule&#45;&gt;GeomapComponent </title>
<path fill="none" stroke="black" stroke-dasharray="5,2" d="M293.68,-149.91C293.68,-149.91 293.68,-168.79 293.68,-168.79"/>
<polygon fill="black" stroke="black" points="290.18,-168.79 293.68,-178.79 297.18,-168.79 290.18,-168.79"/>
</g>
<!-- GeomapSettingsComponent  -->
<g id="node6" class="node">
<title>GeomapSettingsComponent </title>
<polygon fill="#fb8072" stroke="black" points="266.87,-214.8 89.13,-214.8 89.13,-178.8 266.87,-178.8 266.87,-214.8"/>
<text text-anchor="middle" x="178" y="-192.6" font-family="Times,serif" font-size="14.00">GeomapSettingsComponent </text>
</g>
<!-- GeomapModule&#45;&gt;GeomapSettingsComponent  -->
<g id="edge5" class="edge">
<title>GeomapModule&#45;&gt;GeomapSettingsComponent </title>
<path fill="none" stroke="black" stroke-dasharray="5,2" d="M231.1,-149.91C231.1,-149.91 231.1,-168.79 231.1,-168.79"/>
<polygon fill="black" stroke="black" points="227.6,-168.79 231.1,-178.79 234.6,-168.79 227.6,-168.79"/>
</g>
<!-- NgxVegaModule -->
<g id="node4" class="node">
<title>NgxVegaModule</title>
<polygon fill="#8dd3c7" stroke="black" points="137.69,-84.8 134.69,-88.8 113.69,-88.8 110.69,-84.8 24.31,-84.8 24.31,-48.8 137.69,-48.8 137.69,-84.8"/>
<text text-anchor="middle" x="81" y="-62.6" font-family="Times,serif" font-size="14.00">NgxVegaModule</text>
</g>
<!-- NgxVegaModule&#45;&gt;GeomapModule -->
<g id="edge3" class="edge">
<title>NgxVegaModule&#45;&gt;GeomapModule</title>
<path fill="none" stroke="black" d="M113.45,-84.91C113.45,-104.14 113.45,-131.8 113.45,-131.8 113.45,-131.8 185.43,-131.8 185.43,-131.8"/>
<polygon fill="black" stroke="black" points="185.43,-135.3 195.43,-131.8 185.43,-128.3 185.43,-135.3"/>
</g>
</g>
</svg>
