<?xml version="1.0" encoding="UTF-8" standalone="no"?>
<!DOCTYPE svg PUBLIC "-//W3C//DTD SVG 1.1//EN"
 "http://www.w3.org/Graphics/SVG/1.1/DTD/svg11.dtd">
<!-- Generated by graphviz version 2.47.0 (20210316.0004)
 -->
<!-- Title: dependencies Pages: 1 -->
<svg width="514pt" height="284pt"
 viewBox="0.00 0.00 514.00 284.00" xmlns="http://www.w3.org/2000/svg" xmlns:xlink="http://www.w3.org/1999/xlink">
<g id="graph0" class="graph" transform="scale(1 1) rotate(0) translate(4 280)">
<title>dependencies</title>
<polygon fill="white" stroke="transparent" points="-4,4 -4,-280 510,-280 510,4 -4,4"/>
<text text-anchor="start" x="232.01" y="-42.4" font-family="sans-serif" font-weight="bold" font-size="14.00">Legend</text>
<polygon fill="#ffffb3" stroke="transparent" points="19,-10 19,-30 39,-30 39,-10 19,-10"/>
<text text-anchor="start" x="42.63" y="-15.4" font-family="sans-serif" font-size="14.00"> &#160;Declarations</text>
<polygon fill="#8dd3c7" stroke="transparent" points="132,-10 132,-30 152,-30 152,-10 132,-10"/>
<text text-anchor="start" x="155.73" y="-15.4" font-family="sans-serif" font-size="14.00"> &#160;Module</text>
<polygon fill="#80b1d3" stroke="transparent" points="218,-10 218,-30 238,-30 238,-10 218,-10"/>
<text text-anchor="start" x="241.78" y="-15.4" font-family="sans-serif" font-size="14.00"> &#160;Bootstrap</text>
<polygon fill="#fdb462" stroke="transparent" points="315,-10 315,-30 335,-30 335,-10 315,-10"/>
<text text-anchor="start" x="338.67" y="-15.4" font-family="sans-serif" font-size="14.00"> &#160;Providers</text>
<polygon fill="#fb8072" stroke="transparent" points="411,-10 411,-30 431,-30 431,-10 411,-10"/>
<text text-anchor="start" x="434.73" y="-15.4" font-family="sans-serif" font-size="14.00"> &#160;Exports</text>
<g id="clust1" class="cluster">
<title>cluster_GeomapModule</title>
<polygon fill="none" stroke="black" stroke-dasharray="1,5" points="8,-70 8,-268 498,-268 498,-70 8,-70"/>
</g>
<g id="clust2" class="cluster">
<title>cluster_GeomapModule_declarations</title>
<polygon fill="none" stroke="black" points="154,-78 154,-130 490,-130 490,-78 154,-78"/>
</g>
<g id="clust6" class="cluster">
<title>cluster_GeomapModule_exports</title>
<polygon fill="none" stroke="black" points="81,-208 81,-260 425,-260 425,-208 81,-208"/>
</g>
<g id="clust5" class="cluster">
<title>cluster_GeomapModule_imports</title>
<polygon fill="none" stroke="black" points="16,-78 16,-130 146,-130 146,-78 16,-78"/>
</g>
<!-- GeomapComponent -->
<g id="node1" class="node">
<title>GeomapComponent</title>
<polygon fill="#ffffb3" stroke="black" points="482.26,-122 353.74,-122 353.74,-86 482.26,-86 482.26,-122"/>
<text text-anchor="middle" x="418" y="-99.8" font-family="Times,serif" font-size="14.00">GeomapComponent</text>
</g>
<!-- GeomapModule -->
<g id="node3" class="node">
<title>GeomapModule</title>
<polygon fill="#8dd3c7" stroke="black" points="302.48,-187 299.48,-191 278.48,-191 275.48,-187 195.52,-187 195.52,-151 302.48,-151 302.48,-187"/>
<text text-anchor="middle" x="249" y="-164.8" font-family="Times,serif" font-size="14.00">GeomapModule</text>
</g>
<!-- GeomapComponent&#45;&gt;GeomapModule -->
<g id="edge1" class="edge">
<title>GeomapComponent&#45;&gt;GeomapModule</title>
<path fill="none" stroke="black" d="M385.38,-122.11C385.38,-141.34 385.38,-169 385.38,-169 385.38,-169 312.51,-169 312.51,-169"/>
<polygon fill="black" stroke="black" points="312.51,-165.5 302.51,-169 312.51,-172.5 312.51,-165.5"/>
</g>
<!-- GeomapSettingsComponent -->
<g id="node2" class="node">
<title>GeomapSettingsComponent</title>
<polygon fill="#ffffb3" stroke="black" points="335.87,-122 162.13,-122 162.13,-86 335.87,-86 335.87,-122"/>
<text text-anchor="middle" x="249" y="-99.8" font-family="Times,serif" font-size="14.00">GeomapSettingsComponent</text>
</g>
<!-- GeomapSettingsComponent&#45;&gt;GeomapModule -->
<g id="edge2" class="edge">
<title>GeomapSettingsComponent&#45;&gt;GeomapModule</title>
<path fill="none" stroke="black" d="M249,-122.11C249,-122.11 249,-140.99 249,-140.99"/>
<polygon fill="black" stroke="black" points="245.5,-140.99 249,-150.99 252.5,-140.99 245.5,-140.99"/>
</g>
<!-- GeomapComponent  -->
<g id="node5" class="node">
<title>GeomapComponent </title>
<polygon fill="#fb8072" stroke="black" points="417.26,-252 284.74,-252 284.74,-216 417.26,-216 417.26,-252"/>
<text text-anchor="middle" x="351" y="-229.8" font-family="Times,serif" font-size="14.00">GeomapComponent </text>
</g>
<!-- GeomapModule&#45;&gt;GeomapComponent  -->
<g id="edge4" class="edge">
<title>GeomapModule&#45;&gt;GeomapComponent </title>
<path fill="none" stroke="black" stroke-dasharray="5,2" d="M293.68,-187.11C293.68,-187.11 293.68,-205.99 293.68,-205.99"/>
<polygon fill="black" stroke="black" points="290.18,-205.99 293.68,-215.99 297.18,-205.99 290.18,-205.99"/>
</g>
<!-- GeomapSettingsComponent  -->
<g id="node6" class="node">
<title>GeomapSettingsComponent </title>
<polygon fill="#fb8072" stroke="black" points="266.87,-252 89.13,-252 89.13,-216 266.87,-216 266.87,-252"/>
<text text-anchor="middle" x="178" y="-229.8" font-family="Times,serif" font-size="14.00">GeomapSettingsComponent </text>
</g>
<!-- GeomapModule&#45;&gt;GeomapSettingsComponent  -->
<g id="edge5" class="edge">
<title>GeomapModule&#45;&gt;GeomapSettingsComponent </title>
<path fill="none" stroke="black" stroke-dasharray="5,2" d="M231.1,-187.11C231.1,-187.11 231.1,-205.99 231.1,-205.99"/>
<polygon fill="black" stroke="black" points="227.6,-205.99 231.1,-215.99 234.6,-205.99 227.6,-205.99"/>
</g>
<!-- NgxVegaModule -->
<g id="node4" class="node">
<title>NgxVegaModule</title>
<polygon fill="#8dd3c7" stroke="black" points="137.69,-122 134.69,-126 113.69,-126 110.69,-122 24.31,-122 24.31,-86 137.69,-86 137.69,-122"/>
<text text-anchor="middle" x="81" y="-99.8" font-family="Times,serif" font-size="14.00">NgxVegaModule</text>
</g>
<!-- NgxVegaModule&#45;&gt;GeomapModule -->
<g id="edge3" class="edge">
<title>NgxVegaModule&#45;&gt;GeomapModule</title>
<path fill="none" stroke="black" d="M113.45,-122.11C113.45,-141.34 113.45,-169 113.45,-169 113.45,-169 185.43,-169 185.43,-169"/>
<polygon fill="black" stroke="black" points="185.43,-172.5 195.43,-169 185.43,-165.5 185.43,-172.5"/>
</g>
</g>
</svg>
