<?xml version="1.0" encoding="UTF-8" standalone="no"?>
<!DOCTYPE svg PUBLIC "-//W3C//DTD SVG 1.1//EN"
 "http://www.w3.org/Graphics/SVG/1.1/DTD/svg11.dtd">
<!-- Generated by graphviz version 2.47.0 (20210316.0004)
 -->
<!-- Title: dependencies Pages: 1 -->
<svg width="514pt" height="284pt"
 viewBox="0.00 0.00 514.00 284.00" xmlns="http://www.w3.org/2000/svg" xmlns:xlink="http://www.w3.org/1999/xlink">
<g id="graph0" class="graph" transform="scale(1 1) rotate(0) translate(4 280)">
<title>dependencies</title>
<polygon fill="white" stroke="transparent" points="-4,4 -4,-280 510,-280 510,4 -4,4"/>
<text text-anchor="start" x="232.01" y="-42.4" font-family="sans-serif" font-weight="bold" font-size="14.00">Legend</text>
<polygon fill="#ffffb3" stroke="transparent" points="19,-10 19,-30 39,-30 39,-10 19,-10"/>
<text text-anchor="start" x="42.63" y="-15.4" font-family="sans-serif" font-size="14.00"> &#160;Declarations</text>
<polygon fill="#8dd3c7" stroke="transparent" points="132,-10 132,-30 152,-30 152,-10 132,-10"/>
<text text-anchor="start" x="155.73" y="-15.4" font-family="sans-serif" font-size="14.00"> &#160;Module</text>
<polygon fill="#80b1d3" stroke="transparent" points="218,-10 218,-30 238,-30 238,-10 218,-10"/>
<text text-anchor="start" x="241.78" y="-15.4" font-family="sans-serif" font-size="14.00"> &#160;Bootstrap</text>
<polygon fill="#fdb462" stroke="transparent" points="315,-10 315,-30 335,-30 335,-10 315,-10"/>
<text text-anchor="start" x="338.67" y="-15.4" font-family="sans-serif" font-size="14.00"> &#160;Providers</text>
<polygon fill="#fb8072" stroke="transparent" points="411,-10 411,-30 431,-30 431,-10 411,-10"/>
<text text-anchor="start" x="434.73" y="-15.4" font-family="sans-serif" font-size="14.00"> &#160;Exports</text>
<g id="clust1" class="cluster">
<title>cluster_GeomapModule</title>
<polygon fill="none" stroke="black" stroke-dasharray="1,5" points="8,-70 8,-268 498,-268 498,-70 8,-70"/>
</g>
<g id="clust5" class="cluster">
<title>cluster_GeomapModule_imports</title>
<polygon fill="none" stroke="black" points="360,-78 360,-130 490,-130 490,-78 360,-78"/>
</g>
<g id="clust2" class="cluster">
<title>cluster_GeomapModule_declarations</title>
<polygon fill="none" stroke="black" points="16,-78 16,-130 352,-130 352,-78 16,-78"/>
</g>
<g id="clust6" class="cluster">
<title>cluster_GeomapModule_exports</title>
<polygon fill="none" stroke="black" points="81,-208 81,-260 425,-260 425,-208 81,-208"/>
</g>
<!-- GeomapComponent -->
<g id="node1" class="node">
<title>GeomapComponent</title>
<polygon fill="#ffffb3" stroke="black" points="344.26,-122 215.74,-122 215.74,-86 344.26,-86 344.26,-122"/>
<text text-anchor="middle" x="280" y="-99.8" font-family="Times,serif" font-size="14.00">GeomapComponent</text>
</g>
<!-- GeomapModule -->
<g id="node3" class="node">
<title>GeomapModule</title>
<polygon fill="#8dd3c7" stroke="black" points="333.48,-187 330.48,-191 309.48,-191 306.48,-187 226.52,-187 226.52,-151 333.48,-151 333.48,-187"/>
<text text-anchor="middle" x="280" y="-164.8" font-family="Times,serif" font-size="14.00">GeomapModule</text>
</g>
<!-- GeomapComponent&#45;&gt;GeomapModule -->
<g id="edge1" class="edge">
<title>GeomapComponent&#45;&gt;GeomapModule</title>
<path fill="none" stroke="black" d="M280,-122.11C280,-122.11 280,-140.99 280,-140.99"/>
<polygon fill="black" stroke="black" points="276.5,-140.99 280,-150.99 283.5,-140.99 276.5,-140.99"/>
</g>
<!-- GeomapSettingsComponent -->
<g id="node2" class="node">
<title>GeomapSettingsComponent</title>
<polygon fill="#ffffb3" stroke="black" points="197.87,-122 24.13,-122 24.13,-86 197.87,-86 197.87,-122"/>
<text text-anchor="middle" x="111" y="-99.8" font-family="Times,serif" font-size="14.00">GeomapSettingsComponent</text>
</g>
<!-- GeomapSettingsComponent&#45;&gt;GeomapModule -->
<g id="edge2" class="edge">
<title>GeomapSettingsComponent&#45;&gt;GeomapModule</title>
<path fill="none" stroke="black" d="M143.62,-122.11C143.62,-141.34 143.62,-169 143.62,-169 143.62,-169 216.49,-169 216.49,-169"/>
<polygon fill="black" stroke="black" points="216.49,-172.5 226.49,-169 216.49,-165.5 216.49,-172.5"/>
</g>
<!-- GeomapComponent  -->
<g id="node5" class="node">
<title>GeomapComponent </title>
<polygon fill="#fb8072" stroke="black" points="417.26,-252 284.74,-252 284.74,-216 417.26,-216 417.26,-252"/>
<text text-anchor="middle" x="351" y="-229.8" font-family="Times,serif" font-size="14.00">GeomapComponent </text>
</g>
<!-- GeomapModule&#45;&gt;GeomapComponent  -->
<g id="edge4" class="edge">
<title>GeomapModule&#45;&gt;GeomapComponent </title>
<path fill="none" stroke="black" stroke-dasharray="5,2" d="M309.18,-187.11C309.18,-187.11 309.18,-205.99 309.18,-205.99"/>
<polygon fill="black" stroke="black" points="305.68,-205.99 309.18,-215.99 312.68,-205.99 305.68,-205.99"/>
</g>
<!-- GeomapSettingsComponent  -->
<g id="node6" class="node">
<title>GeomapSettingsComponent </title>
<polygon fill="#fb8072" stroke="black" points="266.87,-252 89.13,-252 89.13,-216 266.87,-216 266.87,-252"/>
<text text-anchor="middle" x="178" y="-229.8" font-family="Times,serif" font-size="14.00">GeomapSettingsComponent </text>
</g>
<!-- GeomapModule&#45;&gt;GeomapSettingsComponent  -->
<g id="edge5" class="edge">
<title>GeomapModule&#45;&gt;GeomapSettingsComponent </title>
<path fill="none" stroke="black" stroke-dasharray="5,2" d="M246.6,-187.11C246.6,-187.11 246.6,-205.99 246.6,-205.99"/>
<polygon fill="black" stroke="black" points="243.1,-205.99 246.6,-215.99 250.1,-205.99 243.1,-205.99"/>
</g>
<!-- NgxVegaModule -->
<g id="node4" class="node">
<title>NgxVegaModule</title>
<polygon fill="#8dd3c7" stroke="black" points="481.69,-122 478.69,-126 457.69,-126 454.69,-122 368.31,-122 368.31,-86 481.69,-86 481.69,-122"/>
<text text-anchor="middle" x="425" y="-99.8" font-family="Times,serif" font-size="14.00">NgxVegaModule</text>
</g>
<!-- NgxVegaModule&#45;&gt;GeomapModule -->
<g id="edge3" class="edge">
<title>NgxVegaModule&#45;&gt;GeomapModule</title>
<path fill="none" stroke="black" d="M392.77,-122.11C392.77,-141.34 392.77,-169 392.77,-169 392.77,-169 343.74,-169 343.74,-169"/>
<polygon fill="black" stroke="black" points="343.74,-165.5 333.74,-169 343.74,-172.5 343.74,-165.5"/>
</g>
</g>
</svg>
