<?xml version="1.0" encoding="UTF-8" standalone="no"?>
<!DOCTYPE svg PUBLIC "-//W3C//DTD SVG 1.1//EN"
 "http://www.w3.org/Graphics/SVG/1.1/DTD/svg11.dtd">
<!-- Generated by graphviz version 2.47.3 (20210619.1520)
 -->
<!-- Title: dependencies Pages: 1 -->
<svg width="254pt" height="247pt"
 viewBox="0.00 0.00 254.00 246.80" xmlns="http://www.w3.org/2000/svg" xmlns:xlink="http://www.w3.org/1999/xlink">
<g id="graph0" class="graph" transform="scale(1 1) rotate(0) translate(4 242.8)">
<title>dependencies</title>
<polygon fill="white" stroke="transparent" points="-4,4 -4,-242.8 250,-242.8 250,4 -4,4"/>
<text text-anchor="middle" x="123" y="-8.2" font-family="sans-serif" font-size="14.00">dependencies</text>
<g id="clust1" class="cluster">
<title>cluster_ConfirmationDialogModule</title>
<polygon fill="none" stroke="black" stroke-dasharray="1,5" points="8,-32.8 8,-230.8 238,-230.8 238,-32.8 8,-32.8"/>
</g>
<g id="clust2" class="cluster">
<title>cluster_ConfirmationDialogModule_declarations</title>
<polygon fill="none" stroke="black" points="18,-40.8 18,-92.8 228,-92.8 228,-40.8 18,-40.8"/>
</g>
<g id="clust5" class="cluster">
<title>cluster_ConfirmationDialogModule_exports</title>
<polygon fill="none" stroke="black" points="16,-170.8 16,-222.8 230,-222.8 230,-170.8 16,-170.8"/>
</g>
<!-- ConfirmationDialogComponent -->
<g id="node1" class="node">
<title>ConfirmationDialogComponent</title>
<polygon fill="#ffffb3" stroke="black" points="220.37,-84.8 25.63,-84.8 25.63,-48.8 220.37,-48.8 220.37,-84.8"/>
<text text-anchor="middle" x="123" y="-62.6" font-family="Times,serif" font-size="14.00">ConfirmationDialogComponent</text>
</g>
<!-- ConfirmationDialogModule -->
<g id="node2" class="node">
<title>ConfirmationDialogModule</title>
<polygon fill="#8dd3c7" stroke="black" points="209.59,-149.8 206.59,-153.8 185.59,-153.8 182.59,-149.8 36.41,-149.8 36.41,-113.8 209.59,-113.8 209.59,-149.8"/>
<text text-anchor="middle" x="123" y="-127.6" font-family="Times,serif" font-size="14.00">ConfirmationDialogModule</text>
</g>
<!-- ConfirmationDialogComponent&#45;&gt;ConfirmationDialogModule -->
<g id="edge1" class="edge">
<title>ConfirmationDialogComponent&#45;&gt;ConfirmationDialogModule</title>
<path fill="none" stroke="black" d="M123,-84.91C123,-84.91 123,-103.79 123,-103.79"/>
<polygon fill="black" stroke="black" points="119.5,-103.79 123,-113.79 126.5,-103.79 119.5,-103.79"/>
</g>
<!-- ConfirmationDialogComponent  -->
<g id="node3" class="node">
<title>ConfirmationDialogComponent </title>
<polygon fill="#fb8072" stroke="black" points="222.37,-214.8 23.63,-214.8 23.63,-178.8 222.37,-178.8 222.37,-214.8"/>
<text text-anchor="middle" x="123" y="-192.6" font-family="Times,serif" font-size="14.00">ConfirmationDialogComponent </text>
</g>
<!-- ConfirmationDialogModule&#45;&gt;ConfirmationDialogComponent  -->
<g id="edge2" class="edge">
<title>ConfirmationDialogModule&#45;&gt;ConfirmationDialogComponent </title>
<path fill="none" stroke="black" stroke-dasharray="5,2" d="M123,-149.91C123,-149.91 123,-168.79 123,-168.79"/>
<polygon fill="black" stroke="black" points="119.5,-168.79 123,-178.79 126.5,-168.79 119.5,-168.79"/>
</g>
</g>
</svg>
