<?xml version="1.0" encoding="UTF-8" standalone="no"?>
<!DOCTYPE svg PUBLIC "-//W3C//DTD SVG 1.1//EN"
 "http://www.w3.org/Graphics/SVG/1.1/DTD/svg11.dtd">
<!-- Generated by graphviz version 2.40.1 (20161225.0304)
 -->
<!-- Title: dependencies Pages: 1 -->
<svg width="504pt" height="284pt"
 viewBox="0.00 0.00 504.00 284.00" xmlns="http://www.w3.org/2000/svg" xmlns:xlink="http://www.w3.org/1999/xlink">
<g id="graph0" class="graph" transform="scale(1 1) rotate(0) translate(4 280)">
<title>dependencies</title>
<polygon fill="#ffffff" stroke="transparent" points="-4,4 -4,-280 500,-280 500,4 -4,4"/>
<text text-anchor="start" x="227.0091" y="-42.4" font-family="sans-serif" font-weight="bold" font-size="14.00" fill="#000000">Legend</text>
<polygon fill="#ffffb3" stroke="transparent" points="14,-10 14,-30 34,-30 34,-10 14,-10"/>
<text text-anchor="start" x="37.629" y="-15.4" font-family="sans-serif" font-size="14.00" fill="#000000"> &#160;Declarations</text>
<polygon fill="#8dd3c7" stroke="transparent" points="127,-10 127,-30 147,-30 147,-10 127,-10"/>
<text text-anchor="start" x="150.7251" y="-15.4" font-family="sans-serif" font-size="14.00" fill="#000000"> &#160;Module</text>
<polygon fill="#80b1d3" stroke="transparent" points="213,-10 213,-30 233,-30 233,-10 213,-10"/>
<text text-anchor="start" x="236.7812" y="-15.4" font-family="sans-serif" font-size="14.00" fill="#000000"> &#160;Bootstrap</text>
<polygon fill="#fdb462" stroke="transparent" points="310,-10 310,-30 330,-30 330,-10 310,-10"/>
<text text-anchor="start" x="333.6732" y="-15.4" font-family="sans-serif" font-size="14.00" fill="#000000"> &#160;Providers</text>
<polygon fill="#fb8072" stroke="transparent" points="406,-10 406,-30 426,-30 426,-10 406,-10"/>
<text text-anchor="start" x="429.7258" y="-15.4" font-family="sans-serif" font-size="14.00" fill="#000000"> &#160;Exports</text>
<g id="clust1" class="cluster">
<title>cluster_VisualizationModule</title>
<polygon fill="none" stroke="#000000" stroke-dasharray="1,5" points="133,-70 133,-268 363,-268 363,-70 133,-70"/>
</g>
<g id="clust2" class="cluster">
<title>cluster_VisualizationModule_declarations</title>
<polygon fill="none" stroke="#000000" points="143,-78 143,-130 353,-130 353,-78 143,-78"/>
</g>
<g id="clust5" class="cluster">
<title>cluster_VisualizationModule_exports</title>
<polygon fill="none" stroke="#000000" points="141,-208 141,-260 355,-260 355,-208 141,-208"/>
</g>
<!-- DvlFwVisualizationComponent -->
<g id="node1" class="node">
<title>DvlFwVisualizationComponent</title>
<polygon fill="#ffffb3" stroke="#000000" points="345.3668,-122 150.6332,-122 150.6332,-86 345.3668,-86 345.3668,-122"/>
<text text-anchor="middle" x="248" y="-99.8" font-family="Times,serif" font-size="14.00" fill="#000000">DvlFwVisualizationComponent</text>
</g>
<!-- VisualizationModule -->
<g id="node2" class="node">
<title>VisualizationModule</title>
<polygon fill="#8dd3c7" stroke="#000000" points="315.1979,-187 312.1979,-191 291.1979,-191 288.1979,-187 180.8021,-187 180.8021,-151 315.1979,-151 315.1979,-187"/>
<text text-anchor="middle" x="248" y="-164.8" font-family="Times,serif" font-size="14.00" fill="#000000">VisualizationModule</text>
</g>
<!-- DvlFwVisualizationComponent&#45;&gt;VisualizationModule -->
<g id="edge1" class="edge">
<title>DvlFwVisualizationComponent&#45;&gt;VisualizationModule</title>
<path fill="none" stroke="#000000" d="M248,-122.1061C248,-122.1061 248,-140.991 248,-140.991"/>
<polygon fill="#000000" stroke="#000000" points="244.5001,-140.9909 248,-150.991 251.5001,-140.991 244.5001,-140.9909"/>
</g>
<!-- DvlFwVisualizationComponent  -->
<g id="node3" class="node">
<title>DvlFwVisualizationComponent </title>
<polygon fill="#fb8072" stroke="#000000" points="347.3671,-252 148.6329,-252 148.6329,-216 347.3671,-216 347.3671,-252"/>
<text text-anchor="middle" x="248" y="-229.8" font-family="Times,serif" font-size="14.00" fill="#000000">DvlFwVisualizationComponent </text>
</g>
<!-- VisualizationModule&#45;&gt;DvlFwVisualizationComponent  -->
<g id="edge2" class="edge">
<title>VisualizationModule&#45;&gt;DvlFwVisualizationComponent </title>
<path fill="none" stroke="#000000" stroke-dasharray="5,2" d="M248,-187.1061C248,-187.1061 248,-205.991 248,-205.991"/>
<polygon fill="#000000" stroke="#000000" points="244.5001,-205.9909 248,-215.991 251.5001,-205.991 244.5001,-205.9909"/>
</g>
</g>
</svg>
