<?xml version="1.0" encoding="UTF-8" standalone="no"?>
<!DOCTYPE svg PUBLIC "-//W3C//DTD SVG 1.1//EN"
 "http://www.w3.org/Graphics/SVG/1.1/DTD/svg11.dtd">
<!-- Generated by graphviz version 2.47.3 (20210619.1520)
 -->
<!-- Title: dependencies Pages: 1 -->
<svg width="1670pt" height="174pt"
 viewBox="0.00 0.00 1670.00 173.80" xmlns="http://www.w3.org/2000/svg" xmlns:xlink="http://www.w3.org/1999/xlink">
<g id="graph0" class="graph" transform="scale(1 1) rotate(0) translate(4 169.8)">
<title>dependencies</title>
<polygon fill="white" stroke="transparent" points="-4,4 -4,-169.8 1666,-169.8 1666,4 -4,4"/>
<text text-anchor="middle" x="831" y="-8.2" font-family="sans-serif" font-size="14.00">dependencies</text>
<g id="clust1" class="cluster">
<title>cluster_ToolbarModule</title>
<polygon fill="none" stroke="black" stroke-dasharray="1,5" points="8,-32.8 8,-157.8 1654,-157.8 1654,-32.8 8,-32.8"/>
</g>
<g id="clust2" class="cluster">
<title>cluster_ToolbarModule_declarations</title>
<polygon fill="none" stroke="black" points="16,-40.8 16,-92.8 1646,-92.8 1646,-40.8 16,-40.8"/>
</g>
<!-- CnsLogoComponent -->
<g id="node1" class="node">
<title>CnsLogoComponent</title>
<polygon fill="#ffffb3" stroke="black" points="1638.17,-84.8 1505.83,-84.8 1505.83,-48.8 1638.17,-48.8 1638.17,-84.8"/>
<text text-anchor="middle" x="1572" y="-62.6" font-family="Times,serif" font-size="14.00">CnsLogoComponent</text>
</g>
<!-- ToolbarModule -->
<g id="node11" class="node">
<title>ToolbarModule</title>
<polygon fill="#8dd3c7" stroke="black" points="899.87,-149.8 896.87,-153.8 875.87,-153.8 872.87,-149.8 796.13,-149.8 796.13,-113.8 899.87,-113.8 899.87,-149.8"/>
<text text-anchor="middle" x="848" y="-127.6" font-family="Times,serif" font-size="14.00">ToolbarModule</text>
</g>
<!-- CnsLogoComponent&#45;&gt;ToolbarModule -->
<g id="edge1" class="edge">
<title>CnsLogoComponent&#45;&gt;ToolbarModule</title>
<path fill="none" stroke="black" d="M1572,-84.81C1572,-107.29 1572,-142.8 1572,-142.8 1572,-142.8 910.07,-142.8 910.07,-142.8"/>
<polygon fill="black" stroke="black" points="910.07,-139.3 900.07,-142.8 910.07,-146.3 910.07,-139.3"/>
</g>
<!-- CnsLogoIconComponent -->
<g id="node2" class="node">
<title>CnsLogoIconComponent</title>
<polygon fill="#ffffb3" stroke="black" points="1487.54,-84.8 1330.46,-84.8 1330.46,-48.8 1487.54,-48.8 1487.54,-84.8"/>
<text text-anchor="middle" x="1409" y="-62.6" font-family="Times,serif" font-size="14.00">CnsLogoIconComponent</text>
</g>
<!-- CnsLogoIconComponent&#45;&gt;ToolbarModule -->
<g id="edge2" class="edge">
<title>CnsLogoIconComponent&#45;&gt;ToolbarModule</title>
<path fill="none" stroke="black" d="M1409,-84.93C1409,-105.37 1409,-135.8 1409,-135.8 1409,-135.8 910.02,-135.8 910.02,-135.8"/>
<polygon fill="black" stroke="black" points="910.02,-132.3 900.02,-135.8 910.02,-139.3 910.02,-132.3"/>
</g>
<!-- GithubIconComponent -->
<g id="node3" class="node">
<title>GithubIconComponent</title>
<polygon fill="#ffffb3" stroke="black" points="1312.6,-84.8 1167.4,-84.8 1167.4,-48.8 1312.6,-48.8 1312.6,-84.8"/>
<text text-anchor="middle" x="1240" y="-62.6" font-family="Times,serif" font-size="14.00">GithubIconComponent</text>
</g>
<!-- GithubIconComponent&#45;&gt;ToolbarModule -->
<g id="edge3" class="edge">
<title>GithubIconComponent&#45;&gt;ToolbarModule</title>
<path fill="none" stroke="black" d="M1240,-85.07C1240,-103.36 1240,-128.8 1240,-128.8 1240,-128.8 910.05,-128.8 910.05,-128.8"/>
<polygon fill="black" stroke="black" points="910.05,-125.3 900.05,-128.8 910.05,-132.3 910.05,-125.3"/>
</g>
<!-- InfoDialogComponent -->
<g id="node4" class="node">
<title>InfoDialogComponent</title>
<polygon fill="#ffffb3" stroke="black" points="1149.26,-84.8 1006.74,-84.8 1006.74,-48.8 1149.26,-48.8 1149.26,-84.8"/>
<text text-anchor="middle" x="1078" y="-62.6" font-family="Times,serif" font-size="14.00">InfoDialogComponent</text>
</g>
<!-- InfoDialogComponent&#45;&gt;ToolbarModule -->
<g id="edge4" class="edge">
<title>InfoDialogComponent&#45;&gt;ToolbarModule</title>
<path fill="none" stroke="black" d="M1078,-84.81C1078,-100.85 1078,-121.8 1078,-121.8 1078,-121.8 909.9,-121.8 909.9,-121.8"/>
<polygon fill="black" stroke="black" points="909.9,-118.3 899.9,-121.8 909.9,-125.3 909.9,-118.3"/>
</g>
<!-- InfoIconComponent -->
<g id="node5" class="node">
<title>InfoIconComponent</title>
<polygon fill="#ffffb3" stroke="black" points="988.53,-84.8 859.47,-84.8 859.47,-48.8 988.53,-48.8 988.53,-84.8"/>
<text text-anchor="middle" x="924" y="-62.6" font-family="Times,serif" font-size="14.00">InfoIconComponent</text>
</g>
<!-- InfoIconComponent&#45;&gt;ToolbarModule -->
<g id="edge5" class="edge">
<title>InfoIconComponent&#45;&gt;ToolbarModule</title>
<path fill="none" stroke="black" d="M879.58,-84.91C879.58,-84.91 879.58,-103.79 879.58,-103.79"/>
<polygon fill="black" stroke="black" points="876.08,-103.79 879.58,-113.79 883.08,-103.79 876.08,-103.79"/>
</g>
<!-- MenuIconComponent -->
<g id="node6" class="node">
<title>MenuIconComponent</title>
<polygon fill="#ffffb3" stroke="black" points="841.37,-84.8 702.63,-84.8 702.63,-48.8 841.37,-48.8 841.37,-84.8"/>
<text text-anchor="middle" x="772" y="-62.6" font-family="Times,serif" font-size="14.00">MenuIconComponent</text>
</g>
<!-- MenuIconComponent&#45;&gt;ToolbarModule -->
<g id="edge6" class="edge">
<title>MenuIconComponent&#45;&gt;ToolbarModule</title>
<path fill="none" stroke="black" d="M818.75,-84.91C818.75,-84.91 818.75,-103.79 818.75,-103.79"/>
<polygon fill="black" stroke="black" points="815.25,-103.79 818.75,-113.79 822.25,-103.79 815.25,-103.79"/>
</g>
<!-- NsfLogoComponent -->
<g id="node7" class="node">
<title>NsfLogoComponent</title>
<polygon fill="#ffffb3" stroke="black" points="684.6,-84.8 553.4,-84.8 553.4,-48.8 684.6,-48.8 684.6,-84.8"/>
<text text-anchor="middle" x="619" y="-62.6" font-family="Times,serif" font-size="14.00">NsfLogoComponent</text>
</g>
<!-- NsfLogoComponent&#45;&gt;ToolbarModule -->
<g id="edge7" class="edge">
<title>NsfLogoComponent&#45;&gt;ToolbarModule</title>
<path fill="none" stroke="black" d="M619,-84.81C619,-100.85 619,-121.8 619,-121.8 619,-121.8 786.04,-121.8 786.04,-121.8"/>
<polygon fill="black" stroke="black" points="786.04,-125.3 796.04,-121.8 786.04,-118.3 786.04,-125.3"/>
</g>
<!-- SiceLogoComponent -->
<g id="node8" class="node">
<title>SiceLogoComponent</title>
<polygon fill="#ffffb3" stroke="black" points="535.49,-84.8 400.51,-84.8 400.51,-48.8 535.49,-48.8 535.49,-84.8"/>
<text text-anchor="middle" x="468" y="-62.6" font-family="Times,serif" font-size="14.00">SiceLogoComponent</text>
</g>
<!-- SiceLogoComponent&#45;&gt;ToolbarModule -->
<g id="edge8" class="edge">
<title>SiceLogoComponent&#45;&gt;ToolbarModule</title>
<path fill="none" stroke="black" d="M468,-85.07C468,-103.36 468,-128.8 468,-128.8 468,-128.8 785.96,-128.8 785.96,-128.8"/>
<polygon fill="black" stroke="black" points="785.96,-132.3 795.96,-128.8 785.96,-125.3 785.96,-132.3"/>
</g>
<!-- SidenavContentComponent -->
<g id="node9" class="node">
<title>SidenavContentComponent</title>
<polygon fill="#ffffb3" stroke="black" points="382.27,-84.8 211.73,-84.8 211.73,-48.8 382.27,-48.8 382.27,-84.8"/>
<text text-anchor="middle" x="297" y="-62.6" font-family="Times,serif" font-size="14.00">SidenavContentComponent</text>
</g>
<!-- SidenavContentComponent&#45;&gt;ToolbarModule -->
<g id="edge9" class="edge">
<title>SidenavContentComponent&#45;&gt;ToolbarModule</title>
<path fill="none" stroke="black" d="M297,-84.93C297,-105.37 297,-135.8 297,-135.8 297,-135.8 785.67,-135.8 785.67,-135.8"/>
<polygon fill="black" stroke="black" points="785.67,-139.3 795.67,-135.8 785.67,-132.3 785.67,-139.3"/>
</g>
<!-- ToolbarContentComponent -->
<g id="node10" class="node">
<title>ToolbarContentComponent</title>
<polygon fill="#ffffb3" stroke="black" points="193.98,-84.8 24.02,-84.8 24.02,-48.8 193.98,-48.8 193.98,-84.8"/>
<text text-anchor="middle" x="109" y="-62.6" font-family="Times,serif" font-size="14.00">ToolbarContentComponent</text>
</g>
<!-- ToolbarContentComponent&#45;&gt;ToolbarModule -->
<g id="edge10" class="edge">
<title>ToolbarContentComponent&#45;&gt;ToolbarModule</title>
<path fill="none" stroke="black" d="M109,-84.81C109,-107.29 109,-142.8 109,-142.8 109,-142.8 786.03,-142.8 786.03,-142.8"/>
<polygon fill="black" stroke="black" points="786.03,-146.3 796.03,-142.8 786.03,-139.3 786.03,-146.3"/>
</g>
</g>
</svg>
