<?xml version="1.0" encoding="UTF-8" standalone="no"?>
<!DOCTYPE svg PUBLIC "-//W3C//DTD SVG 1.1//EN"
 "http://www.w3.org/Graphics/SVG/1.1/DTD/svg11.dtd">
<!-- Generated by graphviz version 2.47.0 (20210316.0004)
 -->
<!-- Title: dependencies Pages: 1 -->
<svg width="1670pt" height="211pt"
 viewBox="0.00 0.00 1670.00 211.00" xmlns="http://www.w3.org/2000/svg" xmlns:xlink="http://www.w3.org/1999/xlink">
<g id="graph0" class="graph" transform="scale(1 1) rotate(0) translate(4 207)">
<title>dependencies</title>
<polygon fill="white" stroke="transparent" points="-4,4 -4,-207 1666,-207 1666,4 -4,4"/>
<text text-anchor="start" x="810.01" y="-42.4" font-family="sans-serif" font-weight="bold" font-size="14.00">Legend</text>
<polygon fill="#ffffb3" stroke="transparent" points="597,-10 597,-30 617,-30 617,-10 597,-10"/>
<text text-anchor="start" x="620.63" y="-15.4" font-family="sans-serif" font-size="14.00"> &#160;Declarations</text>
<polygon fill="#8dd3c7" stroke="transparent" points="710,-10 710,-30 730,-30 730,-10 710,-10"/>
<text text-anchor="start" x="733.73" y="-15.4" font-family="sans-serif" font-size="14.00"> &#160;Module</text>
<polygon fill="#80b1d3" stroke="transparent" points="796,-10 796,-30 816,-30 816,-10 796,-10"/>
<text text-anchor="start" x="819.78" y="-15.4" font-family="sans-serif" font-size="14.00"> &#160;Bootstrap</text>
<polygon fill="#fdb462" stroke="transparent" points="893,-10 893,-30 913,-30 913,-10 893,-10"/>
<text text-anchor="start" x="916.67" y="-15.4" font-family="sans-serif" font-size="14.00"> &#160;Providers</text>
<polygon fill="#fb8072" stroke="transparent" points="989,-10 989,-30 1009,-30 1009,-10 989,-10"/>
<text text-anchor="start" x="1012.73" y="-15.4" font-family="sans-serif" font-size="14.00"> &#160;Exports</text>
<g id="clust1" class="cluster">
<title>cluster_ToolbarModule</title>
<polygon fill="none" stroke="black" stroke-dasharray="1,5" points="8,-70 8,-195 1654,-195 1654,-70 8,-70"/>
</g>
<g id="clust2" class="cluster">
<title>cluster_ToolbarModule_declarations</title>
<polygon fill="none" stroke="black" points="16,-78 16,-130 1646,-130 1646,-78 16,-78"/>
</g>
<!-- CnsLogoComponent -->
<g id="node1" class="node">
<title>CnsLogoComponent</title>
<polygon fill="#ffffb3" stroke="black" points="1638.17,-122 1505.83,-122 1505.83,-86 1638.17,-86 1638.17,-122"/>
<text text-anchor="middle" x="1572" y="-99.8" font-family="Times,serif" font-size="14.00">CnsLogoComponent</text>
</g>
<!-- ToolbarModule -->
<g id="node11" class="node">
<title>ToolbarModule</title>
<polygon fill="#8dd3c7" stroke="black" points="899.87,-187 896.87,-191 875.87,-191 872.87,-187 796.13,-187 796.13,-151 899.87,-151 899.87,-187"/>
<text text-anchor="middle" x="848" y="-164.8" font-family="Times,serif" font-size="14.00">ToolbarModule</text>
</g>
<!-- CnsLogoComponent&#45;&gt;ToolbarModule -->
<g id="edge1" class="edge">
<title>CnsLogoComponent&#45;&gt;ToolbarModule</title>
<path fill="none" stroke="black" d="M1572,-122.01C1572,-144.49 1572,-180 1572,-180 1572,-180 910.07,-180 910.07,-180"/>
<polygon fill="black" stroke="black" points="910.07,-176.5 900.07,-180 910.07,-183.5 910.07,-176.5"/>
</g>
<!-- CnsLogoIconComponent -->
<g id="node2" class="node">
<title>CnsLogoIconComponent</title>
<polygon fill="#ffffb3" stroke="black" points="1487.54,-122 1330.46,-122 1330.46,-86 1487.54,-86 1487.54,-122"/>
<text text-anchor="middle" x="1409" y="-99.8" font-family="Times,serif" font-size="14.00">CnsLogoIconComponent</text>
</g>
<!-- CnsLogoIconComponent&#45;&gt;ToolbarModule -->
<g id="edge2" class="edge">
<title>CnsLogoIconComponent&#45;&gt;ToolbarModule</title>
<path fill="none" stroke="black" d="M1409,-122.13C1409,-142.57 1409,-173 1409,-173 1409,-173 910.02,-173 910.02,-173"/>
<polygon fill="black" stroke="black" points="910.02,-169.5 900.02,-173 910.02,-176.5 910.02,-169.5"/>
</g>
<!-- GithubIconComponent -->
<g id="node3" class="node">
<title>GithubIconComponent</title>
<polygon fill="#ffffb3" stroke="black" points="1312.6,-122 1167.4,-122 1167.4,-86 1312.6,-86 1312.6,-122"/>
<text text-anchor="middle" x="1240" y="-99.8" font-family="Times,serif" font-size="14.00">GithubIconComponent</text>
</g>
<!-- GithubIconComponent&#45;&gt;ToolbarModule -->
<g id="edge3" class="edge">
<title>GithubIconComponent&#45;&gt;ToolbarModule</title>
<path fill="none" stroke="black" d="M1240,-122.27C1240,-140.56 1240,-166 1240,-166 1240,-166 910.05,-166 910.05,-166"/>
<polygon fill="black" stroke="black" points="910.05,-162.5 900.05,-166 910.05,-169.5 910.05,-162.5"/>
</g>
<!-- InfoDialogComponent -->
<g id="node4" class="node">
<title>InfoDialogComponent</title>
<polygon fill="#ffffb3" stroke="black" points="1149.26,-122 1006.74,-122 1006.74,-86 1149.26,-86 1149.26,-122"/>
<text text-anchor="middle" x="1078" y="-99.8" font-family="Times,serif" font-size="14.00">InfoDialogComponent</text>
</g>
<!-- InfoDialogComponent&#45;&gt;ToolbarModule -->
<g id="edge4" class="edge">
<title>InfoDialogComponent&#45;&gt;ToolbarModule</title>
<path fill="none" stroke="black" d="M1078,-122.01C1078,-138.05 1078,-159 1078,-159 1078,-159 909.9,-159 909.9,-159"/>
<polygon fill="black" stroke="black" points="909.9,-155.5 899.9,-159 909.9,-162.5 909.9,-155.5"/>
</g>
<!-- InfoIconComponent -->
<g id="node5" class="node">
<title>InfoIconComponent</title>
<polygon fill="#ffffb3" stroke="black" points="988.53,-122 859.47,-122 859.47,-86 988.53,-86 988.53,-122"/>
<text text-anchor="middle" x="924" y="-99.8" font-family="Times,serif" font-size="14.00">InfoIconComponent</text>
</g>
<!-- InfoIconComponent&#45;&gt;ToolbarModule -->
<g id="edge5" class="edge">
<title>InfoIconComponent&#45;&gt;ToolbarModule</title>
<path fill="none" stroke="black" d="M879.58,-122.11C879.58,-122.11 879.58,-140.99 879.58,-140.99"/>
<polygon fill="black" stroke="black" points="876.08,-140.99 879.58,-150.99 883.08,-140.99 876.08,-140.99"/>
</g>
<!-- MenuIconComponent -->
<g id="node6" class="node">
<title>MenuIconComponent</title>
<polygon fill="#ffffb3" stroke="black" points="841.37,-122 702.63,-122 702.63,-86 841.37,-86 841.37,-122"/>
<text text-anchor="middle" x="772" y="-99.8" font-family="Times,serif" font-size="14.00">MenuIconComponent</text>
</g>
<!-- MenuIconComponent&#45;&gt;ToolbarModule -->
<g id="edge6" class="edge">
<title>MenuIconComponent&#45;&gt;ToolbarModule</title>
<path fill="none" stroke="black" d="M818.75,-122.11C818.75,-122.11 818.75,-140.99 818.75,-140.99"/>
<polygon fill="black" stroke="black" points="815.25,-140.99 818.75,-150.99 822.25,-140.99 815.25,-140.99"/>
</g>
<!-- NsfLogoComponent -->
<g id="node7" class="node">
<title>NsfLogoComponent</title>
<polygon fill="#ffffb3" stroke="black" points="684.6,-122 553.4,-122 553.4,-86 684.6,-86 684.6,-122"/>
<text text-anchor="middle" x="619" y="-99.8" font-family="Times,serif" font-size="14.00">NsfLogoComponent</text>
</g>
<!-- NsfLogoComponent&#45;&gt;ToolbarModule -->
<g id="edge7" class="edge">
<title>NsfLogoComponent&#45;&gt;ToolbarModule</title>
<path fill="none" stroke="black" d="M619,-122.01C619,-138.05 619,-159 619,-159 619,-159 786.04,-159 786.04,-159"/>
<polygon fill="black" stroke="black" points="786.04,-162.5 796.04,-159 786.04,-155.5 786.04,-162.5"/>
</g>
<!-- SiceLogoComponent -->
<g id="node8" class="node">
<title>SiceLogoComponent</title>
<polygon fill="#ffffb3" stroke="black" points="535.49,-122 400.51,-122 400.51,-86 535.49,-86 535.49,-122"/>
<text text-anchor="middle" x="468" y="-99.8" font-family="Times,serif" font-size="14.00">SiceLogoComponent</text>
</g>
<!-- SiceLogoComponent&#45;&gt;ToolbarModule -->
<g id="edge8" class="edge">
<title>SiceLogoComponent&#45;&gt;ToolbarModule</title>
<path fill="none" stroke="black" d="M468,-122.27C468,-140.56 468,-166 468,-166 468,-166 785.96,-166 785.96,-166"/>
<polygon fill="black" stroke="black" points="785.96,-169.5 795.96,-166 785.96,-162.5 785.96,-169.5"/>
</g>
<!-- SidenavContentComponent -->
<g id="node9" class="node">
<title>SidenavContentComponent</title>
<polygon fill="#ffffb3" stroke="black" points="382.27,-122 211.73,-122 211.73,-86 382.27,-86 382.27,-122"/>
<text text-anchor="middle" x="297" y="-99.8" font-family="Times,serif" font-size="14.00">SidenavContentComponent</text>
</g>
<!-- SidenavContentComponent&#45;&gt;ToolbarModule -->
<g id="edge9" class="edge">
<title>SidenavContentComponent&#45;&gt;ToolbarModule</title>
<path fill="none" stroke="black" d="M297,-122.13C297,-142.57 297,-173 297,-173 297,-173 785.67,-173 785.67,-173"/>
<polygon fill="black" stroke="black" points="785.67,-176.5 795.67,-173 785.67,-169.5 785.67,-176.5"/>
</g>
<!-- ToolbarContentComponent -->
<g id="node10" class="node">
<title>ToolbarContentComponent</title>
<polygon fill="#ffffb3" stroke="black" points="193.98,-122 24.02,-122 24.02,-86 193.98,-86 193.98,-122"/>
<text text-anchor="middle" x="109" y="-99.8" font-family="Times,serif" font-size="14.00">ToolbarContentComponent</text>
</g>
<!-- ToolbarContentComponent&#45;&gt;ToolbarModule -->
<g id="edge10" class="edge">
<title>ToolbarContentComponent&#45;&gt;ToolbarModule</title>
<path fill="none" stroke="black" d="M109,-122.01C109,-144.49 109,-180 109,-180 109,-180 786.03,-180 786.03,-180"/>
<polygon fill="black" stroke="black" points="786.03,-183.5 796.03,-180 786.03,-176.5 786.03,-183.5"/>
</g>
</g>
</svg>
