<?xml version="1.0" encoding="UTF-8" standalone="no"?>
<!DOCTYPE svg PUBLIC "-//W3C//DTD SVG 1.1//EN"
 "http://www.w3.org/Graphics/SVG/1.1/DTD/svg11.dtd">
<!-- Generated by graphviz version 2.40.1 (20161225.0304)
 -->
<!-- Title: dependencies Pages: 1 -->
<svg width="1670pt" height="211pt"
 viewBox="0.00 0.00 1670.00 211.00" xmlns="http://www.w3.org/2000/svg" xmlns:xlink="http://www.w3.org/1999/xlink">
<g id="graph0" class="graph" transform="scale(1 1) rotate(0) translate(4 207)">
<title>dependencies</title>
<polygon fill="#ffffff" stroke="transparent" points="-4,4 -4,-207 1666,-207 1666,4 -4,4"/>
<text text-anchor="start" x="810.0091" y="-42.4" font-family="sans-serif" font-weight="bold" font-size="14.00" fill="#000000">Legend</text>
<polygon fill="#ffffb3" stroke="transparent" points="597,-10 597,-30 617,-30 617,-10 597,-10"/>
<text text-anchor="start" x="620.629" y="-15.4" font-family="sans-serif" font-size="14.00" fill="#000000"> &#160;Declarations</text>
<polygon fill="#8dd3c7" stroke="transparent" points="710,-10 710,-30 730,-30 730,-10 710,-10"/>
<text text-anchor="start" x="733.7251" y="-15.4" font-family="sans-serif" font-size="14.00" fill="#000000"> &#160;Module</text>
<polygon fill="#80b1d3" stroke="transparent" points="796,-10 796,-30 816,-30 816,-10 796,-10"/>
<text text-anchor="start" x="819.7812" y="-15.4" font-family="sans-serif" font-size="14.00" fill="#000000"> &#160;Bootstrap</text>
<polygon fill="#fdb462" stroke="transparent" points="893,-10 893,-30 913,-30 913,-10 893,-10"/>
<text text-anchor="start" x="916.6732" y="-15.4" font-family="sans-serif" font-size="14.00" fill="#000000"> &#160;Providers</text>
<polygon fill="#fb8072" stroke="transparent" points="989,-10 989,-30 1009,-30 1009,-10 989,-10"/>
<text text-anchor="start" x="1012.7258" y="-15.4" font-family="sans-serif" font-size="14.00" fill="#000000"> &#160;Exports</text>
<g id="clust1" class="cluster">
<title>cluster_ToolbarModule</title>
<polygon fill="none" stroke="#000000" stroke-dasharray="1,5" points="8,-70 8,-195 1654,-195 1654,-70 8,-70"/>
</g>
<g id="clust2" class="cluster">
<title>cluster_ToolbarModule_declarations</title>
<polygon fill="none" stroke="#000000" points="16,-78 16,-130 1646,-130 1646,-78 16,-78"/>
</g>
<!-- CnsLogoComponent -->
<g id="node1" class="node">
<title>CnsLogoComponent</title>
<polygon fill="#ffffb3" stroke="#000000" points="1638.1666,-122 1505.8334,-122 1505.8334,-86 1638.1666,-86 1638.1666,-122"/>
<text text-anchor="middle" x="1572" y="-99.8" font-family="Times,serif" font-size="14.00" fill="#000000">CnsLogoComponent</text>
</g>
<!-- ToolbarModule -->
<g id="node11" class="node">
<title>ToolbarModule</title>
<polygon fill="#8dd3c7" stroke="#000000" points="899.8683,-187 896.8683,-191 875.8683,-191 872.8683,-187 796.1317,-187 796.1317,-151 899.8683,-151 899.8683,-187"/>
<text text-anchor="middle" x="848" y="-164.8" font-family="Times,serif" font-size="14.00" fill="#000000">ToolbarModule</text>
</g>
<!-- CnsLogoComponent&#45;&gt;ToolbarModule -->
<g id="edge1" class="edge">
<title>CnsLogoComponent&#45;&gt;ToolbarModule</title>
<path fill="none" stroke="#000000" d="M1572,-122.0109C1572,-144.4852 1572,-180 1572,-180 1572,-180 910.0683,-180 910.0683,-180"/>
<polygon fill="#000000" stroke="#000000" points="910.0683,-176.5001 900.0683,-180 910.0683,-183.5001 910.0683,-176.5001"/>
</g>
<!-- CnsLogoIconComponent -->
<g id="node2" class="node">
<title>CnsLogoIconComponent</title>
<polygon fill="#ffffb3" stroke="#000000" points="1487.5421,-122 1330.4579,-122 1330.4579,-86 1487.5421,-86 1487.5421,-122"/>
<text text-anchor="middle" x="1409" y="-99.8" font-family="Times,serif" font-size="14.00" fill="#000000">CnsLogoIconComponent</text>
</g>
<!-- CnsLogoIconComponent&#45;&gt;ToolbarModule -->
<g id="edge2" class="edge">
<title>CnsLogoIconComponent&#45;&gt;ToolbarModule</title>
<path fill="none" stroke="#000000" d="M1409,-122.1289C1409,-142.5724 1409,-173 1409,-173 1409,-173 910.0226,-173 910.0226,-173"/>
<polygon fill="#000000" stroke="#000000" points="910.0226,-169.5001 900.0226,-173 910.0226,-176.5001 910.0226,-169.5001"/>
</g>
<!-- GithubIconComponent -->
<g id="node3" class="node">
<title>GithubIconComponent</title>
<polygon fill="#ffffb3" stroke="#000000" points="1312.5954,-122 1167.4046,-122 1167.4046,-86 1312.5954,-86 1312.5954,-122"/>
<text text-anchor="middle" x="1240" y="-99.8" font-family="Times,serif" font-size="14.00" fill="#000000">GithubIconComponent</text>
</g>
<!-- GithubIconComponent&#45;&gt;ToolbarModule -->
<g id="edge3" class="edge">
<title>GithubIconComponent&#45;&gt;ToolbarModule</title>
<path fill="none" stroke="#000000" d="M1240,-122.2667C1240,-140.5552 1240,-166 1240,-166 1240,-166 910.0546,-166 910.0546,-166"/>
<polygon fill="#000000" stroke="#000000" points="910.0546,-162.5001 900.0546,-166 910.0545,-169.5001 910.0546,-162.5001"/>
</g>
<!-- InfoDialogComponent -->
<g id="node4" class="node">
<title>InfoDialogComponent</title>
<polygon fill="#ffffb3" stroke="#000000" points="1149.2562,-122 1006.7438,-122 1006.7438,-86 1149.2562,-86 1149.2562,-122"/>
<text text-anchor="middle" x="1078" y="-99.8" font-family="Times,serif" font-size="14.00" fill="#000000">InfoDialogComponent</text>
</g>
<!-- InfoDialogComponent&#45;&gt;ToolbarModule -->
<g id="edge4" class="edge">
<title>InfoDialogComponent&#45;&gt;ToolbarModule</title>
<path fill="none" stroke="#000000" d="M1078,-122.0091C1078,-138.0494 1078,-159 1078,-159 1078,-159 909.9033,-159 909.9033,-159"/>
<polygon fill="#000000" stroke="#000000" points="909.9033,-155.5001 899.9033,-159 909.9032,-162.5001 909.9033,-155.5001"/>
</g>
<!-- InfoIconComponent -->
<g id="node5" class="node">
<title>InfoIconComponent</title>
<polygon fill="#ffffb3" stroke="#000000" points="988.5297,-122 859.4703,-122 859.4703,-86 988.5297,-86 988.5297,-122"/>
<text text-anchor="middle" x="924" y="-99.8" font-family="Times,serif" font-size="14.00" fill="#000000">InfoIconComponent</text>
</g>
<!-- InfoIconComponent&#45;&gt;ToolbarModule -->
<g id="edge5" class="edge">
<title>InfoIconComponent&#45;&gt;ToolbarModule</title>
<path fill="none" stroke="#000000" d="M879.5849,-122.1061C879.5849,-122.1061 879.5849,-140.991 879.5849,-140.991"/>
<polygon fill="#000000" stroke="#000000" points="876.0849,-140.9909 879.5849,-150.991 883.0849,-140.991 876.0849,-140.9909"/>
</g>
<!-- MenuIconComponent -->
<g id="node6" class="node">
<title>MenuIconComponent</title>
<polygon fill="#ffffb3" stroke="#000000" points="841.3669,-122 702.6331,-122 702.6331,-86 841.3669,-86 841.3669,-122"/>
<text text-anchor="middle" x="772" y="-99.8" font-family="Times,serif" font-size="14.00" fill="#000000">MenuIconComponent</text>
</g>
<!-- MenuIconComponent&#45;&gt;ToolbarModule -->
<g id="edge6" class="edge">
<title>MenuIconComponent&#45;&gt;ToolbarModule</title>
<path fill="none" stroke="#000000" d="M818.7497,-122.1061C818.7497,-122.1061 818.7497,-140.991 818.7497,-140.991"/>
<polygon fill="#000000" stroke="#000000" points="815.2497,-140.9909 818.7497,-150.991 822.2497,-140.991 815.2497,-140.9909"/>
</g>
<!-- NsfLogoComponent -->
<g id="node7" class="node">
<title>NsfLogoComponent</title>
<polygon fill="#ffffb3" stroke="#000000" points="684.5968,-122 553.4032,-122 553.4032,-86 684.5968,-86 684.5968,-122"/>
<text text-anchor="middle" x="619" y="-99.8" font-family="Times,serif" font-size="14.00" fill="#000000">NsfLogoComponent</text>
</g>
<!-- NsfLogoComponent&#45;&gt;ToolbarModule -->
<g id="edge7" class="edge">
<title>NsfLogoComponent&#45;&gt;ToolbarModule</title>
<path fill="none" stroke="#000000" d="M619,-122.0091C619,-138.0494 619,-159 619,-159 619,-159 786.0364,-159 786.0364,-159"/>
<polygon fill="#000000" stroke="#000000" points="786.0364,-162.5001 796.0364,-159 786.0363,-155.5001 786.0364,-162.5001"/>
</g>
<!-- SiceLogoComponent -->
<g id="node8" class="node">
<title>SiceLogoComponent</title>
<polygon fill="#ffffb3" stroke="#000000" points="535.4874,-122 400.5126,-122 400.5126,-86 535.4874,-86 535.4874,-122"/>
<text text-anchor="middle" x="468" y="-99.8" font-family="Times,serif" font-size="14.00" fill="#000000">SiceLogoComponent</text>
</g>
<!-- SiceLogoComponent&#45;&gt;ToolbarModule -->
<g id="edge8" class="edge">
<title>SiceLogoComponent&#45;&gt;ToolbarModule</title>
<path fill="none" stroke="#000000" d="M468,-122.2667C468,-140.5552 468,-166 468,-166 468,-166 785.9594,-166 785.9594,-166"/>
<polygon fill="#000000" stroke="#000000" points="785.9594,-169.5001 795.9594,-166 785.9594,-162.5001 785.9594,-169.5001"/>
</g>
<!-- SidenavContentComponent -->
<g id="node9" class="node">
<title>SidenavContentComponent</title>
<polygon fill="#ffffb3" stroke="#000000" points="382.2674,-122 211.7326,-122 211.7326,-86 382.2674,-86 382.2674,-122"/>
<text text-anchor="middle" x="297" y="-99.8" font-family="Times,serif" font-size="14.00" fill="#000000">SidenavContentComponent</text>
</g>
<!-- SidenavContentComponent&#45;&gt;ToolbarModule -->
<g id="edge9" class="edge">
<title>SidenavContentComponent&#45;&gt;ToolbarModule</title>
<path fill="none" stroke="#000000" d="M297,-122.1289C297,-142.5724 297,-173 297,-173 297,-173 785.6665,-173 785.6665,-173"/>
<polygon fill="#000000" stroke="#000000" points="785.6665,-176.5001 795.6665,-173 785.6665,-169.5001 785.6665,-176.5001"/>
</g>
<!-- ToolbarContentComponent -->
<g id="node10" class="node">
<title>ToolbarContentComponent</title>
<polygon fill="#ffffb3" stroke="#000000" points="193.9832,-122 24.0168,-122 24.0168,-86 193.9832,-86 193.9832,-122"/>
<text text-anchor="middle" x="109" y="-99.8" font-family="Times,serif" font-size="14.00" fill="#000000">ToolbarContentComponent</text>
</g>
<!-- ToolbarContentComponent&#45;&gt;ToolbarModule -->
<g id="edge10" class="edge">
<title>ToolbarContentComponent&#45;&gt;ToolbarModule</title>
<path fill="none" stroke="#000000" d="M109,-122.0109C109,-144.4852 109,-180 109,-180 109,-180 786.035,-180 786.035,-180"/>
<polygon fill="#000000" stroke="#000000" points="786.035,-183.5001 796.035,-180 786.0349,-176.5001 786.035,-183.5001"/>
</g>
</g>
</svg>
